<svg width="72" height="72" viewBox="0 0 72 72" fill="none" xmlns="http://www.w3.org/2000/svg">
<rect width="72" height="72" rx="8" fill="#F3F6FF"/>
<g clip-path="url(#clip0_20005153_3383)">
<path d="M52.6038 39.9511C52.2804 39.1512 51.3696 38.7646 50.5696 39.0882C49.7695 39.4116 49.3831 40.3223 49.7066 41.1224L51.5468 45.6744L46.0813 43.2651C45.6857 43.0907 45.2355 43.088 44.8378 43.2577C42.97 44.0546 40.9691 44.4587 38.8906 44.4587C30.5256 44.4587 24.9063 37.9091 24.9063 31.7918C24.9063 24.8073 31.1796 19.125 38.8906 19.125C46.6016 19.125 52.875 24.8073 52.875 31.7918C52.875 32.3368 52.8242 32.9893 52.7358 33.5819C52.6085 34.4354 53.1972 35.2305 54.0507 35.3579C54.9043 35.4855 55.6994 34.8965 55.8266 34.043C55.9384 33.2938 56 32.4943 56 31.7918C56 27.5473 54.2026 23.5647 50.9388 20.5776C47.7137 17.6257 43.4348 16 38.8906 16C34.3464 16 30.0677 17.6257 26.8425 20.5775C23.9259 23.2469 22.1815 26.7115 21.8432 30.4474C18.1747 32.8768 16.0001 36.7696 16.0001 40.9628C16.0001 43.5822 16.8253 46.0675 18.3961 48.2063L16.114 53.8518C15.8756 54.4413 16.0183 55.1166 16.475 55.5592C16.7726 55.8478 17.1647 56 17.5629 56C17.7756 55.9999 17.9901 55.9566 18.1928 55.8672L24.7732 52.9664C26.4285 53.5826 28.1782 53.8945 29.9843 53.8945C30.0234 53.8945 30.0617 53.8915 30.1001 53.8887C32.7124 53.8689 35.252 53.1818 37.4515 51.8959C39.4216 50.7441 41.0423 49.1617 42.1784 47.2931C43.2877 47.0938 44.372 46.7929 45.4243 46.3906L53.8072 50.0859C54.0099 50.1752 54.2244 50.2188 54.4371 50.2188C54.8353 50.2187 55.2275 50.0665 55.5251 49.778C55.9817 49.3353 56.1244 48.6602 55.8861 48.0706L52.6038 39.9511ZM29.9845 50.7656C29.9632 50.7656 29.9424 50.7679 29.9212 50.7688C28.3257 50.7606 26.7901 50.447 25.356 49.8352C24.9584 49.6654 24.5082 49.6681 24.1125 49.8426L20.4534 51.4556L21.6338 48.5356C21.852 47.9959 21.7519 47.3795 21.3743 46.9364C19.9028 45.2101 19.125 43.1446 19.125 40.9628C19.125 38.4659 20.1754 36.1 22.0132 34.3061C22.5854 37.4253 24.1999 40.409 26.6353 42.7529C29.6658 45.6696 33.6744 47.3592 38.0029 47.5627C35.9707 49.5631 33.0626 50.7656 29.9845 50.7656Z" fill="#6366F1"/>
<path d="M38.8125 33.4219C39.6754 33.4219 40.375 32.7223 40.375 31.8594C40.375 30.9964 39.6754 30.2969 38.8125 30.2969C37.9496 30.2969 37.25 30.9964 37.25 31.8594C37.25 32.7223 37.9496 33.4219 38.8125 33.4219Z" fill="#D946EF"/>
<path d="M45.0625 33.4219C45.9254 33.4219 46.625 32.7223 46.625 31.8594C46.625 30.9964 45.9254 30.2969 45.0625 30.2969C44.1996 30.2969 43.5 30.9964 43.5 31.8594C43.5 32.7223 44.1996 33.4219 45.0625 33.4219Z" fill="#D946EF"/>
<path d="M32.5625 33.4219C33.4254 33.4219 34.125 32.7223 34.125 31.8594C34.125 30.9964 33.4254 30.2969 32.5625 30.2969C31.6996 30.2969 31 30.9964 31 31.8594C31 32.7223 31.6996 33.4219 32.5625 33.4219Z" fill="#D946EF"/>
</g>
<defs>
<clipPath id="clip0_20005153_3383">
<rect width="40" height="40" fill="white" transform="translate(16 16)"/>
</clipPath>
</defs>
</svg>
