<svg width="72" height="72" viewBox="0 0 72 72" fill="none" xmlns="http://www.w3.org/2000/svg">
<rect width="72" height="72" rx="8" fill="#F3F6FF"/>
<path d="M44.0518 45.1406H39.4424C38.5794 45.1406 37.8799 45.8402 37.8799 46.7031C37.8799 47.5661 38.5794 48.2656 39.4424 48.2656H44.0518C44.9147 48.2656 45.6143 47.5661 45.6143 46.7031C45.6143 45.8402 44.9147 45.1406 44.0518 45.1406Z" fill="#6366F1"/>
<path d="M44.0518 35.6875H39.4424C38.5794 35.6875 37.8799 36.387 37.8799 37.25C37.8799 38.113 38.5794 38.8125 39.4424 38.8125H44.0518C44.9147 38.8125 45.6143 38.113 45.6143 37.25C45.6143 36.387 44.9147 35.6875 44.0518 35.6875Z" fill="#6366F1"/>
<path d="M50.2931 43.5C51.1561 43.5 51.8556 42.8005 51.8556 41.9375V22.25C51.8556 18.8038 49.0518 16 45.6056 16H26.3955C22.9493 16 20.1455 18.8038 20.1455 22.25V49.75C20.1455 53.1963 22.9493 56 26.3955 56H45.6055C49.0518 56 51.8555 53.1963 51.8556 49.75C51.8556 48.887 51.1561 48.1875 50.2931 48.1875C49.4301 48.1875 48.7306 48.887 48.7306 49.75C48.7306 51.4731 47.3287 52.875 45.6056 52.875H26.3955C24.6724 52.875 23.2705 51.4731 23.2705 49.75V22.25C23.2705 20.5269 24.6724 19.125 26.3955 19.125H45.6056C47.3287 19.125 48.7306 20.5269 48.7306 22.25V41.9375C48.7306 42.8005 49.4301 43.5 50.2931 43.5Z" fill="#6366F1"/>
<path d="M35.9844 22.2176C35.3193 21.668 34.3343 21.7616 33.7847 22.4269L30.4093 26.5123L29.0775 25.1446C28.4755 24.5264 27.4862 24.5132 26.8679 25.1152C26.2497 25.7173 26.2365 26.7065 26.8385 27.3248L28.5146 29.0461C28.5285 29.0603 28.5425 29.0742 28.5569 29.0879C29.0634 29.57 29.7394 29.8381 30.4348 29.8381C30.4945 29.838 30.5546 29.836 30.6146 29.8319C31.3681 29.7817 32.0718 29.417 32.5473 28.8308L36.1938 24.4173C36.7435 23.752 36.6497 22.7672 35.9844 22.2176Z" fill="#D946EF"/>
<path d="M35.9844 41.2681C35.3193 40.7185 34.3343 40.8122 33.7847 41.4774L30.4084 45.5639L29.0744 44.2016C28.4706 43.585 27.4813 43.5747 26.8648 44.1785C26.2482 44.7822 26.2379 45.7715 26.8416 46.3881L28.5177 48.0997C28.5305 48.1128 28.5435 48.1256 28.5568 48.1383C29.0633 48.6204 29.7394 48.8886 30.4348 48.8886C30.4946 48.8885 30.5546 48.8865 30.6146 48.8825C31.368 48.8323 32.0717 48.4676 32.5473 47.8814L36.1938 43.4678C36.7435 42.8025 36.6497 41.8177 35.9844 41.2681Z" fill="#D946EF"/>
<path d="M44.0518 26.0781H39.4424C38.5794 26.0781 37.8799 26.7777 37.8799 27.6406C37.8799 28.5036 38.5794 29.2031 39.4424 29.2031H44.0518C44.9147 29.2031 45.6143 28.5036 45.6143 27.6406C45.6143 26.7777 44.9147 26.0781 44.0518 26.0781Z" fill="#6366F1"/>
<path d="M35.9844 31.8189C35.3193 31.2693 34.3343 31.363 33.7847 32.0283L30.4084 36.1147L29.0744 34.7524C28.4706 34.1358 27.4813 34.1255 26.8648 34.7293C26.2482 35.333 26.2379 36.3223 26.8416 36.9389L28.5177 38.6505C28.5305 38.6636 28.5435 38.6765 28.5568 38.6891C29.0633 39.1712 29.7394 39.4394 30.4348 39.4394C30.4946 39.4393 30.5546 39.4373 30.6146 39.4333C31.368 39.3831 32.0717 39.0184 32.5473 38.4322L36.1938 34.0187C36.7435 33.3533 36.6497 32.3685 35.9844 31.8189Z" fill="#D946EF"/>
</svg>
