<svg width="113" height="44" viewBox="0 0 113 44" fill="none" xmlns="http://www.w3.org/2000/svg">
<path d="M33.5996 16.8112H36.3335V27.425H33.5996V16.8112ZM37.4179 23.4175C37.4179 20.7925 39.0947 19.2262 41.6828 19.2262C44.2708 19.2262 45.9476 20.7925 45.9476 23.4175C45.9476 26.0425 44.3073 27.6175 41.6828 27.6175C39.0582 27.6175 37.4179 26.0862 37.4179 23.4175ZM43.2046 23.4175C43.2046 21.9737 42.6123 21.125 41.6828 21.125C40.7532 21.125 40.17 22 40.17 23.4175C40.17 24.835 40.7441 25.6925 41.6828 25.6925C42.6214 25.6925 43.2046 24.8875 43.2046 23.4262V23.4175ZM46.9774 27.9412H49.6019C49.7268 28.2077 49.938 28.4283 50.204 28.5702C50.47 28.712 50.7766 28.7677 51.0782 28.7287C52.117 28.7287 52.6638 28.1862 52.6638 27.3987V25.9287H52.6091C52.3913 26.3793 52.0378 26.7567 51.5944 27.0126C51.151 27.2684 50.6378 27.3907 50.1213 27.3637C48.1256 27.3637 46.8042 25.9025 46.8042 23.3912C46.8042 20.88 48.0618 19.2962 50.1578 19.2962C50.6905 19.2762 51.2169 19.413 51.6664 19.6881C52.1159 19.9634 52.4671 20.364 52.6729 20.8362V19.375H55.4068V27.3375C55.4068 29.2537 53.648 30.4437 51.0508 30.4437C48.6359 30.4437 47.1323 29.4025 46.9774 27.95V27.9412ZM52.6729 23.4087C52.6729 22.1312 52.0624 21.3262 51.0964 21.3262C50.1304 21.3262 49.5381 22.1225 49.5381 23.4087C49.5381 24.695 50.1213 25.4212 51.0964 25.4212C52.0715 25.4212 52.6729 24.7125 52.6729 23.4175V23.4087ZM56.4365 23.4087C56.4365 20.7837 58.1133 19.2175 60.7014 19.2175C63.2894 19.2175 64.9753 20.7837 64.9753 23.4087C64.9753 26.0337 63.335 27.6087 60.7014 27.6087C58.0678 27.6087 56.4365 26.0862 56.4365 23.4175V23.4087ZM62.2232 23.4087C62.2232 21.965 61.6309 21.1162 60.7014 21.1162C59.7719 21.1162 59.2342 22 59.2342 23.4262C59.2342 24.8525 59.8083 25.7012 60.7378 25.7012C61.6674 25.7012 62.2232 24.8875 62.2232 23.4262V23.4087ZM66.0142 17.4675C66.007 17.2024 66.082 16.9413 66.2295 16.7173C66.3772 16.4932 66.5907 16.3162 66.8431 16.2088C67.0955 16.1014 67.3755 16.0684 67.6475 16.1139C67.9195 16.1594 68.1713 16.2815 68.371 16.4646C68.5707 16.6478 68.7093 16.8837 68.7691 17.1425C68.829 17.4013 68.8075 17.6714 68.7073 17.9185C68.6071 18.1655 68.4328 18.3784 68.2064 18.5303C67.9801 18.6821 67.7118 18.766 67.4358 18.7712C67.2528 18.7833 67.0692 18.7589 66.8965 18.6996C66.7237 18.6402 66.5657 18.5473 66.4322 18.4265C66.2987 18.3057 66.1926 18.1597 66.1207 17.9976C66.0487 17.8357 66.0125 17.6611 66.0142 17.485V17.4675ZM66.0142 19.3925H68.7481V27.425H66.0142V19.3925ZM78.672 23.4087C78.672 26.0337 77.46 27.53 75.3823 27.53C74.8495 27.5628 74.3191 27.4378 73.8627 27.1718C73.4063 26.9057 73.0461 26.5115 72.8307 26.0425H72.776V29.9975H70.0421V19.375H72.776V20.81H72.8307C73.0361 20.3332 73.3895 19.9288 73.8427 19.6517C74.296 19.3745 74.8272 19.2382 75.364 19.2612C77.46 19.2962 78.7085 20.8012 78.7085 23.4262L78.672 23.4087ZM75.9382 23.4087C75.9382 22.1312 75.3276 21.3175 74.3707 21.3175C73.4139 21.3175 72.8033 22.14 72.7942 23.4087C72.7851 24.6775 73.4139 25.4912 74.3707 25.4912C75.3276 25.4912 75.9382 24.695 75.9382 23.4262V23.4087ZM83.3652 19.2087C85.6343 19.2087 87.0103 20.2412 87.0741 21.895H84.5863C84.5863 21.3262 84.0942 20.9675 83.3378 20.9675C82.5815 20.9675 82.2443 21.2475 82.2443 21.6587C82.2443 22.07 82.545 22.2012 83.1556 22.3237L84.9053 22.665C86.5729 23.0062 87.2837 23.6537 87.2837 24.87C87.2837 26.5325 85.7072 27.6 83.3834 27.6C81.0596 27.6 79.5378 26.5325 79.4193 24.8962H82.0529C82.1349 25.4912 82.627 25.8412 83.429 25.8412C84.2309 25.8412 84.5954 25.5875 84.5954 25.1675C84.5954 24.7475 84.3403 24.66 83.6841 24.5287L82.1076 24.205C80.4764 23.8812 79.6198 23.05 79.6198 21.825C79.638 20.25 81.1052 19.2262 83.3652 19.2262V19.2087ZM96.4057 27.4075H93.7721V25.9112H93.7174C93.5725 26.4136 93.2536 26.8533 92.8125 27.1573C92.3715 27.4613 91.8356 27.6114 91.2934 27.5825C90.878 27.6051 90.4625 27.542 90.0747 27.3972C89.687 27.2523 89.3361 27.0294 89.0459 26.7432C88.7556 26.4571 88.5326 26.1143 88.3922 25.7383C88.2517 25.3623 88.1969 24.9618 88.2315 24.5637V19.375H90.9653V23.96C90.9653 24.9137 91.4757 25.4212 92.3232 25.4212C92.5218 25.4216 92.7187 25.3812 92.9 25.3028C93.0804 25.2243 93.2426 25.1095 93.3739 24.9661C93.5042 24.8227 93.6026 24.6541 93.66 24.4716C93.7174 24.289 93.7347 24.0967 93.7083 23.9075V19.375H96.4422L96.4057 27.4075ZM97.7271 19.375H100.37V20.9237H100.425C100.569 20.428 100.882 19.9925 101.312 19.6853C101.742 19.3782 102.267 19.2167 102.803 19.2262C103.349 19.1843 103.89 19.341 104.321 19.6653C104.751 19.9896 105.039 20.4575 105.127 20.9762H105.181C105.346 20.452 105.689 19.9956 106.155 19.6788C106.619 19.3619 107.182 19.2027 107.751 19.2262C108.123 19.2142 108.493 19.2775 108.838 19.4119C109.183 19.5462 109.494 19.7488 109.752 20.0062C110.009 20.2637 110.208 20.5704 110.335 20.9063C110.461 21.2422 110.513 21.6 110.485 21.9562V27.425H107.751V22.6562C107.751 21.7812 107.341 21.3787 106.576 21.3787C106.405 21.3773 106.236 21.4111 106.08 21.4778C105.924 21.5445 105.785 21.6425 105.672 21.7652C105.559 21.888 105.474 22.0325 105.424 22.1892C105.374 22.346 105.36 22.5112 105.382 22.6737V27.425H102.785V22.6212C102.785 21.8162 102.375 21.3787 101.627 21.3787C101.455 21.3788 101.284 21.414 101.127 21.482C100.969 21.5501 100.828 21.6494 100.714 21.7734C100.599 21.8973 100.514 22.0433 100.462 22.2016C100.411 22.3598 100.394 22.5266 100.415 22.6912V27.425H97.6815L97.7271 19.375Z" fill="#B4B7C9"/>
<path d="M25.9536 17.2925C25.4899 16.2743 24.8761 15.3255 24.131 14.475C23.0297 13.1803 21.6553 12.1242 20.0983 11.3763C18.5413 10.6284 16.8369 10.2055 15.0974 10.1356C13.3579 10.0657 11.6228 10.3503 10.006 10.9706C8.38938 11.591 6.92785 12.5331 5.71768 13.7349C4.50751 14.9367 3.57613 16.3709 2.98483 17.9433C2.39354 19.5156 2.15574 21.1903 2.2871 22.8572C2.41846 24.5241 2.91598 26.1454 3.74693 27.6144C4.57788 29.0834 5.72342 30.3668 7.10814 31.38C7.99665 32.0432 8.97843 32.5823 10.0243 32.9813C11.4905 33.5583 13.0599 33.8554 14.6445 33.8563C17.9155 33.8494 21.0501 32.5974 23.3615 30.3749C25.6727 28.1524 26.9719 25.1408 26.9743 22C26.9766 20.38 26.6292 18.7771 25.9536 17.2925ZM14.6354 12.5413C16.0585 12.5411 17.4643 12.8398 18.7544 13.4163C18.4398 13.5468 18.109 13.638 17.7702 13.6875C16.6554 13.8425 15.6226 14.3395 14.826 15.1043C14.0295 15.8691 13.5119 16.8608 13.3505 17.9313C13.2797 18.5316 12.9952 19.0901 12.5453 19.5126C12.0954 19.935 11.5076 20.1954 10.8809 20.25C9.766 20.405 8.73321 20.902 7.93666 21.6668C7.14011 22.4317 6.62251 23.4233 6.46112 24.4938C6.40648 25.0646 6.15283 25.6011 5.74121 26.0163C5.03099 24.5754 4.71195 22.9854 4.81376 21.3943C4.91557 19.8032 5.43492 18.2626 6.32349 16.916C7.21206 15.5695 8.44097 14.4606 9.89586 13.6926C11.3507 12.9247 12.9843 12.5226 14.6445 12.5238L14.6354 12.5413ZM7.09903 28.125C7.20838 28.0288 7.31774 27.9413 7.42709 27.8363C8.23782 27.0816 8.75822 26.0853 8.90338 25.01C8.96223 24.4056 9.24329 23.841 9.6962 23.4175C10.1321 22.982 10.7187 22.7143 11.3456 22.665C12.4605 22.5101 13.4933 22.0131 14.2898 21.2482C15.0864 20.4834 15.604 19.4918 15.7654 18.4213C15.8048 17.7891 16.0873 17.1935 16.5582 16.75C17.0048 16.3229 17.597 16.065 18.2259 16.0238C19.2501 15.8885 20.2053 15.4513 20.9597 14.7725C21.8188 15.4568 22.5466 16.2801 23.1104 17.205C23.0758 17.2499 23.036 17.291 22.9919 17.3275C22.557 17.767 21.9711 18.0405 21.3425 18.0975C20.2264 18.2498 19.1921 18.7459 18.395 19.5112C17.598 20.2765 17.0813 21.2697 16.9227 22.3413C16.8585 22.9436 16.5794 23.5062 16.1326 23.9335C15.6858 24.361 15.099 24.6269 14.4714 24.6863C13.3532 24.84 12.3166 25.3361 11.5154 26.1005C10.7143 26.8651 10.1913 27.8574 10.0243 28.93C9.97523 29.3576 9.82223 29.7683 9.57773 30.1288C8.64275 29.5957 7.80536 28.9188 7.09903 28.125ZM14.6354 31.5025C13.7107 31.5035 12.7904 31.3798 11.9015 31.135C12.2056 30.5908 12.4033 29.9976 12.4847 29.385C12.5486 28.784 12.8265 28.2225 13.2714 27.7953C13.7163 27.3682 14.301 27.1014 14.927 27.04C16.0435 26.8868 17.0784 26.3906 17.8768 25.6256C18.675 24.8607 19.194 23.868 19.3559 22.7963C19.4198 22.1952 19.6976 21.6338 20.1425 21.2066C20.5874 20.7794 21.1722 20.5126 21.7981 20.4513C22.6383 20.3464 23.4392 20.046 24.131 19.5763C24.5152 20.9744 24.5607 22.4385 24.2641 23.8562C23.9675 25.2738 23.3365 26.6075 22.4197 27.7547C21.503 28.9019 20.3248 29.8322 18.9753 30.4743C17.626 31.1164 16.1414 31.4532 14.6354 31.4588V31.5025Z" fill="#B4B7C9"/>
</svg>
