<svg width="306" height="205" viewBox="0 0 306 205" fill="none" xmlns="http://www.w3.org/2000/svg">
<rect width="306" height="205" rx="8" fill="white"/>
<path d="M51.9997 34.827C57.2574 34.827 60.8041 37.0981 62.8263 38.9959L70.7285 31.2804C65.8752 26.7693 59.5597 24.0004 51.9997 24.0004C41.0486 24.0004 31.5908 30.2848 26.9863 39.4315L36.0397 46.4626C38.3108 39.7115 44.5952 34.827 51.9997 34.827Z" fill="#EA4335"/>
<path d="M78.88 52.6232C78.88 50.321 78.6933 48.641 78.2889 46.8988H52V57.2899H67.4311C67.12 59.8721 65.44 63.761 61.7067 66.3744L70.5422 73.2188C75.8311 68.3344 78.88 61.1477 78.88 52.6232Z" fill="#4285F4"/>
<path d="M36.0711 57.5405C35.48 55.7983 35.1378 53.9316 35.1378 52.0027C35.1378 50.0738 35.48 48.2072 36.04 46.4649L26.9867 39.4338C25.0889 43.2294 24 47.4916 24 52.0027C24 56.5138 25.0889 60.7761 26.9867 64.5716L36.0711 57.5405Z" fill="#FBBC05"/>
<path d="M51.9998 80.0017C59.5598 80.0017 65.9065 77.5128 70.542 73.2194L61.7065 66.375C59.342 68.0239 56.1687 69.175 51.9998 69.175C44.5954 69.175 38.3109 64.2905 36.0709 57.5394L27.0176 64.5705C31.622 73.7172 41.0487 80.0017 51.9998 80.0017Z" fill="#34A853"/>
<path d="M25.28 121V109.48H26.456V119.872H31.928V121H25.28ZM36.8999 121.24C36.0412 121.24 35.3079 121.045 34.6999 120.656C34.0919 120.267 33.6252 119.728 33.2999 119.04C32.9745 118.352 32.8119 117.563 32.8119 116.672C32.8119 115.765 32.9772 114.971 33.3079 114.288C33.6385 113.605 34.1079 113.075 34.7159 112.696C35.3292 112.312 36.0572 112.12 36.8999 112.12C37.7639 112.12 38.4999 112.315 39.1079 112.704C39.7212 113.088 40.1879 113.624 40.5079 114.312C40.8332 114.995 40.9959 115.781 40.9959 116.672C40.9959 117.579 40.8332 118.376 40.5079 119.064C40.1825 119.747 39.7132 120.28 39.0999 120.664C38.4865 121.048 37.7532 121.24 36.8999 121.24ZM36.8999 120.112C37.8599 120.112 38.5745 119.795 39.0439 119.16C39.5132 118.52 39.7479 117.691 39.7479 116.672C39.7479 115.627 39.5105 114.795 39.0359 114.176C38.5665 113.557 37.8545 113.248 36.8999 113.248C36.2545 113.248 35.7212 113.395 35.2999 113.688C34.8839 113.976 34.5719 114.379 34.3639 114.896C34.1612 115.408 34.0599 116 34.0599 116.672C34.0599 117.712 34.2999 118.547 34.7799 119.176C35.2599 119.8 35.9665 120.112 36.8999 120.112ZM42.7606 121V112.36H43.8166V114.44L43.6086 114.168C43.7046 113.912 43.83 113.677 43.9846 113.464C44.1393 113.245 44.3073 113.067 44.4886 112.928C44.7126 112.731 44.974 112.581 45.2726 112.48C45.5713 112.373 45.8726 112.312 46.1766 112.296C46.4806 112.275 46.758 112.296 47.0086 112.36V113.464C46.694 113.384 46.35 113.365 45.9766 113.408C45.6033 113.451 45.2593 113.6 44.9446 113.856C44.6566 114.08 44.4406 114.349 44.2966 114.664C44.1526 114.973 44.0566 115.304 44.0086 115.656C43.9606 116.003 43.9366 116.347 43.9366 116.688V121H42.7606ZM52.026 121.24C51.1833 121.24 50.4527 121.053 49.834 120.68C49.2207 120.307 48.7433 119.781 48.402 119.104C48.0607 118.427 47.89 117.632 47.89 116.72C47.89 115.776 48.058 114.96 48.394 114.272C48.73 113.584 49.202 113.053 49.81 112.68C50.4233 112.307 51.146 112.12 51.978 112.12C52.8313 112.12 53.5593 112.317 54.162 112.712C54.7647 113.101 55.2207 113.661 55.53 114.392C55.8393 115.123 55.9807 115.995 55.954 117.008H54.754V116.592C54.7327 115.472 54.49 114.627 54.026 114.056C53.5673 113.485 52.8953 113.2 52.01 113.2C51.082 113.2 50.37 113.501 49.874 114.104C49.3833 114.707 49.138 115.565 49.138 116.68C49.138 117.768 49.3833 118.613 49.874 119.216C50.37 119.813 51.0713 120.112 51.978 120.112C52.5967 120.112 53.1353 119.971 53.594 119.688C54.058 119.4 54.4233 118.987 54.69 118.448L55.786 118.872C55.4447 119.624 54.9407 120.208 54.274 120.624C53.6127 121.035 52.8633 121.24 52.026 121.24ZM48.722 117.008V116.024H55.322V117.008H48.722ZM67.799 121L67.807 115.328C67.807 114.661 67.6203 114.139 67.247 113.76C66.879 113.376 66.4097 113.184 65.839 113.184C65.5137 113.184 65.1963 113.259 64.887 113.408C64.5777 113.557 64.3217 113.797 64.119 114.128C63.9217 114.459 63.823 114.891 63.823 115.424L63.127 115.224C63.111 114.605 63.231 114.064 63.487 113.6C63.7483 113.136 64.1057 112.776 64.559 112.52C65.0177 112.259 65.535 112.128 66.111 112.128C66.9803 112.128 67.6763 112.397 68.199 112.936C68.7217 113.469 68.983 114.192 68.983 115.104L68.975 121H67.799ZM57.487 121V112.36H58.543V114.488H58.671V121H57.487ZM62.655 121L62.663 115.408C62.663 114.72 62.479 114.179 62.111 113.784C61.7483 113.384 61.2683 113.184 60.671 113.184C60.0737 113.184 59.591 113.389 59.223 113.8C58.855 114.205 58.671 114.747 58.671 115.424L57.967 115.04C57.967 114.485 58.0977 113.989 58.359 113.552C58.6203 113.109 58.9777 112.763 59.431 112.512C59.8843 112.256 60.399 112.128 60.975 112.128C61.5243 112.128 62.0123 112.245 62.439 112.48C62.871 112.715 63.2097 113.056 63.455 113.504C63.7003 113.952 63.823 114.496 63.823 115.136L63.815 121H62.655ZM84.5646 121L84.5726 115.328C84.5726 114.661 84.386 114.139 84.0126 113.76C83.6446 113.376 83.1753 113.184 82.6046 113.184C82.2793 113.184 81.962 113.259 81.6526 113.408C81.3433 113.557 81.0873 113.797 80.8846 114.128C80.6873 114.459 80.5886 114.891 80.5886 115.424L79.8926 115.224C79.8766 114.605 79.9966 114.064 80.2526 113.6C80.514 113.136 80.8713 112.776 81.3246 112.52C81.7833 112.259 82.3006 112.128 82.8766 112.128C83.746 112.128 84.442 112.397 84.9646 112.936C85.4873 113.469 85.7486 114.192 85.7486 115.104L85.7406 121H84.5646ZM74.2526 121V112.36H75.3086V114.488H75.4366V121H74.2526ZM79.4206 121L79.4286 115.408C79.4286 114.72 79.2446 114.179 78.8766 113.784C78.514 113.384 78.034 113.184 77.4366 113.184C76.8393 113.184 76.3566 113.389 75.9886 113.8C75.6206 114.205 75.4366 114.747 75.4366 115.424L74.7326 115.04C74.7326 114.485 74.8633 113.989 75.1246 113.552C75.386 113.109 75.7433 112.763 76.1966 112.512C76.65 112.256 77.1646 112.128 77.7406 112.128C78.29 112.128 78.778 112.245 79.2046 112.48C79.6366 112.715 79.9753 113.056 80.2206 113.504C80.466 113.952 80.5886 114.496 80.5886 115.136L80.5806 121H79.4206ZM90.2951 121.24C89.6445 121.24 89.0978 121.123 88.6551 120.888C88.2178 120.653 87.8898 120.341 87.6711 119.952C87.4525 119.563 87.3431 119.139 87.3431 118.68C87.3431 118.211 87.4365 117.811 87.6231 117.48C87.8151 117.144 88.0738 116.869 88.3991 116.656C88.7298 116.443 89.1111 116.28 89.5431 116.168C89.9805 116.061 90.4631 115.968 90.9911 115.888C91.5245 115.803 92.0445 115.731 92.5511 115.672C93.0631 115.608 93.5111 115.547 93.8951 115.488L93.4791 115.744C93.4951 114.891 93.3298 114.259 92.9831 113.848C92.6365 113.437 92.0338 113.232 91.1751 113.232C90.5831 113.232 90.0818 113.365 89.6711 113.632C89.2658 113.899 88.9805 114.32 88.8151 114.896L87.6711 114.56C87.8685 113.787 88.2658 113.187 88.8631 112.76C89.4605 112.333 90.2365 112.12 91.1911 112.12C91.9805 112.12 92.6498 112.269 93.1991 112.568C93.7538 112.861 94.1458 113.288 94.3751 113.848C94.4818 114.099 94.5511 114.379 94.5831 114.688C94.6151 114.997 94.6311 115.312 94.6311 115.632V121H93.5831V118.832L93.8871 118.96C93.5938 119.701 93.1378 120.267 92.5191 120.656C91.9005 121.045 91.1591 121.24 90.2951 121.24ZM90.4311 120.224C90.9805 120.224 91.4605 120.125 91.8711 119.928C92.2818 119.731 92.6125 119.461 92.8631 119.12C93.1138 118.773 93.2765 118.384 93.3511 117.952C93.4151 117.675 93.4498 117.371 93.4551 117.04C93.4605 116.704 93.4631 116.453 93.4631 116.288L93.9111 116.52C93.5111 116.573 93.0765 116.627 92.6071 116.68C92.1431 116.733 91.6845 116.795 91.2311 116.864C90.7831 116.933 90.3778 117.016 90.0151 117.112C89.7698 117.181 89.5325 117.28 89.3031 117.408C89.0738 117.531 88.8845 117.696 88.7351 117.904C88.5911 118.112 88.5191 118.371 88.5191 118.68C88.5191 118.931 88.5805 119.173 88.7031 119.408C88.8311 119.643 89.0338 119.837 89.3111 119.992C89.5938 120.147 89.9671 120.224 90.4311 120.224ZM100.146 125.08C99.7031 125.08 99.2658 125.013 98.8338 124.88C98.4071 124.752 98.0124 124.547 97.6497 124.264C97.2871 123.987 96.9831 123.624 96.7378 123.176L97.8018 122.584C98.0418 123.064 98.3778 123.408 98.8098 123.616C99.2471 123.829 99.6924 123.936 100.146 123.936C100.77 123.936 101.274 123.819 101.658 123.584C102.047 123.355 102.33 123.013 102.506 122.56C102.682 122.107 102.767 121.541 102.762 120.864V118.56H102.898V112.36H103.946V120.88C103.946 121.125 103.938 121.36 103.922 121.584C103.911 121.813 103.887 122.037 103.85 122.256C103.748 122.901 103.538 123.432 103.218 123.848C102.903 124.264 102.487 124.573 101.97 124.776C101.458 124.979 100.85 125.08 100.146 125.08ZM100.066 121.24C99.2604 121.24 98.5724 121.04 98.0018 120.64C97.4311 120.235 96.9938 119.688 96.6898 119C96.3858 118.312 96.2338 117.536 96.2338 116.672C96.2338 115.813 96.3831 115.04 96.6818 114.352C96.9858 113.664 97.4204 113.12 97.9858 112.72C98.5511 112.32 99.2284 112.12 100.018 112.12C100.828 112.12 101.511 112.317 102.066 112.712C102.62 113.107 103.039 113.648 103.322 114.336C103.61 115.019 103.754 115.797 103.754 116.672C103.754 117.531 103.612 118.307 103.33 119C103.047 119.688 102.631 120.235 102.082 120.64C101.532 121.04 100.86 121.24 100.066 121.24ZM100.186 120.144C100.799 120.144 101.306 119.995 101.706 119.696C102.106 119.397 102.404 118.987 102.602 118.464C102.799 117.936 102.898 117.339 102.898 116.672C102.898 115.995 102.799 115.397 102.602 114.88C102.404 114.357 102.106 113.949 101.706 113.656C101.311 113.363 100.812 113.216 100.21 113.216C99.5911 113.216 99.0791 113.368 98.6738 113.672C98.2684 113.976 97.9671 114.389 97.7698 114.912C97.5778 115.435 97.4818 116.021 97.4818 116.672C97.4818 117.328 97.5804 117.92 97.7778 118.448C97.9804 118.971 98.2818 119.384 98.6818 119.688C99.0818 119.992 99.5831 120.144 100.186 120.144ZM112.423 121V116.592C112.423 116.112 112.377 115.672 112.287 115.272C112.196 114.867 112.049 114.515 111.847 114.216C111.649 113.912 111.391 113.677 111.071 113.512C110.756 113.347 110.372 113.264 109.919 113.264C109.503 113.264 109.135 113.336 108.815 113.48C108.5 113.624 108.233 113.832 108.015 114.104C107.801 114.371 107.639 114.696 107.527 115.08C107.415 115.464 107.359 115.901 107.359 116.392L106.527 116.208C106.527 115.323 106.681 114.579 106.991 113.976C107.3 113.373 107.727 112.917 108.271 112.608C108.815 112.299 109.439 112.144 110.143 112.144C110.66 112.144 111.111 112.224 111.495 112.384C111.884 112.544 112.212 112.76 112.479 113.032C112.751 113.304 112.969 113.616 113.135 113.968C113.3 114.315 113.42 114.685 113.495 115.08C113.569 115.469 113.607 115.859 113.607 116.248V121H112.423ZM106.175 121V112.36H107.239V114.488H107.359V121H106.175ZM115.843 110.72V109.4H117.019V110.72H115.843ZM115.843 121V112.36H117.019V121H115.843ZM122.641 121.232C121.628 121.232 120.793 121.013 120.137 120.576C119.486 120.139 119.086 119.531 118.937 118.752L120.137 118.552C120.265 119.043 120.556 119.435 121.009 119.728C121.468 120.016 122.033 120.16 122.705 120.16C123.361 120.16 123.878 120.024 124.257 119.752C124.636 119.475 124.825 119.099 124.825 118.624C124.825 118.357 124.764 118.141 124.641 117.976C124.524 117.805 124.281 117.648 123.913 117.504C123.545 117.36 122.996 117.189 122.265 116.992C121.481 116.779 120.868 116.565 120.425 116.352C119.982 116.139 119.668 115.893 119.481 115.616C119.294 115.333 119.201 114.989 119.201 114.584C119.201 114.093 119.34 113.664 119.617 113.296C119.894 112.923 120.278 112.635 120.769 112.432C121.26 112.224 121.83 112.12 122.481 112.12C123.132 112.12 123.713 112.227 124.225 112.44C124.742 112.648 125.158 112.941 125.473 113.32C125.788 113.699 125.974 114.139 126.033 114.64L124.833 114.856C124.753 114.349 124.5 113.949 124.073 113.656C123.652 113.357 123.116 113.203 122.465 113.192C121.852 113.176 121.353 113.293 120.969 113.544C120.585 113.789 120.393 114.117 120.393 114.528C120.393 114.757 120.462 114.955 120.601 115.12C120.74 115.28 120.99 115.432 121.353 115.576C121.721 115.72 122.244 115.877 122.921 116.048C123.716 116.251 124.34 116.464 124.793 116.688C125.246 116.912 125.569 117.176 125.761 117.48C125.953 117.784 126.049 118.16 126.049 118.608C126.049 119.424 125.745 120.067 125.137 120.536C124.534 121 123.702 121.232 122.641 121.232ZM134.906 121.24C134.112 121.24 133.44 121.04 132.89 120.64C132.341 120.235 131.925 119.688 131.642 119C131.36 118.307 131.218 117.531 131.218 116.672C131.218 115.797 131.36 115.019 131.642 114.336C131.93 113.648 132.352 113.107 132.906 112.712C133.461 112.317 134.144 112.12 134.954 112.12C135.744 112.12 136.421 112.32 136.986 112.72C137.552 113.12 137.984 113.664 138.282 114.352C138.586 115.04 138.738 115.813 138.738 116.672C138.738 117.536 138.586 118.312 138.282 119C137.978 119.688 137.541 120.235 136.97 120.64C136.4 121.04 135.712 121.24 134.906 121.24ZM131.018 124.84V112.36H132.074V118.864H132.202V124.84H131.018ZM134.786 120.144C135.389 120.144 135.89 119.992 136.29 119.688C136.69 119.384 136.989 118.971 137.186 118.448C137.389 117.92 137.49 117.328 137.49 116.672C137.49 116.021 137.392 115.435 137.194 114.912C136.997 114.389 136.696 113.976 136.29 113.672C135.89 113.368 135.381 113.216 134.762 113.216C134.16 113.216 133.658 113.363 133.258 113.656C132.864 113.949 132.568 114.357 132.37 114.88C132.173 115.397 132.074 115.995 132.074 116.672C132.074 117.339 132.173 117.936 132.37 118.464C132.568 118.987 132.866 119.397 133.266 119.696C133.666 119.995 134.173 120.144 134.786 120.144ZM140.495 121V112.36H141.551V114.44L141.343 114.168C141.439 113.912 141.564 113.677 141.719 113.464C141.874 113.245 142.042 113.067 142.223 112.928C142.447 112.731 142.708 112.581 143.007 112.48C143.306 112.373 143.607 112.312 143.911 112.296C144.215 112.275 144.492 112.296 144.743 112.36V113.464C144.428 113.384 144.084 113.365 143.711 113.408C143.338 113.451 142.994 113.6 142.679 113.856C142.391 114.08 142.175 114.349 142.031 114.664C141.887 114.973 141.791 115.304 141.743 115.656C141.695 116.003 141.671 116.347 141.671 116.688V121H140.495ZM149.76 121.24C148.918 121.24 148.187 121.053 147.568 120.68C146.955 120.307 146.478 119.781 146.136 119.104C145.795 118.427 145.624 117.632 145.624 116.72C145.624 115.776 145.792 114.96 146.128 114.272C146.464 113.584 146.936 113.053 147.544 112.68C148.158 112.307 148.88 112.12 149.712 112.12C150.566 112.12 151.294 112.317 151.896 112.712C152.499 113.101 152.955 113.661 153.264 114.392C153.574 115.123 153.715 115.995 153.688 117.008H152.488V116.592C152.467 115.472 152.224 114.627 151.76 114.056C151.302 113.485 150.63 113.2 149.744 113.2C148.816 113.2 148.104 113.501 147.608 114.104C147.118 114.707 146.872 115.565 146.872 116.68C146.872 117.768 147.118 118.613 147.608 119.216C148.104 119.813 148.806 120.112 149.712 120.112C150.331 120.112 150.87 119.971 151.328 119.688C151.792 119.4 152.158 118.987 152.424 118.448L153.52 118.872C153.179 119.624 152.675 120.208 152.008 120.624C151.347 121.035 150.598 121.24 149.76 121.24ZM146.456 117.008V116.024H153.056V117.008H146.456ZM160.168 121C159.682 121.101 159.202 121.141 158.728 121.12C158.258 121.099 157.837 120.997 157.464 120.816C157.096 120.635 156.816 120.352 156.624 119.968C156.469 119.648 156.384 119.325 156.368 119C156.357 118.669 156.352 118.293 156.352 117.872V109.96H157.52V117.824C157.52 118.187 157.522 118.491 157.528 118.736C157.538 118.976 157.594 119.189 157.696 119.376C157.888 119.733 158.192 119.947 158.608 120.016C159.029 120.085 159.549 120.069 160.168 119.968V121ZM154.504 113.368V112.36H160.168V113.368H154.504ZM162.03 110.72V109.4H163.206V110.72H162.03ZM162.03 121V112.36H163.206V121H162.03ZM168.908 121.216C168.391 121.216 167.938 121.136 167.548 120.976C167.164 120.816 166.836 120.6 166.564 120.328C166.298 120.056 166.082 119.747 165.916 119.4C165.751 119.048 165.631 118.677 165.556 118.288C165.482 117.893 165.444 117.501 165.444 117.112V112.36H166.628V116.768C166.628 117.243 166.674 117.683 166.764 118.088C166.855 118.493 166.999 118.848 167.196 119.152C167.399 119.451 167.658 119.683 167.972 119.848C168.292 120.013 168.679 120.096 169.132 120.096C169.548 120.096 169.914 120.024 170.228 119.88C170.548 119.736 170.815 119.531 171.028 119.264C171.247 118.992 171.412 118.664 171.524 118.28C171.636 117.891 171.692 117.453 171.692 116.968L172.524 117.152C172.524 118.037 172.37 118.781 172.06 119.384C171.751 119.987 171.324 120.443 170.78 120.752C170.236 121.061 169.612 121.216 168.908 121.216ZM171.812 121V118.872H171.692V112.36H172.868V121H171.812ZM185.408 121L185.416 115.328C185.416 114.661 185.23 114.139 184.856 113.76C184.488 113.376 184.019 113.184 183.448 113.184C183.123 113.184 182.806 113.259 182.496 113.408C182.187 113.557 181.931 113.797 181.728 114.128C181.531 114.459 181.432 114.891 181.432 115.424L180.736 115.224C180.72 114.605 180.84 114.064 181.096 113.6C181.358 113.136 181.715 112.776 182.168 112.52C182.627 112.259 183.144 112.128 183.72 112.128C184.59 112.128 185.286 112.397 185.808 112.936C186.331 113.469 186.592 114.192 186.592 115.104L186.584 121H185.408ZM175.096 121V112.36H176.152V114.488H176.28V121H175.096ZM180.264 121L180.272 115.408C180.272 114.72 180.088 114.179 179.72 113.784C179.358 113.384 178.878 113.184 178.28 113.184C177.683 113.184 177.2 113.389 176.832 113.8C176.464 114.205 176.28 114.747 176.28 115.424L175.576 115.04C175.576 114.485 175.707 113.989 175.968 113.552C176.23 113.109 176.587 112.763 177.04 112.512C177.494 112.256 178.008 112.128 178.584 112.128C179.134 112.128 179.622 112.245 180.048 112.48C180.48 112.715 180.819 113.056 181.064 113.504C181.31 113.952 181.432 114.496 181.432 115.136L181.424 121H180.264ZM195.094 121.232C194.081 121.232 193.246 121.013 192.59 120.576C191.939 120.139 191.539 119.531 191.39 118.752L192.59 118.552C192.718 119.043 193.009 119.435 193.462 119.728C193.921 120.016 194.486 120.16 195.158 120.16C195.814 120.16 196.331 120.024 196.71 119.752C197.089 119.475 197.278 119.099 197.278 118.624C197.278 118.357 197.217 118.141 197.094 117.976C196.977 117.805 196.734 117.648 196.366 117.504C195.998 117.36 195.449 117.189 194.718 116.992C193.934 116.779 193.321 116.565 192.878 116.352C192.435 116.139 192.121 115.893 191.934 115.616C191.747 115.333 191.654 114.989 191.654 114.584C191.654 114.093 191.793 113.664 192.07 113.296C192.347 112.923 192.731 112.635 193.222 112.432C193.713 112.224 194.283 112.12 194.934 112.12C195.585 112.12 196.166 112.227 196.678 112.44C197.195 112.648 197.611 112.941 197.926 113.32C198.241 113.699 198.427 114.139 198.486 114.64L197.286 114.856C197.206 114.349 196.953 113.949 196.526 113.656C196.105 113.357 195.569 113.203 194.918 113.192C194.305 113.176 193.806 113.293 193.422 113.544C193.038 113.789 192.846 114.117 192.846 114.528C192.846 114.757 192.915 114.955 193.054 115.12C193.193 115.28 193.443 115.432 193.806 115.576C194.174 115.72 194.697 115.877 195.374 116.048C196.169 116.251 196.793 116.464 197.246 116.688C197.699 116.912 198.022 117.176 198.214 117.48C198.406 117.784 198.502 118.16 198.502 118.608C198.502 119.424 198.198 120.067 197.59 120.536C196.987 121 196.155 121.232 195.094 121.232ZM203.932 121.24C203.09 121.24 202.359 121.053 201.74 120.68C201.127 120.307 200.65 119.781 200.308 119.104C199.967 118.427 199.796 117.632 199.796 116.72C199.796 115.776 199.964 114.96 200.3 114.272C200.636 113.584 201.108 113.053 201.716 112.68C202.33 112.307 203.052 112.12 203.884 112.12C204.738 112.12 205.466 112.317 206.068 112.712C206.671 113.101 207.127 113.661 207.436 114.392C207.746 115.123 207.887 115.995 207.86 117.008H206.66V116.592C206.639 115.472 206.396 114.627 205.932 114.056C205.474 113.485 204.802 113.2 203.916 113.2C202.988 113.2 202.276 113.501 201.78 114.104C201.29 114.707 201.044 115.565 201.044 116.68C201.044 117.768 201.29 118.613 201.78 119.216C202.276 119.813 202.978 120.112 203.884 120.112C204.503 120.112 205.042 119.971 205.5 119.688C205.964 119.4 206.33 118.987 206.596 118.448L207.692 118.872C207.351 119.624 206.847 120.208 206.18 120.624C205.519 121.035 204.77 121.24 203.932 121.24ZM200.628 117.008V116.024H207.228V117.008H200.628ZM212.988 121.24C212.182 121.24 211.494 121.04 210.924 120.64C210.353 120.235 209.916 119.688 209.612 119C209.308 118.312 209.156 117.536 209.156 116.672C209.156 115.813 209.305 115.04 209.604 114.352C209.908 113.664 210.342 113.12 210.908 112.72C211.473 112.32 212.15 112.12 212.94 112.12C213.75 112.12 214.433 112.317 214.988 112.712C215.542 113.107 215.961 113.648 216.244 114.336C216.532 115.019 216.676 115.797 216.676 116.672C216.676 117.531 216.534 118.307 216.252 119C215.969 119.688 215.553 120.235 215.004 120.64C214.454 121.04 213.782 121.24 212.988 121.24ZM213.108 120.144C213.721 120.144 214.228 119.995 214.628 119.696C215.028 119.397 215.326 118.987 215.524 118.464C215.721 117.936 215.82 117.339 215.82 116.672C215.82 115.995 215.721 115.397 215.524 114.88C215.326 114.357 215.028 113.949 214.628 113.656C214.233 113.363 213.734 113.216 213.132 113.216C212.513 113.216 212.001 113.368 211.596 113.672C211.19 113.976 210.889 114.389 210.692 114.912C210.5 115.435 210.404 116.021 210.404 116.672C210.404 117.328 210.502 117.92 210.7 118.448C210.902 118.971 211.204 119.384 211.604 119.688C212.004 119.992 212.505 120.144 213.108 120.144ZM215.82 121V114.496H215.692V109.48H216.876V121H215.82ZM28.704 147.24C27.8347 147.24 27.0987 147.045 26.496 146.656C25.8933 146.267 25.4347 145.731 25.12 145.048C24.8107 144.36 24.6507 143.571 24.64 142.68C24.6507 141.773 24.816 140.979 25.136 140.296C25.456 139.608 25.9173 139.075 26.52 138.696C27.1227 138.312 27.8533 138.12 28.712 138.12C29.5867 138.12 30.3467 138.333 30.992 138.76C31.6427 139.187 32.088 139.771 32.328 140.512L31.176 140.88C30.9733 140.363 30.6507 139.963 30.208 139.68C29.7707 139.392 29.2693 139.248 28.704 139.248C28.0693 139.248 27.544 139.395 27.128 139.688C26.712 139.976 26.4027 140.379 26.2 140.896C25.9973 141.413 25.8933 142.008 25.888 142.68C25.8987 143.715 26.1387 144.547 26.608 145.176C27.0773 145.8 27.776 146.112 28.704 146.112C29.2907 146.112 29.7893 145.979 30.2 145.712C30.616 145.44 30.9307 145.045 31.144 144.528L32.328 144.88C32.008 145.648 31.5387 146.235 30.92 146.64C30.3013 147.04 29.5627 147.24 28.704 147.24ZM37.2834 147.216C36.766 147.216 36.3127 147.136 35.9234 146.976C35.5394 146.816 35.2114 146.6 34.9394 146.328C34.6727 146.056 34.4567 145.747 34.2914 145.4C34.126 145.048 34.006 144.677 33.9314 144.288C33.8567 143.893 33.8194 143.501 33.8194 143.112V138.36H35.0034V142.768C35.0034 143.243 35.0487 143.683 35.1394 144.088C35.23 144.493 35.374 144.848 35.5714 145.152C35.774 145.451 36.0327 145.683 36.3474 145.848C36.6674 146.013 37.054 146.096 37.5074 146.096C37.9234 146.096 38.2887 146.024 38.6034 145.88C38.9234 145.736 39.19 145.531 39.4034 145.264C39.622 144.992 39.7874 144.664 39.8994 144.28C40.0114 143.891 40.0674 143.453 40.0674 142.968L40.8994 143.152C40.8994 144.037 40.7447 144.781 40.4354 145.384C40.126 145.987 39.6994 146.443 39.1554 146.752C38.6114 147.061 37.9874 147.216 37.2834 147.216ZM40.1874 147V144.872H40.0674V138.36H41.2434V147H40.1874ZM43.4794 147V138.36H44.5354V140.44L44.3274 140.168C44.4234 139.912 44.5487 139.677 44.7034 139.464C44.858 139.245 45.026 139.067 45.2074 138.928C45.4314 138.731 45.6927 138.581 45.9914 138.48C46.29 138.373 46.5914 138.312 46.8954 138.296C47.1994 138.275 47.4767 138.296 47.7274 138.36V139.464C47.4127 139.384 47.0687 139.365 46.6954 139.408C46.322 139.451 45.978 139.6 45.6634 139.856C45.3754 140.08 45.1594 140.349 45.0154 140.664C44.8714 140.973 44.7754 141.304 44.7274 141.656C44.6794 142.003 44.6554 142.347 44.6554 142.688V147H43.4794ZM51.3889 147.24C50.7382 147.24 50.1915 147.123 49.7489 146.888C49.3115 146.653 48.9835 146.341 48.7649 145.952C48.5462 145.563 48.4369 145.139 48.4369 144.68C48.4369 144.211 48.5302 143.811 48.7169 143.48C48.9089 143.144 49.1675 142.869 49.4929 142.656C49.8235 142.443 50.2049 142.28 50.6369 142.168C51.0742 142.061 51.5569 141.968 52.0849 141.888C52.6182 141.803 53.1382 141.731 53.6449 141.672C54.1569 141.608 54.6049 141.547 54.9889 141.488L54.5729 141.744C54.5889 140.891 54.4235 140.259 54.0769 139.848C53.7302 139.437 53.1275 139.232 52.2689 139.232C51.6769 139.232 51.1755 139.365 50.7649 139.632C50.3595 139.899 50.0742 140.32 49.9089 140.896L48.7649 140.56C48.9622 139.787 49.3595 139.187 49.9569 138.76C50.5542 138.333 51.3302 138.12 52.2849 138.12C53.0742 138.12 53.7435 138.269 54.2929 138.568C54.8475 138.861 55.2395 139.288 55.4689 139.848C55.5755 140.099 55.6449 140.379 55.6769 140.688C55.7089 140.997 55.7249 141.312 55.7249 141.632V147H54.6769V144.832L54.9809 144.96C54.6875 145.701 54.2315 146.267 53.6129 146.656C52.9942 147.045 52.2529 147.24 51.3889 147.24ZM51.5249 146.224C52.0742 146.224 52.5542 146.125 52.9649 145.928C53.3755 145.731 53.7062 145.461 53.9569 145.12C54.2075 144.773 54.3702 144.384 54.4449 143.952C54.5089 143.675 54.5435 143.371 54.5489 143.04C54.5542 142.704 54.5569 142.453 54.5569 142.288L55.0049 142.52C54.6049 142.573 54.1702 142.627 53.7009 142.68C53.2369 142.733 52.7782 142.795 52.3249 142.864C51.8769 142.933 51.4715 143.016 51.1089 143.112C50.8635 143.181 50.6262 143.28 50.3969 143.408C50.1675 143.531 49.9782 143.696 49.8289 143.904C49.6849 144.112 49.6129 144.371 49.6129 144.68C49.6129 144.931 49.6742 145.173 49.7969 145.408C49.9249 145.643 50.1275 145.837 50.4049 145.992C50.6875 146.147 51.0609 146.224 51.5249 146.224ZM61.6875 147.24C60.8928 147.24 60.2208 147.04 59.6715 146.64C59.1222 146.235 58.7062 145.688 58.4235 145C58.1408 144.307 57.9995 143.531 57.9995 142.672C57.9995 141.797 58.1408 141.019 58.4235 140.336C58.7115 139.648 59.1328 139.107 59.6875 138.712C60.2422 138.317 60.9248 138.12 61.7355 138.12C62.5248 138.12 63.2022 138.32 63.7675 138.72C64.3328 139.12 64.7648 139.664 65.0635 140.352C65.3675 141.04 65.5195 141.813 65.5195 142.672C65.5195 143.536 65.3675 144.312 65.0635 145C64.7595 145.688 64.3222 146.235 63.7515 146.64C63.1808 147.04 62.4928 147.24 61.6875 147.24ZM57.7995 147V135.48H58.9835V140.496H58.8555V147H57.7995ZM61.5675 146.144C62.1702 146.144 62.6715 145.992 63.0715 145.688C63.4715 145.384 63.7702 144.971 63.9675 144.448C64.1702 143.92 64.2715 143.328 64.2715 142.672C64.2715 142.021 64.1728 141.435 63.9755 140.912C63.7782 140.389 63.4768 139.976 63.0715 139.672C62.6715 139.368 62.1622 139.216 61.5435 139.216C60.9408 139.216 60.4395 139.363 60.0395 139.656C59.6448 139.949 59.3488 140.357 59.1515 140.88C58.9542 141.397 58.8555 141.995 58.8555 142.672C58.8555 143.339 58.9542 143.936 59.1515 144.464C59.3488 144.987 59.6475 145.397 60.0475 145.696C60.4475 145.995 60.9542 146.144 61.5675 146.144ZM67.4363 136.72V135.4H68.6123V136.72H67.4363ZM67.4363 147V138.36H68.6123V147H67.4363ZM75.7146 147C75.2293 147.101 74.7493 147.141 74.2746 147.12C73.8053 147.099 73.384 146.997 73.0106 146.816C72.6426 146.635 72.3626 146.352 72.1706 145.968C72.016 145.648 71.9306 145.325 71.9146 145C71.904 144.669 71.8986 144.293 71.8986 143.872V135.96H73.0666V143.824C73.0666 144.187 73.0693 144.491 73.0746 144.736C73.0853 144.976 73.1413 145.189 73.2426 145.376C73.4346 145.733 73.7386 145.947 74.1546 146.016C74.576 146.085 75.096 146.069 75.7146 145.968V147ZM70.0506 139.368V138.36H75.7146V139.368H70.0506ZM80.7209 147.216C80.2035 147.216 79.7502 147.136 79.3609 146.976C78.9769 146.816 78.6489 146.6 78.3769 146.328C78.1102 146.056 77.8942 145.747 77.7289 145.4C77.5635 145.048 77.4435 144.677 77.3689 144.288C77.2942 143.893 77.2569 143.501 77.2569 143.112V138.36H78.4409V142.768C78.4409 143.243 78.4862 143.683 78.5769 144.088C78.6675 144.493 78.8115 144.848 79.0089 145.152C79.2115 145.451 79.4702 145.683 79.7849 145.848C80.1049 146.013 80.4915 146.096 80.9449 146.096C81.3609 146.096 81.7262 146.024 82.0409 145.88C82.3609 145.736 82.6275 145.531 82.8409 145.264C83.0595 144.992 83.2249 144.664 83.3369 144.28C83.4489 143.891 83.5049 143.453 83.5049 142.968L84.3369 143.152C84.3369 144.037 84.1822 144.781 83.8729 145.384C83.5635 145.987 83.1369 146.443 82.5929 146.752C82.0489 147.061 81.4249 147.216 80.7209 147.216ZM83.6249 147V144.872H83.5049V138.36H84.6809V147H83.6249ZM86.9169 147V138.36H87.9729V140.44L87.7649 140.168C87.8609 139.912 87.9862 139.677 88.1409 139.464C88.2955 139.245 88.4635 139.067 88.6449 138.928C88.8689 138.731 89.1302 138.581 89.4289 138.48C89.7275 138.373 90.0289 138.312 90.3329 138.296C90.6369 138.275 90.9142 138.296 91.1649 138.36V139.464C90.8502 139.384 90.5062 139.365 90.1329 139.408C89.7595 139.451 89.4155 139.6 89.1009 139.856C88.8129 140.08 88.5969 140.349 88.4529 140.664C88.3089 140.973 88.2129 141.304 88.1649 141.656C88.1169 142.003 88.0929 142.347 88.0929 142.688V147H86.9169ZM102.126 147V142.592C102.126 142.112 102.08 141.672 101.99 141.272C101.899 140.867 101.752 140.515 101.55 140.216C101.352 139.912 101.094 139.677 100.774 139.512C100.459 139.347 100.075 139.264 99.6216 139.264C99.2056 139.264 98.8376 139.336 98.5176 139.48C98.203 139.624 97.9363 139.832 97.7176 140.104C97.5043 140.371 97.3416 140.696 97.2296 141.08C97.1176 141.464 97.0616 141.901 97.0616 142.392L96.2296 142.208C96.2296 141.323 96.3843 140.579 96.6936 139.976C97.003 139.373 97.4296 138.917 97.9736 138.608C98.5176 138.299 99.1416 138.144 99.8456 138.144C100.363 138.144 100.814 138.224 101.198 138.384C101.587 138.544 101.915 138.76 102.182 139.032C102.454 139.304 102.672 139.616 102.838 139.968C103.003 140.315 103.123 140.685 103.198 141.08C103.272 141.469 103.31 141.859 103.31 142.248V147H102.126ZM95.8776 147V138.36H96.9416V140.488H97.0616V147H95.8776ZM108.69 147.216C108.172 147.216 107.719 147.136 107.33 146.976C106.946 146.816 106.618 146.6 106.346 146.328C106.079 146.056 105.863 145.747 105.698 145.4C105.532 145.048 105.412 144.677 105.338 144.288C105.263 143.893 105.226 143.501 105.226 143.112V138.36H106.41V142.768C106.41 143.243 106.455 143.683 106.546 144.088C106.636 144.493 106.78 144.848 106.978 145.152C107.18 145.451 107.439 145.683 107.754 145.848C108.074 146.013 108.46 146.096 108.914 146.096C109.33 146.096 109.695 146.024 110.01 145.88C110.33 145.736 110.596 145.531 110.81 145.264C111.028 144.992 111.194 144.664 111.306 144.28C111.418 143.891 111.474 143.453 111.474 142.968L112.306 143.152C112.306 144.037 112.151 144.781 111.842 145.384C111.532 145.987 111.106 146.443 110.562 146.752C110.018 147.061 109.394 147.216 108.69 147.216ZM111.594 147V144.872H111.474V138.36H112.65V147H111.594ZM121.126 147V142.592C121.126 142.112 121.08 141.672 120.99 141.272C120.899 140.867 120.752 140.515 120.55 140.216C120.352 139.912 120.094 139.677 119.774 139.512C119.459 139.347 119.075 139.264 118.622 139.264C118.206 139.264 117.838 139.336 117.518 139.48C117.203 139.624 116.936 139.832 116.718 140.104C116.504 140.371 116.342 140.696 116.23 141.08C116.118 141.464 116.062 141.901 116.062 142.392L115.23 142.208C115.23 141.323 115.384 140.579 115.694 139.976C116.003 139.373 116.43 138.917 116.974 138.608C117.518 138.299 118.142 138.144 118.846 138.144C119.363 138.144 119.814 138.224 120.198 138.384C120.587 138.544 120.915 138.76 121.182 139.032C121.454 139.304 121.672 139.616 121.838 139.968C122.003 140.315 122.123 140.685 122.198 141.08C122.272 141.469 122.31 141.859 122.31 142.248V147H121.126ZM114.878 147V138.36H115.942V140.488H116.062V147H114.878ZM127.923 147.24C127.053 147.24 126.317 147.045 125.715 146.656C125.112 146.267 124.653 145.731 124.339 145.048C124.029 144.36 123.869 143.571 123.859 142.68C123.869 141.773 124.035 140.979 124.355 140.296C124.675 139.608 125.136 139.075 125.739 138.696C126.341 138.312 127.072 138.12 127.931 138.12C128.805 138.12 129.565 138.333 130.211 138.76C130.861 139.187 131.307 139.771 131.547 140.512L130.395 140.88C130.192 140.363 129.869 139.963 129.427 139.68C128.989 139.392 128.488 139.248 127.923 139.248C127.288 139.248 126.763 139.395 126.347 139.688C125.931 139.976 125.621 140.379 125.419 140.896C125.216 141.413 125.112 142.008 125.107 142.68C125.117 143.715 125.357 144.547 125.827 145.176C126.296 145.8 126.995 146.112 127.923 146.112C128.509 146.112 129.008 145.979 129.419 145.712C129.835 145.44 130.149 145.045 130.363 144.528L131.547 144.88C131.227 145.648 130.757 146.235 130.139 146.64C129.52 147.04 128.781 147.24 127.923 147.24ZM137.257 147V137.72C137.257 137.496 137.268 137.275 137.289 137.056C137.316 136.837 137.367 136.629 137.441 136.432C137.516 136.229 137.633 136.043 137.793 135.872C137.969 135.68 138.161 135.541 138.369 135.456C138.577 135.365 138.793 135.307 139.017 135.28C139.247 135.253 139.471 135.24 139.689 135.24H140.793V136.232H139.769C139.321 136.232 138.985 136.341 138.761 136.56C138.543 136.779 138.433 137.123 138.433 137.592V147H137.257ZM135.761 139.368V138.36H140.793V139.368H135.761ZM144.311 147.24C143.66 147.24 143.113 147.123 142.671 146.888C142.233 146.653 141.905 146.341 141.687 145.952C141.468 145.563 141.359 145.139 141.359 144.68C141.359 144.211 141.452 143.811 141.639 143.48C141.831 143.144 142.089 142.869 142.415 142.656C142.745 142.443 143.127 142.28 143.559 142.168C143.996 142.061 144.479 141.968 145.007 141.888C145.54 141.803 146.06 141.731 146.567 141.672C147.079 141.608 147.527 141.547 147.911 141.488L147.495 141.744C147.511 140.891 147.345 140.259 146.999 139.848C146.652 139.437 146.049 139.232 145.191 139.232C144.599 139.232 144.097 139.365 143.687 139.632C143.281 139.899 142.996 140.32 142.831 140.896L141.687 140.56C141.884 139.787 142.281 139.187 142.879 138.76C143.476 138.333 144.252 138.12 145.207 138.12C145.996 138.12 146.665 138.269 147.215 138.568C147.769 138.861 148.161 139.288 148.391 139.848C148.497 140.099 148.567 140.379 148.599 140.688C148.631 140.997 148.647 141.312 148.647 141.632V147H147.599V144.832L147.903 144.96C147.609 145.701 147.153 146.267 146.535 146.656C145.916 147.045 145.175 147.24 144.311 147.24ZM144.447 146.224C144.996 146.224 145.476 146.125 145.887 145.928C146.297 145.731 146.628 145.461 146.879 145.12C147.129 144.773 147.292 144.384 147.367 143.952C147.431 143.675 147.465 143.371 147.471 143.04C147.476 142.704 147.479 142.453 147.479 142.288L147.927 142.52C147.527 142.573 147.092 142.627 146.623 142.68C146.159 142.733 145.7 142.795 145.247 142.864C144.799 142.933 144.393 143.016 144.031 143.112C143.785 143.181 143.548 143.28 143.319 143.408C143.089 143.531 142.9 143.696 142.751 143.904C142.607 144.112 142.535 144.371 142.535 144.68C142.535 144.931 142.596 145.173 142.719 145.408C142.847 145.643 143.049 145.837 143.327 145.992C143.609 146.147 143.983 146.224 144.447 146.224ZM154.313 147.24C153.444 147.24 152.708 147.045 152.105 146.656C151.503 146.267 151.044 145.731 150.729 145.048C150.42 144.36 150.26 143.571 150.249 142.68C150.26 141.773 150.425 140.979 150.745 140.296C151.065 139.608 151.527 139.075 152.129 138.696C152.732 138.312 153.463 138.12 154.321 138.12C155.196 138.12 155.956 138.333 156.601 138.76C157.252 139.187 157.697 139.771 157.937 140.512L156.785 140.88C156.583 140.363 156.26 139.963 155.817 139.68C155.38 139.392 154.879 139.248 154.313 139.248C153.679 139.248 153.153 139.395 152.737 139.688C152.321 139.976 152.012 140.379 151.809 140.896C151.607 141.413 151.503 142.008 151.497 142.68C151.508 143.715 151.748 144.547 152.217 145.176C152.687 145.8 153.385 146.112 154.313 146.112C154.9 146.112 155.399 145.979 155.809 145.712C156.225 145.44 156.54 145.045 156.753 144.528L157.937 144.88C157.617 145.648 157.148 146.235 156.529 146.64C155.911 147.04 155.172 147.24 154.313 147.24ZM159.514 136.72V135.4H160.69V136.72H159.514ZM159.514 147V138.36H160.69V147H159.514ZM163.249 147V135.24H164.425V147H163.249ZM166.983 136.72V135.4H168.159V136.72H166.983ZM166.983 147V138.36H168.159V147H166.983ZM173.782 147.232C172.768 147.232 171.934 147.013 171.278 146.576C170.627 146.139 170.227 145.531 170.078 144.752L171.278 144.552C171.406 145.043 171.696 145.435 172.15 145.728C172.608 146.016 173.174 146.16 173.845 146.16C174.502 146.16 175.019 146.024 175.398 145.752C175.776 145.475 175.966 145.099 175.966 144.624C175.966 144.357 175.904 144.141 175.782 143.976C175.664 143.805 175.422 143.648 175.054 143.504C174.686 143.36 174.136 143.189 173.406 142.992C172.622 142.779 172.008 142.565 171.566 142.352C171.123 142.139 170.808 141.893 170.622 141.616C170.435 141.333 170.342 140.989 170.342 140.584C170.342 140.093 170.48 139.664 170.758 139.296C171.035 138.923 171.419 138.635 171.91 138.432C172.4 138.224 172.971 138.12 173.622 138.12C174.272 138.12 174.854 138.227 175.366 138.44C175.883 138.648 176.299 138.941 176.614 139.32C176.928 139.699 177.115 140.139 177.174 140.64L175.974 140.856C175.894 140.349 175.64 139.949 175.214 139.656C174.792 139.357 174.256 139.203 173.606 139.192C172.992 139.176 172.494 139.293 172.11 139.544C171.726 139.789 171.534 140.117 171.534 140.528C171.534 140.757 171.603 140.955 171.742 141.12C171.88 141.28 172.131 141.432 172.494 141.576C172.862 141.72 173.384 141.877 174.062 142.048C174.856 142.251 175.48 142.464 175.934 142.688C176.387 142.912 176.71 143.176 176.902 143.48C177.094 143.784 177.19 144.16 177.19 144.608C177.19 145.424 176.886 146.067 176.278 146.536C175.675 147 174.843 147.232 173.782 147.232ZM179.124 136.72V135.4H180.3V136.72H179.124ZM179.124 147V138.36H180.3V147H179.124ZM192.141 147V142.592C192.141 142.112 192.096 141.672 192.005 141.272C191.915 140.867 191.768 140.515 191.565 140.216C191.368 139.912 191.109 139.677 190.789 139.512C190.475 139.347 190.091 139.264 189.637 139.264C189.221 139.264 188.853 139.336 188.533 139.48C188.219 139.624 187.952 139.832 187.733 140.104C187.52 140.371 187.357 140.696 187.245 141.08C187.133 141.464 187.077 141.901 187.077 142.392L186.245 142.208C186.245 141.323 186.4 140.579 186.709 139.976C187.019 139.373 187.445 138.917 187.989 138.608C188.533 138.299 189.157 138.144 189.861 138.144C190.379 138.144 190.829 138.224 191.213 138.384C191.603 138.544 191.931 138.76 192.197 139.032C192.469 139.304 192.688 139.616 192.853 139.968C193.019 140.315 193.139 140.685 193.213 141.08C193.288 141.469 193.325 141.859 193.325 142.248V147H192.141ZM185.893 147V138.36H186.957V140.488H187.077V147H185.893ZM198.705 147.216C198.188 147.216 197.735 147.136 197.345 146.976C196.961 146.816 196.633 146.6 196.361 146.328C196.095 146.056 195.879 145.747 195.713 145.4C195.548 145.048 195.428 144.677 195.353 144.288C195.279 143.893 195.241 143.501 195.241 143.112V138.36H196.425V142.768C196.425 143.243 196.471 143.683 196.561 144.088C196.652 144.493 196.796 144.848 196.993 145.152C197.196 145.451 197.455 145.683 197.769 145.848C198.089 146.013 198.476 146.096 198.929 146.096C199.345 146.096 199.711 146.024 200.025 145.88C200.345 145.736 200.612 145.531 200.825 145.264C201.044 144.992 201.209 144.664 201.321 144.28C201.433 143.891 201.489 143.453 201.489 142.968L202.321 143.152C202.321 144.037 202.167 144.781 201.857 145.384C201.548 145.987 201.121 146.443 200.577 146.752C200.033 147.061 199.409 147.216 198.705 147.216ZM201.609 147V144.872H201.489V138.36H202.665V147H201.609ZM211.141 147V142.592C211.141 142.112 211.096 141.672 211.005 141.272C210.915 140.867 210.768 140.515 210.565 140.216C210.368 139.912 210.109 139.677 209.789 139.512C209.475 139.347 209.091 139.264 208.637 139.264C208.221 139.264 207.853 139.336 207.533 139.48C207.219 139.624 206.952 139.832 206.733 140.104C206.52 140.371 206.357 140.696 206.245 141.08C206.133 141.464 206.077 141.901 206.077 142.392L205.245 142.208C205.245 141.323 205.4 140.579 205.709 139.976C206.019 139.373 206.445 138.917 206.989 138.608C207.533 138.299 208.157 138.144 208.861 138.144C209.379 138.144 209.829 138.224 210.213 138.384C210.603 138.544 210.931 138.76 211.197 139.032C211.469 139.304 211.688 139.616 211.853 139.968C212.019 140.315 212.139 140.685 212.213 141.08C212.288 141.469 212.325 141.859 212.325 142.248V147H211.141ZM204.893 147V138.36H205.957V140.488H206.077V147H204.893ZM217.938 147.24C217.069 147.24 216.333 147.045 215.73 146.656C215.128 146.267 214.669 145.731 214.354 145.048C214.045 144.36 213.885 143.571 213.874 142.68C213.885 141.773 214.05 140.979 214.37 140.296C214.69 139.608 215.152 139.075 215.754 138.696C216.357 138.312 217.088 138.12 217.946 138.12C218.821 138.12 219.581 138.333 220.226 138.76C220.877 139.187 221.322 139.771 221.562 140.512L220.41 140.88C220.208 140.363 219.885 139.963 219.442 139.68C219.005 139.392 218.504 139.248 217.938 139.248C217.304 139.248 216.778 139.395 216.362 139.688C215.946 139.976 215.637 140.379 215.434 140.896C215.232 141.413 215.128 142.008 215.122 142.68C215.133 143.715 215.373 144.547 215.842 145.176C216.312 145.8 217.01 146.112 217.938 146.112C218.525 146.112 219.024 145.979 219.434 145.712C219.85 145.44 220.165 145.045 220.378 144.528L221.562 144.88C221.242 145.648 220.773 146.235 220.154 146.64C219.536 147.04 218.797 147.24 217.938 147.24ZM230.001 147.24C229.132 147.24 228.396 147.045 227.793 146.656C227.19 146.267 226.732 145.731 226.417 145.048C226.108 144.36 225.948 143.571 225.937 142.68C225.948 141.773 226.113 140.979 226.433 140.296C226.753 139.608 227.214 139.075 227.817 138.696C228.42 138.312 229.15 138.12 230.009 138.12C230.884 138.12 231.644 138.333 232.289 138.76C232.94 139.187 233.385 139.771 233.625 140.512L232.473 140.88C232.27 140.363 231.948 139.963 231.505 139.68C231.068 139.392 230.566 139.248 230.001 139.248C229.366 139.248 228.841 139.395 228.425 139.688C228.009 139.976 227.7 140.379 227.497 140.896C227.294 141.413 227.19 142.008 227.185 142.68C227.196 143.715 227.436 144.547 227.905 145.176C228.374 145.8 229.073 146.112 230.001 146.112C230.588 146.112 231.086 145.979 231.497 145.712C231.913 145.44 232.228 145.045 232.441 144.528L233.625 144.88C233.305 145.648 232.836 146.235 232.217 146.64C231.598 147.04 230.86 147.24 230.001 147.24ZM238.58 147.216C238.063 147.216 237.61 147.136 237.22 146.976C236.836 146.816 236.508 146.6 236.236 146.328C235.97 146.056 235.754 145.747 235.588 145.4C235.423 145.048 235.303 144.677 235.228 144.288C235.154 143.893 235.116 143.501 235.116 143.112V138.36H236.3V142.768C236.3 143.243 236.346 143.683 236.436 144.088C236.527 144.493 236.671 144.848 236.868 145.152C237.071 145.451 237.33 145.683 237.644 145.848C237.964 146.013 238.351 146.096 238.804 146.096C239.22 146.096 239.586 146.024 239.9 145.88C240.22 145.736 240.487 145.531 240.7 145.264C240.919 144.992 241.084 144.664 241.196 144.28C241.308 143.891 241.364 143.453 241.364 142.968L242.196 143.152C242.196 144.037 242.042 144.781 241.732 145.384C241.423 145.987 240.996 146.443 240.452 146.752C239.908 147.061 239.284 147.216 238.58 147.216ZM241.484 147V144.872H241.364V138.36H242.54V147H241.484ZM244.776 147V138.36H245.832V140.44L245.624 140.168C245.72 139.912 245.846 139.677 246 139.464C246.155 139.245 246.323 139.067 246.504 138.928C246.728 138.731 246.99 138.581 247.288 138.48C247.587 138.373 247.888 138.312 248.192 138.296C248.496 138.275 248.774 138.296 249.024 138.36V139.464C248.71 139.384 248.366 139.365 247.992 139.408C247.619 139.451 247.275 139.6 246.96 139.856C246.672 140.08 246.456 140.349 246.312 140.664C246.168 140.973 246.072 141.304 246.024 141.656C245.976 142.003 245.952 142.347 245.952 142.688V147H244.776ZM253.453 147.232C252.44 147.232 251.605 147.013 250.949 146.576C250.299 146.139 249.899 145.531 249.749 144.752L250.949 144.552C251.077 145.043 251.368 145.435 251.821 145.728C252.28 146.016 252.845 146.16 253.517 146.16C254.173 146.16 254.691 146.024 255.069 145.752C255.448 145.475 255.637 145.099 255.637 144.624C255.637 144.357 255.576 144.141 255.453 143.976C255.336 143.805 255.093 143.648 254.725 143.504C254.357 143.36 253.808 143.189 253.077 142.992C252.293 142.779 251.68 142.565 251.237 142.352C250.795 142.139 250.48 141.893 250.293 141.616C250.107 141.333 250.013 140.989 250.013 140.584C250.013 140.093 250.152 139.664 250.429 139.296C250.707 138.923 251.091 138.635 251.581 138.432C252.072 138.224 252.643 138.12 253.293 138.12C253.944 138.12 254.525 138.227 255.037 138.44C255.555 138.648 255.971 138.941 256.285 139.32C256.6 139.699 256.787 140.139 256.845 140.64L255.645 140.856C255.565 140.349 255.312 139.949 254.885 139.656C254.464 139.357 253.928 139.203 253.277 139.192C252.664 139.176 252.165 139.293 251.781 139.544C251.397 139.789 251.205 140.117 251.205 140.528C251.205 140.757 251.275 140.955 251.413 141.12C251.552 141.28 251.803 141.432 252.165 141.576C252.533 141.72 253.056 141.877 253.733 142.048C254.528 142.251 255.152 142.464 255.605 142.688C256.059 142.912 256.381 143.176 256.573 143.48C256.765 143.784 256.861 144.16 256.861 144.608C256.861 145.424 256.557 146.067 255.949 146.536C255.347 147 254.515 147.232 253.453 147.232ZM261.94 147.216C261.422 147.216 260.969 147.136 260.58 146.976C260.196 146.816 259.868 146.6 259.596 146.328C259.329 146.056 259.113 145.747 258.948 145.4C258.782 145.048 258.662 144.677 258.588 144.288C258.513 143.893 258.476 143.501 258.476 143.112V138.36H259.66V142.768C259.66 143.243 259.705 143.683 259.796 144.088C259.886 144.493 260.03 144.848 260.228 145.152C260.43 145.451 260.689 145.683 261.004 145.848C261.324 146.013 261.71 146.096 262.164 146.096C262.58 146.096 262.945 146.024 263.26 145.88C263.58 145.736 263.846 145.531 264.06 145.264C264.278 144.992 264.444 144.664 264.556 144.28C264.668 143.891 264.724 143.453 264.724 142.968L265.556 143.152C265.556 144.037 265.401 144.781 265.092 145.384C264.782 145.987 264.356 146.443 263.812 146.752C263.268 147.061 262.644 147.216 261.94 147.216ZM264.844 147V144.872H264.724V138.36H265.9V147H264.844ZM271.36 147.232C270.346 147.232 269.512 147.013 268.856 146.576C268.205 146.139 267.805 145.531 267.656 144.752L268.856 144.552C268.984 145.043 269.274 145.435 269.728 145.728C270.186 146.016 270.752 146.16 271.424 146.16C272.08 146.16 272.597 146.024 272.976 145.752C273.354 145.475 273.544 145.099 273.544 144.624C273.544 144.357 273.482 144.141 273.36 143.976C273.242 143.805 273 143.648 272.632 143.504C272.264 143.36 271.714 143.189 270.984 142.992C270.2 142.779 269.586 142.565 269.144 142.352C268.701 142.139 268.386 141.893 268.2 141.616C268.013 141.333 267.92 140.989 267.92 140.584C267.92 140.093 268.058 139.664 268.336 139.296C268.613 138.923 268.997 138.635 269.488 138.432C269.978 138.224 270.549 138.12 271.2 138.12C271.85 138.12 272.432 138.227 272.944 138.44C273.461 138.648 273.877 138.941 274.192 139.32C274.506 139.699 274.693 140.139 274.752 140.64L273.552 140.856C273.472 140.349 273.218 139.949 272.792 139.656C272.37 139.357 271.834 139.203 271.184 139.192C270.57 139.176 270.072 139.293 269.688 139.544C269.304 139.789 269.112 140.117 269.112 140.528C269.112 140.757 269.181 140.955 269.32 141.12C269.458 141.28 269.709 141.432 270.072 141.576C270.44 141.72 270.962 141.877 271.64 142.048C272.434 142.251 273.058 142.464 273.512 142.688C273.965 142.912 274.288 143.176 274.48 143.48C274.672 143.784 274.768 144.16 274.768 144.608C274.768 145.424 274.464 146.067 273.856 146.536C273.253 147 272.421 147.232 271.36 147.232ZM28.344 172.232C27.3307 172.232 26.496 172.013 25.84 171.576C25.1893 171.139 24.7893 170.531 24.64 169.752L25.84 169.552C25.968 170.043 26.2587 170.435 26.712 170.728C27.1707 171.016 27.736 171.16 28.408 171.16C29.064 171.16 29.5813 171.024 29.96 170.752C30.3387 170.475 30.528 170.099 30.528 169.624C30.528 169.357 30.4667 169.141 30.344 168.976C30.2267 168.805 29.984 168.648 29.616 168.504C29.248 168.36 28.6987 168.189 27.968 167.992C27.184 167.779 26.5707 167.565 26.128 167.352C25.6853 167.139 25.3707 166.893 25.184 166.616C24.9973 166.333 24.904 165.989 24.904 165.584C24.904 165.093 25.0427 164.664 25.32 164.296C25.5973 163.923 25.9813 163.635 26.472 163.432C26.9627 163.224 27.5333 163.12 28.184 163.12C28.8347 163.12 29.416 163.227 29.928 163.44C30.4453 163.648 30.8613 163.941 31.176 164.32C31.4907 164.699 31.6773 165.139 31.736 165.64L30.536 165.856C30.456 165.349 30.2027 164.949 29.776 164.656C29.3547 164.357 28.8187 164.203 28.168 164.192C27.5547 164.176 27.056 164.293 26.672 164.544C26.288 164.789 26.096 165.117 26.096 165.528C26.096 165.757 26.1653 165.955 26.304 166.12C26.4427 166.28 26.6933 166.432 27.056 166.576C27.424 166.72 27.9467 166.877 28.624 167.048C29.4187 167.251 30.0427 167.464 30.496 167.688C30.9493 167.912 31.272 168.176 31.464 168.48C31.656 168.784 31.752 169.16 31.752 169.608C31.752 170.424 31.448 171.067 30.84 171.536C30.2373 172 29.4053 172.232 28.344 172.232ZM35.9983 172.24C35.3476 172.24 34.8009 172.123 34.3583 171.888C33.9209 171.653 33.5929 171.341 33.3743 170.952C33.1556 170.563 33.0463 170.139 33.0463 169.68C33.0463 169.211 33.1396 168.811 33.3263 168.48C33.5183 168.144 33.7769 167.869 34.1023 167.656C34.4329 167.443 34.8143 167.28 35.2463 167.168C35.6836 167.061 36.1663 166.968 36.6943 166.888C37.2276 166.803 37.7476 166.731 38.2543 166.672C38.7663 166.608 39.2143 166.547 39.5983 166.488L39.1823 166.744C39.1983 165.891 39.0329 165.259 38.6863 164.848C38.3396 164.437 37.7369 164.232 36.8783 164.232C36.2863 164.232 35.7849 164.365 35.3743 164.632C34.9689 164.899 34.6836 165.32 34.5182 165.896L33.3743 165.56C33.5716 164.787 33.9689 164.187 34.5663 163.76C35.1636 163.333 35.9396 163.12 36.8943 163.12C37.6836 163.12 38.3529 163.269 38.9023 163.568C39.4569 163.861 39.8489 164.288 40.0783 164.848C40.1849 165.099 40.2543 165.379 40.2863 165.688C40.3183 165.997 40.3343 166.312 40.3343 166.632V172H39.2863V169.832L39.5903 169.96C39.2969 170.701 38.8409 171.267 38.2223 171.656C37.6036 172.045 36.8623 172.24 35.9983 172.24ZM36.1343 171.224C36.6836 171.224 37.1636 171.125 37.5743 170.928C37.9849 170.731 38.3156 170.461 38.5663 170.12C38.8169 169.773 38.9796 169.384 39.0543 168.952C39.1183 168.675 39.1529 168.371 39.1583 168.04C39.1636 167.704 39.1663 167.453 39.1663 167.288L39.6143 167.52C39.2143 167.573 38.7796 167.627 38.3103 167.68C37.8463 167.733 37.3876 167.795 36.9343 167.864C36.4863 167.933 36.0809 168.016 35.7183 168.112C35.4729 168.181 35.2356 168.28 35.0063 168.408C34.7769 168.531 34.5876 168.696 34.4383 168.904C34.2943 169.112 34.2223 169.371 34.2223 169.68C34.2223 169.931 34.2836 170.173 34.4062 170.408C34.5343 170.643 34.7369 170.837 35.0143 170.992C35.2969 171.147 35.6703 171.224 36.1343 171.224ZM45.8489 176.08C45.4062 176.08 44.9689 176.013 44.5369 175.88C44.1102 175.752 43.7155 175.547 43.3529 175.264C42.9902 174.987 42.6862 174.624 42.4409 174.176L43.5049 173.584C43.7449 174.064 44.0809 174.408 44.5129 174.616C44.9502 174.829 45.3955 174.936 45.8489 174.936C46.4729 174.936 46.9769 174.819 47.3609 174.584C47.7502 174.355 48.0329 174.013 48.2089 173.56C48.3849 173.107 48.4702 172.541 48.4649 171.864V169.56H48.6009V163.36H49.6489V171.88C49.6489 172.125 49.6409 172.36 49.6249 172.584C49.6142 172.813 49.5902 173.037 49.5529 173.256C49.4515 173.901 49.2409 174.432 48.9209 174.848C48.6062 175.264 48.1902 175.573 47.6729 175.776C47.1609 175.979 46.5529 176.08 45.8489 176.08ZM45.7689 172.24C44.9635 172.24 44.2755 172.04 43.7049 171.64C43.1342 171.235 42.6969 170.688 42.3929 170C42.0889 169.312 41.9369 168.536 41.9369 167.672C41.9369 166.813 42.0862 166.04 42.3849 165.352C42.6889 164.664 43.1235 164.12 43.6889 163.72C44.2542 163.32 44.9315 163.12 45.7209 163.12C46.5315 163.12 47.2142 163.317 47.7689 163.712C48.3235 164.107 48.7422 164.648 49.0249 165.336C49.3129 166.019 49.4569 166.797 49.4569 167.672C49.4569 168.531 49.3155 169.307 49.0329 170C48.7502 170.688 48.3342 171.235 47.7849 171.64C47.2355 172.04 46.5635 172.24 45.7689 172.24ZM45.8889 171.144C46.5022 171.144 47.0089 170.995 47.4089 170.696C47.8089 170.397 48.1075 169.987 48.3049 169.464C48.5022 168.936 48.6009 168.339 48.6009 167.672C48.6009 166.995 48.5022 166.397 48.3049 165.88C48.1075 165.357 47.8089 164.949 47.4089 164.656C47.0142 164.363 46.5155 164.216 45.9129 164.216C45.2942 164.216 44.7822 164.368 44.3769 164.672C43.9715 164.976 43.6702 165.389 43.4729 165.912C43.2809 166.435 43.1849 167.021 43.1849 167.672C43.1849 168.328 43.2835 168.92 43.4809 169.448C43.6835 169.971 43.9849 170.384 44.3849 170.688C44.7849 170.992 45.2862 171.144 45.8889 171.144ZM52.0456 161.72V160.4H53.2216V161.72H52.0456ZM52.0456 172V163.36H53.2216V172H52.0456ZM60.324 172C59.8387 172.101 59.3587 172.141 58.884 172.12C58.4147 172.099 57.9933 171.997 57.62 171.816C57.252 171.635 56.972 171.352 56.78 170.968C56.6253 170.648 56.54 170.325 56.524 170C56.5133 169.669 56.508 169.293 56.508 168.872V160.96H57.676V168.824C57.676 169.187 57.6787 169.491 57.684 169.736C57.6947 169.976 57.7507 170.189 57.852 170.376C58.044 170.733 58.348 170.947 58.764 171.016C59.1853 171.085 59.7053 171.069 60.324 170.968V172ZM54.66 164.368V163.36H60.324V164.368H54.66ZM66.7303 172C66.2449 172.101 65.7649 172.141 65.2903 172.12C64.8209 172.099 64.3996 171.997 64.0263 171.816C63.6583 171.635 63.3783 171.352 63.1863 170.968C63.0316 170.648 62.9463 170.325 62.9303 170C62.9196 169.669 62.9143 169.293 62.9143 168.872V160.96H64.0823V168.824C64.0823 169.187 64.0849 169.491 64.0903 169.736C64.1009 169.976 64.1569 170.189 64.2583 170.376C64.4503 170.733 64.7543 170.947 65.1703 171.016C65.5916 171.085 66.1116 171.069 66.7303 170.968V172ZM61.0663 164.368V163.36H66.7303V164.368H61.0663ZM68.5925 161.72V160.4H69.7685V161.72H68.5925ZM68.5925 172V163.36H69.7685V172H68.5925ZM75.3909 172.232C74.3775 172.232 73.5429 172.013 72.8869 171.576C72.2362 171.139 71.8362 170.531 71.6869 169.752L72.8869 169.552C73.0149 170.043 73.3055 170.435 73.7589 170.728C74.2175 171.016 74.7829 171.16 75.4549 171.16C76.1109 171.16 76.6282 171.024 77.0069 170.752C77.3855 170.475 77.5749 170.099 77.5749 169.624C77.5749 169.357 77.5135 169.141 77.3909 168.976C77.2735 168.805 77.0309 168.648 76.6629 168.504C76.2949 168.36 75.7455 168.189 75.0149 167.992C74.2309 167.779 73.6175 167.565 73.1749 167.352C72.7322 167.139 72.4175 166.893 72.2309 166.616C72.0442 166.333 71.9509 165.989 71.9509 165.584C71.9509 165.093 72.0895 164.664 72.3669 164.296C72.6442 163.923 73.0282 163.635 73.5189 163.432C74.0095 163.224 74.5802 163.12 75.2309 163.12C75.8815 163.12 76.4629 163.227 76.9749 163.44C77.4922 163.648 77.9082 163.941 78.2229 164.32C78.5375 164.699 78.7242 165.139 78.7829 165.64L77.5829 165.856C77.5029 165.349 77.2495 164.949 76.8229 164.656C76.4015 164.357 75.8655 164.203 75.2149 164.192C74.6015 164.176 74.1029 164.293 73.7189 164.544C73.3349 164.789 73.1429 165.117 73.1429 165.528C73.1429 165.757 73.2122 165.955 73.3509 166.12C73.4895 166.28 73.7402 166.432 74.1029 166.576C74.4709 166.72 74.9935 166.877 75.6709 167.048C76.4655 167.251 77.0895 167.464 77.5429 167.688C77.9962 167.912 78.3189 168.176 78.5109 168.48C78.7029 168.784 78.7989 169.16 78.7989 169.608C78.7989 170.424 78.4949 171.067 77.8869 171.536C77.2842 172 76.4522 172.232 75.3909 172.232ZM80.7971 172V170.632H82.1651V172H80.7971Z" fill="#565973"/>
</svg>
