<svg width="306" height="205" viewBox="0 0 306 205" fill="none" xmlns="http://www.w3.org/2000/svg">
<rect width="306" height="205" rx="8" fill="white"/>
<path d="M52 80C67.464 80 80 67.464 80 52C80 36.536 67.464 24 52 24C36.536 24 24 36.536 24 52C24 67.464 36.536 80 52 80Z" fill="#2D8CFF"/>
<path fill-rule="evenodd" clip-rule="evenodd" d="M68.4349 42.5912L60.5219 48.3647V55.6575L68.4349 61.431C68.9949 61.8587 69.6523 61.9909 69.6523 60.8232V43.199C69.6523 42.1578 69.1247 42.0269 68.4349 42.5912ZM33.7393 56.3828V43.2351C33.7393 42.6973 34.1792 42.2609 34.7219 42.2609H53.8964C56.8821 42.2609 59.3045 44.659 59.3045 47.6172V60.7649C59.3045 61.3027 58.8645 61.7391 58.3219 61.7391H39.1473C36.1617 61.7391 33.7393 59.341 33.7393 56.3828Z" fill="white"/>
<path d="M25.28 121V109.48H26.456V121H25.28ZM35.0944 121V116.592C35.0944 116.112 35.049 115.672 34.9584 115.272C34.8677 114.867 34.721 114.515 34.5184 114.216C34.321 113.912 34.0624 113.677 33.7424 113.512C33.4277 113.347 33.0437 113.264 32.5904 113.264C32.1744 113.264 31.8064 113.336 31.4864 113.48C31.1717 113.624 30.905 113.832 30.6864 114.104C30.473 114.371 30.3104 114.696 30.1984 115.08C30.0864 115.464 30.0304 115.901 30.0304 116.392L29.1984 116.208C29.1984 115.323 29.353 114.579 29.6624 113.976C29.9717 113.373 30.3984 112.917 30.9424 112.608C31.4864 112.299 32.1104 112.144 32.8144 112.144C33.3317 112.144 33.7824 112.224 34.1664 112.384C34.5557 112.544 34.8837 112.76 35.1504 113.032C35.4224 113.304 35.641 113.616 35.8064 113.968C35.9717 114.315 36.0917 114.685 36.1664 115.08C36.241 115.469 36.2784 115.859 36.2784 116.248V121H35.0944ZM28.8464 121V112.36H29.9104V114.488H30.0304V121H28.8464ZM45.2135 121.24C44.3708 121.24 43.6402 121.053 43.0215 120.68C42.4082 120.307 41.9308 119.781 41.5895 119.104C41.2482 118.427 41.0775 117.632 41.0775 116.72C41.0775 115.776 41.2455 114.96 41.5815 114.272C41.9175 113.584 42.3895 113.053 42.9975 112.68C43.6108 112.307 44.3335 112.12 45.1655 112.12C46.0188 112.12 46.7468 112.317 47.3495 112.712C47.9522 113.101 48.4082 113.661 48.7175 114.392C49.0268 115.123 49.1682 115.995 49.1415 117.008H47.9415V116.592C47.9202 115.472 47.6775 114.627 47.2135 114.056C46.7548 113.485 46.0828 113.2 45.1975 113.2C44.2695 113.2 43.5575 113.501 43.0615 114.104C42.5708 114.707 42.3255 115.565 42.3255 116.68C42.3255 117.768 42.5708 118.613 43.0615 119.216C43.5575 119.813 44.2588 120.112 45.1655 120.112C45.7842 120.112 46.3228 119.971 46.7815 119.688C47.2455 119.4 47.6108 118.987 47.8775 118.448L48.9735 118.872C48.6322 119.624 48.1282 120.208 47.4615 120.624C46.8002 121.035 46.0508 121.24 45.2135 121.24ZM41.9095 117.008V116.024H48.5095V117.008H41.9095ZM54.3489 125.08C53.9062 125.08 53.4689 125.013 53.0369 124.88C52.6102 124.752 52.2155 124.547 51.8529 124.264C51.4902 123.987 51.1862 123.624 50.9409 123.176L52.0049 122.584C52.2449 123.064 52.5809 123.408 53.0129 123.616C53.4502 123.829 53.8955 123.936 54.3489 123.936C54.9729 123.936 55.4769 123.819 55.8609 123.584C56.2502 123.355 56.5329 123.013 56.7089 122.56C56.8849 122.107 56.9702 121.541 56.9649 120.864V118.56H57.1009V112.36H58.1489V120.88C58.1489 121.125 58.1409 121.36 58.1249 121.584C58.1142 121.813 58.0902 122.037 58.0529 122.256C57.9515 122.901 57.7409 123.432 57.4209 123.848C57.1062 124.264 56.6902 124.573 56.1729 124.776C55.6609 124.979 55.0529 125.08 54.3489 125.08ZM54.2689 121.24C53.4635 121.24 52.7755 121.04 52.2049 120.64C51.6342 120.235 51.1969 119.688 50.8929 119C50.5889 118.312 50.4369 117.536 50.4369 116.672C50.4369 115.813 50.5862 115.04 50.8849 114.352C51.1889 113.664 51.6235 113.12 52.1889 112.72C52.7542 112.32 53.4315 112.12 54.2209 112.12C55.0315 112.12 55.7142 112.317 56.2689 112.712C56.8235 113.107 57.2422 113.648 57.5249 114.336C57.8129 115.019 57.9569 115.797 57.9569 116.672C57.9569 117.531 57.8155 118.307 57.5329 119C57.2502 119.688 56.8342 120.235 56.2849 120.64C55.7355 121.04 55.0635 121.24 54.2689 121.24ZM54.3889 120.144C55.0022 120.144 55.5089 119.995 55.9089 119.696C56.3089 119.397 56.6075 118.987 56.8049 118.464C57.0022 117.936 57.1009 117.339 57.1009 116.672C57.1009 115.995 57.0022 115.397 56.8049 114.88C56.6075 114.357 56.3089 113.949 55.9089 113.656C55.5142 113.363 55.0155 113.216 54.4129 113.216C53.7942 113.216 53.2822 113.368 52.8769 113.672C52.4715 113.976 52.1702 114.389 51.9729 114.912C51.7809 115.435 51.6849 116.021 51.6849 116.672C51.6849 117.328 51.7835 117.92 51.9809 118.448C52.1835 118.971 52.4849 119.384 52.8849 119.688C53.2849 119.992 53.7862 120.144 54.3889 120.144ZM64.0416 121.24C63.199 121.24 62.4683 121.053 61.8496 120.68C61.2363 120.307 60.759 119.781 60.4176 119.104C60.0763 118.427 59.9056 117.632 59.9056 116.72C59.9056 115.776 60.0736 114.96 60.4096 114.272C60.7456 113.584 61.2176 113.053 61.8256 112.68C62.439 112.307 63.1616 112.12 63.9936 112.12C64.847 112.12 65.575 112.317 66.1776 112.712C66.7803 113.101 67.2363 113.661 67.5456 114.392C67.855 115.123 67.9963 115.995 67.9696 117.008H66.7696V116.592C66.7483 115.472 66.5056 114.627 66.0416 114.056C65.583 113.485 64.911 113.2 64.0256 113.2C63.0976 113.2 62.3856 113.501 61.8896 114.104C61.399 114.707 61.1536 115.565 61.1536 116.68C61.1536 117.768 61.399 118.613 61.8896 119.216C62.3856 119.813 63.087 120.112 63.9936 120.112C64.6123 120.112 65.151 119.971 65.6096 119.688C66.0736 119.4 66.439 118.987 66.7056 118.448L67.8016 118.872C67.4603 119.624 66.9563 120.208 66.2896 120.624C65.6283 121.035 64.879 121.24 64.0416 121.24ZM60.7376 117.008V116.024H67.3376V117.008H60.7376ZM74.449 121C73.9637 121.101 73.4837 121.141 73.009 121.12C72.5397 121.099 72.1183 120.997 71.745 120.816C71.377 120.635 71.097 120.352 70.905 119.968C70.7503 119.648 70.665 119.325 70.649 119C70.6383 118.669 70.633 118.293 70.633 117.872V109.96H71.801V117.824C71.801 118.187 71.8037 118.491 71.809 118.736C71.8197 118.976 71.8757 119.189 71.977 119.376C72.169 119.733 72.473 119.947 72.889 120.016C73.3103 120.085 73.8303 120.069 74.449 119.968V121ZM68.785 113.368V112.36H74.449V113.368H68.785ZM81.8264 121.24C81.1757 121.24 80.629 121.123 80.1864 120.888C79.749 120.653 79.421 120.341 79.2024 119.952C78.9837 119.563 78.8744 119.139 78.8744 118.68C78.8744 118.211 78.9677 117.811 79.1544 117.48C79.3464 117.144 79.605 116.869 79.9304 116.656C80.261 116.443 80.6424 116.28 81.0744 116.168C81.5117 116.061 81.9944 115.968 82.5224 115.888C83.0557 115.803 83.5757 115.731 84.0824 115.672C84.5944 115.608 85.0424 115.547 85.4264 115.488L85.0104 115.744C85.0264 114.891 84.861 114.259 84.5144 113.848C84.1677 113.437 83.565 113.232 82.7064 113.232C82.1144 113.232 81.613 113.365 81.2024 113.632C80.797 113.899 80.5117 114.32 80.3464 114.896L79.2024 114.56C79.3997 113.787 79.797 113.187 80.3944 112.76C80.9917 112.333 81.7677 112.12 82.7224 112.12C83.5117 112.12 84.181 112.269 84.7304 112.568C85.285 112.861 85.677 113.288 85.9064 113.848C86.013 114.099 86.0824 114.379 86.1144 114.688C86.1464 114.997 86.1624 115.312 86.1624 115.632V121H85.1144V118.832L85.4184 118.96C85.125 119.701 84.669 120.267 84.0504 120.656C83.4317 121.045 82.6904 121.24 81.8264 121.24ZM81.9624 120.224C82.5117 120.224 82.9917 120.125 83.4024 119.928C83.813 119.731 84.1437 119.461 84.3944 119.12C84.645 118.773 84.8077 118.384 84.8824 117.952C84.9464 117.675 84.981 117.371 84.9864 117.04C84.9917 116.704 84.9944 116.453 84.9944 116.288L85.4424 116.52C85.0424 116.573 84.6077 116.627 84.1384 116.68C83.6744 116.733 83.2157 116.795 82.7624 116.864C82.3144 116.933 81.909 117.016 81.5464 117.112C81.301 117.181 81.0637 117.28 80.8344 117.408C80.605 117.531 80.4157 117.696 80.2664 117.904C80.1224 118.112 80.0504 118.371 80.0504 118.68C80.0504 118.931 80.1117 119.173 80.2344 119.408C80.3624 119.643 80.565 119.837 80.8424 119.992C81.125 120.147 81.4984 120.224 81.9624 120.224ZM101.752 121L101.76 115.328C101.76 114.661 101.573 114.139 101.2 113.76C100.832 113.376 100.363 113.184 99.7921 113.184C99.4668 113.184 99.1495 113.259 98.8401 113.408C98.5308 113.557 98.2748 113.797 98.0721 114.128C97.8748 114.459 97.7761 114.891 97.7761 115.424L97.0801 115.224C97.0641 114.605 97.1841 114.064 97.4401 113.6C97.7015 113.136 98.0588 112.776 98.5121 112.52C98.9708 112.259 99.4881 112.128 100.064 112.128C100.933 112.128 101.629 112.397 102.152 112.936C102.675 113.469 102.936 114.192 102.936 115.104L102.928 121H101.752ZM91.4401 121V112.36H92.4961V114.488H92.6241V121H91.4401ZM96.6081 121L96.6161 115.408C96.6161 114.72 96.4321 114.179 96.0641 113.784C95.7015 113.384 95.2215 113.184 94.6241 113.184C94.0268 113.184 93.5441 113.389 93.1761 113.8C92.8081 114.205 92.6241 114.747 92.6241 115.424L91.9201 115.04C91.9201 114.485 92.0508 113.989 92.3121 113.552C92.5735 113.109 92.9308 112.763 93.3841 112.512C93.8375 112.256 94.3521 112.128 94.9281 112.128C95.4775 112.128 95.9655 112.245 96.3921 112.48C96.8241 112.715 97.1628 113.056 97.4081 113.504C97.6535 113.952 97.7761 114.496 97.7761 115.136L97.7681 121H96.6081ZM107.483 121.24C106.832 121.24 106.285 121.123 105.843 120.888C105.405 120.653 105.077 120.341 104.859 119.952C104.64 119.563 104.531 119.139 104.531 118.68C104.531 118.211 104.624 117.811 104.811 117.48C105.003 117.144 105.261 116.869 105.587 116.656C105.917 116.443 106.299 116.28 106.731 116.168C107.168 116.061 107.651 115.968 108.179 115.888C108.712 115.803 109.232 115.731 109.739 115.672C110.251 115.608 110.699 115.547 111.083 115.488L110.667 115.744C110.683 114.891 110.517 114.259 110.171 113.848C109.824 113.437 109.221 113.232 108.363 113.232C107.771 113.232 107.269 113.365 106.859 113.632C106.453 113.899 106.168 114.32 106.003 114.896L104.859 114.56C105.056 113.787 105.453 113.187 106.051 112.76C106.648 112.333 107.424 112.12 108.379 112.12C109.168 112.12 109.837 112.269 110.387 112.568C110.941 112.861 111.333 113.288 111.563 113.848C111.669 114.099 111.739 114.379 111.771 114.688C111.803 114.997 111.819 115.312 111.819 115.632V121H110.771V118.832L111.075 118.96C110.781 119.701 110.325 120.267 109.707 120.656C109.088 121.045 108.347 121.24 107.483 121.24ZM107.619 120.224C108.168 120.224 108.648 120.125 109.059 119.928C109.469 119.731 109.8 119.461 110.051 119.12C110.301 118.773 110.464 118.384 110.539 117.952C110.603 117.675 110.637 117.371 110.643 117.04C110.648 116.704 110.651 116.453 110.651 116.288L111.099 116.52C110.699 116.573 110.264 116.627 109.795 116.68C109.331 116.733 108.872 116.795 108.419 116.864C107.971 116.933 107.565 117.016 107.203 117.112C106.957 117.181 106.72 117.28 106.491 117.408C106.261 117.531 106.072 117.696 105.923 117.904C105.779 118.112 105.707 118.371 105.707 118.68C105.707 118.931 105.768 119.173 105.891 119.408C106.019 119.643 106.221 119.837 106.499 119.992C106.781 120.147 107.155 120.224 107.619 120.224ZM117.205 121.216C116.688 121.216 116.235 121.136 115.845 120.976C115.461 120.816 115.133 120.6 114.861 120.328C114.595 120.056 114.379 119.747 114.213 119.4C114.048 119.048 113.928 118.677 113.853 118.288C113.779 117.893 113.741 117.501 113.741 117.112V112.36H114.925V116.768C114.925 117.243 114.971 117.683 115.061 118.088C115.152 118.493 115.296 118.848 115.493 119.152C115.696 119.451 115.955 119.683 116.269 119.848C116.589 120.013 116.976 120.096 117.429 120.096C117.845 120.096 118.211 120.024 118.525 119.88C118.845 119.736 119.112 119.531 119.325 119.264C119.544 118.992 119.709 118.664 119.821 118.28C119.933 117.891 119.989 117.453 119.989 116.968L120.821 117.152C120.821 118.037 120.667 118.781 120.357 119.384C120.048 119.987 119.621 120.443 119.077 120.752C118.533 121.061 117.909 121.216 117.205 121.216ZM120.109 121V118.872H119.989V112.36H121.165V121H120.109ZM123.401 121V112.36H124.457V114.44L124.249 114.168C124.345 113.912 124.471 113.677 124.625 113.464C124.78 113.245 124.948 113.067 125.129 112.928C125.353 112.731 125.615 112.581 125.913 112.48C126.212 112.373 126.513 112.312 126.817 112.296C127.121 112.275 127.399 112.296 127.649 112.36V113.464C127.335 113.384 126.991 113.365 126.617 113.408C126.244 113.451 125.9 113.6 125.585 113.856C125.297 114.08 125.081 114.349 124.937 114.664C124.793 114.973 124.697 115.304 124.649 115.656C124.601 116.003 124.577 116.347 124.577 116.688V121H123.401ZM129.327 110.72V109.4H130.503V110.72H129.327ZM129.327 121V112.36H130.503V121H129.327ZM136.125 121.232C135.112 121.232 134.277 121.013 133.621 120.576C132.971 120.139 132.571 119.531 132.421 118.752L133.621 118.552C133.749 119.043 134.04 119.435 134.493 119.728C134.952 120.016 135.517 120.16 136.189 120.16C136.845 120.16 137.363 120.024 137.741 119.752C138.12 119.475 138.309 119.099 138.309 118.624C138.309 118.357 138.248 118.141 138.125 117.976C138.008 117.805 137.765 117.648 137.397 117.504C137.029 117.36 136.48 117.189 135.749 116.992C134.965 116.779 134.352 116.565 133.909 116.352C133.467 116.139 133.152 115.893 132.965 115.616C132.779 115.333 132.685 114.989 132.685 114.584C132.685 114.093 132.824 113.664 133.101 113.296C133.379 112.923 133.763 112.635 134.253 112.432C134.744 112.224 135.315 112.12 135.965 112.12C136.616 112.12 137.197 112.227 137.709 112.44C138.227 112.648 138.643 112.941 138.957 113.32C139.272 113.699 139.459 114.139 139.517 114.64L138.317 114.856C138.237 114.349 137.984 113.949 137.557 113.656C137.136 113.357 136.6 113.203 135.949 113.192C135.336 113.176 134.837 113.293 134.453 113.544C134.069 113.789 133.877 114.117 133.877 114.528C133.877 114.757 133.947 114.955 134.085 115.12C134.224 115.28 134.475 115.432 134.837 115.576C135.205 115.72 135.728 115.877 136.405 116.048C137.2 116.251 137.824 116.464 138.277 116.688C138.731 116.912 139.053 117.176 139.245 117.48C139.437 117.784 139.533 118.16 139.533 118.608C139.533 119.424 139.229 120.067 138.621 120.536C138.019 121 137.187 121.232 136.125 121.232ZM147.863 121.24C147.057 121.24 146.369 121.04 145.799 120.64C145.228 120.235 144.791 119.688 144.487 119C144.183 118.312 144.031 117.536 144.031 116.672C144.031 115.813 144.18 115.04 144.479 114.352C144.783 113.664 145.217 113.12 145.783 112.72C146.348 112.32 147.025 112.12 147.815 112.12C148.625 112.12 149.308 112.317 149.863 112.712C150.417 113.107 150.836 113.648 151.119 114.336C151.407 115.019 151.551 115.797 151.551 116.672C151.551 117.531 151.409 118.307 151.127 119C150.844 119.688 150.428 120.235 149.879 120.64C149.329 121.04 148.657 121.24 147.863 121.24ZM147.983 120.144C148.596 120.144 149.103 119.995 149.503 119.696C149.903 119.397 150.201 118.987 150.399 118.464C150.596 117.936 150.695 117.339 150.695 116.672C150.695 115.995 150.596 115.397 150.399 114.88C150.201 114.357 149.903 113.949 149.503 113.656C149.108 113.363 148.609 113.216 148.007 113.216C147.388 113.216 146.876 113.368 146.471 113.672C146.065 113.976 145.764 114.389 145.567 114.912C145.375 115.435 145.279 116.021 145.279 116.672C145.279 117.328 145.377 117.92 145.575 118.448C145.777 118.971 146.079 119.384 146.479 119.688C146.879 119.992 147.38 120.144 147.983 120.144ZM150.567 124.84V118.864H150.695V112.36H151.751V124.84H150.567ZM157.299 121.216C156.782 121.216 156.328 121.136 155.939 120.976C155.555 120.816 155.227 120.6 154.955 120.328C154.688 120.056 154.472 119.747 154.307 119.4C154.142 119.048 154.022 118.677 153.947 118.288C153.872 117.893 153.835 117.501 153.835 117.112V112.36H155.019V116.768C155.019 117.243 155.064 117.683 155.155 118.088C155.246 118.493 155.39 118.848 155.587 119.152C155.79 119.451 156.048 119.683 156.363 119.848C156.683 120.013 157.07 120.096 157.523 120.096C157.939 120.096 158.304 120.024 158.619 119.88C158.939 119.736 159.206 119.531 159.419 119.264C159.638 118.992 159.803 118.664 159.915 118.28C160.027 117.891 160.083 117.453 160.083 116.968L160.915 117.152C160.915 118.037 160.76 118.781 160.451 119.384C160.142 119.987 159.715 120.443 159.171 120.752C158.627 121.061 158.003 121.216 157.299 121.216ZM160.203 121V118.872H160.083V112.36H161.259V121H160.203ZM163.655 110.72V109.4H164.831V110.72H163.655ZM163.655 121V112.36H164.831V121H163.655ZM170.453 121.232C169.44 121.232 168.605 121.013 167.949 120.576C167.299 120.139 166.899 119.531 166.749 118.752L167.949 118.552C168.077 119.043 168.368 119.435 168.821 119.728C169.28 120.016 169.845 120.16 170.517 120.16C171.173 120.16 171.691 120.024 172.069 119.752C172.448 119.475 172.637 119.099 172.637 118.624C172.637 118.357 172.576 118.141 172.453 117.976C172.336 117.805 172.093 117.648 171.725 117.504C171.357 117.36 170.808 117.189 170.077 116.992C169.293 116.779 168.68 116.565 168.237 116.352C167.795 116.139 167.48 115.893 167.293 115.616C167.107 115.333 167.013 114.989 167.013 114.584C167.013 114.093 167.152 113.664 167.429 113.296C167.707 112.923 168.091 112.635 168.581 112.432C169.072 112.224 169.643 112.12 170.293 112.12C170.944 112.12 171.525 112.227 172.037 112.44C172.555 112.648 172.971 112.941 173.285 113.32C173.6 113.699 173.787 114.139 173.845 114.64L172.645 114.856C172.565 114.349 172.312 113.949 171.885 113.656C171.464 113.357 170.928 113.203 170.277 113.192C169.664 113.176 169.165 113.293 168.781 113.544C168.397 113.789 168.205 114.117 168.205 114.528C168.205 114.757 168.275 114.955 168.413 115.12C168.552 115.28 168.803 115.432 169.165 115.576C169.533 115.72 170.056 115.877 170.733 116.048C171.528 116.251 172.152 116.464 172.605 116.688C173.059 116.912 173.381 117.176 173.573 117.48C173.765 117.784 173.861 118.16 173.861 118.608C173.861 119.424 173.557 120.067 172.949 120.536C172.347 121 171.515 121.232 170.453 121.232ZM175.86 121V119.632H177.228V121H175.86ZM185.965 121V110.608H181.941V109.48H191.165V110.608H187.141V121H185.965ZM194.775 121.24C193.916 121.24 193.183 121.045 192.575 120.656C191.967 120.267 191.5 119.728 191.175 119.04C190.85 118.352 190.687 117.563 190.687 116.672C190.687 115.765 190.852 114.971 191.183 114.288C191.514 113.605 191.983 113.075 192.591 112.696C193.204 112.312 193.932 112.12 194.775 112.12C195.639 112.12 196.375 112.315 196.983 112.704C197.596 113.088 198.063 113.624 198.383 114.312C198.708 114.995 198.871 115.781 198.871 116.672C198.871 117.579 198.708 118.376 198.383 119.064C198.058 119.747 197.588 120.28 196.975 120.664C196.362 121.048 195.628 121.24 194.775 121.24ZM194.775 120.112C195.735 120.112 196.45 119.795 196.919 119.16C197.388 118.52 197.623 117.691 197.623 116.672C197.623 115.627 197.386 114.795 196.911 114.176C196.442 113.557 195.73 113.248 194.775 113.248C194.13 113.248 193.596 113.395 193.175 113.688C192.759 113.976 192.447 114.379 192.239 114.896C192.036 115.408 191.935 116 191.935 116.672C191.935 117.712 192.175 118.547 192.655 119.176C193.135 119.8 193.842 120.112 194.775 120.112ZM200.636 121V112.36H201.692V114.44L201.484 114.168C201.58 113.912 201.705 113.677 201.86 113.464C202.014 113.245 202.182 113.067 202.364 112.928C202.588 112.731 202.849 112.581 203.148 112.48C203.446 112.373 203.748 112.312 204.052 112.296C204.356 112.275 204.633 112.296 204.884 112.36V113.464C204.569 113.384 204.225 113.365 203.852 113.408C203.478 113.451 203.134 113.6 202.82 113.856C202.532 114.08 202.316 114.349 202.172 114.664C202.028 114.973 201.932 115.304 201.884 115.656C201.836 116.003 201.812 116.347 201.812 116.688V121H200.636ZM211.105 121C210.62 121.101 210.14 121.141 209.665 121.12C209.196 121.099 208.775 120.997 208.401 120.816C208.033 120.635 207.753 120.352 207.561 119.968C207.407 119.648 207.321 119.325 207.305 119C207.295 118.669 207.289 118.293 207.289 117.872V109.96H208.457V117.824C208.457 118.187 208.46 118.491 208.465 118.736C208.476 118.976 208.532 119.189 208.633 119.376C208.825 119.733 209.129 119.947 209.545 120.016C209.967 120.085 210.487 120.069 211.105 119.968V121ZM205.441 113.368V112.36H211.105V113.368H205.441ZM216.103 121.24C215.244 121.24 214.511 121.045 213.903 120.656C213.295 120.267 212.828 119.728 212.503 119.04C212.178 118.352 212.015 117.563 212.015 116.672C212.015 115.765 212.18 114.971 212.511 114.288C212.842 113.605 213.311 113.075 213.919 112.696C214.532 112.312 215.26 112.12 216.103 112.12C216.967 112.12 217.703 112.315 218.311 112.704C218.924 113.088 219.391 113.624 219.711 114.312C220.036 114.995 220.199 115.781 220.199 116.672C220.199 117.579 220.036 118.376 219.711 119.064C219.386 119.747 218.916 120.28 218.303 120.664C217.69 121.048 216.956 121.24 216.103 121.24ZM216.103 120.112C217.063 120.112 217.778 119.795 218.247 119.16C218.716 118.52 218.951 117.691 218.951 116.672C218.951 115.627 218.714 114.795 218.239 114.176C217.77 113.557 217.058 113.248 216.103 113.248C215.458 113.248 214.924 113.395 214.503 113.688C214.087 113.976 213.775 114.379 213.567 114.896C213.364 115.408 213.263 116 213.263 116.672C213.263 117.712 213.503 118.547 213.983 119.176C214.463 119.8 215.17 120.112 216.103 120.112ZM221.964 121V112.36H223.02V114.44L222.812 114.168C222.908 113.912 223.033 113.677 223.188 113.464C223.342 113.245 223.51 113.067 223.692 112.928C223.916 112.731 224.177 112.581 224.476 112.48C224.774 112.373 225.076 112.312 225.38 112.296C225.684 112.275 225.961 112.296 226.212 112.36V113.464C225.897 113.384 225.553 113.365 225.18 113.408C224.806 113.451 224.462 113.6 224.148 113.856C223.86 114.08 223.644 114.349 223.5 114.664C223.356 114.973 223.26 115.304 223.212 115.656C223.164 116.003 223.14 116.347 223.14 116.688V121H221.964ZM234.285 121.24C233.479 121.24 232.791 121.04 232.221 120.64C231.65 120.235 231.213 119.688 230.909 119C230.605 118.312 230.453 117.536 230.453 116.672C230.453 115.813 230.602 115.04 230.901 114.352C231.205 113.664 231.639 113.12 232.205 112.72C232.77 112.32 233.447 112.12 234.237 112.12C235.047 112.12 235.73 112.317 236.285 112.712C236.839 113.107 237.258 113.648 237.541 114.336C237.829 115.019 237.973 115.797 237.973 116.672C237.973 117.531 237.831 118.307 237.549 119C237.266 119.688 236.85 120.235 236.301 120.64C235.751 121.04 235.079 121.24 234.285 121.24ZM234.405 120.144C235.018 120.144 235.525 119.995 235.925 119.696C236.325 119.397 236.623 118.987 236.821 118.464C237.018 117.936 237.117 117.339 237.117 116.672C237.117 115.995 237.018 115.397 236.821 114.88C236.623 114.357 236.325 113.949 235.925 113.656C235.53 113.363 235.031 113.216 234.429 113.216C233.81 113.216 233.298 113.368 232.893 113.672C232.487 113.976 232.186 114.389 231.989 114.912C231.797 115.435 231.701 116.021 231.701 116.672C231.701 117.328 231.799 117.92 231.997 118.448C232.199 118.971 232.501 119.384 232.901 119.688C233.301 119.992 233.802 120.144 234.405 120.144ZM237.117 121V114.496H236.989V109.48H238.173V121H237.117ZM243.721 121.216C243.204 121.216 242.75 121.136 242.361 120.976C241.977 120.816 241.649 120.6 241.377 120.328C241.11 120.056 240.894 119.747 240.729 119.4C240.564 119.048 240.444 118.677 240.369 118.288C240.294 117.893 240.257 117.501 240.257 117.112V112.36H241.441V116.768C241.441 117.243 241.486 117.683 241.577 118.088C241.668 118.493 241.812 118.848 242.009 119.152C242.212 119.451 242.47 119.683 242.785 119.848C243.105 120.013 243.492 120.096 243.945 120.096C244.361 120.096 244.726 120.024 245.041 119.88C245.361 119.736 245.628 119.531 245.841 119.264C246.06 118.992 246.225 118.664 246.337 118.28C246.449 117.891 246.505 117.453 246.505 116.968L247.337 117.152C247.337 118.037 247.182 118.781 246.873 119.384C246.564 119.987 246.137 120.443 245.593 120.752C245.049 121.061 244.425 121.216 243.721 121.216ZM246.625 121V118.872H246.505V112.36H247.681V121H246.625ZM250.077 110.72V109.4H251.253V110.72H250.077ZM250.077 121V112.36H251.253V121H250.077ZM29.824 147C29.3387 147.101 28.8587 147.141 28.384 147.12C27.9147 147.099 27.4933 146.997 27.12 146.816C26.752 146.635 26.472 146.352 26.28 145.968C26.1253 145.648 26.04 145.325 26.024 145C26.0133 144.669 26.008 144.293 26.008 143.872V135.96H27.176V143.824C27.176 144.187 27.1787 144.491 27.184 144.736C27.1947 144.976 27.2507 145.189 27.352 145.376C27.544 145.733 27.848 145.947 28.264 146.016C28.6853 146.085 29.2053 146.069 29.824 145.968V147ZM24.16 139.368V138.36H29.824V139.368H24.16ZM34.8698 147.24C34.0271 147.24 33.2964 147.053 32.6778 146.68C32.0644 146.307 31.5871 145.781 31.2458 145.104C30.9044 144.427 30.7338 143.632 30.7338 142.72C30.7338 141.776 30.9018 140.96 31.2378 140.272C31.5738 139.584 32.0458 139.053 32.6538 138.68C33.2671 138.307 33.9898 138.12 34.8218 138.12C35.6751 138.12 36.4031 138.317 37.0058 138.712C37.6084 139.101 38.0644 139.661 38.3738 140.392C38.6831 141.123 38.8244 141.995 38.7978 143.008H37.5978V142.592C37.5764 141.472 37.3338 140.627 36.8698 140.056C36.4111 139.485 35.7391 139.2 34.8538 139.2C33.9258 139.2 33.2138 139.501 32.7178 140.104C32.2271 140.707 31.9818 141.565 31.9818 142.68C31.9818 143.768 32.2271 144.613 32.7178 145.216C33.2138 145.813 33.9151 146.112 34.8218 146.112C35.4404 146.112 35.9791 145.971 36.4378 145.688C36.9018 145.4 37.2671 144.987 37.5338 144.448L38.6298 144.872C38.2884 145.624 37.7844 146.208 37.1178 146.624C36.4564 147.035 35.7071 147.24 34.8698 147.24ZM31.5658 143.008V142.024H38.1658V143.008H31.5658ZM50.6428 147L50.6508 141.328C50.6508 140.661 50.4641 140.139 50.0908 139.76C49.7228 139.376 49.2534 139.184 48.6828 139.184C48.3574 139.184 48.0401 139.259 47.7308 139.408C47.4214 139.557 47.1654 139.797 46.9628 140.128C46.7654 140.459 46.6668 140.891 46.6668 141.424L45.9708 141.224C45.9548 140.605 46.0748 140.064 46.3308 139.6C46.5921 139.136 46.9494 138.776 47.4028 138.52C47.8614 138.259 48.3788 138.128 48.9548 138.128C49.8241 138.128 50.5201 138.397 51.0428 138.936C51.5654 139.469 51.8268 140.192 51.8268 141.104L51.8188 147H50.6428ZM40.3308 147V138.36H41.3868V140.488H41.5148V147H40.3308ZM45.4988 147L45.5068 141.408C45.5068 140.72 45.3228 140.179 44.9548 139.784C44.5921 139.384 44.1121 139.184 43.5148 139.184C42.9174 139.184 42.4348 139.389 42.0668 139.8C41.6988 140.205 41.5148 140.747 41.5148 141.424L40.8108 141.04C40.8108 140.485 40.9414 139.989 41.2028 139.552C41.4641 139.109 41.8214 138.763 42.2748 138.512C42.7281 138.256 43.2428 138.128 43.8188 138.128C44.3681 138.128 44.8561 138.245 45.2828 138.48C45.7148 138.715 46.0534 139.056 46.2988 139.504C46.5441 139.952 46.6668 140.496 46.6668 141.136L46.6588 147H45.4988ZM57.7812 147.24C56.9866 147.24 56.3146 147.04 55.7653 146.64C55.2159 146.235 54.7999 145.688 54.5173 145C54.2346 144.307 54.0933 143.531 54.0933 142.672C54.0933 141.797 54.2346 141.019 54.5173 140.336C54.8053 139.648 55.2266 139.107 55.7813 138.712C56.3359 138.317 57.0186 138.12 57.8293 138.12C58.6186 138.12 59.2959 138.32 59.8613 138.72C60.4266 139.12 60.8586 139.664 61.1573 140.352C61.4613 141.04 61.6133 141.813 61.6133 142.672C61.6133 143.536 61.4613 144.312 61.1573 145C60.8533 145.688 60.4159 146.235 59.8453 146.64C59.2746 147.04 58.5866 147.24 57.7812 147.24ZM53.8933 150.84V138.36H54.9493V144.864H55.0773V150.84H53.8933ZM57.6613 146.144C58.2639 146.144 58.7653 145.992 59.1653 145.688C59.5653 145.384 59.8639 144.971 60.0613 144.448C60.2639 143.92 60.3653 143.328 60.3653 142.672C60.3653 142.021 60.2666 141.435 60.0693 140.912C59.8719 140.389 59.5706 139.976 59.1653 139.672C58.7653 139.368 58.2559 139.216 57.6373 139.216C57.0346 139.216 56.5333 139.363 56.1333 139.656C55.7386 139.949 55.4426 140.357 55.2453 140.88C55.0479 141.397 54.9493 141.995 54.9493 142.672C54.9493 143.339 55.0479 143.936 55.2453 144.464C55.4426 144.987 55.7413 145.397 56.1413 145.696C56.5413 145.995 57.0479 146.144 57.6613 146.144ZM66.674 147.216C66.1567 147.216 65.7033 147.136 65.314 146.976C64.93 146.816 64.602 146.6 64.33 146.328C64.0633 146.056 63.8473 145.747 63.682 145.4C63.5167 145.048 63.3967 144.677 63.322 144.288C63.2473 143.893 63.21 143.501 63.21 143.112V138.36H64.394V142.768C64.394 143.243 64.4393 143.683 64.53 144.088C64.6207 144.493 64.7647 144.848 64.962 145.152C65.1647 145.451 65.4233 145.683 65.738 145.848C66.058 146.013 66.4447 146.096 66.898 146.096C67.314 146.096 67.6793 146.024 67.994 145.88C68.314 145.736 68.5807 145.531 68.794 145.264C69.0127 144.992 69.178 144.664 69.29 144.28C69.402 143.891 69.458 143.453 69.458 142.968L70.29 143.152C70.29 144.037 70.1353 144.781 69.826 145.384C69.5167 145.987 69.09 146.443 68.546 146.752C68.002 147.061 67.378 147.216 66.674 147.216ZM69.578 147V144.872H69.458V138.36H70.634V147H69.578ZM76.094 147.232C75.0807 147.232 74.246 147.013 73.59 146.576C72.9393 146.139 72.5393 145.531 72.39 144.752L73.59 144.552C73.718 145.043 74.0087 145.435 74.462 145.728C74.9207 146.016 75.486 146.16 76.158 146.16C76.814 146.16 77.3313 146.024 77.71 145.752C78.0887 145.475 78.278 145.099 78.278 144.624C78.278 144.357 78.2167 144.141 78.094 143.976C77.9767 143.805 77.734 143.648 77.366 143.504C76.998 143.36 76.4487 143.189 75.718 142.992C74.934 142.779 74.3207 142.565 73.878 142.352C73.4353 142.139 73.1207 141.893 72.934 141.616C72.7473 141.333 72.654 140.989 72.654 140.584C72.654 140.093 72.7927 139.664 73.07 139.296C73.3473 138.923 73.7313 138.635 74.222 138.432C74.7127 138.224 75.2833 138.12 75.934 138.12C76.5847 138.12 77.166 138.227 77.678 138.44C78.1953 138.648 78.6113 138.941 78.926 139.32C79.2407 139.699 79.4273 140.139 79.486 140.64L78.286 140.856C78.206 140.349 77.9527 139.949 77.526 139.656C77.1047 139.357 76.5687 139.203 75.918 139.192C75.3047 139.176 74.806 139.293 74.422 139.544C74.038 139.789 73.846 140.117 73.846 140.528C73.846 140.757 73.9153 140.955 74.054 141.12C74.1927 141.28 74.4433 141.432 74.806 141.576C75.174 141.72 75.6967 141.877 76.374 142.048C77.1687 142.251 77.7927 142.464 78.246 142.688C78.6993 142.912 79.022 143.176 79.214 143.48C79.406 143.784 79.502 144.16 79.502 144.608C79.502 145.424 79.198 146.067 78.59 146.536C77.9873 147 77.1553 147.232 76.094 147.232ZM87.8314 147.24C87.026 147.24 86.338 147.04 85.7674 146.64C85.1967 146.235 84.7594 145.688 84.4554 145C84.1514 144.312 83.9994 143.536 83.9994 142.672C83.9994 141.813 84.1487 141.04 84.4474 140.352C84.7514 139.664 85.186 139.12 85.7514 138.72C86.3167 138.32 86.994 138.12 87.7834 138.12C88.594 138.12 89.2767 138.317 89.8314 138.712C90.386 139.107 90.8047 139.648 91.0874 140.336C91.3754 141.019 91.5194 141.797 91.5194 142.672C91.5194 143.531 91.378 144.307 91.0954 145C90.8127 145.688 90.3967 146.235 89.8474 146.64C89.298 147.04 88.626 147.24 87.8314 147.24ZM87.9514 146.144C88.5647 146.144 89.0714 145.995 89.4714 145.696C89.8714 145.397 90.17 144.987 90.3674 144.464C90.5647 143.936 90.6634 143.339 90.6634 142.672C90.6634 141.995 90.5647 141.397 90.3674 140.88C90.17 140.357 89.8714 139.949 89.4714 139.656C89.0767 139.363 88.578 139.216 87.9754 139.216C87.3567 139.216 86.8447 139.368 86.4394 139.672C86.034 139.976 85.7327 140.389 85.5354 140.912C85.3434 141.435 85.2474 142.021 85.2474 142.672C85.2474 143.328 85.346 143.92 85.5434 144.448C85.746 144.971 86.0474 145.384 86.4474 145.688C86.8474 145.992 87.3487 146.144 87.9514 146.144ZM90.5354 150.84V144.864H90.6634V138.36H91.7194V150.84H90.5354ZM97.2678 147.216C96.7504 147.216 96.2971 147.136 95.9078 146.976C95.5238 146.816 95.1958 146.6 94.9238 146.328C94.6571 146.056 94.4411 145.747 94.2758 145.4C94.1104 145.048 93.9904 144.677 93.9158 144.288C93.8411 143.893 93.8038 143.501 93.8038 143.112V138.36H94.9878V142.768C94.9878 143.243 95.0331 143.683 95.1238 144.088C95.2144 144.493 95.3584 144.848 95.5558 145.152C95.7584 145.451 96.0171 145.683 96.3318 145.848C96.6518 146.013 97.0384 146.096 97.4918 146.096C97.9078 146.096 98.2731 146.024 98.5878 145.88C98.9078 145.736 99.1744 145.531 99.3878 145.264C99.6064 144.992 99.7718 144.664 99.8838 144.28C99.9958 143.891 100.052 143.453 100.052 142.968L100.884 143.152C100.884 144.037 100.729 144.781 100.42 145.384C100.11 145.987 99.6838 146.443 99.1398 146.752C98.5958 147.061 97.9718 147.216 97.2678 147.216ZM100.172 147V144.872H100.052V138.36H101.228V147H100.172ZM103.624 136.72V135.4H104.8V136.72H103.624ZM103.624 147V138.36H104.8V147H103.624ZM110.422 147.232C109.409 147.232 108.574 147.013 107.918 146.576C107.267 146.139 106.867 145.531 106.718 144.752L107.918 144.552C108.046 145.043 108.337 145.435 108.79 145.728C109.249 146.016 109.814 146.16 110.486 146.16C111.142 146.16 111.659 146.024 112.038 145.752C112.417 145.475 112.606 145.099 112.606 144.624C112.606 144.357 112.545 144.141 112.422 143.976C112.305 143.805 112.062 143.648 111.694 143.504C111.326 143.36 110.777 143.189 110.046 142.992C109.262 142.779 108.649 142.565 108.206 142.352C107.763 142.139 107.449 141.893 107.262 141.616C107.075 141.333 106.982 140.989 106.982 140.584C106.982 140.093 107.121 139.664 107.398 139.296C107.675 138.923 108.059 138.635 108.55 138.432C109.041 138.224 109.611 138.12 110.262 138.12C110.913 138.12 111.494 138.227 112.006 138.44C112.523 138.648 112.939 138.941 113.254 139.32C113.569 139.699 113.755 140.139 113.814 140.64L112.614 140.856C112.534 140.349 112.281 139.949 111.854 139.656C111.433 139.357 110.897 139.203 110.246 139.192C109.633 139.176 109.134 139.293 108.75 139.544C108.366 139.789 108.174 140.117 108.174 140.528C108.174 140.757 108.243 140.955 108.382 141.12C108.521 141.28 108.771 141.432 109.134 141.576C109.502 141.72 110.025 141.877 110.702 142.048C111.497 142.251 112.121 142.464 112.574 142.688C113.027 142.912 113.35 143.176 113.542 143.48C113.734 143.784 113.83 144.16 113.83 144.608C113.83 145.424 113.526 146.067 112.918 146.536C112.315 147 111.483 147.232 110.422 147.232ZM118.968 136.72V135.4H120.144V136.72H118.968ZM118.968 147V138.36H120.144V147H118.968ZM128.782 147V142.592C128.782 142.112 128.737 141.672 128.646 141.272C128.555 140.867 128.409 140.515 128.206 140.216C128.009 139.912 127.75 139.677 127.43 139.512C127.115 139.347 126.731 139.264 126.278 139.264C125.862 139.264 125.494 139.336 125.174 139.48C124.859 139.624 124.593 139.832 124.374 140.104C124.161 140.371 123.998 140.696 123.886 141.08C123.774 141.464 123.718 141.901 123.718 142.392L122.886 142.208C122.886 141.323 123.041 140.579 123.35 139.976C123.659 139.373 124.086 138.917 124.63 138.608C125.174 138.299 125.798 138.144 126.502 138.144C127.019 138.144 127.47 138.224 127.854 138.384C128.243 138.544 128.571 138.76 128.838 139.032C129.11 139.304 129.329 139.616 129.494 139.968C129.659 140.315 129.779 140.685 129.854 141.08C129.929 141.469 129.966 141.859 129.966 142.248V147H128.782ZM122.534 147V138.36H123.598V140.488H123.718V147H122.534ZM136.746 147C136.261 147.101 135.781 147.141 135.306 147.12C134.837 147.099 134.415 146.997 134.042 146.816C133.674 146.635 133.394 146.352 133.202 145.968C133.047 145.648 132.962 145.325 132.946 145C132.935 144.669 132.93 144.293 132.93 143.872V135.96H134.098V143.824C134.098 144.187 134.101 144.491 134.106 144.736C134.117 144.976 134.173 145.189 134.274 145.376C134.466 145.733 134.77 145.947 135.186 146.016C135.607 146.085 136.127 146.069 136.746 145.968V147ZM131.082 139.368V138.36H136.746V139.368H131.082ZM141.792 147.24C140.949 147.24 140.218 147.053 139.6 146.68C138.986 146.307 138.509 145.781 138.168 145.104C137.826 144.427 137.656 143.632 137.656 142.72C137.656 141.776 137.824 140.96 138.16 140.272C138.496 139.584 138.968 139.053 139.576 138.68C140.189 138.307 140.912 138.12 141.744 138.12C142.597 138.12 143.325 138.317 143.928 138.712C144.53 139.101 144.986 139.661 145.296 140.392C145.605 141.123 145.746 141.995 145.72 143.008H144.52V142.592C144.498 141.472 144.256 140.627 143.792 140.056C143.333 139.485 142.661 139.2 141.776 139.2C140.848 139.2 140.136 139.501 139.64 140.104C139.149 140.707 138.904 141.565 138.904 142.68C138.904 143.768 139.149 144.613 139.64 145.216C140.136 145.813 140.837 146.112 141.744 146.112C142.362 146.112 142.901 145.971 143.36 145.688C143.824 145.4 144.189 144.987 144.456 144.448L145.552 144.872C145.21 145.624 144.706 146.208 144.04 146.624C143.378 147.035 142.629 147.24 141.792 147.24ZM138.488 143.008V142.024H145.088V143.008H138.488ZM150.927 151.08C150.484 151.08 150.047 151.013 149.615 150.88C149.188 150.752 148.794 150.547 148.431 150.264C148.068 149.987 147.764 149.624 147.519 149.176L148.583 148.584C148.823 149.064 149.159 149.408 149.591 149.616C150.028 149.829 150.474 149.936 150.927 149.936C151.551 149.936 152.055 149.819 152.439 149.584C152.828 149.355 153.111 149.013 153.287 148.56C153.463 148.107 153.548 147.541 153.543 146.864V144.56H153.679V138.36H154.727V146.88C154.727 147.125 154.719 147.36 154.703 147.584C154.692 147.813 154.668 148.037 154.631 148.256C154.53 148.901 154.319 149.432 153.999 149.848C153.684 150.264 153.268 150.573 152.751 150.776C152.239 150.979 151.631 151.08 150.927 151.08ZM150.847 147.24C150.042 147.24 149.354 147.04 148.783 146.64C148.212 146.235 147.775 145.688 147.471 145C147.167 144.312 147.015 143.536 147.015 142.672C147.015 141.813 147.164 141.04 147.463 140.352C147.767 139.664 148.202 139.12 148.767 138.72C149.332 138.32 150.01 138.12 150.799 138.12C151.61 138.12 152.292 138.317 152.847 138.712C153.402 139.107 153.82 139.648 154.103 140.336C154.391 141.019 154.535 141.797 154.535 142.672C154.535 143.531 154.394 144.307 154.111 145C153.828 145.688 153.412 146.235 152.863 146.64C152.314 147.04 151.642 147.24 150.847 147.24ZM150.967 146.144C151.58 146.144 152.087 145.995 152.487 145.696C152.887 145.397 153.186 144.987 153.383 144.464C153.58 143.936 153.679 143.339 153.679 142.672C153.679 141.995 153.58 141.397 153.383 140.88C153.186 140.357 152.887 139.949 152.487 139.656C152.092 139.363 151.594 139.216 150.991 139.216C150.372 139.216 149.86 139.368 149.455 139.672C149.05 139.976 148.748 140.389 148.551 140.912C148.359 141.435 148.263 142.021 148.263 142.672C148.263 143.328 148.362 143.92 148.559 144.448C148.762 144.971 149.063 145.384 149.463 145.688C149.863 145.992 150.364 146.144 150.967 146.144ZM160.62 147.24C159.777 147.24 159.046 147.053 158.428 146.68C157.814 146.307 157.337 145.781 156.996 145.104C156.654 144.427 156.484 143.632 156.484 142.72C156.484 141.776 156.652 140.96 156.988 140.272C157.324 139.584 157.796 139.053 158.404 138.68C159.017 138.307 159.74 138.12 160.572 138.12C161.425 138.12 162.153 138.317 162.756 138.712C163.358 139.101 163.814 139.661 164.124 140.392C164.433 141.123 164.574 141.995 164.548 143.008H163.348V142.592C163.326 141.472 163.084 140.627 162.62 140.056C162.161 139.485 161.489 139.2 160.604 139.2C159.676 139.2 158.964 139.501 158.468 140.104C157.977 140.707 157.732 141.565 157.732 142.68C157.732 143.768 157.977 144.613 158.468 145.216C158.964 145.813 159.665 146.112 160.572 146.112C161.19 146.112 161.729 145.971 162.188 145.688C162.652 145.4 163.017 144.987 163.284 144.448L164.38 144.872C164.038 145.624 163.534 146.208 162.868 146.624C162.206 147.035 161.457 147.24 160.62 147.24ZM157.316 143.008V142.024H163.916V143.008H157.316ZM166.323 147V138.36H167.379V140.44L167.171 140.168C167.267 139.912 167.392 139.677 167.547 139.464C167.702 139.245 167.87 139.067 168.051 138.928C168.275 138.731 168.536 138.581 168.835 138.48C169.134 138.373 169.435 138.312 169.739 138.296C170.043 138.275 170.32 138.296 170.571 138.36V139.464C170.256 139.384 169.912 139.365 169.539 139.408C169.166 139.451 168.822 139.6 168.507 139.856C168.219 140.08 168.003 140.349 167.859 140.664C167.715 140.973 167.619 141.304 167.571 141.656C167.523 142.003 167.499 142.347 167.499 142.688V147H166.323ZM178.948 147.24C178.105 147.24 177.375 147.053 176.756 146.68C176.143 146.307 175.665 145.781 175.324 145.104C174.983 144.427 174.812 143.632 174.812 142.72C174.812 141.776 174.98 140.96 175.316 140.272C175.652 139.584 176.124 139.053 176.732 138.68C177.345 138.307 178.068 138.12 178.9 138.12C179.753 138.12 180.481 138.317 181.084 138.712C181.687 139.101 182.143 139.661 182.452 140.392C182.761 141.123 182.903 141.995 182.876 143.008H181.676V142.592C181.655 141.472 181.412 140.627 180.948 140.056C180.489 139.485 179.817 139.2 178.932 139.2C178.004 139.2 177.292 139.501 176.796 140.104C176.305 140.707 176.06 141.565 176.06 142.68C176.06 143.768 176.305 144.613 176.796 145.216C177.292 145.813 177.993 146.112 178.9 146.112C179.519 146.112 180.057 145.971 180.516 145.688C180.98 145.4 181.345 144.987 181.612 144.448L182.708 144.872C182.367 145.624 181.863 146.208 181.196 146.624C180.535 147.035 179.785 147.24 178.948 147.24ZM175.644 143.008V142.024H182.244V143.008H175.644ZM187.875 147.232C186.862 147.232 186.027 147.013 185.371 146.576C184.721 146.139 184.321 145.531 184.171 144.752L185.371 144.552C185.499 145.043 185.79 145.435 186.243 145.728C186.702 146.016 187.267 146.16 187.939 146.16C188.595 146.16 189.113 146.024 189.491 145.752C189.87 145.475 190.059 145.099 190.059 144.624C190.059 144.357 189.998 144.141 189.875 143.976C189.758 143.805 189.515 143.648 189.147 143.504C188.779 143.36 188.23 143.189 187.499 142.992C186.715 142.779 186.102 142.565 185.659 142.352C185.217 142.139 184.902 141.893 184.715 141.616C184.529 141.333 184.435 140.989 184.435 140.584C184.435 140.093 184.574 139.664 184.851 139.296C185.129 138.923 185.513 138.635 186.003 138.432C186.494 138.224 187.065 138.12 187.715 138.12C188.366 138.12 188.947 138.227 189.459 138.44C189.977 138.648 190.393 138.941 190.707 139.32C191.022 139.699 191.209 140.139 191.267 140.64L190.067 140.856C189.987 140.349 189.734 139.949 189.307 139.656C188.886 139.357 188.35 139.203 187.699 139.192C187.086 139.176 186.587 139.293 186.203 139.544C185.819 139.789 185.627 140.117 185.627 140.528C185.627 140.757 185.697 140.955 185.835 141.12C185.974 141.28 186.225 141.432 186.587 141.576C186.955 141.72 187.478 141.877 188.155 142.048C188.95 142.251 189.574 142.464 190.027 142.688C190.481 142.912 190.803 143.176 190.995 143.48C191.187 143.784 191.283 144.16 191.283 144.608C191.283 145.424 190.979 146.067 190.371 146.536C189.769 147 188.937 147.232 187.875 147.232ZM197.762 147C197.276 147.101 196.796 147.141 196.322 147.12C195.852 147.099 195.431 146.997 195.058 146.816C194.69 146.635 194.41 146.352 194.218 145.968C194.063 145.648 193.978 145.325 193.962 145C193.951 144.669 193.946 144.293 193.946 143.872V135.96H195.114V143.824C195.114 144.187 195.116 144.491 195.122 144.736C195.132 144.976 195.188 145.189 195.29 145.376C195.482 145.733 195.786 145.947 196.202 146.016C196.623 146.085 197.143 146.069 197.762 145.968V147ZM192.098 139.368V138.36H197.762V139.368H192.098ZM205.891 147.232C204.878 147.232 204.043 147.013 203.387 146.576C202.736 146.139 202.336 145.531 202.187 144.752L203.387 144.552C203.515 145.043 203.806 145.435 204.259 145.728C204.718 146.016 205.283 146.16 205.955 146.16C206.611 146.16 207.128 146.024 207.507 145.752C207.886 145.475 208.075 145.099 208.075 144.624C208.075 144.357 208.014 144.141 207.891 143.976C207.774 143.805 207.531 143.648 207.163 143.504C206.795 143.36 206.246 143.189 205.515 142.992C204.731 142.779 204.118 142.565 203.675 142.352C203.232 142.139 202.918 141.893 202.731 141.616C202.544 141.333 202.451 140.989 202.451 140.584C202.451 140.093 202.59 139.664 202.867 139.296C203.144 138.923 203.528 138.635 204.019 138.432C204.51 138.224 205.08 138.12 205.731 138.12C206.382 138.12 206.963 138.227 207.475 138.44C207.992 138.648 208.408 138.941 208.723 139.32C209.038 139.699 209.224 140.139 209.283 140.64L208.083 140.856C208.003 140.349 207.75 139.949 207.323 139.656C206.902 139.357 206.366 139.203 205.715 139.192C205.102 139.176 204.603 139.293 204.219 139.544C203.835 139.789 203.643 140.117 203.643 140.528C203.643 140.757 203.712 140.955 203.851 141.12C203.99 141.28 204.24 141.432 204.603 141.576C204.971 141.72 205.494 141.877 206.171 142.048C206.966 142.251 207.59 142.464 208.043 142.688C208.496 142.912 208.819 143.176 209.011 143.48C209.203 143.784 209.299 144.16 209.299 144.608C209.299 145.424 208.995 146.067 208.387 146.536C207.784 147 206.952 147.232 205.891 147.232ZM211.233 136.72V135.4H212.409V136.72H211.233ZM211.233 147V138.36H212.409V147H211.233ZM219.512 147C219.026 147.101 218.546 147.141 218.072 147.12C217.602 147.099 217.181 146.997 216.808 146.816C216.44 146.635 216.16 146.352 215.968 145.968C215.813 145.648 215.728 145.325 215.712 145C215.701 144.669 215.696 144.293 215.696 143.872V135.96H216.864V143.824C216.864 144.187 216.866 144.491 216.872 144.736C216.882 144.976 216.938 145.189 217.04 145.376C217.232 145.733 217.536 145.947 217.952 146.016C218.373 146.085 218.893 146.069 219.512 145.968V147ZM213.848 139.368V138.36H219.512V139.368H213.848ZM31.36 172V167.592C31.36 167.112 31.3147 166.672 31.224 166.272C31.1333 165.867 30.9867 165.515 30.784 165.216C30.5867 164.912 30.328 164.677 30.008 164.512C29.6933 164.347 29.3093 164.264 28.856 164.264C28.44 164.264 28.072 164.336 27.752 164.48C27.4373 164.624 27.1707 164.832 26.952 165.104C26.7387 165.371 26.576 165.696 26.464 166.08C26.352 166.464 26.296 166.901 26.296 167.392L25.464 167.208C25.464 166.323 25.6187 165.579 25.928 164.976C26.2373 164.373 26.664 163.917 27.208 163.608C27.752 163.299 28.376 163.144 29.08 163.144C29.5973 163.144 30.048 163.224 30.432 163.384C30.8213 163.544 31.1493 163.76 31.416 164.032C31.688 164.304 31.9067 164.616 32.072 164.968C32.2373 165.315 32.3573 165.685 32.432 166.08C32.5067 166.469 32.544 166.859 32.544 167.248V172H31.36ZM25.112 172V163.36H26.176V165.488H26.296V172H25.112ZM37.092 172.24C36.4413 172.24 35.8947 172.123 35.452 171.888C35.0147 171.653 34.6867 171.341 34.468 170.952C34.2493 170.563 34.14 170.139 34.14 169.68C34.14 169.211 34.2333 168.811 34.42 168.48C34.612 168.144 34.8707 167.869 35.196 167.656C35.5267 167.443 35.908 167.28 36.34 167.168C36.7773 167.061 37.26 166.968 37.788 166.888C38.3213 166.803 38.8413 166.731 39.348 166.672C39.86 166.608 40.308 166.547 40.692 166.488L40.276 166.744C40.292 165.891 40.1267 165.259 39.78 164.848C39.4333 164.437 38.8307 164.232 37.972 164.232C37.38 164.232 36.8787 164.365 36.468 164.632C36.0627 164.899 35.7773 165.32 35.612 165.896L34.468 165.56C34.6653 164.787 35.0627 164.187 35.66 163.76C36.2573 163.333 37.0333 163.12 37.988 163.12C38.7773 163.12 39.4467 163.269 39.996 163.568C40.5507 163.861 40.9427 164.288 41.172 164.848C41.2787 165.099 41.348 165.379 41.38 165.688C41.412 165.997 41.428 166.312 41.428 166.632V172H40.38V169.832L40.684 169.96C40.3907 170.701 39.9347 171.267 39.316 171.656C38.6973 172.045 37.956 172.24 37.092 172.24ZM37.228 171.224C37.7773 171.224 38.2573 171.125 38.668 170.928C39.0787 170.731 39.4093 170.461 39.66 170.12C39.9107 169.773 40.0733 169.384 40.148 168.952C40.212 168.675 40.2467 168.371 40.252 168.04C40.2573 167.704 40.26 167.453 40.26 167.288L40.708 167.52C40.308 167.573 39.8733 167.627 39.404 167.68C38.94 167.733 38.4813 167.795 38.028 167.864C37.58 167.933 37.1747 168.016 36.812 168.112C36.5667 168.181 36.3293 168.28 36.1 168.408C35.8707 168.531 35.6813 168.696 35.532 168.904C35.388 169.112 35.316 169.371 35.316 169.68C35.316 169.931 35.3773 170.173 35.5 170.408C35.628 170.643 35.8307 170.837 36.108 170.992C36.3907 171.147 36.764 171.224 37.228 171.224ZM48.2146 172C47.7293 172.101 47.2493 172.141 46.7746 172.12C46.3053 172.099 45.884 171.997 45.5106 171.816C45.1426 171.635 44.8626 171.352 44.6706 170.968C44.516 170.648 44.4306 170.325 44.4146 170C44.404 169.669 44.3986 169.293 44.3986 168.872V160.96H45.5666V168.824C45.5666 169.187 45.5693 169.491 45.5746 169.736C45.5853 169.976 45.6413 170.189 45.7426 170.376C45.9346 170.733 46.2386 170.947 46.6546 171.016C47.076 171.085 47.596 171.069 48.2146 170.968V172ZM42.5506 164.368V163.36H48.2146V164.368H42.5506ZM53.2124 172.24C52.3537 172.24 51.6204 172.045 51.0124 171.656C50.4044 171.267 49.9377 170.728 49.6124 170.04C49.287 169.352 49.1244 168.563 49.1244 167.672C49.1244 166.765 49.2897 165.971 49.6204 165.288C49.951 164.605 50.4204 164.075 51.0284 163.696C51.6417 163.312 52.3697 163.12 53.2124 163.12C54.0764 163.12 54.8124 163.315 55.4204 163.704C56.0337 164.088 56.5004 164.624 56.8204 165.312C57.1457 165.995 57.3084 166.781 57.3084 167.672C57.3084 168.579 57.1457 169.376 56.8204 170.064C56.495 170.747 56.0257 171.28 55.4124 171.664C54.799 172.048 54.0657 172.24 53.2124 172.24ZM53.2124 171.112C54.1724 171.112 54.887 170.795 55.3564 170.16C55.8257 169.52 56.0604 168.691 56.0604 167.672C56.0604 166.627 55.823 165.795 55.3484 165.176C54.879 164.557 54.167 164.248 53.2124 164.248C52.567 164.248 52.0337 164.395 51.6124 164.688C51.1964 164.976 50.8844 165.379 50.6764 165.896C50.4737 166.408 50.3724 167 50.3724 167.672C50.3724 168.712 50.6124 169.547 51.0924 170.176C51.5724 170.8 52.279 171.112 53.2124 171.112ZM62.4251 172.24C61.6198 172.24 60.9318 172.04 60.3611 171.64C59.7905 171.235 59.3531 170.688 59.0491 170C58.7451 169.312 58.5931 168.536 58.5931 167.672C58.5931 166.813 58.7425 166.04 59.0411 165.352C59.3451 164.664 59.7798 164.12 60.3451 163.72C60.9105 163.32 61.5878 163.12 62.3771 163.12C63.1878 163.12 63.8705 163.317 64.4251 163.712C64.9798 164.107 65.3985 164.648 65.6811 165.336C65.9691 166.019 66.1131 166.797 66.1131 167.672C66.1131 168.531 65.9718 169.307 65.6891 170C65.4065 170.688 64.9905 171.235 64.4411 171.64C63.8918 172.04 63.2198 172.24 62.4251 172.24ZM62.5451 171.144C63.1585 171.144 63.6651 170.995 64.0651 170.696C64.4651 170.397 64.7638 169.987 64.9611 169.464C65.1585 168.936 65.2571 168.339 65.2571 167.672C65.2571 166.995 65.1585 166.397 64.9611 165.88C64.7638 165.357 64.4651 164.949 64.0651 164.656C63.6705 164.363 63.1718 164.216 62.5691 164.216C61.9505 164.216 61.4385 164.368 61.0331 164.672C60.6278 164.976 60.3265 165.389 60.1291 165.912C59.9371 166.435 59.8411 167.021 59.8411 167.672C59.8411 168.328 59.9398 168.92 60.1371 169.448C60.3398 169.971 60.6411 170.384 61.0411 170.688C61.4411 170.992 61.9425 171.144 62.5451 171.144ZM65.1291 175.84V169.864H65.2571V163.36H66.3131V175.84H65.1291ZM71.8615 172.216C71.3442 172.216 70.8908 172.136 70.5015 171.976C70.1175 171.816 69.7895 171.6 69.5175 171.328C69.2508 171.056 69.0348 170.747 68.8695 170.4C68.7042 170.048 68.5842 169.677 68.5095 169.288C68.4348 168.893 68.3975 168.501 68.3975 168.112V163.36H69.5815V167.768C69.5815 168.243 69.6268 168.683 69.7175 169.088C69.8082 169.493 69.9522 169.848 70.1495 170.152C70.3522 170.451 70.6108 170.683 70.9255 170.848C71.2455 171.013 71.6322 171.096 72.0855 171.096C72.5015 171.096 72.8668 171.024 73.1815 170.88C73.5015 170.736 73.7682 170.531 73.9815 170.264C74.2002 169.992 74.3655 169.664 74.4775 169.28C74.5895 168.891 74.6455 168.453 74.6455 167.968L75.4775 168.152C75.4775 169.037 75.3228 169.781 75.0135 170.384C74.7042 170.987 74.2775 171.443 73.7335 171.752C73.1895 172.061 72.5655 172.216 71.8615 172.216ZM74.7655 172V169.872H74.6455V163.36H75.8215V172H74.7655ZM81.7135 172.24C80.8708 172.24 80.1402 172.053 79.5215 171.68C78.9082 171.307 78.4308 170.781 78.0895 170.104C77.7482 169.427 77.5775 168.632 77.5775 167.72C77.5775 166.776 77.7455 165.96 78.0815 165.272C78.4175 164.584 78.8895 164.053 79.4975 163.68C80.1108 163.307 80.8335 163.12 81.6655 163.12C82.5188 163.12 83.2468 163.317 83.8495 163.712C84.4522 164.101 84.9082 164.661 85.2175 165.392C85.5268 166.123 85.6682 166.995 85.6415 168.008H84.4415V167.592C84.4202 166.472 84.1775 165.627 83.7135 165.056C83.2548 164.485 82.5828 164.2 81.6975 164.2C80.7695 164.2 80.0575 164.501 79.5615 165.104C79.0708 165.707 78.8255 166.565 78.8255 167.68C78.8255 168.768 79.0708 169.613 79.5615 170.216C80.0575 170.813 80.7588 171.112 81.6655 171.112C82.2842 171.112 82.8228 170.971 83.2815 170.688C83.7455 170.4 84.1108 169.987 84.3775 169.448L85.4735 169.872C85.1322 170.624 84.6282 171.208 83.9615 171.624C83.3002 172.035 82.5508 172.24 81.7135 172.24ZM78.4095 168.008V167.024H85.0095V168.008H78.4095ZM94.5 172.24C93.7053 172.24 93.0333 172.04 92.484 171.64C91.9347 171.235 91.5187 170.688 91.236 170C90.9533 169.307 90.812 168.531 90.812 167.672C90.812 166.797 90.9533 166.019 91.236 165.336C91.524 164.648 91.9453 164.107 92.5 163.712C93.0547 163.317 93.7373 163.12 94.548 163.12C95.3373 163.12 96.0147 163.32 96.58 163.72C97.1453 164.12 97.5773 164.664 97.876 165.352C98.18 166.04 98.332 166.813 98.332 167.672C98.332 168.536 98.18 169.312 97.876 170C97.572 170.688 97.1347 171.235 96.564 171.64C95.9933 172.04 95.3053 172.24 94.5 172.24ZM90.612 175.84V163.36H91.668V169.864H91.796V175.84H90.612ZM94.38 171.144C94.9827 171.144 95.484 170.992 95.884 170.688C96.284 170.384 96.5827 169.971 96.78 169.448C96.9827 168.92 97.084 168.328 97.084 167.672C97.084 167.021 96.9853 166.435 96.788 165.912C96.5907 165.389 96.2893 164.976 95.884 164.672C95.484 164.368 94.9747 164.216 94.356 164.216C93.7533 164.216 93.252 164.363 92.852 164.656C92.4573 164.949 92.1613 165.357 91.964 165.88C91.7667 166.397 91.668 166.995 91.668 167.672C91.668 168.339 91.7667 168.936 91.964 169.464C92.1613 169.987 92.46 170.397 92.86 170.696C93.26 170.995 93.7667 171.144 94.38 171.144ZM100.249 172V160.24H101.425V172H100.249ZM106.295 172.24C105.644 172.24 105.098 172.123 104.655 171.888C104.218 171.653 103.89 171.341 103.671 170.952C103.452 170.563 103.343 170.139 103.343 169.68C103.343 169.211 103.436 168.811 103.623 168.48C103.815 168.144 104.074 167.869 104.399 167.656C104.73 167.443 105.111 167.28 105.543 167.168C105.98 167.061 106.463 166.968 106.991 166.888C107.524 166.803 108.044 166.731 108.551 166.672C109.063 166.608 109.511 166.547 109.895 166.488L109.479 166.744C109.495 165.891 109.33 165.259 108.983 164.848C108.636 164.437 108.034 164.232 107.175 164.232C106.583 164.232 106.082 164.365 105.671 164.632C105.266 164.899 104.98 165.32 104.815 165.896L103.671 165.56C103.868 164.787 104.266 164.187 104.863 163.76C105.46 163.333 106.236 163.12 107.191 163.12C107.98 163.12 108.65 163.269 109.199 163.568C109.754 163.861 110.146 164.288 110.375 164.848C110.482 165.099 110.551 165.379 110.583 165.688C110.615 165.997 110.631 166.312 110.631 166.632V172H109.583V169.832L109.887 169.96C109.594 170.701 109.138 171.267 108.519 171.656C107.9 172.045 107.159 172.24 106.295 172.24ZM106.431 171.224C106.98 171.224 107.46 171.125 107.871 170.928C108.282 170.731 108.612 170.461 108.863 170.12C109.114 169.773 109.276 169.384 109.351 168.952C109.415 168.675 109.45 168.371 109.455 168.04C109.46 167.704 109.463 167.453 109.463 167.288L109.911 167.52C109.511 167.573 109.076 167.627 108.607 167.68C108.143 167.733 107.684 167.795 107.231 167.864C106.783 167.933 106.378 168.016 106.015 168.112C105.77 168.181 105.532 168.28 105.303 168.408C105.074 168.531 104.884 168.696 104.735 168.904C104.591 169.112 104.519 169.371 104.519 169.68C104.519 169.931 104.58 170.173 104.703 170.408C104.831 170.643 105.034 170.837 105.311 170.992C105.594 171.147 105.967 171.224 106.431 171.224ZM116.298 172.24C115.428 172.24 114.692 172.045 114.09 171.656C113.487 171.267 113.028 170.731 112.714 170.048C112.404 169.36 112.244 168.571 112.234 167.68C112.244 166.773 112.41 165.979 112.73 165.296C113.05 164.608 113.511 164.075 114.114 163.696C114.716 163.312 115.447 163.12 116.306 163.12C117.18 163.12 117.94 163.333 118.586 163.76C119.236 164.187 119.682 164.771 119.922 165.512L118.77 165.88C118.567 165.363 118.244 164.963 117.802 164.68C117.364 164.392 116.863 164.248 116.298 164.248C115.663 164.248 115.138 164.395 114.722 164.688C114.306 164.976 113.996 165.379 113.794 165.896C113.591 166.413 113.487 167.008 113.482 167.68C113.492 168.715 113.732 169.547 114.202 170.176C114.671 170.8 115.37 171.112 116.298 171.112C116.884 171.112 117.383 170.979 117.794 170.712C118.21 170.44 118.524 170.045 118.738 169.528L119.922 169.88C119.602 170.648 119.132 171.235 118.514 171.64C117.895 172.04 117.156 172.24 116.298 172.24ZM124.995 172.24C124.152 172.24 123.421 172.053 122.803 171.68C122.189 171.307 121.712 170.781 121.371 170.104C121.029 169.427 120.859 168.632 120.859 167.72C120.859 166.776 121.027 165.96 121.363 165.272C121.699 164.584 122.171 164.053 122.779 163.68C123.392 163.307 124.115 163.12 124.947 163.12C125.8 163.12 126.528 163.317 127.131 163.712C127.733 164.101 128.189 164.661 128.499 165.392C128.808 166.123 128.949 166.995 128.923 168.008H127.723V167.592C127.701 166.472 127.459 165.627 126.995 165.056C126.536 164.485 125.864 164.2 124.979 164.2C124.051 164.2 123.339 164.501 122.843 165.104C122.352 165.707 122.107 166.565 122.107 167.68C122.107 168.768 122.352 169.613 122.843 170.216C123.339 170.813 124.04 171.112 124.947 171.112C125.565 171.112 126.104 170.971 126.563 170.688C127.027 170.4 127.392 169.987 127.659 169.448L128.755 169.872C128.413 170.624 127.909 171.208 127.243 171.624C126.581 172.035 125.832 172.24 124.995 172.24ZM121.691 168.008V167.024H128.291V168.008H121.691ZM130.698 172V163.36H131.754V165.44L131.546 165.168C131.642 164.912 131.767 164.677 131.922 164.464C132.077 164.245 132.245 164.067 132.426 163.928C132.65 163.731 132.911 163.581 133.21 163.48C133.509 163.373 133.81 163.312 134.114 163.296C134.418 163.275 134.695 163.296 134.946 163.36V164.464C134.631 164.384 134.287 164.365 133.914 164.408C133.541 164.451 133.197 164.6 132.882 164.856C132.594 165.08 132.378 165.349 132.234 165.664C132.09 165.973 131.994 166.304 131.946 166.656C131.898 167.003 131.874 167.347 131.874 167.688V172H130.698ZM138.608 172.24C137.957 172.24 137.41 172.123 136.968 171.888C136.53 171.653 136.202 171.341 135.984 170.952C135.765 170.563 135.656 170.139 135.656 169.68C135.656 169.211 135.749 168.811 135.936 168.48C136.128 168.144 136.386 167.869 136.712 167.656C137.042 167.443 137.424 167.28 137.856 167.168C138.293 167.061 138.776 166.968 139.304 166.888C139.837 166.803 140.357 166.731 140.864 166.672C141.376 166.608 141.824 166.547 142.208 166.488L141.792 166.744C141.808 165.891 141.642 165.259 141.296 164.848C140.949 164.437 140.346 164.232 139.488 164.232C138.896 164.232 138.394 164.365 137.984 164.632C137.578 164.899 137.293 165.32 137.128 165.896L135.984 165.56C136.181 164.787 136.578 164.187 137.176 163.76C137.773 163.333 138.549 163.12 139.504 163.12C140.293 163.12 140.962 163.269 141.512 163.568C142.066 163.861 142.458 164.288 142.688 164.848C142.794 165.099 142.864 165.379 142.896 165.688C142.928 165.997 142.944 166.312 142.944 166.632V172H141.896V169.832L142.2 169.96C141.906 170.701 141.45 171.267 140.832 171.656C140.213 172.045 139.472 172.24 138.608 172.24ZM138.744 171.224C139.293 171.224 139.773 171.125 140.184 170.928C140.594 170.731 140.925 170.461 141.176 170.12C141.426 169.773 141.589 169.384 141.664 168.952C141.728 168.675 141.762 168.371 141.768 168.04C141.773 167.704 141.776 167.453 141.776 167.288L142.224 167.52C141.824 167.573 141.389 167.627 140.92 167.68C140.456 167.733 139.997 167.795 139.544 167.864C139.096 167.933 138.69 168.016 138.328 168.112C138.082 168.181 137.845 168.28 137.616 168.408C137.386 168.531 137.197 168.696 137.048 168.904C136.904 169.112 136.832 169.371 136.832 169.68C136.832 169.931 136.893 170.173 137.016 170.408C137.144 170.643 137.346 170.837 137.624 170.992C137.906 171.147 138.28 171.224 138.744 171.224ZM149.73 172C149.245 172.101 148.765 172.141 148.29 172.12C147.821 172.099 147.4 171.997 147.026 171.816C146.658 171.635 146.378 171.352 146.186 170.968C146.032 170.648 145.946 170.325 145.93 170C145.92 169.669 145.914 169.293 145.914 168.872V160.96H147.082V168.824C147.082 169.187 147.085 169.491 147.09 169.736C147.101 169.976 147.157 170.189 147.258 170.376C147.45 170.733 147.754 170.947 148.17 171.016C148.592 171.085 149.112 171.069 149.73 170.968V172ZM144.066 164.368V163.36H149.73V164.368H144.066ZM157.988 172.24C157.182 172.24 156.494 172.04 155.924 171.64C155.353 171.235 154.916 170.688 154.612 170C154.308 169.312 154.156 168.536 154.156 167.672C154.156 166.813 154.305 166.04 154.604 165.352C154.908 164.664 155.342 164.12 155.908 163.72C156.473 163.32 157.15 163.12 157.94 163.12C158.75 163.12 159.433 163.317 159.988 163.712C160.542 164.107 160.961 164.648 161.244 165.336C161.532 166.019 161.676 166.797 161.676 167.672C161.676 168.531 161.534 169.307 161.252 170C160.969 170.688 160.553 171.235 160.004 171.64C159.454 172.04 158.782 172.24 157.988 172.24ZM158.108 171.144C158.721 171.144 159.228 170.995 159.628 170.696C160.028 170.397 160.326 169.987 160.524 169.464C160.721 168.936 160.82 168.339 160.82 167.672C160.82 166.995 160.721 166.397 160.524 165.88C160.326 165.357 160.028 164.949 159.628 164.656C159.233 164.363 158.734 164.216 158.132 164.216C157.513 164.216 157.001 164.368 156.596 164.672C156.19 164.976 155.889 165.389 155.692 165.912C155.5 166.435 155.404 167.021 155.404 167.672C155.404 168.328 155.502 168.92 155.7 169.448C155.902 169.971 156.204 170.384 156.604 170.688C157.004 170.992 157.505 171.144 158.108 171.144ZM160.82 172V165.496H160.692V160.48H161.876V172H160.82ZM167.728 172.24C166.869 172.24 166.136 172.045 165.528 171.656C164.92 171.267 164.453 170.728 164.128 170.04C163.803 169.352 163.64 168.563 163.64 167.672C163.64 166.765 163.805 165.971 164.136 165.288C164.467 164.605 164.936 164.075 165.544 163.696C166.157 163.312 166.885 163.12 167.728 163.12C168.592 163.12 169.328 163.315 169.936 163.704C170.549 164.088 171.016 164.624 171.336 165.312C171.661 165.995 171.824 166.781 171.824 167.672C171.824 168.579 171.661 169.376 171.336 170.064C171.011 170.747 170.541 171.28 169.928 171.664C169.315 172.048 168.581 172.24 167.728 172.24ZM167.728 171.112C168.688 171.112 169.403 170.795 169.872 170.16C170.341 169.52 170.576 168.691 170.576 167.672C170.576 166.627 170.339 165.795 169.864 165.176C169.395 164.557 168.683 164.248 167.728 164.248C167.083 164.248 166.549 164.395 166.128 164.688C165.712 164.976 165.4 165.379 165.192 165.896C164.989 166.408 164.888 167 164.888 167.672C164.888 168.712 165.128 169.547 165.608 170.176C166.088 170.8 166.795 171.112 167.728 171.112ZM173.749 172V160.24H174.925V172H173.749ZM180.931 172.24C180.072 172.24 179.339 172.045 178.731 171.656C178.123 171.267 177.656 170.728 177.331 170.04C177.006 169.352 176.843 168.563 176.843 167.672C176.843 166.765 177.008 165.971 177.339 165.288C177.67 164.605 178.139 164.075 178.747 163.696C179.36 163.312 180.088 163.12 180.931 163.12C181.795 163.12 182.531 163.315 183.139 163.704C183.752 164.088 184.219 164.624 184.539 165.312C184.864 165.995 185.027 166.781 185.027 167.672C185.027 168.579 184.864 169.376 184.539 170.064C184.214 170.747 183.744 171.28 183.131 171.664C182.518 172.048 181.784 172.24 180.931 172.24ZM180.931 171.112C181.891 171.112 182.606 170.795 183.075 170.16C183.544 169.52 183.779 168.691 183.779 167.672C183.779 166.627 183.542 165.795 183.067 165.176C182.598 164.557 181.886 164.248 180.931 164.248C180.286 164.248 179.752 164.395 179.331 164.688C178.915 164.976 178.603 165.379 178.395 165.896C178.192 166.408 178.091 167 178.091 167.672C178.091 168.712 178.331 169.547 178.811 170.176C179.291 170.8 179.998 171.112 180.931 171.112ZM186.792 172V163.36H187.848V165.44L187.64 165.168C187.736 164.912 187.861 164.677 188.016 164.464C188.171 164.245 188.339 164.067 188.52 163.928C188.744 163.731 189.005 163.581 189.304 163.48C189.603 163.373 189.904 163.312 190.208 163.296C190.512 163.275 190.789 163.296 191.04 163.36V164.464C190.725 164.384 190.381 164.365 190.008 164.408C189.635 164.451 189.291 164.6 188.976 164.856C188.688 165.08 188.472 165.349 188.328 165.664C188.184 165.973 188.088 166.304 188.04 166.656C187.992 167.003 187.968 167.347 187.968 167.688V172H186.792ZM191.5 172V170.632H192.868V172H191.5Z" fill="#565973"/>
</svg>
