<svg width="306" height="205" viewBox="0 0 306 205" fill="none" xmlns="http://www.w3.org/2000/svg">
<rect width="306" height="205" rx="12" fill="white"/>
<path fill-rule="evenodd" clip-rule="evenodd" d="M74.0613 33.7441C73.6455 31.5092 72.322 30.408 71.1255 29.975C69.8346 29.5065 67.217 29.0213 63.9281 28.6321C61.2821 28.3192 58.1721 28.3441 56.2935 28.4024C56.0681 26.852 54.9849 25.4357 53.7729 24.9454C50.5438 23.6404 45.5545 23.9557 44.2736 24.3161C43.2556 24.6017 42.129 25.1872 41.5019 26.0891C41.0814 26.6916 40.8093 27.4635 40.8072 28.5419C40.8072 29.1523 40.8241 30.59 40.8396 31.8674C40.8524 32.9342 40.8661 33.9073 40.8704 34.2077L40.8704 34.2082L40.8717 34.3026C40.8711 35.4435 39.9502 36.3719 38.8088 36.3734H33.5732C32.4565 36.3734 31.6031 36.5618 30.9513 36.8591C30.2985 37.1567 29.8362 37.558 29.4848 38.0326C28.7855 38.975 28.6642 40.1381 28.667 41.325C28.667 41.325 28.6773 42.2949 28.9101 44.1721C29.1035 45.6247 30.6725 55.7717 32.1629 58.8578C32.7406 60.0584 33.1255 60.5585 34.2607 61.0877C36.79 62.1749 42.5672 63.3844 45.2749 63.7307C45.7228 63.7882 46.143 63.8563 46.537 63.9201L46.5371 63.9201C48.5211 64.2413 49.8416 64.4551 50.6851 62.6796C50.6884 62.6744 50.8876 62.1502 51.1614 61.3812C52.0392 58.711 52.1613 56.3418 52.1613 54.6274C52.1613 54.4531 52.4161 54.4451 52.4161 54.6274C52.4161 54.6947 52.4154 54.7716 52.4146 54.8569V54.8569C52.4012 56.3048 52.3652 60.1851 55.4087 61.2703C56.681 61.7233 59.3203 62.1272 62.002 62.4427C64.4269 62.7226 66.1866 63.6806 66.1866 69.9264C66.1866 73.7264 65.3917 74.2473 61.2357 74.2473L60.9266 74.2475C57.7879 74.2501 56.5828 74.2511 56.5828 71.6479C56.5828 69.6611 58.3733 69.6824 59.8923 69.7004C60.0337 69.7021 60.1728 69.7037 60.3078 69.7037C60.7536 69.7037 60.7152 69.4942 60.6255 69.0049C60.5727 68.7167 60.5021 68.3315 60.5021 67.835C60.5021 67.27 60.6512 66.8061 60.7633 66.4576C60.9156 65.9839 60.9994 65.7234 60.547 65.7121C55.0641 65.5606 51.838 65.7058 51.838 72.5902C51.838 78.84 54.2203 80.0005 62.002 80.0005C68.1033 80.0005 70.2541 79.7999 72.7733 71.952C73.272 70.4028 74.4776 65.6748 75.2072 57.7365C75.6684 52.7171 74.7722 37.5677 74.0613 33.7441ZM63.4255 50.4902C62.6717 50.4637 61.9467 50.5115 61.2706 50.6206C61.4609 49.0778 62.0951 47.1847 64.342 47.264C66.8293 47.3499 67.1778 49.71 67.1867 51.3087C66.1379 50.8393 64.8396 50.5401 63.4255 50.4902ZM33.3309 34.8485H33.3274C32.0418 34.8485 30.9678 35.0685 30.082 35.4698C30.0417 35.4875 29.7589 35.6279 29.549 35.7322L29.5433 35.735C29.5491 35.7132 29.5615 35.6919 29.5814 35.6755L39.7527 25.549C39.7726 25.529 39.7927 25.5192 39.8127 25.5158L39.6336 25.8533C39.259 26.6049 39.044 27.5019 39.044 28.5307V28.5455C39.044 29.7508 39.1028 33.9668 39.1073 34.2853L39.1075 34.3044C39.1069 34.6033 38.8656 34.8485 38.5657 34.8485H33.3309Z" fill="#20C05C"/>
<path d="M25.12 121V109.48H31.736V110.656H26.296V114.656H30.776V115.824H26.296V121H25.12ZM35.342 121.24C34.6913 121.24 34.1447 121.123 33.702 120.888C33.2647 120.653 32.9367 120.341 32.718 119.952C32.4993 119.563 32.39 119.139 32.39 118.68C32.39 118.211 32.4833 117.811 32.67 117.48C32.862 117.144 33.1207 116.869 33.446 116.656C33.7767 116.443 34.158 116.28 34.59 116.168C35.0273 116.061 35.51 115.968 36.038 115.888C36.5713 115.803 37.0913 115.731 37.598 115.672C38.11 115.608 38.558 115.547 38.942 115.488L38.526 115.744C38.542 114.891 38.3767 114.259 38.03 113.848C37.6833 113.437 37.0807 113.232 36.222 113.232C35.63 113.232 35.1287 113.365 34.718 113.632C34.3127 113.899 34.0273 114.32 33.862 114.896L32.718 114.56C32.9153 113.787 33.3127 113.187 33.91 112.76C34.5073 112.333 35.2833 112.12 36.238 112.12C37.0273 112.12 37.6967 112.269 38.246 112.568C38.8007 112.861 39.1927 113.288 39.422 113.848C39.5287 114.099 39.598 114.379 39.63 114.688C39.662 114.997 39.678 115.312 39.678 115.632V121H38.63V118.832L38.934 118.96C38.6407 119.701 38.1847 120.267 37.566 120.656C36.9473 121.045 36.206 121.24 35.342 121.24ZM35.478 120.224C36.0273 120.224 36.5073 120.125 36.918 119.928C37.3287 119.731 37.6593 119.461 37.91 119.12C38.1607 118.773 38.3233 118.384 38.398 117.952C38.462 117.675 38.4967 117.371 38.502 117.04C38.5073 116.704 38.51 116.453 38.51 116.288L38.958 116.52C38.558 116.573 38.1233 116.627 37.654 116.68C37.19 116.733 36.7313 116.795 36.278 116.864C35.83 116.933 35.4247 117.016 35.062 117.112C34.8167 117.181 34.5793 117.28 34.35 117.408C34.1207 117.531 33.9313 117.696 33.782 117.904C33.638 118.112 33.566 118.371 33.566 118.68C33.566 118.931 33.6273 119.173 33.75 119.408C33.878 119.643 34.0807 119.837 34.358 119.992C34.6407 120.147 35.014 120.224 35.478 120.224ZM45.0646 121.216C44.5473 121.216 44.094 121.136 43.7046 120.976C43.3206 120.816 42.9926 120.6 42.7206 120.328C42.454 120.056 42.238 119.747 42.0726 119.4C41.9073 119.048 41.7873 118.677 41.7126 118.288C41.638 117.893 41.6006 117.501 41.6006 117.112V112.36H42.7846V116.768C42.7846 117.243 42.83 117.683 42.9206 118.088C43.0113 118.493 43.1553 118.848 43.3526 119.152C43.5553 119.451 43.814 119.683 44.1286 119.848C44.4486 120.013 44.8353 120.096 45.2886 120.096C45.7046 120.096 46.07 120.024 46.3846 119.88C46.7046 119.736 46.9713 119.531 47.1846 119.264C47.4033 118.992 47.5686 118.664 47.6806 118.28C47.7926 117.891 47.8486 117.453 47.8486 116.968L48.6806 117.152C48.6806 118.037 48.526 118.781 48.2166 119.384C47.9073 119.987 47.4806 120.443 46.9366 120.752C46.3926 121.061 45.7686 121.216 45.0646 121.216ZM47.9686 121V118.872H47.8486V112.36H49.0246V121H47.9686ZM54.8446 121.24C53.9753 121.24 53.2393 121.045 52.6366 120.656C52.034 120.267 51.5753 119.731 51.2606 119.048C50.9513 118.36 50.7913 117.571 50.7806 116.68C50.7913 115.773 50.9566 114.979 51.2766 114.296C51.5966 113.608 52.058 113.075 52.6606 112.696C53.2633 112.312 53.994 112.12 54.8526 112.12C55.7273 112.12 56.4873 112.333 57.1326 112.76C57.7833 113.187 58.2286 113.771 58.4686 114.512L57.3166 114.88C57.114 114.363 56.7913 113.963 56.3486 113.68C55.9113 113.392 55.41 113.248 54.8446 113.248C54.21 113.248 53.6846 113.395 53.2686 113.688C52.8526 113.976 52.5433 114.379 52.3406 114.896C52.138 115.413 52.034 116.008 52.0286 116.68C52.0393 117.715 52.2793 118.547 52.7486 119.176C53.218 119.8 53.9166 120.112 54.8446 120.112C55.4313 120.112 55.93 119.979 56.3406 119.712C56.7566 119.44 57.0713 119.045 57.2846 118.528L58.4686 118.88C58.1486 119.648 57.6793 120.235 57.0606 120.64C56.442 121.04 55.7033 121.24 54.8446 121.24ZM60.0456 110.72V109.4H61.2216V110.72H60.0456ZM60.0456 121V112.36H61.2216V121H60.0456ZM67.5 121.24C66.7053 121.24 66.0333 121.04 65.484 120.64C64.9347 120.235 64.5187 119.688 64.236 119C63.9533 118.307 63.812 117.531 63.812 116.672C63.812 115.797 63.9533 115.019 64.236 114.336C64.524 113.648 64.9453 113.107 65.5 112.712C66.0547 112.317 66.7373 112.12 67.548 112.12C68.3373 112.12 69.0147 112.32 69.58 112.72C70.1453 113.12 70.5773 113.664 70.876 114.352C71.18 115.04 71.332 115.813 71.332 116.672C71.332 117.536 71.18 118.312 70.876 119C70.572 119.688 70.1347 120.235 69.564 120.64C68.9933 121.04 68.3053 121.24 67.5 121.24ZM63.612 121V109.48H64.796V114.496H64.668V121H63.612ZM67.38 120.144C67.9827 120.144 68.484 119.992 68.884 119.688C69.284 119.384 69.5827 118.971 69.78 118.448C69.9827 117.92 70.084 117.328 70.084 116.672C70.084 116.021 69.9853 115.435 69.788 114.912C69.5907 114.389 69.2893 113.976 68.884 113.672C68.484 113.368 67.9747 113.216 67.356 113.216C66.7533 113.216 66.252 113.363 65.852 113.656C65.4573 113.949 65.1613 114.357 64.964 114.88C64.7667 115.397 64.668 115.995 64.668 116.672C64.668 117.339 64.7667 117.936 64.964 118.464C65.1613 118.987 65.46 119.397 65.86 119.696C66.26 119.995 66.7667 120.144 67.38 120.144ZM76.3928 121.216C75.8754 121.216 75.4221 121.136 75.0328 120.976C74.6488 120.816 74.3208 120.6 74.0488 120.328C73.7821 120.056 73.5661 119.747 73.4008 119.4C73.2354 119.048 73.1154 118.677 73.0408 118.288C72.9661 117.893 72.9288 117.501 72.9288 117.112V112.36H74.1128V116.768C74.1128 117.243 74.1581 117.683 74.2488 118.088C74.3394 118.493 74.4834 118.848 74.6808 119.152C74.8834 119.451 75.1421 119.683 75.4568 119.848C75.7768 120.013 76.1634 120.096 76.6168 120.096C77.0328 120.096 77.3981 120.024 77.7128 119.88C78.0328 119.736 78.2994 119.531 78.5128 119.264C78.7314 118.992 78.8968 118.664 79.0088 118.28C79.1208 117.891 79.1768 117.453 79.1768 116.968L80.0087 117.152C80.0087 118.037 79.8541 118.781 79.5448 119.384C79.2354 119.987 78.8088 120.443 78.2648 120.752C77.7208 121.061 77.0968 121.216 76.3928 121.216ZM79.2968 121V118.872H79.1768V112.36H80.3528V121H79.2968ZM85.8128 121.232C84.7994 121.232 83.9648 121.013 83.3088 120.576C82.6581 120.139 82.2581 119.531 82.1088 118.752L83.3088 118.552C83.4368 119.043 83.7274 119.435 84.1808 119.728C84.6394 120.016 85.2048 120.16 85.8767 120.16C86.5328 120.16 87.0501 120.024 87.4288 119.752C87.8074 119.475 87.9968 119.099 87.9968 118.624C87.9968 118.357 87.9354 118.141 87.8128 117.976C87.6954 117.805 87.4528 117.648 87.0848 117.504C86.7168 117.36 86.1674 117.189 85.4368 116.992C84.6528 116.779 84.0394 116.565 83.5968 116.352C83.1541 116.139 82.8394 115.893 82.6528 115.616C82.4661 115.333 82.3728 114.989 82.3728 114.584C82.3728 114.093 82.5114 113.664 82.7888 113.296C83.0661 112.923 83.4501 112.635 83.9408 112.432C84.4314 112.224 85.0021 112.12 85.6528 112.12C86.3034 112.12 86.8848 112.227 87.3968 112.44C87.9141 112.648 88.3301 112.941 88.6448 113.32C88.9594 113.699 89.1461 114.139 89.2048 114.64L88.0048 114.856C87.9248 114.349 87.6714 113.949 87.2448 113.656C86.8234 113.357 86.2874 113.203 85.6368 113.192C85.0234 113.176 84.5248 113.293 84.1408 113.544C83.7568 113.789 83.5648 114.117 83.5648 114.528C83.5648 114.757 83.6341 114.955 83.7728 115.12C83.9114 115.28 84.1621 115.432 84.5248 115.576C84.8928 115.72 85.4154 115.877 86.0928 116.048C86.8874 116.251 87.5114 116.464 87.9648 116.688C88.4181 116.912 88.7408 117.176 88.9328 117.48C89.1248 117.784 89.2208 118.16 89.2208 118.608C89.2208 119.424 88.9168 120.067 88.3088 120.536C87.7061 121 86.8741 121.232 85.8128 121.232ZM97.7821 121.24C96.9128 121.24 96.1768 121.045 95.5741 120.656C94.9715 120.267 94.5128 119.731 94.1981 119.048C93.8888 118.36 93.7288 117.571 93.7181 116.68C93.7288 115.773 93.8941 114.979 94.2141 114.296C94.5341 113.608 94.9955 113.075 95.5981 112.696C96.2008 112.312 96.9315 112.12 97.7901 112.12C98.6648 112.12 99.4248 112.333 100.07 112.76C100.721 113.187 101.166 113.771 101.406 114.512L100.254 114.88C100.051 114.363 99.7288 113.963 99.2861 113.68C98.8488 113.392 98.3475 113.248 97.7821 113.248C97.1475 113.248 96.6221 113.395 96.2061 113.688C95.7901 113.976 95.4808 114.379 95.2781 114.896C95.0755 115.413 94.9715 116.008 94.9661 116.68C94.9768 117.715 95.2168 118.547 95.6861 119.176C96.1555 119.8 96.8541 120.112 97.7821 120.112C98.3688 120.112 98.8675 119.979 99.2781 119.712C99.6941 119.44 100.009 119.045 100.222 118.528L101.406 118.88C101.086 119.648 100.617 120.235 99.9981 120.64C99.3795 121.04 98.6408 121.24 97.7821 121.24ZM106.362 121.216C105.844 121.216 105.391 121.136 105.002 120.976C104.618 120.816 104.29 120.6 104.018 120.328C103.751 120.056 103.535 119.747 103.37 119.4C103.204 119.048 103.084 118.677 103.01 118.288C102.935 117.893 102.898 117.501 102.898 117.112V112.36H104.082V116.768C104.082 117.243 104.127 117.683 104.218 118.088C104.308 118.493 104.452 118.848 104.65 119.152C104.852 119.451 105.111 119.683 105.426 119.848C105.746 120.013 106.132 120.096 106.586 120.096C107.002 120.096 107.367 120.024 107.682 119.88C108.002 119.736 108.268 119.531 108.482 119.264C108.7 118.992 108.866 118.664 108.978 118.28C109.09 117.891 109.146 117.453 109.146 116.968L109.977 117.152C109.977 118.037 109.823 118.781 109.514 119.384C109.204 119.987 108.778 120.443 108.234 120.752C107.69 121.061 107.066 121.216 106.362 121.216ZM109.266 121V118.872H109.146V112.36H110.322V121H109.266ZM112.558 121V112.36H113.614V114.44L113.406 114.168C113.502 113.912 113.627 113.677 113.782 113.464C113.936 113.245 114.104 113.067 114.286 112.928C114.51 112.731 114.771 112.581 115.07 112.48C115.368 112.373 115.67 112.312 115.974 112.296C116.278 112.275 116.555 112.296 116.806 112.36V113.464C116.491 113.384 116.147 113.365 115.774 113.408C115.4 113.451 115.056 113.6 114.742 113.856C114.454 114.08 114.238 114.349 114.094 114.664C113.95 114.973 113.854 115.304 113.806 115.656C113.758 116.003 113.734 116.347 113.734 116.688V121H112.558ZM121.235 121.232C120.221 121.232 119.387 121.013 118.731 120.576C118.08 120.139 117.68 119.531 117.531 118.752L118.731 118.552C118.859 119.043 119.149 119.435 119.603 119.728C120.061 120.016 120.627 120.16 121.299 120.16C121.955 120.16 122.472 120.024 122.851 119.752C123.229 119.475 123.419 119.099 123.419 118.624C123.419 118.357 123.357 118.141 123.235 117.976C123.117 117.805 122.875 117.648 122.507 117.504C122.139 117.36 121.589 117.189 120.859 116.992C120.075 116.779 119.461 116.565 119.019 116.352C118.576 116.139 118.261 115.893 118.075 115.616C117.888 115.333 117.795 114.989 117.795 114.584C117.795 114.093 117.933 113.664 118.211 113.296C118.488 112.923 118.872 112.635 119.363 112.432C119.853 112.224 120.424 112.12 121.075 112.12C121.725 112.12 122.307 112.227 122.819 112.44C123.336 112.648 123.752 112.941 124.067 113.32C124.381 113.699 124.568 114.139 124.627 114.64L123.427 114.856C123.347 114.349 123.093 113.949 122.667 113.656C122.245 113.357 121.709 113.203 121.059 113.192C120.445 113.176 119.947 113.293 119.563 113.544C119.179 113.789 118.987 114.117 118.987 114.528C118.987 114.757 119.056 114.955 119.195 115.12C119.333 115.28 119.584 115.432 119.947 115.576C120.315 115.72 120.837 115.877 121.515 116.048C122.309 116.251 122.933 116.464 123.387 116.688C123.84 116.912 124.163 117.176 124.355 117.48C124.547 117.784 124.643 118.16 124.643 118.608C124.643 119.424 124.339 120.067 123.731 120.536C123.128 121 122.296 121.232 121.235 121.232ZM129.721 121.216C129.204 121.216 128.75 121.136 128.361 120.976C127.977 120.816 127.649 120.6 127.377 120.328C127.11 120.056 126.894 119.747 126.729 119.4C126.564 119.048 126.444 118.677 126.369 118.288C126.294 117.893 126.257 117.501 126.257 117.112V112.36H127.441V116.768C127.441 117.243 127.486 117.683 127.577 118.088C127.668 118.493 127.812 118.848 128.009 119.152C128.212 119.451 128.47 119.683 128.785 119.848C129.105 120.013 129.492 120.096 129.945 120.096C130.361 120.096 130.726 120.024 131.041 119.88C131.361 119.736 131.628 119.531 131.841 119.264C132.06 118.992 132.225 118.664 132.337 118.28C132.449 117.891 132.505 117.453 132.505 116.968L133.337 117.152C133.337 118.037 133.182 118.781 132.873 119.384C132.564 119.987 132.137 120.443 131.593 120.752C131.049 121.061 130.425 121.216 129.721 121.216ZM132.625 121V118.872H132.505V112.36H133.681V121H132.625ZM139.141 121.232C138.128 121.232 137.293 121.013 136.637 120.576C135.986 120.139 135.586 119.531 135.437 118.752L136.637 118.552C136.765 119.043 137.056 119.435 137.509 119.728C137.968 120.016 138.533 120.16 139.205 120.16C139.861 120.16 140.378 120.024 140.757 119.752C141.136 119.475 141.325 119.099 141.325 118.624C141.325 118.357 141.264 118.141 141.141 117.976C141.024 117.805 140.781 117.648 140.413 117.504C140.045 117.36 139.496 117.189 138.765 116.992C137.981 116.779 137.368 116.565 136.925 116.352C136.482 116.139 136.168 115.893 135.981 115.616C135.794 115.333 135.701 114.989 135.701 114.584C135.701 114.093 135.84 113.664 136.117 113.296C136.394 112.923 136.778 112.635 137.269 112.432C137.76 112.224 138.33 112.12 138.981 112.12C139.632 112.12 140.213 112.227 140.725 112.44C141.242 112.648 141.658 112.941 141.973 113.32C142.288 113.699 142.474 114.139 142.533 114.64L141.333 114.856C141.253 114.349 141 113.949 140.573 113.656C140.152 113.357 139.616 113.203 138.965 113.192C138.352 113.176 137.853 113.293 137.469 113.544C137.085 113.789 136.893 114.117 136.893 114.528C136.893 114.757 136.962 114.955 137.101 115.12C137.24 115.28 137.49 115.432 137.853 115.576C138.221 115.72 138.744 115.877 139.421 116.048C140.216 116.251 140.84 116.464 141.293 116.688C141.746 116.912 142.069 117.176 142.261 117.48C142.453 117.784 142.549 118.16 142.549 118.608C142.549 119.424 142.245 120.067 141.637 120.536C141.034 121 140.202 121.232 139.141 121.232ZM157.83 121L157.838 115.328C157.838 114.661 157.652 114.139 157.278 113.76C156.91 113.376 156.441 113.184 155.87 113.184C155.545 113.184 155.228 113.259 154.918 113.408C154.609 113.557 154.353 113.797 154.15 114.128C153.953 114.459 153.854 114.891 153.854 115.424L153.158 115.224C153.142 114.605 153.262 114.064 153.518 113.6C153.78 113.136 154.137 112.776 154.59 112.52C155.049 112.259 155.566 112.128 156.142 112.128C157.012 112.128 157.708 112.397 158.23 112.936C158.753 113.469 159.014 114.192 159.014 115.104L159.006 121H157.83ZM147.518 121V112.36H148.574V114.488H148.702V121H147.518ZM152.686 121L152.694 115.408C152.694 114.72 152.51 114.179 152.142 113.784C151.78 113.384 151.3 113.184 150.702 113.184C150.105 113.184 149.622 113.389 149.254 113.8C148.886 114.205 148.702 114.747 148.702 115.424L147.998 115.04C147.998 114.485 148.129 113.989 148.39 113.552C148.652 113.109 149.009 112.763 149.462 112.512C149.916 112.256 150.43 112.128 151.006 112.128C151.556 112.128 152.044 112.245 152.47 112.48C152.902 112.715 153.241 113.056 153.486 113.504C153.732 113.952 153.854 114.496 153.854 115.136L153.846 121H152.686ZM163.561 121.24C162.91 121.24 162.363 121.123 161.921 120.888C161.483 120.653 161.155 120.341 160.937 119.952C160.718 119.563 160.609 119.139 160.609 118.68C160.609 118.211 160.702 117.811 160.889 117.48C161.081 117.144 161.339 116.869 161.665 116.656C161.995 116.443 162.377 116.28 162.809 116.168C163.246 116.061 163.729 115.968 164.257 115.888C164.79 115.803 165.31 115.731 165.817 115.672C166.329 115.608 166.777 115.547 167.161 115.488L166.745 115.744C166.761 114.891 166.595 114.259 166.249 113.848C165.902 113.437 165.299 113.232 164.441 113.232C163.849 113.232 163.347 113.365 162.937 113.632C162.531 113.899 162.246 114.32 162.081 114.896L160.937 114.56C161.134 113.787 161.531 113.187 162.129 112.76C162.726 112.333 163.502 112.12 164.457 112.12C165.246 112.12 165.915 112.269 166.465 112.568C167.019 112.861 167.411 113.288 167.641 113.848C167.747 114.099 167.817 114.379 167.849 114.688C167.881 114.997 167.897 115.312 167.897 115.632V121H166.849V118.832L167.153 118.96C166.859 119.701 166.403 120.267 165.785 120.656C165.166 121.045 164.425 121.24 163.561 121.24ZM163.697 120.224C164.246 120.224 164.726 120.125 165.137 119.928C165.547 119.731 165.878 119.461 166.129 119.12C166.379 118.773 166.542 118.384 166.617 117.952C166.681 117.675 166.715 117.371 166.721 117.04C166.726 116.704 166.729 116.453 166.729 116.288L167.177 116.52C166.777 116.573 166.342 116.627 165.873 116.68C165.409 116.733 164.95 116.795 164.497 116.864C164.049 116.933 163.643 117.016 163.281 117.112C163.035 117.181 162.798 117.28 162.569 117.408C162.339 117.531 162.15 117.696 162.001 117.904C161.857 118.112 161.785 118.371 161.785 118.68C161.785 118.931 161.846 119.173 161.969 119.408C162.097 119.643 162.299 119.837 162.577 119.992C162.859 120.147 163.233 120.224 163.697 120.224ZM173.635 121.24C172.793 121.24 172.062 121.053 171.443 120.68C170.83 120.307 170.353 119.781 170.011 119.104C169.67 118.427 169.499 117.632 169.499 116.72C169.499 115.776 169.667 114.96 170.003 114.272C170.339 113.584 170.811 113.053 171.419 112.68C172.033 112.307 172.755 112.12 173.587 112.12C174.441 112.12 175.169 112.317 175.771 112.712C176.374 113.101 176.83 113.661 177.139 114.392C177.449 115.123 177.59 115.995 177.563 117.008H176.363V116.592C176.342 115.472 176.099 114.627 175.635 114.056C175.177 113.485 174.505 113.2 173.619 113.2C172.691 113.2 171.979 113.501 171.483 114.104C170.993 114.707 170.747 115.565 170.747 116.68C170.747 117.768 170.993 118.613 171.483 119.216C171.979 119.813 172.681 120.112 173.587 120.112C174.206 120.112 174.745 119.971 175.203 119.688C175.667 119.4 176.033 118.987 176.299 118.448L177.395 118.872C177.054 119.624 176.55 120.208 175.883 120.624C175.222 121.035 174.473 121.24 173.635 121.24ZM170.331 117.008V116.024H176.931V117.008H170.331ZM182.923 121.24C182.053 121.24 181.317 121.045 180.715 120.656C180.112 120.267 179.653 119.731 179.339 119.048C179.029 118.36 178.869 117.571 178.859 116.68C178.869 115.773 179.035 114.979 179.355 114.296C179.675 113.608 180.136 113.075 180.739 112.696C181.341 112.312 182.072 112.12 182.931 112.12C183.805 112.12 184.565 112.333 185.211 112.76C185.861 113.187 186.307 113.771 186.547 114.512L185.395 114.88C185.192 114.363 184.869 113.963 184.427 113.68C183.989 113.392 183.488 113.248 182.923 113.248C182.288 113.248 181.763 113.395 181.347 113.688C180.931 113.976 180.621 114.379 180.419 114.896C180.216 115.413 180.112 116.008 180.107 116.68C180.117 117.715 180.357 118.547 180.827 119.176C181.296 119.8 181.995 120.112 182.923 120.112C183.509 120.112 184.008 119.979 184.419 119.712C184.835 119.44 185.149 119.045 185.363 118.528L186.547 118.88C186.227 119.648 185.757 120.235 185.139 120.64C184.52 121.04 183.781 121.24 182.923 121.24ZM191.62 121.24C190.777 121.24 190.046 121.053 189.428 120.68C188.814 120.307 188.337 119.781 187.996 119.104C187.654 118.427 187.484 117.632 187.484 116.72C187.484 115.776 187.652 114.96 187.988 114.272C188.324 113.584 188.796 113.053 189.404 112.68C190.017 112.307 190.74 112.12 191.572 112.12C192.425 112.12 193.153 112.317 193.756 112.712C194.358 113.101 194.814 113.661 195.124 114.392C195.433 115.123 195.574 115.995 195.548 117.008H194.348V116.592C194.326 115.472 194.084 114.627 193.62 114.056C193.161 113.485 192.489 113.2 191.604 113.2C190.676 113.2 189.964 113.501 189.468 114.104C188.977 114.707 188.732 115.565 188.732 116.68C188.732 117.768 188.977 118.613 189.468 119.216C189.964 119.813 190.665 120.112 191.572 120.112C192.19 120.112 192.729 119.971 193.188 119.688C193.652 119.4 194.017 118.987 194.284 118.448L195.38 118.872C195.038 119.624 194.534 120.208 193.868 120.624C193.206 121.035 192.457 121.24 191.62 121.24ZM188.316 117.008V116.024H194.916V117.008H188.316ZM203.329 121V116.592C203.329 116.112 203.283 115.672 203.193 115.272C203.102 114.867 202.955 114.515 202.753 114.216C202.555 113.912 202.297 113.677 201.977 113.512C201.662 113.347 201.278 113.264 200.825 113.264C200.409 113.264 200.041 113.336 199.721 113.48C199.406 113.624 199.139 113.832 198.921 114.104C198.707 114.371 198.545 114.696 198.433 115.08C198.321 115.464 198.265 115.901 198.265 116.392L197.433 116.208C197.433 115.323 197.587 114.579 197.897 113.976C198.206 113.373 198.633 112.917 199.177 112.608C199.721 112.299 200.345 112.144 201.049 112.144C201.566 112.144 202.017 112.224 202.401 112.384C202.79 112.544 203.118 112.76 203.385 113.032C203.657 113.304 203.875 113.616 204.041 113.968C204.206 114.315 204.326 114.685 204.401 115.08C204.475 115.469 204.513 115.859 204.513 116.248V121H203.329ZM197.081 121V112.36H198.145V114.488H198.265V121H197.081ZM209.061 121.24C208.41 121.24 207.863 121.123 207.421 120.888C206.983 120.653 206.655 120.341 206.437 119.952C206.218 119.563 206.109 119.139 206.109 118.68C206.109 118.211 206.202 117.811 206.389 117.48C206.581 117.144 206.839 116.869 207.165 116.656C207.495 116.443 207.877 116.28 208.309 116.168C208.746 116.061 209.229 115.968 209.757 115.888C210.29 115.803 210.81 115.731 211.317 115.672C211.829 115.608 212.277 115.547 212.661 115.488L212.245 115.744C212.261 114.891 212.095 114.259 211.749 113.848C211.402 113.437 210.799 113.232 209.941 113.232C209.349 113.232 208.847 113.365 208.437 113.632C208.031 113.899 207.746 114.32 207.581 114.896L206.437 114.56C206.634 113.787 207.031 113.187 207.629 112.76C208.226 112.333 209.002 112.12 209.957 112.12C210.746 112.12 211.415 112.269 211.965 112.568C212.519 112.861 212.911 113.288 213.141 113.848C213.247 114.099 213.317 114.379 213.349 114.688C213.381 114.997 213.397 115.312 213.397 115.632V121H212.349V118.832L212.653 118.96C212.359 119.701 211.903 120.267 211.285 120.656C210.666 121.045 209.925 121.24 209.061 121.24ZM209.197 120.224C209.746 120.224 210.226 120.125 210.637 119.928C211.047 119.731 211.378 119.461 211.629 119.12C211.879 118.773 212.042 118.384 212.117 117.952C212.181 117.675 212.215 117.371 212.221 117.04C212.226 116.704 212.229 116.453 212.229 116.288L212.677 116.52C212.277 116.573 211.842 116.627 211.373 116.68C210.909 116.733 210.45 116.795 209.997 116.864C209.549 116.933 209.143 117.016 208.781 117.112C208.535 117.181 208.298 117.28 208.069 117.408C207.839 117.531 207.65 117.696 207.501 117.904C207.357 118.112 207.285 118.371 207.285 118.68C207.285 118.931 207.346 119.173 207.469 119.408C207.597 119.643 207.799 119.837 208.077 119.992C208.359 120.147 208.733 120.224 209.197 120.224ZM218.703 121.232C217.69 121.232 216.855 121.013 216.199 120.576C215.549 120.139 215.149 119.531 214.999 118.752L216.199 118.552C216.327 119.043 216.618 119.435 217.071 119.728C217.53 120.016 218.095 120.16 218.767 120.16C219.423 120.16 219.941 120.024 220.319 119.752C220.698 119.475 220.887 119.099 220.887 118.624C220.887 118.357 220.826 118.141 220.703 117.976C220.586 117.805 220.343 117.648 219.975 117.504C219.607 117.36 219.058 117.189 218.327 116.992C217.543 116.779 216.93 116.565 216.487 116.352C216.045 116.139 215.73 115.893 215.543 115.616C215.357 115.333 215.263 114.989 215.263 114.584C215.263 114.093 215.402 113.664 215.679 113.296C215.957 112.923 216.341 112.635 216.831 112.432C217.322 112.224 217.893 112.12 218.543 112.12C219.194 112.12 219.775 112.227 220.287 112.44C220.805 112.648 221.221 112.941 221.535 113.32C221.85 113.699 222.037 114.139 222.095 114.64L220.895 114.856C220.815 114.349 220.562 113.949 220.135 113.656C219.714 113.357 219.178 113.203 218.527 113.192C217.914 113.176 217.415 113.293 217.031 113.544C216.647 113.789 216.455 114.117 216.455 114.528C216.455 114.757 216.525 114.955 216.663 115.12C216.802 115.28 217.053 115.432 217.415 115.576C217.783 115.72 218.306 115.877 218.983 116.048C219.778 116.251 220.402 116.464 220.855 116.688C221.309 116.912 221.631 117.176 221.823 117.48C222.015 117.784 222.111 118.16 222.111 118.608C222.111 119.424 221.807 120.067 221.199 120.536C220.597 121 219.765 121.232 218.703 121.232ZM227.249 121V109.24H228.425V121H227.249ZM234.431 121.24C233.572 121.24 232.839 121.045 232.231 120.656C231.623 120.267 231.156 119.728 230.831 119.04C230.506 118.352 230.343 117.563 230.343 116.672C230.343 115.765 230.508 114.971 230.839 114.288C231.17 113.605 231.639 113.075 232.247 112.696C232.86 112.312 233.588 112.12 234.431 112.12C235.295 112.12 236.031 112.315 236.639 112.704C237.252 113.088 237.719 113.624 238.039 114.312C238.364 114.995 238.527 115.781 238.527 116.672C238.527 117.579 238.364 118.376 238.039 119.064C237.714 119.747 237.244 120.28 236.631 120.664C236.018 121.048 235.284 121.24 234.431 121.24ZM234.431 120.112C235.391 120.112 236.106 119.795 236.575 119.16C237.044 118.52 237.279 117.691 237.279 116.672C237.279 115.627 237.042 114.795 236.567 114.176C236.098 113.557 235.386 113.248 234.431 113.248C233.786 113.248 233.252 113.395 232.831 113.688C232.415 113.976 232.103 114.379 231.895 114.896C231.692 115.408 231.591 116 231.591 116.672C231.591 117.712 231.831 118.547 232.311 119.176C232.791 119.8 233.498 120.112 234.431 120.112ZM240.292 121V112.36H241.348V114.44L241.14 114.168C241.236 113.912 241.361 113.677 241.516 113.464C241.671 113.245 241.839 113.067 242.02 112.928C242.244 112.731 242.505 112.581 242.804 112.48C243.103 112.373 243.404 112.312 243.708 112.296C244.012 112.275 244.289 112.296 244.54 112.36V113.464C244.225 113.384 243.881 113.365 243.508 113.408C243.135 113.451 242.791 113.6 242.476 113.856C242.188 114.08 241.972 114.349 241.828 114.664C241.684 114.973 241.588 115.304 241.54 115.656C241.492 116.003 241.468 116.347 241.468 116.688V121H240.292ZM249.557 121.24C248.715 121.24 247.984 121.053 247.365 120.68C246.752 120.307 246.275 119.781 245.933 119.104C245.592 118.427 245.421 117.632 245.421 116.72C245.421 115.776 245.589 114.96 245.925 114.272C246.261 113.584 246.733 113.053 247.341 112.68C247.955 112.307 248.677 112.12 249.509 112.12C250.363 112.12 251.091 112.317 251.693 112.712C252.296 113.101 252.752 113.661 253.061 114.392C253.371 115.123 253.512 115.995 253.485 117.008H252.285V116.592C252.264 115.472 252.021 114.627 251.557 114.056C251.099 113.485 250.427 113.2 249.541 113.2C248.613 113.2 247.901 113.501 247.405 114.104C246.915 114.707 246.669 115.565 246.669 116.68C246.669 117.768 246.915 118.613 247.405 119.216C247.901 119.813 248.603 120.112 249.509 120.112C250.128 120.112 250.667 119.971 251.125 119.688C251.589 119.4 251.955 118.987 252.221 118.448L253.317 118.872C252.976 119.624 252.472 120.208 251.805 120.624C251.144 121.035 250.395 121.24 249.557 121.24ZM246.253 117.008V116.024H252.853V117.008H246.253ZM265.33 121L265.338 115.328C265.338 114.661 265.152 114.139 264.778 113.76C264.41 113.376 263.941 113.184 263.37 113.184C263.045 113.184 262.728 113.259 262.418 113.408C262.109 113.557 261.853 113.797 261.65 114.128C261.453 114.459 261.354 114.891 261.354 115.424L260.658 115.224C260.642 114.605 260.762 114.064 261.018 113.6C261.28 113.136 261.637 112.776 262.09 112.52C262.549 112.259 263.066 112.128 263.642 112.128C264.512 112.128 265.208 112.397 265.73 112.936C266.253 113.469 266.514 114.192 266.514 115.104L266.506 121H265.33ZM255.018 121V112.36H256.074V114.488H256.202V121H255.018ZM260.186 121L260.194 115.408C260.194 114.72 260.01 114.179 259.642 113.784C259.28 113.384 258.8 113.184 258.202 113.184C257.605 113.184 257.122 113.389 256.754 113.8C256.386 114.205 256.202 114.747 256.202 115.424L255.498 115.04C255.498 114.485 255.629 113.989 255.89 113.552C256.152 113.109 256.509 112.763 256.962 112.512C257.416 112.256 257.93 112.128 258.506 112.128C259.056 112.128 259.544 112.245 259.97 112.48C260.402 112.715 260.741 113.056 260.986 113.504C261.232 113.952 261.354 114.496 261.354 115.136L261.346 121H260.186ZM28.704 147.24C27.8347 147.24 27.0987 147.045 26.496 146.656C25.8933 146.267 25.4347 145.731 25.12 145.048C24.8107 144.36 24.6507 143.571 24.64 142.68C24.6507 141.773 24.816 140.979 25.136 140.296C25.456 139.608 25.9173 139.075 26.52 138.696C27.1227 138.312 27.8533 138.12 28.712 138.12C29.5867 138.12 30.3467 138.333 30.992 138.76C31.6427 139.187 32.088 139.771 32.328 140.512L31.176 140.88C30.9733 140.363 30.6507 139.963 30.208 139.68C29.7707 139.392 29.2693 139.248 28.704 139.248C28.0693 139.248 27.544 139.395 27.128 139.688C26.712 139.976 26.4027 140.379 26.2 140.896C25.9973 141.413 25.8933 142.008 25.888 142.68C25.8987 143.715 26.1387 144.547 26.608 145.176C27.0773 145.8 27.776 146.112 28.704 146.112C29.2907 146.112 29.7893 145.979 30.2 145.712C30.616 145.44 30.9307 145.045 31.144 144.528L32.328 144.88C32.008 145.648 31.5387 146.235 30.92 146.64C30.3013 147.04 29.5627 147.24 28.704 147.24ZM37.2834 147.216C36.766 147.216 36.3127 147.136 35.9234 146.976C35.5394 146.816 35.2114 146.6 34.9394 146.328C34.6727 146.056 34.4567 145.747 34.2914 145.4C34.126 145.048 34.006 144.677 33.9314 144.288C33.8567 143.893 33.8194 143.501 33.8194 143.112V138.36H35.0034V142.768C35.0034 143.243 35.0487 143.683 35.1394 144.088C35.23 144.493 35.374 144.848 35.5714 145.152C35.774 145.451 36.0327 145.683 36.3474 145.848C36.6674 146.013 37.054 146.096 37.5074 146.096C37.9234 146.096 38.2887 146.024 38.6034 145.88C38.9234 145.736 39.19 145.531 39.4034 145.264C39.622 144.992 39.7874 144.664 39.8994 144.28C40.0114 143.891 40.0674 143.453 40.0674 142.968L40.8994 143.152C40.8994 144.037 40.7447 144.781 40.4354 145.384C40.126 145.987 39.6994 146.443 39.1554 146.752C38.6114 147.061 37.9874 147.216 37.2834 147.216ZM40.1874 147V144.872H40.0674V138.36H41.2434V147H40.1874ZM43.4794 147V138.36H44.5354V140.44L44.3274 140.168C44.4234 139.912 44.5487 139.677 44.7034 139.464C44.858 139.245 45.026 139.067 45.2074 138.928C45.4314 138.731 45.6927 138.581 45.9914 138.48C46.29 138.373 46.5914 138.312 46.8954 138.296C47.1994 138.275 47.4767 138.296 47.7274 138.36V139.464C47.4127 139.384 47.0687 139.365 46.6954 139.408C46.322 139.451 45.978 139.6 45.6634 139.856C45.3754 140.08 45.1594 140.349 45.0154 140.664C44.8714 140.973 44.7754 141.304 44.7274 141.656C44.6794 142.003 44.6554 142.347 44.6554 142.688V147H43.4794ZM52.1565 147.232C51.1432 147.232 50.3085 147.013 49.6525 146.576C49.0018 146.139 48.6018 145.531 48.4525 144.752L49.6525 144.552C49.7805 145.043 50.0712 145.435 50.5245 145.728C50.9832 146.016 51.5485 146.16 52.2205 146.16C52.8765 146.16 53.3938 146.024 53.7725 145.752C54.1512 145.475 54.3405 145.099 54.3405 144.624C54.3405 144.357 54.2792 144.141 54.1565 143.976C54.0392 143.805 53.7965 143.648 53.4285 143.504C53.0605 143.36 52.5112 143.189 51.7805 142.992C50.9965 142.779 50.3832 142.565 49.9405 142.352C49.4978 142.139 49.1832 141.893 48.9965 141.616C48.8098 141.333 48.7165 140.989 48.7165 140.584C48.7165 140.093 48.8552 139.664 49.1325 139.296C49.4098 138.923 49.7938 138.635 50.2845 138.432C50.7752 138.224 51.3458 138.12 51.9965 138.12C52.6472 138.12 53.2285 138.227 53.7405 138.44C54.2578 138.648 54.6738 138.941 54.9885 139.32C55.3032 139.699 55.4898 140.139 55.5485 140.64L54.3485 140.856C54.2685 140.349 54.0152 139.949 53.5885 139.656C53.1672 139.357 52.6312 139.203 51.9805 139.192C51.3672 139.176 50.8685 139.293 50.4845 139.544C50.1005 139.789 49.9085 140.117 49.9085 140.528C49.9085 140.757 49.9778 140.955 50.1165 141.12C50.2552 141.28 50.5058 141.432 50.8685 141.576C51.2365 141.72 51.7592 141.877 52.4365 142.048C53.2312 142.251 53.8552 142.464 54.3085 142.688C54.7618 142.912 55.0845 143.176 55.2765 143.48C55.4685 143.784 55.5645 144.16 55.5645 144.608C55.5645 145.424 55.2605 146.067 54.6525 146.536C54.0498 147 53.2178 147.232 52.1565 147.232ZM60.6428 147.216C60.1254 147.216 59.6721 147.136 59.2828 146.976C58.8988 146.816 58.5708 146.6 58.2988 146.328C58.0321 146.056 57.8161 145.747 57.6508 145.4C57.4854 145.048 57.3654 144.677 57.2908 144.288C57.2161 143.893 57.1788 143.501 57.1788 143.112V138.36H58.3628V142.768C58.3628 143.243 58.4081 143.683 58.4988 144.088C58.5894 144.493 58.7334 144.848 58.9308 145.152C59.1334 145.451 59.3921 145.683 59.7068 145.848C60.0268 146.013 60.4134 146.096 60.8668 146.096C61.2828 146.096 61.6481 146.024 61.9628 145.88C62.2828 145.736 62.5494 145.531 62.7628 145.264C62.9814 144.992 63.1468 144.664 63.2588 144.28C63.3708 143.891 63.4268 143.453 63.4268 142.968L64.2587 143.152C64.2587 144.037 64.1041 144.781 63.7948 145.384C63.4854 145.987 63.0588 146.443 62.5148 146.752C61.9708 147.061 61.3468 147.216 60.6428 147.216ZM63.5468 147V144.872H63.4268V138.36H64.6028V147H63.5468ZM70.0628 147.232C69.0494 147.232 68.2148 147.013 67.5588 146.576C66.9081 146.139 66.5081 145.531 66.3588 144.752L67.5588 144.552C67.6868 145.043 67.9774 145.435 68.4308 145.728C68.8894 146.016 69.4548 146.16 70.1267 146.16C70.7828 146.16 71.3001 146.024 71.6788 145.752C72.0574 145.475 72.2468 145.099 72.2468 144.624C72.2468 144.357 72.1854 144.141 72.0628 143.976C71.9454 143.805 71.7028 143.648 71.3348 143.504C70.9668 143.36 70.4174 143.189 69.6868 142.992C68.9028 142.779 68.2894 142.565 67.8468 142.352C67.4041 142.139 67.0894 141.893 66.9028 141.616C66.7161 141.333 66.6228 140.989 66.6228 140.584C66.6228 140.093 66.7614 139.664 67.0388 139.296C67.3161 138.923 67.7001 138.635 68.1908 138.432C68.6814 138.224 69.2521 138.12 69.9028 138.12C70.5534 138.12 71.1348 138.227 71.6468 138.44C72.1641 138.648 72.5801 138.941 72.8948 139.32C73.2094 139.699 73.3961 140.139 73.4548 140.64L72.2548 140.856C72.1748 140.349 71.9214 139.949 71.4948 139.656C71.0734 139.357 70.5374 139.203 69.8868 139.192C69.2734 139.176 68.7748 139.293 68.3908 139.544C68.0068 139.789 67.8148 140.117 67.8148 140.528C67.8148 140.757 67.8841 140.955 68.0228 141.12C68.1614 141.28 68.4121 141.432 68.7748 141.576C69.1428 141.72 69.6654 141.877 70.3428 142.048C71.1374 142.251 71.7614 142.464 72.2148 142.688C72.6681 142.912 72.9908 143.176 73.1828 143.48C73.3748 143.784 73.4708 144.16 73.4708 144.608C73.4708 145.424 73.1668 146.067 72.5588 146.536C71.9561 147 71.1241 147.232 70.0628 147.232ZM84.6881 147V142.592C84.6881 142.112 84.6428 141.672 84.5521 141.272C84.4615 140.867 84.3148 140.515 84.1121 140.216C83.9148 139.912 83.6561 139.677 83.3361 139.512C83.0215 139.347 82.6375 139.264 82.1841 139.264C81.7681 139.264 81.4001 139.336 81.0801 139.48C80.7655 139.624 80.4988 139.832 80.2801 140.104C80.0668 140.371 79.9041 140.696 79.7921 141.08C79.6801 141.464 79.6241 141.901 79.6241 142.392L78.7921 142.208C78.7921 141.323 78.9468 140.579 79.2561 139.976C79.5655 139.373 79.9921 138.917 80.5361 138.608C81.0801 138.299 81.7041 138.144 82.4081 138.144C82.9255 138.144 83.3761 138.224 83.7601 138.384C84.1495 138.544 84.4775 138.76 84.7441 139.032C85.0161 139.304 85.2348 139.616 85.4001 139.968C85.5655 140.315 85.6855 140.685 85.7601 141.08C85.8348 141.469 85.8721 141.859 85.8721 142.248V147H84.6881ZM78.4401 147V138.36H79.5041V140.488H79.6241V147H78.4401ZM88.1081 136.72V135.4H89.2841V136.72H88.1081ZM88.1081 147V138.36H89.2841V147H88.1081ZM95.5625 147.24C94.7678 147.24 94.0958 147.04 93.5465 146.64C92.9972 146.235 92.5812 145.688 92.2985 145C92.0158 144.307 91.8745 143.531 91.8745 142.672C91.8745 141.797 92.0158 141.019 92.2985 140.336C92.5865 139.648 93.0078 139.107 93.5625 138.712C94.1172 138.317 94.7998 138.12 95.6105 138.12C96.3998 138.12 97.0772 138.32 97.6425 138.72C98.2078 139.12 98.6398 139.664 98.9385 140.352C99.2425 141.04 99.3945 141.813 99.3945 142.672C99.3945 143.536 99.2425 144.312 98.9385 145C98.6345 145.688 98.1972 146.235 97.6265 146.64C97.0558 147.04 96.3678 147.24 95.5625 147.24ZM91.6745 147V135.48H92.8585V140.496H92.7305V147H91.6745ZM95.4425 146.144C96.0452 146.144 96.5465 145.992 96.9465 145.688C97.3465 145.384 97.6452 144.971 97.8425 144.448C98.0452 143.92 98.1465 143.328 98.1465 142.672C98.1465 142.021 98.0478 141.435 97.8505 140.912C97.6532 140.389 97.3518 139.976 96.9465 139.672C96.5465 139.368 96.0372 139.216 95.4185 139.216C94.8158 139.216 94.3145 139.363 93.9145 139.656C93.5198 139.949 93.2238 140.357 93.0265 140.88C92.8292 141.397 92.7305 141.995 92.7305 142.672C92.7305 143.339 92.8292 143.936 93.0265 144.464C93.2238 144.987 93.5225 145.397 93.9225 145.696C94.3225 145.995 94.8292 146.144 95.4425 146.144ZM107.391 147V142.592C107.391 142.112 107.346 141.672 107.255 141.272C107.165 140.867 107.018 140.515 106.815 140.216C106.618 139.912 106.359 139.677 106.039 139.512C105.725 139.347 105.341 139.264 104.887 139.264C104.471 139.264 104.103 139.336 103.783 139.48C103.469 139.624 103.202 139.832 102.983 140.104C102.77 140.371 102.607 140.696 102.495 141.08C102.383 141.464 102.327 141.901 102.327 142.392L101.495 142.208C101.495 141.323 101.65 140.579 101.959 139.976C102.269 139.373 102.695 138.917 103.239 138.608C103.783 138.299 104.407 138.144 105.111 138.144C105.629 138.144 106.079 138.224 106.463 138.384C106.853 138.544 107.181 138.76 107.447 139.032C107.719 139.304 107.938 139.616 108.103 139.968C108.269 140.315 108.389 140.685 108.463 141.08C108.538 141.469 108.575 141.859 108.575 142.248V147H107.391ZM101.143 147V135.48H102.207V141.984H102.327V147H101.143ZM110.875 147V145.632H112.243V147H110.875ZM121.917 147.24C121.112 147.24 120.386 147.107 119.741 146.84C119.101 146.568 118.57 146.184 118.149 145.688C117.733 145.192 117.461 144.603 117.333 143.92L118.533 143.72C118.725 144.467 119.13 145.053 119.749 145.48C120.368 145.901 121.106 146.112 121.965 146.112C122.53 146.112 123.037 146.024 123.485 145.848C123.933 145.667 124.285 145.411 124.541 145.08C124.797 144.749 124.925 144.357 124.925 143.904C124.925 143.605 124.872 143.352 124.765 143.144C124.658 142.931 124.517 142.755 124.341 142.616C124.165 142.477 123.973 142.363 123.765 142.272C123.557 142.176 123.354 142.099 123.157 142.04L120.237 141.168C119.885 141.067 119.56 140.939 119.261 140.784C118.962 140.624 118.701 140.435 118.477 140.216C118.258 139.992 118.088 139.731 117.965 139.432C117.842 139.133 117.781 138.792 117.781 138.408C117.781 137.757 117.952 137.195 118.293 136.72C118.634 136.245 119.101 135.88 119.693 135.624C120.285 135.368 120.96 135.243 121.717 135.248C122.485 135.248 123.17 135.384 123.773 135.656C124.381 135.928 124.882 136.317 125.277 136.824C125.672 137.325 125.933 137.92 126.061 138.608L124.829 138.832C124.749 138.331 124.565 137.896 124.277 137.528C123.989 137.16 123.621 136.877 123.173 136.68C122.73 136.477 122.242 136.373 121.709 136.368C121.192 136.368 120.73 136.456 120.325 136.632C119.925 136.803 119.608 137.037 119.373 137.336C119.138 137.635 119.021 137.976 119.021 138.36C119.021 138.749 119.128 139.061 119.341 139.296C119.56 139.531 119.826 139.715 120.141 139.848C120.461 139.981 120.77 140.091 121.069 140.176L123.325 140.84C123.56 140.904 123.834 140.997 124.149 141.12C124.469 141.237 124.778 141.408 125.077 141.632C125.381 141.851 125.632 142.139 125.829 142.496C126.026 142.853 126.125 143.307 126.125 143.856C126.125 144.389 126.018 144.867 125.805 145.288C125.597 145.709 125.301 146.064 124.917 146.352C124.538 146.64 124.093 146.859 123.581 147.008C123.074 147.163 122.52 147.24 121.917 147.24ZM131.384 147.24C130.526 147.24 129.792 147.045 129.184 146.656C128.576 146.267 128.11 145.728 127.784 145.04C127.459 144.352 127.296 143.563 127.296 142.672C127.296 141.765 127.462 140.971 127.792 140.288C128.123 139.605 128.592 139.075 129.2 138.696C129.814 138.312 130.542 138.12 131.384 138.12C132.248 138.12 132.984 138.315 133.592 138.704C134.206 139.088 134.672 139.624 134.992 140.312C135.318 140.995 135.48 141.781 135.48 142.672C135.48 143.579 135.318 144.376 134.992 145.064C134.667 145.747 134.198 146.28 133.584 146.664C132.971 147.048 132.238 147.24 131.384 147.24ZM131.384 146.112C132.344 146.112 133.059 145.795 133.528 145.16C133.998 144.52 134.232 143.691 134.232 142.672C134.232 141.627 133.995 140.795 133.52 140.176C133.051 139.557 132.339 139.248 131.384 139.248C130.739 139.248 130.206 139.395 129.784 139.688C129.368 139.976 129.056 140.379 128.848 140.896C128.646 141.408 128.544 142 128.544 142.672C128.544 143.712 128.784 144.547 129.264 145.176C129.744 145.8 130.451 146.112 131.384 146.112ZM140.829 147.24C139.96 147.24 139.224 147.045 138.621 146.656C138.018 146.267 137.56 145.731 137.245 145.048C136.936 144.36 136.776 143.571 136.765 142.68C136.776 141.773 136.941 140.979 137.261 140.296C137.581 139.608 138.042 139.075 138.645 138.696C139.248 138.312 139.978 138.12 140.837 138.12C141.712 138.12 142.472 138.333 143.117 138.76C143.768 139.187 144.213 139.771 144.453 140.512L143.301 140.88C143.098 140.363 142.776 139.963 142.333 139.68C141.896 139.392 141.394 139.248 140.829 139.248C140.194 139.248 139.669 139.395 139.253 139.688C138.837 139.976 138.528 140.379 138.325 140.896C138.122 141.413 138.018 142.008 138.013 142.68C138.024 143.715 138.264 144.547 138.733 145.176C139.202 145.8 139.901 146.112 140.829 146.112C141.416 146.112 141.914 145.979 142.325 145.712C142.741 145.44 143.056 145.045 143.269 144.528L144.453 144.88C144.133 145.648 143.664 146.235 143.045 146.64C142.426 147.04 141.688 147.24 140.829 147.24ZM146.03 136.72V135.4H147.206V136.72H146.03ZM146.03 147V138.36H147.206V147H146.03ZM149.764 136.72V135.4H150.94V136.72H149.764ZM149.764 147V138.36H150.94V147H149.764ZM156.563 147.232C155.549 147.232 154.715 147.013 154.059 146.576C153.408 146.139 153.008 145.531 152.859 144.752L154.059 144.552C154.187 145.043 154.477 145.435 154.931 145.728C155.389 146.016 155.955 146.16 156.627 146.16C157.283 146.16 157.8 146.024 158.179 145.752C158.557 145.475 158.747 145.099 158.747 144.624C158.747 144.357 158.685 144.141 158.563 143.976C158.445 143.805 158.203 143.648 157.835 143.504C157.467 143.36 156.917 143.189 156.187 142.992C155.403 142.779 154.789 142.565 154.347 142.352C153.904 142.139 153.589 141.893 153.403 141.616C153.216 141.333 153.123 140.989 153.123 140.584C153.123 140.093 153.261 139.664 153.539 139.296C153.816 138.923 154.2 138.635 154.691 138.432C155.181 138.224 155.752 138.12 156.403 138.12C157.053 138.12 157.635 138.227 158.147 138.44C158.664 138.648 159.08 138.941 159.395 139.32C159.709 139.699 159.896 140.139 159.955 140.64L158.755 140.856C158.675 140.349 158.421 139.949 157.995 139.656C157.573 139.357 157.037 139.203 156.387 139.192C155.773 139.176 155.275 139.293 154.891 139.544C154.507 139.789 154.315 140.117 154.315 140.528C154.315 140.757 154.384 140.955 154.523 141.12C154.661 141.28 154.912 141.432 155.275 141.576C155.643 141.72 156.165 141.877 156.843 142.048C157.637 142.251 158.261 142.464 158.715 142.688C159.168 142.912 159.491 143.176 159.683 143.48C159.875 143.784 159.971 144.16 159.971 144.608C159.971 145.424 159.667 146.067 159.059 146.536C158.456 147 157.624 147.232 156.563 147.232ZM168.172 147.232C167.159 147.232 166.324 147.013 165.668 146.576C165.017 146.139 164.617 145.531 164.468 144.752L165.668 144.552C165.796 145.043 166.087 145.435 166.54 145.728C166.999 146.016 167.564 146.16 168.236 146.16C168.892 146.16 169.409 146.024 169.788 145.752C170.167 145.475 170.356 145.099 170.356 144.624C170.356 144.357 170.295 144.141 170.172 143.976C170.055 143.805 169.812 143.648 169.444 143.504C169.076 143.36 168.527 143.189 167.796 142.992C167.012 142.779 166.399 142.565 165.956 142.352C165.513 142.139 165.199 141.893 165.012 141.616C164.825 141.333 164.732 140.989 164.732 140.584C164.732 140.093 164.871 139.664 165.148 139.296C165.425 138.923 165.809 138.635 166.3 138.432C166.791 138.224 167.361 138.12 168.012 138.12C168.663 138.12 169.244 138.227 169.756 138.44C170.273 138.648 170.689 138.941 171.004 139.32C171.319 139.699 171.505 140.139 171.564 140.64L170.364 140.856C170.284 140.349 170.031 139.949 169.604 139.656C169.183 139.357 168.647 139.203 167.996 139.192C167.383 139.176 166.884 139.293 166.5 139.544C166.116 139.789 165.924 140.117 165.924 140.528C165.924 140.757 165.993 140.955 166.132 141.12C166.271 141.28 166.521 141.432 166.884 141.576C167.252 141.72 167.775 141.877 168.452 142.048C169.247 142.251 169.871 142.464 170.324 142.688C170.777 142.912 171.1 143.176 171.292 143.48C171.484 143.784 171.58 144.16 171.58 144.608C171.58 145.424 171.276 146.067 170.668 146.536C170.065 147 169.233 147.232 168.172 147.232ZM173.514 136.72V135.4H174.69V136.72H173.514ZM173.514 147V138.36H174.69V147H173.514ZM181.793 147C181.307 147.101 180.827 147.141 180.353 147.12C179.883 147.099 179.462 146.997 179.089 146.816C178.721 146.635 178.441 146.352 178.249 145.968C178.094 145.648 178.009 145.325 177.993 145C177.982 144.669 177.977 144.293 177.977 143.872V135.96H179.145V143.824C179.145 144.187 179.147 144.491 179.153 144.736C179.163 144.976 179.219 145.189 179.321 145.376C179.513 145.733 179.817 145.947 180.233 146.016C180.654 146.085 181.174 146.069 181.793 145.968V147ZM176.129 139.368V138.36H181.793V139.368H176.129ZM186.698 147V138.36H187.754V140.44L187.546 140.168C187.642 139.912 187.767 139.677 187.922 139.464C188.077 139.245 188.245 139.067 188.426 138.928C188.65 138.731 188.911 138.581 189.21 138.48C189.509 138.373 189.81 138.312 190.114 138.296C190.418 138.275 190.695 138.296 190.946 138.36V139.464C190.631 139.384 190.287 139.365 189.914 139.408C189.541 139.451 189.197 139.6 188.882 139.856C188.594 140.08 188.378 140.349 188.234 140.664C188.09 140.973 187.994 141.304 187.946 141.656C187.898 142.003 187.874 142.347 187.874 142.688V147H186.698ZM192.624 136.72V135.4H193.8V136.72H192.624ZM192.624 147V138.36H193.8V147H192.624ZM199.422 147.232C198.409 147.232 197.574 147.013 196.918 146.576C196.267 146.139 195.867 145.531 195.718 144.752L196.918 144.552C197.046 145.043 197.337 145.435 197.79 145.728C198.249 146.016 198.814 146.16 199.486 146.16C200.142 146.16 200.659 146.024 201.038 145.752C201.417 145.475 201.606 145.099 201.606 144.624C201.606 144.357 201.545 144.141 201.422 143.976C201.305 143.805 201.062 143.648 200.694 143.504C200.326 143.36 199.777 143.189 199.046 142.992C198.262 142.779 197.649 142.565 197.206 142.352C196.763 142.139 196.449 141.893 196.262 141.616C196.075 141.333 195.982 140.989 195.982 140.584C195.982 140.093 196.121 139.664 196.398 139.296C196.675 138.923 197.059 138.635 197.55 138.432C198.041 138.224 198.611 138.12 199.262 138.12C199.913 138.12 200.494 138.227 201.006 138.44C201.523 138.648 201.939 138.941 202.254 139.32C202.569 139.699 202.755 140.139 202.814 140.64L201.614 140.856C201.534 140.349 201.281 139.949 200.854 139.656C200.433 139.357 199.897 139.203 199.246 139.192C198.633 139.176 198.134 139.293 197.75 139.544C197.366 139.789 197.174 140.117 197.174 140.528C197.174 140.757 197.243 140.955 197.382 141.12C197.521 141.28 197.771 141.432 198.134 141.576C198.502 141.72 199.025 141.877 199.702 142.048C200.497 142.251 201.121 142.464 201.574 142.688C202.027 142.912 202.35 143.176 202.542 143.48C202.734 143.784 202.83 144.16 202.83 144.608C202.83 145.424 202.526 146.067 201.918 146.536C201.315 147 200.483 147.232 199.422 147.232ZM207.908 147.216C207.391 147.216 206.938 147.136 206.548 146.976C206.164 146.816 205.836 146.6 205.564 146.328C205.298 146.056 205.082 145.747 204.916 145.4C204.751 145.048 204.631 144.677 204.556 144.288C204.482 143.893 204.444 143.501 204.444 143.112V138.36H205.628V142.768C205.628 143.243 205.674 143.683 205.764 144.088C205.855 144.493 205.999 144.848 206.196 145.152C206.399 145.451 206.658 145.683 206.972 145.848C207.292 146.013 207.679 146.096 208.132 146.096C208.548 146.096 208.914 146.024 209.228 145.88C209.548 145.736 209.815 145.531 210.028 145.264C210.247 144.992 210.412 144.664 210.524 144.28C210.636 143.891 210.692 143.453 210.692 142.968L211.524 143.152C211.524 144.037 211.37 144.781 211.06 145.384C210.751 145.987 210.324 146.443 209.78 146.752C209.236 147.061 208.612 147.216 207.908 147.216ZM210.812 147V144.872H210.692V138.36H211.868V147H210.812ZM217.328 147.232C216.315 147.232 215.48 147.013 214.824 146.576C214.174 146.139 213.774 145.531 213.624 144.752L214.824 144.552C214.952 145.043 215.243 145.435 215.696 145.728C216.155 146.016 216.72 146.16 217.392 146.16C218.048 146.16 218.566 146.024 218.944 145.752C219.323 145.475 219.512 145.099 219.512 144.624C219.512 144.357 219.451 144.141 219.328 143.976C219.211 143.805 218.968 143.648 218.6 143.504C218.232 143.36 217.683 143.189 216.952 142.992C216.168 142.779 215.555 142.565 215.112 142.352C214.67 142.139 214.355 141.893 214.168 141.616C213.982 141.333 213.888 140.989 213.888 140.584C213.888 140.093 214.027 139.664 214.304 139.296C214.582 138.923 214.966 138.635 215.456 138.432C215.947 138.224 216.518 138.12 217.168 138.12C217.819 138.12 218.4 138.227 218.912 138.44C219.43 138.648 219.846 138.941 220.16 139.32C220.475 139.699 220.662 140.139 220.72 140.64L219.52 140.856C219.44 140.349 219.187 139.949 218.76 139.656C218.339 139.357 217.803 139.203 217.152 139.192C216.539 139.176 216.04 139.293 215.656 139.544C215.272 139.789 215.08 140.117 215.08 140.528C215.08 140.757 215.15 140.955 215.288 141.12C215.427 141.28 215.678 141.432 216.04 141.576C216.408 141.72 216.931 141.877 217.608 142.048C218.403 142.251 219.027 142.464 219.48 142.688C219.934 142.912 220.256 143.176 220.448 143.48C220.64 143.784 220.736 144.16 220.736 144.608C220.736 145.424 220.432 146.067 219.824 146.536C219.222 147 218.39 147.232 217.328 147.232ZM225.874 136.72V135.4H227.05V136.72H225.874ZM225.874 147V138.36H227.05V147H225.874ZM232.8 147.24C231.995 147.24 231.307 147.04 230.736 146.64C230.165 146.235 229.728 145.688 229.424 145C229.12 144.312 228.968 143.536 228.968 142.672C228.968 141.813 229.117 141.04 229.416 140.352C229.72 139.664 230.155 139.12 230.72 138.72C231.285 138.32 231.963 138.12 232.752 138.12C233.563 138.12 234.245 138.317 234.8 138.712C235.355 139.107 235.773 139.648 236.056 140.336C236.344 141.019 236.488 141.797 236.488 142.672C236.488 143.531 236.347 144.307 236.064 145C235.781 145.688 235.365 146.235 234.816 146.64C234.267 147.04 233.595 147.24 232.8 147.24ZM232.92 146.144C233.533 146.144 234.04 145.995 234.44 145.696C234.84 145.397 235.139 144.987 235.336 144.464C235.533 143.936 235.632 143.339 235.632 142.672C235.632 141.995 235.533 141.397 235.336 140.88C235.139 140.357 234.84 139.949 234.44 139.656C234.045 139.363 233.547 139.216 232.944 139.216C232.325 139.216 231.813 139.368 231.408 139.672C231.003 139.976 230.701 140.389 230.504 140.912C230.312 141.435 230.216 142.021 230.216 142.672C230.216 143.328 230.315 143.92 230.512 144.448C230.715 144.971 231.016 145.384 231.416 145.688C231.816 145.992 232.317 146.144 232.92 146.144ZM235.632 147V140.496H235.504V135.48H236.688V147H235.632ZM239.157 147V145.632H240.525V147H239.157ZM250.198 147.24C249.393 147.24 248.667 147.107 248.022 146.84C247.382 146.568 246.851 146.184 246.43 145.688C246.014 145.192 245.742 144.603 245.614 143.92L246.814 143.72C247.006 144.467 247.411 145.053 248.03 145.48C248.649 145.901 249.387 146.112 250.246 146.112C250.811 146.112 251.318 146.024 251.766 145.848C252.214 145.667 252.566 145.411 252.822 145.08C253.078 144.749 253.206 144.357 253.206 143.904C253.206 143.605 253.153 143.352 253.046 143.144C252.939 142.931 252.798 142.755 252.622 142.616C252.446 142.477 252.254 142.363 252.046 142.272C251.838 142.176 251.635 142.099 251.438 142.04L248.518 141.168C248.166 141.067 247.841 140.939 247.542 140.784C247.243 140.624 246.982 140.435 246.758 140.216C246.539 139.992 246.369 139.731 246.246 139.432C246.123 139.133 246.062 138.792 246.062 138.408C246.062 137.757 246.233 137.195 246.574 136.72C246.915 136.245 247.382 135.88 247.974 135.624C248.566 135.368 249.241 135.243 249.998 135.248C250.766 135.248 251.451 135.384 252.054 135.656C252.662 135.928 253.163 136.317 253.558 136.824C253.953 137.325 254.214 137.92 254.342 138.608L253.11 138.832C253.03 138.331 252.846 137.896 252.558 137.528C252.27 137.16 251.902 136.877 251.454 136.68C251.011 136.477 250.523 136.373 249.99 136.368C249.473 136.368 249.011 136.456 248.606 136.632C248.206 136.803 247.889 137.037 247.654 137.336C247.419 137.635 247.302 137.976 247.302 138.36C247.302 138.749 247.409 139.061 247.622 139.296C247.841 139.531 248.107 139.715 248.422 139.848C248.742 139.981 249.051 140.091 249.35 140.176L251.606 140.84C251.841 140.904 252.115 140.997 252.43 141.12C252.75 141.237 253.059 141.408 253.358 141.632C253.662 141.851 253.913 142.139 254.11 142.496C254.307 142.853 254.406 143.307 254.406 143.856C254.406 144.389 254.299 144.867 254.086 145.288C253.878 145.709 253.582 146.064 253.198 146.352C252.819 146.64 252.374 146.859 251.862 147.008C251.355 147.163 250.801 147.24 250.198 147.24ZM256.218 136.72V135.4H257.394V136.72H256.218ZM256.218 147V138.36H257.394V147H256.218ZM264.496 147C264.011 147.101 263.531 147.141 263.056 147.12C262.587 147.099 262.165 146.997 261.792 146.816C261.424 146.635 261.144 146.352 260.952 145.968C260.797 145.648 260.712 145.325 260.696 145C260.685 144.669 260.68 144.293 260.68 143.872V135.96H261.848V143.824C261.848 144.187 261.851 144.491 261.856 144.736C261.867 144.976 261.923 145.189 262.024 145.376C262.216 145.733 262.52 145.947 262.936 146.016C263.357 146.085 263.877 146.069 264.496 145.968V147ZM258.832 139.368V138.36H264.496V139.368H258.832ZM25.976 172V162.72C25.976 162.496 25.9867 162.275 26.008 162.056C26.0347 161.837 26.0853 161.629 26.16 161.432C26.2347 161.229 26.352 161.043 26.512 160.872C26.688 160.68 26.88 160.541 27.088 160.456C27.296 160.365 27.512 160.307 27.736 160.28C27.9653 160.253 28.1893 160.24 28.408 160.24H29.512V161.232H28.488C28.04 161.232 27.704 161.341 27.48 161.56C27.2613 161.779 27.152 162.123 27.152 162.592V172H25.976ZM24.48 164.368V163.36H29.512V164.368H24.48ZM33.0295 172.24C32.3788 172.24 31.8322 172.123 31.3895 171.888C30.9522 171.653 30.6242 171.341 30.4055 170.952C30.1868 170.563 30.0775 170.139 30.0775 169.68C30.0775 169.211 30.1708 168.811 30.3575 168.48C30.5495 168.144 30.8082 167.869 31.1335 167.656C31.4642 167.443 31.8455 167.28 32.2775 167.168C32.7148 167.061 33.1975 166.968 33.7255 166.888C34.2588 166.803 34.7788 166.731 35.2855 166.672C35.7975 166.608 36.2455 166.547 36.6295 166.488L36.2135 166.744C36.2295 165.891 36.0642 165.259 35.7175 164.848C35.3708 164.437 34.7682 164.232 33.9095 164.232C33.3175 164.232 32.8162 164.365 32.4055 164.632C32.0002 164.899 31.7148 165.32 31.5495 165.896L30.4055 165.56C30.6028 164.787 31.0002 164.187 31.5975 163.76C32.1948 163.333 32.9708 163.12 33.9255 163.12C34.7148 163.12 35.3842 163.269 35.9335 163.568C36.4882 163.861 36.8802 164.288 37.1095 164.848C37.2162 165.099 37.2855 165.379 37.3175 165.688C37.3495 165.997 37.3655 166.312 37.3655 166.632V172H36.3175V169.832L36.6215 169.96C36.3282 170.701 35.8722 171.267 35.2535 171.656C34.6348 172.045 33.8935 172.24 33.0295 172.24ZM33.1655 171.224C33.7148 171.224 34.1948 171.125 34.6055 170.928C35.0162 170.731 35.3468 170.461 35.5975 170.12C35.8482 169.773 36.0108 169.384 36.0855 168.952C36.1495 168.675 36.1842 168.371 36.1895 168.04C36.1948 167.704 36.1975 167.453 36.1975 167.288L36.6455 167.52C36.2455 167.573 35.8108 167.627 35.3415 167.68C34.8775 167.733 34.4188 167.795 33.9655 167.864C33.5175 167.933 33.1122 168.016 32.7495 168.112C32.5042 168.181 32.2668 168.28 32.0375 168.408C31.8082 168.531 31.6188 168.696 31.4695 168.904C31.3255 169.112 31.2535 169.371 31.2535 169.68C31.2535 169.931 31.3148 170.173 31.4375 170.408C31.5655 170.643 31.7682 170.837 32.0455 170.992C32.3282 171.147 32.7015 171.224 33.1655 171.224ZM43.0321 172.24C42.1628 172.24 41.4268 172.045 40.8241 171.656C40.2215 171.267 39.7628 170.731 39.4481 170.048C39.1388 169.36 38.9788 168.571 38.9681 167.68C38.9788 166.773 39.1441 165.979 39.4641 165.296C39.7841 164.608 40.2455 164.075 40.8481 163.696C41.4508 163.312 42.1815 163.12 43.0401 163.12C43.9148 163.12 44.6748 163.333 45.3201 163.76C45.9708 164.187 46.4161 164.771 46.6561 165.512L45.5041 165.88C45.3015 165.363 44.9788 164.963 44.5361 164.68C44.0988 164.392 43.5975 164.248 43.0321 164.248C42.3975 164.248 41.8721 164.395 41.4561 164.688C41.0401 164.976 40.7308 165.379 40.5281 165.896C40.3255 166.413 40.2215 167.008 40.2161 167.68C40.2268 168.715 40.4668 169.547 40.9361 170.176C41.4055 170.8 42.1041 171.112 43.0321 171.112C43.6188 171.112 44.1175 170.979 44.5281 170.712C44.9441 170.44 45.2588 170.045 45.4721 169.528L46.6561 169.88C46.3361 170.648 45.8668 171.235 45.2481 171.64C44.6295 172.04 43.8908 172.24 43.0321 172.24ZM48.2331 161.72V160.4H49.4091V161.72H48.2331ZM48.2331 172V163.36H49.4091V172H48.2331ZM51.9675 172V160.24H53.1435V172H51.9675ZM55.7019 161.72V160.4H56.8779V161.72H55.7019ZM55.7019 172V163.36H56.8779V172H55.7019ZM62.5003 172.232C61.4869 172.232 60.6523 172.013 59.9963 171.576C59.3456 171.139 58.9456 170.531 58.7963 169.752L59.9963 169.552C60.1243 170.043 60.4149 170.435 60.8683 170.728C61.3269 171.016 61.8923 171.16 62.5642 171.16C63.2203 171.16 63.7376 171.024 64.1163 170.752C64.4949 170.475 64.6843 170.099 64.6843 169.624C64.6843 169.357 64.6229 169.141 64.5003 168.976C64.3829 168.805 64.1403 168.648 63.7723 168.504C63.4043 168.36 62.8549 168.189 62.1243 167.992C61.3403 167.779 60.7269 167.565 60.2843 167.352C59.8416 167.139 59.5269 166.893 59.3403 166.616C59.1536 166.333 59.0603 165.989 59.0603 165.584C59.0603 165.093 59.1989 164.664 59.4763 164.296C59.7536 163.923 60.1376 163.635 60.6283 163.432C61.1189 163.224 61.6896 163.12 62.3403 163.12C62.9909 163.12 63.5723 163.227 64.0843 163.44C64.6016 163.648 65.0176 163.941 65.3323 164.32C65.6469 164.699 65.8336 165.139 65.8923 165.64L64.6923 165.856C64.6123 165.349 64.3589 164.949 63.9323 164.656C63.5109 164.357 62.9749 164.203 62.3243 164.192C61.7109 164.176 61.2123 164.293 60.8283 164.544C60.4443 164.789 60.2523 165.117 60.2523 165.528C60.2523 165.757 60.3216 165.955 60.4603 166.12C60.5989 166.28 60.8496 166.432 61.2123 166.576C61.5803 166.72 62.1029 166.877 62.7803 167.048C63.5749 167.251 64.1989 167.464 64.6523 167.688C65.1056 167.912 65.4283 168.176 65.6203 168.48C65.8123 168.784 65.9083 169.16 65.9083 169.608C65.9083 170.424 65.6043 171.067 64.9963 171.536C64.3936 172 63.5616 172.232 62.5003 172.232ZM67.8425 161.72V160.4H69.0185V161.72H67.8425ZM67.8425 172V163.36H69.0185V172H67.8425ZM74.6409 172.232C73.6275 172.232 72.7929 172.013 72.1369 171.576C71.4862 171.139 71.0862 170.531 70.9369 169.752L72.1369 169.552C72.2649 170.043 72.5555 170.435 73.0089 170.728C73.4675 171.016 74.0329 171.16 74.7049 171.16C75.3609 171.16 75.8782 171.024 76.2569 170.752C76.6355 170.475 76.8249 170.099 76.8249 169.624C76.8249 169.357 76.7635 169.141 76.6409 168.976C76.5235 168.805 76.2809 168.648 75.9129 168.504C75.5449 168.36 74.9955 168.189 74.2649 167.992C73.4809 167.779 72.8675 167.565 72.4249 167.352C71.9822 167.139 71.6675 166.893 71.4809 166.616C71.2942 166.333 71.2009 165.989 71.2009 165.584C71.2009 165.093 71.3395 164.664 71.6169 164.296C71.8942 163.923 72.2782 163.635 72.7689 163.432C73.2595 163.224 73.8302 163.12 74.4809 163.12C75.1315 163.12 75.7129 163.227 76.2249 163.44C76.7422 163.648 77.1582 163.941 77.4729 164.32C77.7875 164.699 77.9742 165.139 78.0329 165.64L76.8329 165.856C76.7529 165.349 76.4995 164.949 76.0729 164.656C75.6515 164.357 75.1155 164.203 74.4649 164.192C73.8515 164.176 73.3529 164.293 72.9689 164.544C72.5849 164.789 72.3929 165.117 72.3929 165.528C72.3929 165.757 72.4622 165.955 72.6009 166.12C72.7395 166.28 72.9902 166.432 73.3529 166.576C73.7209 166.72 74.2435 166.877 74.9209 167.048C75.7155 167.251 76.3395 167.464 76.7929 167.688C77.2462 167.912 77.5689 168.176 77.7609 168.48C77.9529 168.784 78.0489 169.16 78.0489 169.608C78.0489 170.424 77.7449 171.067 77.1369 171.536C76.5342 172 75.7022 172.232 74.6409 172.232ZM86.3783 172.24C85.5729 172.24 84.8849 172.04 84.3143 171.64C83.7436 171.235 83.3063 170.688 83.0023 170C82.6983 169.312 82.5463 168.536 82.5463 167.672C82.5463 166.813 82.6956 166.04 82.9943 165.352C83.2983 164.664 83.7329 164.12 84.2983 163.72C84.8636 163.32 85.5409 163.12 86.3303 163.12C87.1409 163.12 87.8236 163.317 88.3783 163.712C88.9329 164.107 89.3516 164.648 89.6343 165.336C89.9223 166.019 90.0663 166.797 90.0663 167.672C90.0663 168.531 89.9249 169.307 89.6423 170C89.3596 170.688 88.9436 171.235 88.3943 171.64C87.8449 172.04 87.1729 172.24 86.3783 172.24ZM86.4983 171.144C87.1116 171.144 87.6183 170.995 88.0183 170.696C88.4183 170.397 88.7169 169.987 88.9143 169.464C89.1116 168.936 89.2103 168.339 89.2103 167.672C89.2103 166.995 89.1116 166.397 88.9143 165.88C88.7169 165.357 88.4183 164.949 88.0183 164.656C87.6236 164.363 87.1249 164.216 86.5223 164.216C85.9036 164.216 85.3916 164.368 84.9863 164.672C84.5809 164.976 84.2796 165.389 84.0823 165.912C83.8903 166.435 83.7943 167.021 83.7943 167.672C83.7943 168.328 83.8929 168.92 84.0903 169.448C84.2929 169.971 84.5943 170.384 84.9943 170.688C85.3943 170.992 85.8956 171.144 86.4983 171.144ZM89.2103 172V165.496H89.0823V160.48H90.2663V172H89.2103ZM96.1186 172.24C95.26 172.24 94.5266 172.045 93.9186 171.656C93.3106 171.267 92.844 170.728 92.5186 170.04C92.1933 169.352 92.0306 168.563 92.0306 167.672C92.0306 166.765 92.196 165.971 92.5266 165.288C92.8573 164.605 93.3266 164.075 93.9346 163.696C94.548 163.312 95.276 163.12 96.1186 163.12C96.9826 163.12 97.7186 163.315 98.3266 163.704C98.94 164.088 99.4066 164.624 99.7266 165.312C100.052 165.995 100.215 166.781 100.215 167.672C100.215 168.579 100.052 169.376 99.7266 170.064C99.4013 170.747 98.932 171.28 98.3186 171.664C97.7053 172.048 96.972 172.24 96.1186 172.24ZM96.1186 171.112C97.0786 171.112 97.7933 170.795 98.2626 170.16C98.732 169.52 98.9666 168.691 98.9666 167.672C98.9666 166.627 98.7293 165.795 98.2546 165.176C97.7853 164.557 97.0733 164.248 96.1186 164.248C95.4733 164.248 94.94 164.395 94.5186 164.688C94.1026 164.976 93.7906 165.379 93.5826 165.896C93.38 166.408 93.2786 167 93.2786 167.672C93.2786 168.712 93.5186 169.547 93.9986 170.176C94.4786 170.8 95.1853 171.112 96.1186 171.112ZM102.139 172V160.24H103.315V172H102.139ZM109.322 172.24C108.463 172.24 107.73 172.045 107.122 171.656C106.514 171.267 106.047 170.728 105.722 170.04C105.396 169.352 105.234 168.563 105.234 167.672C105.234 166.765 105.399 165.971 105.73 165.288C106.06 164.605 106.53 164.075 107.138 163.696C107.751 163.312 108.479 163.12 109.322 163.12C110.186 163.12 110.922 163.315 111.53 163.704C112.143 164.088 112.61 164.624 112.93 165.312C113.255 165.995 113.418 166.781 113.418 167.672C113.418 168.579 113.255 169.376 112.93 170.064C112.604 170.747 112.135 171.28 111.522 171.664C110.908 172.048 110.175 172.24 109.322 172.24ZM109.322 171.112C110.282 171.112 110.996 170.795 111.466 170.16C111.935 169.52 112.17 168.691 112.17 167.672C112.17 166.627 111.932 165.795 111.458 165.176C110.988 164.557 110.276 164.248 109.322 164.248C108.676 164.248 108.143 164.395 107.722 164.688C107.306 164.976 106.994 165.379 106.786 165.896C106.583 166.408 106.482 167 106.482 167.672C106.482 168.712 106.722 169.547 107.202 170.176C107.682 170.8 108.388 171.112 109.322 171.112ZM115.183 172V163.36H116.239V165.44L116.031 165.168C116.127 164.912 116.252 164.677 116.407 164.464C116.561 164.245 116.729 164.067 116.911 163.928C117.135 163.731 117.396 163.581 117.695 163.48C117.993 163.373 118.295 163.312 118.599 163.296C118.903 163.275 119.18 163.296 119.431 163.36V164.464C119.116 164.384 118.772 164.365 118.399 164.408C118.025 164.451 117.681 164.6 117.367 164.856C117.079 165.08 116.863 165.349 116.719 165.664C116.575 165.973 116.479 166.304 116.431 166.656C116.383 167.003 116.359 167.347 116.359 167.688V172H115.183ZM126.623 172.24C125.973 172.24 125.426 172.123 124.983 171.888C124.546 171.653 124.218 171.341 123.999 170.952C123.781 170.563 123.671 170.139 123.671 169.68C123.671 169.211 123.765 168.811 123.951 168.48C124.143 168.144 124.402 167.869 124.727 167.656C125.058 167.443 125.439 167.28 125.871 167.168C126.309 167.061 126.791 166.968 127.319 166.888C127.853 166.803 128.373 166.731 128.879 166.672C129.391 166.608 129.839 166.547 130.223 166.488L129.807 166.744C129.823 165.891 129.658 165.259 129.311 164.848C128.965 164.437 128.362 164.232 127.503 164.232C126.911 164.232 126.41 164.365 125.999 164.632C125.594 164.899 125.309 165.32 125.143 165.896L123.999 165.56C124.197 164.787 124.594 164.187 125.191 163.76C125.789 163.333 126.565 163.12 127.519 163.12C128.309 163.12 128.978 163.269 129.527 163.568C130.082 163.861 130.474 164.288 130.703 164.848C130.81 165.099 130.879 165.379 130.911 165.688C130.943 165.997 130.959 166.312 130.959 166.632V172H129.911V169.832L130.215 169.96C129.922 170.701 129.466 171.267 128.847 171.656C128.229 172.045 127.487 172.24 126.623 172.24ZM126.759 171.224C127.309 171.224 127.789 171.125 128.199 170.928C128.61 170.731 128.941 170.461 129.191 170.12C129.442 169.773 129.605 169.384 129.679 168.952C129.743 168.675 129.778 168.371 129.783 168.04C129.789 167.704 129.791 167.453 129.791 167.288L130.239 167.52C129.839 167.573 129.405 167.627 128.935 167.68C128.471 167.733 128.013 167.795 127.559 167.864C127.111 167.933 126.706 168.016 126.343 168.112C126.098 168.181 125.861 168.28 125.631 168.408C125.402 168.531 125.213 168.696 125.063 168.904C124.919 169.112 124.847 169.371 124.847 169.68C124.847 169.931 124.909 170.173 125.031 170.408C125.159 170.643 125.362 170.837 125.639 170.992C125.922 171.147 126.295 171.224 126.759 171.224ZM133.042 172V163.36H134.098V165.44L133.89 165.168C133.986 164.912 134.111 164.677 134.266 164.464C134.421 164.245 134.589 164.067 134.77 163.928C134.994 163.731 135.255 163.581 135.554 163.48C135.853 163.373 136.154 163.312 136.458 163.296C136.762 163.275 137.039 163.296 137.29 163.36V164.464C136.975 164.384 136.631 164.365 136.258 164.408C135.885 164.451 135.541 164.6 135.226 164.856C134.938 165.08 134.722 165.349 134.578 165.664C134.434 165.973 134.338 166.304 134.29 166.656C134.242 167.003 134.218 167.347 134.218 167.688V172H133.042ZM142.235 172.24C141.366 172.24 140.63 172.045 140.027 171.656C139.425 171.267 138.966 170.731 138.651 170.048C138.342 169.36 138.182 168.571 138.171 167.68C138.182 166.773 138.347 165.979 138.667 165.296C138.987 164.608 139.449 164.075 140.051 163.696C140.654 163.312 141.385 163.12 142.243 163.12C143.118 163.12 143.878 163.333 144.523 163.76C145.174 164.187 145.619 164.771 145.859 165.512L144.707 165.88C144.505 165.363 144.182 164.963 143.739 164.68C143.302 164.392 142.801 164.248 142.235 164.248C141.601 164.248 141.075 164.395 140.659 164.688C140.243 164.976 139.934 165.379 139.731 165.896C139.529 166.413 139.425 167.008 139.419 167.68C139.43 168.715 139.67 169.547 140.139 170.176C140.609 170.8 141.307 171.112 142.235 171.112C142.822 171.112 143.321 170.979 143.731 170.712C144.147 170.44 144.462 170.045 144.675 169.528L145.859 169.88C145.539 170.648 145.07 171.235 144.451 171.64C143.833 172.04 143.094 172.24 142.235 172.24ZM150.815 172.216C150.297 172.216 149.844 172.136 149.455 171.976C149.071 171.816 148.743 171.6 148.471 171.328C148.204 171.056 147.988 170.747 147.823 170.4C147.657 170.048 147.537 169.677 147.463 169.288C147.388 168.893 147.351 168.501 147.351 168.112V163.36H148.535V167.768C148.535 168.243 148.58 168.683 148.671 169.088C148.761 169.493 148.905 169.848 149.103 170.152C149.305 170.451 149.564 170.683 149.879 170.848C150.199 171.013 150.585 171.096 151.039 171.096C151.455 171.096 151.82 171.024 152.135 170.88C152.455 170.736 152.721 170.531 152.935 170.264C153.153 169.992 153.319 169.664 153.431 169.28C153.543 168.891 153.599 168.453 153.599 167.968L154.431 168.152C154.431 169.037 154.276 169.781 153.967 170.384C153.657 170.987 153.231 171.443 152.687 171.752C152.143 172.061 151.519 172.216 150.815 172.216ZM153.719 172V169.872H153.599V163.36H154.775V172H153.719ZM157.235 172V170.632H158.603V172H157.235Z" fill="#565973"/>
</svg>
