<svg width="306" height="205" viewBox="0 0 306 205" fill="none" xmlns="http://www.w3.org/2000/svg">
<rect width="306" height="205" rx="12" fill="white"/>
<path d="M52 80C67.464 80 80 67.464 80 52C80 36.536 67.464 24 52 24C36.536 24 24 36.536 24 52C24 67.464 36.536 80 52 80Z" fill="url(#paint0_linear_20005153_3632)"/>
<path fill-rule="evenodd" clip-rule="evenodd" d="M35.2002 40.8049C35.2002 37.7094 37.6982 35.2 40.8052 35.2H63.1952C66.2908 35.2 68.8002 37.698 68.8002 40.8049V63.195C68.8002 66.2905 66.3022 68.7999 63.1952 68.7999H40.8052C37.7096 68.7999 35.2002 66.3019 35.2002 63.195V40.8049ZM54.1842 41.585V52.251C54.1842 53.365 55.0866 54.268 56.1997 54.268H62.4167C63.5295 54.268 64.4322 53.3649 64.4322 52.251V41.585C64.4322 40.4709 63.5298 39.568 62.4167 39.568H56.1997C55.0869 39.568 54.1842 40.471 54.1842 41.585ZM39.5682 60.6534V41.5826C39.5682 40.4699 40.4709 39.568 41.5837 39.568H47.8007C48.9138 39.568 49.8162 40.47 49.8162 41.5826V60.6534C49.8162 61.766 48.9135 62.668 47.8007 62.668H41.5837C40.4705 62.668 39.5682 61.766 39.5682 60.6534Z" fill="white"/>
<path d="M29.784 121.24C28.6373 121.24 27.6693 120.987 26.88 120.48C26.0907 119.968 25.4933 119.261 25.088 118.36C24.6827 117.459 24.48 116.419 24.48 115.24C24.48 114.061 24.6827 113.021 25.088 112.12C25.4933 111.219 26.0907 110.515 26.88 110.008C27.6693 109.496 28.6373 109.24 29.784 109.24C31.1227 109.24 32.216 109.584 33.064 110.272C33.912 110.955 34.4933 111.872 34.808 113.024L33.608 113.336C33.3627 112.424 32.9227 111.701 32.288 111.168C31.6533 110.635 30.8187 110.368 29.784 110.368C28.8827 110.368 28.1333 110.573 27.536 110.984C26.9387 111.395 26.488 111.968 26.184 112.704C25.8853 113.435 25.7307 114.28 25.72 115.24C25.7147 116.2 25.8613 117.045 26.16 117.776C26.464 118.507 26.9173 119.08 27.52 119.496C28.128 119.907 28.8827 120.112 29.784 120.112C30.8187 120.112 31.6533 119.845 32.288 119.312C32.9227 118.773 33.3627 118.051 33.608 117.144L34.808 117.456C34.4933 118.608 33.912 119.528 33.064 120.216C32.216 120.899 31.1227 121.24 29.784 121.24ZM40.1811 121.24C39.3225 121.24 38.5891 121.045 37.9811 120.656C37.3731 120.267 36.9065 119.728 36.5811 119.04C36.2558 118.352 36.0931 117.563 36.0931 116.672C36.0931 115.765 36.2585 114.971 36.5891 114.288C36.9198 113.605 37.3891 113.075 37.9971 112.696C38.6105 112.312 39.3385 112.12 40.1811 112.12C41.0451 112.12 41.7811 112.315 42.3891 112.704C43.0025 113.088 43.4691 113.624 43.7891 114.312C44.1145 114.995 44.2771 115.781 44.2771 116.672C44.2771 117.579 44.1145 118.376 43.7891 119.064C43.4638 119.747 42.9945 120.28 42.3811 120.664C41.7678 121.048 41.0345 121.24 40.1811 121.24ZM40.1811 120.112C41.1411 120.112 41.8558 119.795 42.3251 119.16C42.7945 118.52 43.0291 117.691 43.0291 116.672C43.0291 115.627 42.7918 114.795 42.3171 114.176C41.8478 113.557 41.1358 113.248 40.1811 113.248C39.5358 113.248 39.0025 113.395 38.5811 113.688C38.1651 113.976 37.8531 114.379 37.6451 114.896C37.4425 115.408 37.3411 116 37.3411 116.672C37.3411 117.712 37.5811 118.547 38.0611 119.176C38.5411 119.8 39.2478 120.112 40.1811 120.112ZM52.2819 121V116.592C52.2819 116.112 52.2365 115.672 52.1459 115.272C52.0552 114.867 51.9085 114.515 51.7059 114.216C51.5085 113.912 51.2499 113.677 50.9299 113.512C50.6152 113.347 50.2312 113.264 49.7779 113.264C49.3619 113.264 48.9939 113.336 48.6739 113.48C48.3592 113.624 48.0925 113.832 47.8739 114.104C47.6605 114.371 47.4979 114.696 47.3859 115.08C47.2739 115.464 47.2179 115.901 47.2179 116.392L46.3859 116.208C46.3859 115.323 46.5405 114.579 46.8499 113.976C47.1592 113.373 47.5859 112.917 48.1299 112.608C48.6739 112.299 49.2979 112.144 50.0019 112.144C50.5192 112.144 50.9699 112.224 51.3539 112.384C51.7432 112.544 52.0712 112.76 52.3379 113.032C52.6099 113.304 52.8285 113.616 52.9939 113.968C53.1592 114.315 53.2792 114.685 53.3539 115.08C53.4285 115.469 53.4659 115.859 53.4659 116.248V121H52.2819ZM46.0339 121V112.36H47.0979V114.488H47.2179V121H46.0339ZM58.9739 125.08C58.5312 125.08 58.0939 125.013 57.6619 124.88C57.2352 124.752 56.8405 124.547 56.4779 124.264C56.1152 123.987 55.8112 123.624 55.5659 123.176L56.6299 122.584C56.8699 123.064 57.2059 123.408 57.6379 123.616C58.0752 123.829 58.5205 123.936 58.9739 123.936C59.5979 123.936 60.1019 123.819 60.4859 123.584C60.8752 123.355 61.1579 123.013 61.3339 122.56C61.5099 122.107 61.5952 121.541 61.5899 120.864V118.56H61.7259V112.36H62.7739V120.88C62.7739 121.125 62.7659 121.36 62.7499 121.584C62.7392 121.813 62.7152 122.037 62.6779 122.256C62.5765 122.901 62.3659 123.432 62.0459 123.848C61.7312 124.264 61.3152 124.573 60.7979 124.776C60.2859 124.979 59.6779 125.08 58.9739 125.08ZM58.8939 121.24C58.0885 121.24 57.4005 121.04 56.8299 120.64C56.2592 120.235 55.8219 119.688 55.5179 119C55.2139 118.312 55.0619 117.536 55.0619 116.672C55.0619 115.813 55.2112 115.04 55.5099 114.352C55.8139 113.664 56.2485 113.12 56.8139 112.72C57.3792 112.32 58.0565 112.12 58.8459 112.12C59.6565 112.12 60.3392 112.317 60.8939 112.712C61.4485 113.107 61.8672 113.648 62.1499 114.336C62.4379 115.019 62.5819 115.797 62.5819 116.672C62.5819 117.531 62.4405 118.307 62.1579 119C61.8752 119.688 61.4592 120.235 60.9099 120.64C60.3605 121.04 59.6885 121.24 58.8939 121.24ZM59.0139 120.144C59.6272 120.144 60.1339 119.995 60.5339 119.696C60.9339 119.397 61.2325 118.987 61.4299 118.464C61.6272 117.936 61.7259 117.339 61.7259 116.672C61.7259 115.995 61.6272 115.397 61.4299 114.88C61.2325 114.357 60.9339 113.949 60.5339 113.656C60.1392 113.363 59.6405 113.216 59.0379 113.216C58.4192 113.216 57.9072 113.368 57.5019 113.672C57.0965 113.976 56.7952 114.389 56.5979 114.912C56.4059 115.435 56.3099 116.021 56.3099 116.672C56.3099 117.328 56.4085 117.92 56.6059 118.448C56.8085 118.971 57.1099 119.384 57.5099 119.688C57.9099 119.992 58.4112 120.144 59.0139 120.144ZM68.3146 121.216C67.7973 121.216 67.344 121.136 66.9546 120.976C66.5706 120.816 66.2426 120.6 65.9706 120.328C65.704 120.056 65.488 119.747 65.3226 119.4C65.1573 119.048 65.0373 118.677 64.9626 118.288C64.888 117.893 64.8506 117.501 64.8506 117.112V112.36H66.0346V116.768C66.0346 117.243 66.08 117.683 66.1706 118.088C66.2613 118.493 66.4053 118.848 66.6026 119.152C66.8053 119.451 67.064 119.683 67.3786 119.848C67.6986 120.013 68.0853 120.096 68.5386 120.096C68.9546 120.096 69.32 120.024 69.6346 119.88C69.9546 119.736 70.2213 119.531 70.4346 119.264C70.6533 118.992 70.8186 118.664 70.9306 118.28C71.0426 117.891 71.0986 117.453 71.0986 116.968L71.9306 117.152C71.9306 118.037 71.776 118.781 71.4666 119.384C71.1573 119.987 70.7306 120.443 70.1866 120.752C69.6426 121.061 69.0186 121.216 68.3146 121.216ZM71.2186 121V118.872H71.0986V112.36H72.2746V121H71.2186ZM78.1666 121.24C77.324 121.24 76.5933 121.053 75.9746 120.68C75.3613 120.307 74.884 119.781 74.5426 119.104C74.2013 118.427 74.0306 117.632 74.0306 116.72C74.0306 115.776 74.1986 114.96 74.5346 114.272C74.8706 113.584 75.3426 113.053 75.9506 112.68C76.564 112.307 77.2866 112.12 78.1186 112.12C78.972 112.12 79.7 112.317 80.3026 112.712C80.9053 113.101 81.3613 113.661 81.6706 114.392C81.98 115.123 82.1213 115.995 82.0946 117.008H80.8946V116.592C80.8733 115.472 80.6306 114.627 80.1666 114.056C79.708 113.485 79.036 113.2 78.1506 113.2C77.2226 113.2 76.5106 113.501 76.0146 114.104C75.524 114.707 75.2786 115.565 75.2786 116.68C75.2786 117.768 75.524 118.613 76.0146 119.216C76.5106 119.813 77.212 120.112 78.1186 120.112C78.7373 120.112 79.276 119.971 79.7346 119.688C80.1986 119.4 80.564 118.987 80.8306 118.448L81.9266 118.872C81.5853 119.624 81.0813 120.208 80.4146 120.624C79.7533 121.035 79.004 121.24 78.1666 121.24ZM74.8626 117.008V116.024H81.4626V117.008H74.8626ZM90.9531 121.24C90.1585 121.24 89.4865 121.04 88.9371 120.64C88.3878 120.235 87.9718 119.688 87.6891 119C87.4065 118.307 87.2651 117.531 87.2651 116.672C87.2651 115.797 87.4065 115.019 87.6891 114.336C87.9771 113.648 88.3985 113.107 88.9531 112.712C89.5078 112.317 90.1905 112.12 91.0011 112.12C91.7905 112.12 92.4678 112.32 93.0331 112.72C93.5985 113.12 94.0305 113.664 94.3291 114.352C94.6331 115.04 94.7851 115.813 94.7851 116.672C94.7851 117.536 94.6331 118.312 94.3291 119C94.0251 119.688 93.5878 120.235 93.0171 120.64C92.4465 121.04 91.7585 121.24 90.9531 121.24ZM87.0651 124.84V112.36H88.1211V118.864H88.2491V124.84H87.0651ZM90.8331 120.144C91.4358 120.144 91.9371 119.992 92.3371 119.688C92.7371 119.384 93.0358 118.971 93.2331 118.448C93.4358 117.92 93.5371 117.328 93.5371 116.672C93.5371 116.021 93.4385 115.435 93.2411 114.912C93.0438 114.389 92.7425 113.976 92.3371 113.672C91.9371 113.368 91.4278 113.216 90.8091 113.216C90.2065 113.216 89.7051 113.363 89.3051 113.656C88.9105 113.949 88.6145 114.357 88.4171 114.88C88.2198 115.397 88.1211 115.995 88.1211 116.672C88.1211 117.339 88.2198 117.936 88.4171 118.464C88.6145 118.987 88.9131 119.397 89.3131 119.696C89.7131 119.995 90.2198 120.144 90.8331 120.144ZM100.198 121.24C99.3552 121.24 98.6245 121.053 98.0059 120.68C97.3925 120.307 96.9152 119.781 96.5739 119.104C96.2325 118.427 96.0619 117.632 96.0619 116.72C96.0619 115.776 96.2299 114.96 96.5659 114.272C96.9019 113.584 97.3739 113.053 97.9819 112.68C98.5952 112.307 99.3179 112.12 100.15 112.12C101.003 112.12 101.731 112.317 102.334 112.712C102.937 113.101 103.393 113.661 103.702 114.392C104.011 115.123 104.153 115.995 104.126 117.008H102.926V116.592C102.905 115.472 102.662 114.627 102.198 114.056C101.739 113.485 101.067 113.2 100.182 113.2C99.2539 113.2 98.5419 113.501 98.0459 114.104C97.5552 114.707 97.3099 115.565 97.3099 116.68C97.3099 117.768 97.5552 118.613 98.0459 119.216C98.5419 119.813 99.2432 120.112 100.15 120.112C100.769 120.112 101.307 119.971 101.766 119.688C102.23 119.4 102.595 118.987 102.862 118.448L103.958 118.872C103.617 119.624 103.113 120.208 102.446 120.624C101.785 121.035 101.035 121.24 100.198 121.24ZM96.8939 117.008V116.024H103.494V117.008H96.8939ZM106.061 121V109.24H107.237V121H106.061ZM109.796 121V109.24H110.972V121H109.796ZM117.026 121.24C116.183 121.24 115.453 121.053 114.834 120.68C114.221 120.307 113.743 119.781 113.402 119.104C113.061 118.427 112.89 117.632 112.89 116.72C112.89 115.776 113.058 114.96 113.394 114.272C113.73 113.584 114.202 113.053 114.81 112.68C115.423 112.307 116.146 112.12 116.978 112.12C117.831 112.12 118.559 112.317 119.162 112.712C119.765 113.101 120.221 113.661 120.53 114.392C120.839 115.123 120.981 115.995 120.954 117.008H119.754V116.592C119.733 115.472 119.49 114.627 119.026 114.056C118.567 113.485 117.895 113.2 117.01 113.2C116.082 113.2 115.37 113.501 114.874 114.104C114.383 114.707 114.138 115.565 114.138 116.68C114.138 117.768 114.383 118.613 114.874 119.216C115.37 119.813 116.071 120.112 116.978 120.112C117.597 120.112 118.135 119.971 118.594 119.688C119.058 119.4 119.423 118.987 119.69 118.448L120.786 118.872C120.445 119.624 119.941 120.208 119.274 120.624C118.613 121.035 117.863 121.24 117.026 121.24ZM113.722 117.008V116.024H120.322V117.008H113.722ZM128.735 121V116.592C128.735 116.112 128.69 115.672 128.599 115.272C128.508 114.867 128.362 114.515 128.159 114.216C127.962 113.912 127.703 113.677 127.383 113.512C127.068 113.347 126.684 113.264 126.231 113.264C125.815 113.264 125.447 113.336 125.127 113.48C124.812 113.624 124.546 113.832 124.327 114.104C124.114 114.371 123.951 114.696 123.839 115.08C123.727 115.464 123.671 115.901 123.671 116.392L122.839 116.208C122.839 115.323 122.994 114.579 123.303 113.976C123.612 113.373 124.039 112.917 124.583 112.608C125.127 112.299 125.751 112.144 126.455 112.144C126.972 112.144 127.423 112.224 127.807 112.384C128.196 112.544 128.524 112.76 128.791 113.032C129.063 113.304 129.282 113.616 129.447 113.968C129.612 114.315 129.732 114.685 129.807 115.08C129.882 115.469 129.919 115.859 129.919 116.248V121H128.735ZM122.487 121V112.36H123.551V114.488H123.671V121H122.487ZM136.699 121C136.214 121.101 135.734 121.141 135.259 121.12C134.79 121.099 134.368 120.997 133.995 120.816C133.627 120.635 133.347 120.352 133.155 119.968C133 119.648 132.915 119.325 132.899 119C132.888 118.669 132.883 118.293 132.883 117.872V109.96H134.051V117.824C134.051 118.187 134.054 118.491 134.059 118.736C134.07 118.976 134.126 119.189 134.227 119.376C134.419 119.733 134.723 119.947 135.139 120.016C135.56 120.085 136.08 120.069 136.699 119.968V121ZM131.035 113.368V112.36H136.699V113.368H131.035ZM141.745 121.24C140.902 121.24 140.171 121.053 139.553 120.68C138.939 120.307 138.462 119.781 138.121 119.104C137.779 118.427 137.609 117.632 137.609 116.72C137.609 115.776 137.777 114.96 138.113 114.272C138.449 113.584 138.921 113.053 139.529 112.68C140.142 112.307 140.865 112.12 141.697 112.12C142.55 112.12 143.278 112.317 143.881 112.712C144.483 113.101 144.939 113.661 145.249 114.392C145.558 115.123 145.699 115.995 145.673 117.008H144.473V116.592C144.451 115.472 144.209 114.627 143.745 114.056C143.286 113.485 142.614 113.2 141.729 113.2C140.801 113.2 140.089 113.501 139.593 114.104C139.102 114.707 138.857 115.565 138.857 116.68C138.857 117.768 139.102 118.613 139.593 119.216C140.089 119.813 140.79 120.112 141.697 120.112C142.315 120.112 142.854 119.971 143.313 119.688C143.777 119.4 144.142 118.987 144.409 118.448L145.505 118.872C145.163 119.624 144.659 120.208 143.993 120.624C143.331 121.035 142.582 121.24 141.745 121.24ZM138.441 117.008V116.024H145.041V117.008H138.441ZM150.672 121.232C149.659 121.232 148.824 121.013 148.168 120.576C147.517 120.139 147.117 119.531 146.968 118.752L148.168 118.552C148.296 119.043 148.587 119.435 149.04 119.728C149.499 120.016 150.064 120.16 150.736 120.16C151.392 120.16 151.909 120.024 152.288 119.752C152.667 119.475 152.856 119.099 152.856 118.624C152.856 118.357 152.795 118.141 152.672 117.976C152.555 117.805 152.312 117.648 151.944 117.504C151.576 117.36 151.027 117.189 150.296 116.992C149.512 116.779 148.899 116.565 148.456 116.352C148.013 116.139 147.699 115.893 147.512 115.616C147.325 115.333 147.232 114.989 147.232 114.584C147.232 114.093 147.371 113.664 147.648 113.296C147.925 112.923 148.309 112.635 148.8 112.432C149.291 112.224 149.861 112.12 150.512 112.12C151.163 112.12 151.744 112.227 152.256 112.44C152.773 112.648 153.189 112.941 153.504 113.32C153.819 113.699 154.005 114.139 154.064 114.64L152.864 114.856C152.784 114.349 152.531 113.949 152.104 113.656C151.683 113.357 151.147 113.203 150.496 113.192C149.883 113.176 149.384 113.293 149 113.544C148.616 113.789 148.424 114.117 148.424 114.528C148.424 114.757 148.493 114.955 148.632 115.12C148.771 115.28 149.021 115.432 149.384 115.576C149.752 115.72 150.275 115.877 150.952 116.048C151.747 116.251 152.371 116.464 152.824 116.688C153.277 116.912 153.6 117.176 153.792 117.48C153.984 117.784 154.08 118.16 154.08 118.608C154.08 119.424 153.776 120.067 153.168 120.536C152.565 121 151.733 121.232 150.672 121.232ZM159.206 121.24C158.401 121.24 157.713 121.04 157.142 120.64C156.572 120.235 156.134 119.688 155.83 119C155.526 118.312 155.374 117.536 155.374 116.672C155.374 115.813 155.524 115.04 155.822 114.352C156.126 113.664 156.561 113.12 157.126 112.72C157.692 112.32 158.369 112.12 159.158 112.12C159.969 112.12 160.652 112.317 161.206 112.712C161.761 113.107 162.18 113.648 162.462 114.336C162.75 115.019 162.894 115.797 162.894 116.672C162.894 117.531 162.753 118.307 162.47 119C162.188 119.688 161.772 120.235 161.222 120.64C160.673 121.04 160.001 121.24 159.206 121.24ZM159.326 120.144C159.94 120.144 160.446 119.995 160.846 119.696C161.246 119.397 161.545 118.987 161.742 118.464C161.94 117.936 162.038 117.339 162.038 116.672C162.038 115.995 161.94 115.397 161.742 114.88C161.545 114.357 161.246 113.949 160.846 113.656C160.452 113.363 159.953 113.216 159.35 113.216C158.732 113.216 158.22 113.368 157.814 113.672C157.409 113.976 157.108 114.389 156.91 114.912C156.718 115.435 156.622 116.021 156.622 116.672C156.622 117.328 156.721 117.92 156.918 118.448C157.121 118.971 157.422 119.384 157.822 119.688C158.222 119.992 158.724 120.144 159.326 120.144ZM161.91 124.84V118.864H162.038V112.36H163.094V124.84H161.91ZM168.643 121.216C168.125 121.216 167.672 121.136 167.283 120.976C166.899 120.816 166.571 120.6 166.299 120.328C166.032 120.056 165.816 119.747 165.651 119.4C165.485 119.048 165.365 118.677 165.291 118.288C165.216 117.893 165.179 117.501 165.179 117.112V112.36H166.363V116.768C166.363 117.243 166.408 117.683 166.499 118.088C166.589 118.493 166.733 118.848 166.931 119.152C167.133 119.451 167.392 119.683 167.707 119.848C168.027 120.013 168.413 120.096 168.867 120.096C169.283 120.096 169.648 120.024 169.963 119.88C170.283 119.736 170.549 119.531 170.763 119.264C170.981 118.992 171.147 118.664 171.259 118.28C171.371 117.891 171.427 117.453 171.427 116.968L172.259 117.152C172.259 118.037 172.104 118.781 171.795 119.384C171.485 119.987 171.059 120.443 170.515 120.752C169.971 121.061 169.347 121.216 168.643 121.216ZM171.547 121V118.872H171.427V112.36H172.603V121H171.547ZM178.495 121.24C177.652 121.24 176.921 121.053 176.303 120.68C175.689 120.307 175.212 119.781 174.871 119.104C174.529 118.427 174.359 117.632 174.359 116.72C174.359 115.776 174.527 114.96 174.863 114.272C175.199 113.584 175.671 113.053 176.279 112.68C176.892 112.307 177.615 112.12 178.447 112.12C179.3 112.12 180.028 112.317 180.631 112.712C181.233 113.101 181.689 113.661 181.999 114.392C182.308 115.123 182.449 115.995 182.423 117.008H181.223V116.592C181.201 115.472 180.959 114.627 180.495 114.056C180.036 113.485 179.364 113.2 178.479 113.2C177.551 113.2 176.839 113.501 176.343 114.104C175.852 114.707 175.607 115.565 175.607 116.68C175.607 117.768 175.852 118.613 176.343 119.216C176.839 119.813 177.54 120.112 178.447 120.112C179.065 120.112 179.604 119.971 180.063 119.688C180.527 119.4 180.892 118.987 181.159 118.448L182.255 118.872C181.913 119.624 181.409 120.208 180.743 120.624C180.081 121.035 179.332 121.24 178.495 121.24ZM175.191 117.008V116.024H181.791V117.008H175.191ZM189.873 121.24C189.223 121.24 188.676 121.123 188.233 120.888C187.796 120.653 187.468 120.341 187.249 119.952C187.031 119.563 186.921 119.139 186.921 118.68C186.921 118.211 187.015 117.811 187.201 117.48C187.393 117.144 187.652 116.869 187.977 116.656C188.308 116.443 188.689 116.28 189.121 116.168C189.559 116.061 190.041 115.968 190.569 115.888C191.103 115.803 191.623 115.731 192.129 115.672C192.641 115.608 193.089 115.547 193.473 115.488L193.057 115.744C193.073 114.891 192.908 114.259 192.561 113.848C192.215 113.437 191.612 113.232 190.753 113.232C190.161 113.232 189.66 113.365 189.249 113.632C188.844 113.899 188.559 114.32 188.393 114.896L187.249 114.56C187.447 113.787 187.844 113.187 188.441 112.76C189.039 112.333 189.815 112.12 190.769 112.12C191.559 112.12 192.228 112.269 192.777 112.568C193.332 112.861 193.724 113.288 193.953 113.848C194.06 114.099 194.129 114.379 194.161 114.688C194.193 114.997 194.209 115.312 194.209 115.632V121H193.161V118.832L193.465 118.96C193.172 119.701 192.716 120.267 192.097 120.656C191.479 121.045 190.737 121.24 189.873 121.24ZM190.009 120.224C190.559 120.224 191.039 120.125 191.449 119.928C191.86 119.731 192.191 119.461 192.441 119.12C192.692 118.773 192.855 118.384 192.929 117.952C192.993 117.675 193.028 117.371 193.033 117.04C193.039 116.704 193.041 116.453 193.041 116.288L193.489 116.52C193.089 116.573 192.655 116.627 192.185 116.68C191.721 116.733 191.263 116.795 190.809 116.864C190.361 116.933 189.956 117.016 189.593 117.112C189.348 117.181 189.111 117.28 188.881 117.408C188.652 117.531 188.463 117.696 188.313 117.904C188.169 118.112 188.097 118.371 188.097 118.68C188.097 118.931 188.159 119.173 188.281 119.408C188.409 119.643 188.612 119.837 188.889 119.992C189.172 120.147 189.545 120.224 190.009 120.224ZM206.596 121L206.604 115.328C206.604 114.661 206.417 114.139 206.044 113.76C205.676 113.376 205.207 113.184 204.636 113.184C204.311 113.184 203.993 113.259 203.684 113.408C203.375 113.557 203.119 113.797 202.916 114.128C202.719 114.459 202.62 114.891 202.62 115.424L201.924 115.224C201.908 114.605 202.028 114.064 202.284 113.6C202.545 113.136 202.903 112.776 203.356 112.52C203.815 112.259 204.332 112.128 204.908 112.128C205.777 112.128 206.473 112.397 206.996 112.936C207.519 113.469 207.78 114.192 207.78 115.104L207.772 121H206.596ZM196.284 121V112.36H197.34V114.488H197.468V121H196.284ZM201.452 121L201.46 115.408C201.46 114.72 201.276 114.179 200.908 113.784C200.545 113.384 200.065 113.184 199.468 113.184C198.871 113.184 198.388 113.389 198.02 113.8C197.652 114.205 197.468 114.747 197.468 115.424L196.764 115.04C196.764 114.485 196.895 113.989 197.156 113.552C197.417 113.109 197.775 112.763 198.228 112.512C198.681 112.256 199.196 112.128 199.772 112.128C200.321 112.128 200.809 112.245 201.236 112.48C201.668 112.715 202.007 113.056 202.252 113.504C202.497 113.952 202.62 114.496 202.62 115.136L202.612 121H201.452ZM213.464 121.24C212.621 121.24 211.89 121.053 211.272 120.68C210.658 120.307 210.181 119.781 209.84 119.104C209.498 118.427 209.328 117.632 209.328 116.72C209.328 115.776 209.496 114.96 209.832 114.272C210.168 113.584 210.64 113.053 211.248 112.68C211.861 112.307 212.584 112.12 213.416 112.12C214.269 112.12 214.997 112.317 215.6 112.712C216.202 113.101 216.658 113.661 216.968 114.392C217.277 115.123 217.418 115.995 217.392 117.008H216.192V116.592C216.17 115.472 215.928 114.627 215.464 114.056C215.005 113.485 214.333 113.2 213.448 113.2C212.52 113.2 211.808 113.501 211.312 114.104C210.821 114.707 210.576 115.565 210.576 116.68C210.576 117.768 210.821 118.613 211.312 119.216C211.808 119.813 212.509 120.112 213.416 120.112C214.034 120.112 214.573 119.971 215.032 119.688C215.496 119.4 215.861 118.987 216.128 118.448L217.224 118.872C216.882 119.624 216.378 120.208 215.712 120.624C215.05 121.035 214.301 121.24 213.464 121.24ZM210.16 117.008V116.024H216.76V117.008H210.16ZM223.871 121C223.386 121.101 222.906 121.141 222.431 121.12C221.962 121.099 221.54 120.997 221.167 120.816C220.799 120.635 220.519 120.352 220.327 119.968C220.172 119.648 220.087 119.325 220.071 119C220.06 118.669 220.055 118.293 220.055 117.872V109.96H221.223V117.824C221.223 118.187 221.226 118.491 221.231 118.736C221.242 118.976 221.298 119.189 221.399 119.376C221.591 119.733 221.895 119.947 222.311 120.016C222.732 120.085 223.252 120.069 223.871 119.968V121ZM218.207 113.368V112.36H223.871V113.368H218.207ZM225.413 122.672L225.485 122.088C225.698 122.104 225.853 122.061 225.949 121.96C226.045 121.859 226.104 121.723 226.125 121.552C226.146 121.381 226.152 121.197 226.141 121H225.413V119.312H226.781V121.32C226.781 121.811 226.656 122.179 226.405 122.424C226.16 122.669 225.829 122.752 225.413 122.672ZM235.362 121L232.226 112.36H233.418L235.97 119.464L238.506 112.36H239.714L236.578 121H235.362ZM241.311 110.72V109.4H242.487V110.72H241.311ZM241.311 121V112.36H242.487V121H241.311ZM247.222 121L244.086 112.36H245.278L247.83 119.464L250.366 112.36H251.574L248.438 121H247.222ZM256.354 121.24C255.511 121.24 254.781 121.053 254.162 120.68C253.549 120.307 253.071 119.781 252.73 119.104C252.389 118.427 252.218 117.632 252.218 116.72C252.218 115.776 252.386 114.96 252.722 114.272C253.058 113.584 253.53 113.053 254.138 112.68C254.751 112.307 255.474 112.12 256.306 112.12C257.159 112.12 257.887 112.317 258.49 112.712C259.093 113.101 259.549 113.661 259.858 114.392C260.167 115.123 260.309 115.995 260.282 117.008H259.082V116.592C259.061 115.472 258.818 114.627 258.354 114.056C257.895 113.485 257.223 113.2 256.338 113.2C255.41 113.2 254.698 113.501 254.202 114.104C253.711 114.707 253.466 115.565 253.466 116.68C253.466 117.768 253.711 118.613 254.202 119.216C254.698 119.813 255.399 120.112 256.306 120.112C256.925 120.112 257.463 119.971 257.922 119.688C258.386 119.4 258.751 118.987 259.018 118.448L260.114 118.872C259.773 119.624 259.269 120.208 258.602 120.624C257.941 121.035 257.191 121.24 256.354 121.24ZM253.05 117.008V116.024H259.65V117.008H253.05ZM262.058 121V112.36H263.114V114.44L262.906 114.168C263.002 113.912 263.127 113.677 263.282 113.464C263.436 113.245 263.604 113.067 263.786 112.928C264.01 112.731 264.271 112.581 264.57 112.48C264.868 112.373 265.17 112.312 265.474 112.296C265.778 112.275 266.055 112.296 266.306 112.36V113.464C265.991 113.384 265.647 113.365 265.274 113.408C264.9 113.451 264.556 113.6 264.242 113.856C263.954 114.08 263.738 114.349 263.594 114.664C263.45 114.973 263.354 115.304 263.306 115.656C263.258 116.003 263.234 116.347 263.234 116.688V121H262.058ZM267.823 121V112.36H268.879V114.44L268.671 114.168C268.767 113.912 268.892 113.677 269.047 113.464C269.202 113.245 269.37 113.067 269.551 112.928C269.775 112.731 270.036 112.581 270.335 112.48C270.634 112.373 270.935 112.312 271.239 112.296C271.543 112.275 271.82 112.296 272.071 112.36V113.464C271.756 113.384 271.412 113.365 271.039 113.408C270.666 113.451 270.322 113.6 270.007 113.856C269.719 114.08 269.503 114.349 269.359 114.664C269.215 114.973 269.119 115.304 269.071 115.656C269.023 116.003 268.999 116.347 268.999 116.688V121H267.823ZM275.733 121.24C275.082 121.24 274.535 121.123 274.093 120.888C273.655 120.653 273.327 120.341 273.109 119.952C272.89 119.563 272.781 119.139 272.781 118.68C272.781 118.211 272.874 117.811 273.061 117.48C273.253 117.144 273.511 116.869 273.837 116.656C274.167 116.443 274.549 116.28 274.981 116.168C275.418 116.061 275.901 115.968 276.429 115.888C276.962 115.803 277.482 115.731 277.989 115.672C278.501 115.608 278.949 115.547 279.333 115.488L278.917 115.744C278.933 114.891 278.767 114.259 278.421 113.848C278.074 113.437 277.471 113.232 276.613 113.232C276.021 113.232 275.519 113.365 275.109 113.632C274.703 113.899 274.418 114.32 274.253 114.896L273.109 114.56C273.306 113.787 273.703 113.187 274.301 112.76C274.898 112.333 275.674 112.12 276.629 112.12C277.418 112.12 278.087 112.269 278.637 112.568C279.191 112.861 279.583 113.288 279.813 113.848C279.919 114.099 279.989 114.379 280.021 114.688C280.053 114.997 280.069 115.312 280.069 115.632V121H279.021V118.832L279.325 118.96C279.031 119.701 278.575 120.267 277.957 120.656C277.338 121.045 276.597 121.24 275.733 121.24ZM275.869 120.224C276.418 120.224 276.898 120.125 277.309 119.928C277.719 119.731 278.05 119.461 278.301 119.12C278.551 118.773 278.714 118.384 278.789 117.952C278.853 117.675 278.887 117.371 278.893 117.04C278.898 116.704 278.901 116.453 278.901 116.288L279.349 116.52C278.949 116.573 278.514 116.627 278.045 116.68C277.581 116.733 277.122 116.795 276.669 116.864C276.221 116.933 275.815 117.016 275.453 117.112C275.207 117.181 274.97 117.28 274.741 117.408C274.511 117.531 274.322 117.696 274.173 117.904C274.029 118.112 273.957 118.371 273.957 118.68C273.957 118.931 274.018 119.173 274.141 119.408C274.269 119.643 274.471 119.837 274.749 119.992C275.031 120.147 275.405 120.224 275.869 120.224ZM28.704 147.24C27.8347 147.24 27.0987 147.045 26.496 146.656C25.8933 146.267 25.4347 145.731 25.12 145.048C24.8107 144.36 24.6507 143.571 24.64 142.68C24.6507 141.773 24.816 140.979 25.136 140.296C25.456 139.608 25.9173 139.075 26.52 138.696C27.1227 138.312 27.8533 138.12 28.712 138.12C29.5867 138.12 30.3467 138.333 30.992 138.76C31.6427 139.187 32.088 139.771 32.328 140.512L31.176 140.88C30.9733 140.363 30.6507 139.963 30.208 139.68C29.7707 139.392 29.2693 139.248 28.704 139.248C28.0693 139.248 27.544 139.395 27.128 139.688C26.712 139.976 26.4027 140.379 26.2 140.896C25.9973 141.413 25.8933 142.008 25.888 142.68C25.8987 143.715 26.1387 144.547 26.608 145.176C27.0773 145.8 27.776 146.112 28.704 146.112C29.2907 146.112 29.7893 145.979 30.2 145.712C30.616 145.44 30.9307 145.045 31.144 144.528L32.328 144.88C32.008 145.648 31.5387 146.235 30.92 146.64C30.3013 147.04 29.5627 147.24 28.704 147.24ZM37.2834 147.216C36.766 147.216 36.3127 147.136 35.9234 146.976C35.5394 146.816 35.2114 146.6 34.9394 146.328C34.6727 146.056 34.4567 145.747 34.2914 145.4C34.126 145.048 34.006 144.677 33.9314 144.288C33.8567 143.893 33.8194 143.501 33.8194 143.112V138.36H35.0034V142.768C35.0034 143.243 35.0487 143.683 35.1394 144.088C35.23 144.493 35.374 144.848 35.5714 145.152C35.774 145.451 36.0327 145.683 36.3474 145.848C36.6674 146.013 37.054 146.096 37.5074 146.096C37.9234 146.096 38.2887 146.024 38.6034 145.88C38.9234 145.736 39.19 145.531 39.4034 145.264C39.622 144.992 39.7874 144.664 39.8994 144.28C40.0114 143.891 40.0674 143.453 40.0674 142.968L40.8994 143.152C40.8994 144.037 40.7447 144.781 40.4354 145.384C40.126 145.987 39.6994 146.443 39.1554 146.752C38.6114 147.061 37.9874 147.216 37.2834 147.216ZM40.1874 147V144.872H40.0674V138.36H41.2434V147H40.1874ZM43.4794 147V138.36H44.5354V140.44L44.3274 140.168C44.4234 139.912 44.5487 139.677 44.7034 139.464C44.858 139.245 45.026 139.067 45.2074 138.928C45.4314 138.731 45.6927 138.581 45.9914 138.48C46.29 138.373 46.5914 138.312 46.8954 138.296C47.1994 138.275 47.4767 138.296 47.7274 138.36V139.464C47.4127 139.384 47.0687 139.365 46.6954 139.408C46.322 139.451 45.978 139.6 45.6634 139.856C45.3754 140.08 45.1594 140.349 45.0154 140.664C44.8714 140.973 44.7754 141.304 44.7274 141.656C44.6794 142.003 44.6554 142.347 44.6554 142.688V147H43.4794ZM51.3889 147.24C50.7382 147.24 50.1915 147.123 49.7489 146.888C49.3115 146.653 48.9835 146.341 48.7649 145.952C48.5462 145.563 48.4369 145.139 48.4369 144.68C48.4369 144.211 48.5302 143.811 48.7169 143.48C48.9089 143.144 49.1675 142.869 49.4929 142.656C49.8235 142.443 50.2049 142.28 50.6369 142.168C51.0742 142.061 51.5569 141.968 52.0849 141.888C52.6182 141.803 53.1382 141.731 53.6449 141.672C54.1569 141.608 54.6049 141.547 54.9889 141.488L54.5729 141.744C54.5889 140.891 54.4235 140.259 54.0769 139.848C53.7302 139.437 53.1275 139.232 52.2689 139.232C51.6769 139.232 51.1755 139.365 50.7649 139.632C50.3595 139.899 50.0742 140.32 49.9089 140.896L48.7649 140.56C48.9622 139.787 49.3595 139.187 49.9569 138.76C50.5542 138.333 51.3302 138.12 52.2849 138.12C53.0742 138.12 53.7435 138.269 54.2929 138.568C54.8475 138.861 55.2395 139.288 55.4689 139.848C55.5755 140.099 55.6449 140.379 55.6769 140.688C55.7089 140.997 55.7249 141.312 55.7249 141.632V147H54.6769V144.832L54.9809 144.96C54.6875 145.701 54.2315 146.267 53.6129 146.656C52.9942 147.045 52.2529 147.24 51.3889 147.24ZM51.5249 146.224C52.0742 146.224 52.5542 146.125 52.9649 145.928C53.3755 145.731 53.7062 145.461 53.9569 145.12C54.2075 144.773 54.3702 144.384 54.4449 143.952C54.5089 143.675 54.5435 143.371 54.5489 143.04C54.5542 142.704 54.5569 142.453 54.5569 142.288L55.0049 142.52C54.6049 142.573 54.1702 142.627 53.7009 142.68C53.2369 142.733 52.7782 142.795 52.3249 142.864C51.8769 142.933 51.4715 143.016 51.1089 143.112C50.8635 143.181 50.6262 143.28 50.3969 143.408C50.1675 143.531 49.9782 143.696 49.8289 143.904C49.6849 144.112 49.6129 144.371 49.6129 144.68C49.6129 144.931 49.6742 145.173 49.7969 145.408C49.9249 145.643 50.1275 145.837 50.4049 145.992C50.6875 146.147 51.0609 146.224 51.5249 146.224ZM61.6875 147.24C60.8928 147.24 60.2208 147.04 59.6715 146.64C59.1222 146.235 58.7062 145.688 58.4235 145C58.1408 144.307 57.9995 143.531 57.9995 142.672C57.9995 141.797 58.1408 141.019 58.4235 140.336C58.7115 139.648 59.1328 139.107 59.6875 138.712C60.2422 138.317 60.9248 138.12 61.7355 138.12C62.5248 138.12 63.2022 138.32 63.7675 138.72C64.3328 139.12 64.7648 139.664 65.0635 140.352C65.3675 141.04 65.5195 141.813 65.5195 142.672C65.5195 143.536 65.3675 144.312 65.0635 145C64.7595 145.688 64.3222 146.235 63.7515 146.64C63.1808 147.04 62.4928 147.24 61.6875 147.24ZM57.7995 147V135.48H58.9835V140.496H58.8555V147H57.7995ZM61.5675 146.144C62.1702 146.144 62.6715 145.992 63.0715 145.688C63.4715 145.384 63.7702 144.971 63.9675 144.448C64.1702 143.92 64.2715 143.328 64.2715 142.672C64.2715 142.021 64.1728 141.435 63.9755 140.912C63.7782 140.389 63.4768 139.976 63.0715 139.672C62.6715 139.368 62.1622 139.216 61.5435 139.216C60.9408 139.216 60.4395 139.363 60.0395 139.656C59.6448 139.949 59.3488 140.357 59.1515 140.88C58.9542 141.397 58.8555 141.995 58.8555 142.672C58.8555 143.339 58.9542 143.936 59.1515 144.464C59.3488 144.987 59.6475 145.397 60.0475 145.696C60.4475 145.995 60.9542 146.144 61.5675 146.144ZM67.4363 136.72V135.4H68.6123V136.72H67.4363ZM67.4363 147V138.36H68.6123V147H67.4363ZM75.7146 147C75.2293 147.101 74.7493 147.141 74.2746 147.12C73.8053 147.099 73.384 146.997 73.0106 146.816C72.6426 146.635 72.3626 146.352 72.1706 145.968C72.016 145.648 71.9306 145.325 71.9146 145C71.904 144.669 71.8986 144.293 71.8986 143.872V135.96H73.0666V143.824C73.0666 144.187 73.0693 144.491 73.0746 144.736C73.0853 144.976 73.1413 145.189 73.2426 145.376C73.4346 145.733 73.7386 145.947 74.1546 146.016C74.576 146.085 75.096 146.069 75.7146 145.968V147ZM70.0506 139.368V138.36H75.7146V139.368H70.0506ZM80.7209 147.216C80.2035 147.216 79.7502 147.136 79.3609 146.976C78.9769 146.816 78.6489 146.6 78.3769 146.328C78.1102 146.056 77.8942 145.747 77.7289 145.4C77.5635 145.048 77.4435 144.677 77.3689 144.288C77.2942 143.893 77.2569 143.501 77.2569 143.112V138.36H78.4409V142.768C78.4409 143.243 78.4862 143.683 78.5769 144.088C78.6675 144.493 78.8115 144.848 79.0089 145.152C79.2115 145.451 79.4702 145.683 79.7849 145.848C80.1049 146.013 80.4915 146.096 80.9449 146.096C81.3609 146.096 81.7262 146.024 82.0409 145.88C82.3609 145.736 82.6275 145.531 82.8409 145.264C83.0595 144.992 83.2249 144.664 83.3369 144.28C83.4489 143.891 83.5049 143.453 83.5049 142.968L84.3369 143.152C84.3369 144.037 84.1822 144.781 83.8729 145.384C83.5635 145.987 83.1369 146.443 82.5929 146.752C82.0489 147.061 81.4249 147.216 80.7209 147.216ZM83.6249 147V144.872H83.5049V138.36H84.6809V147H83.6249ZM86.9169 147V138.36H87.9729V140.44L87.7649 140.168C87.8609 139.912 87.9862 139.677 88.1409 139.464C88.2955 139.245 88.4635 139.067 88.6449 138.928C88.8689 138.731 89.1302 138.581 89.4289 138.48C89.7275 138.373 90.0289 138.312 90.3329 138.296C90.6369 138.275 90.9142 138.296 91.1649 138.36V139.464C90.8502 139.384 90.5062 139.365 90.1329 139.408C89.7595 139.451 89.4155 139.6 89.1009 139.856C88.8129 140.08 88.5969 140.349 88.4529 140.664C88.3089 140.973 88.2129 141.304 88.1649 141.656C88.1169 142.003 88.0929 142.347 88.0929 142.688V147H86.9169ZM99.2376 147.24C98.4323 147.24 97.7443 147.04 97.1736 146.64C96.603 146.235 96.1656 145.688 95.8616 145C95.5576 144.312 95.4056 143.536 95.4056 142.672C95.4056 141.813 95.555 141.04 95.8536 140.352C96.1576 139.664 96.5923 139.12 97.1576 138.72C97.723 138.32 98.4003 138.12 99.1896 138.12C100 138.12 100.683 138.317 101.238 138.712C101.792 139.107 102.211 139.648 102.494 140.336C102.782 141.019 102.926 141.797 102.926 142.672C102.926 143.531 102.784 144.307 102.502 145C102.219 145.688 101.803 146.235 101.254 146.64C100.704 147.04 100.032 147.24 99.2376 147.24ZM99.3576 146.144C99.971 146.144 100.478 145.995 100.878 145.696C101.278 145.397 101.576 144.987 101.774 144.464C101.971 143.936 102.07 143.339 102.07 142.672C102.07 141.995 101.971 141.397 101.774 140.88C101.576 140.357 101.278 139.949 100.878 139.656C100.483 139.363 99.9843 139.216 99.3816 139.216C98.763 139.216 98.251 139.368 97.8456 139.672C97.4403 139.976 97.139 140.389 96.9416 140.912C96.7496 141.435 96.6536 142.021 96.6536 142.672C96.6536 143.328 96.7523 143.92 96.9496 144.448C97.1523 144.971 97.4536 145.384 97.8536 145.688C98.2536 145.992 98.755 146.144 99.3576 146.144ZM101.942 150.84V144.864H102.07V138.36H103.126V150.84H101.942ZM108.674 147.216C108.157 147.216 107.703 147.136 107.314 146.976C106.93 146.816 106.602 146.6 106.33 146.328C106.063 146.056 105.847 145.747 105.682 145.4C105.517 145.048 105.397 144.677 105.322 144.288C105.247 143.893 105.21 143.501 105.21 143.112V138.36H106.394V142.768C106.394 143.243 106.439 143.683 106.53 144.088C106.621 144.493 106.765 144.848 106.962 145.152C107.165 145.451 107.423 145.683 107.738 145.848C108.058 146.013 108.445 146.096 108.898 146.096C109.314 146.096 109.679 146.024 109.994 145.88C110.314 145.736 110.581 145.531 110.794 145.264C111.013 144.992 111.178 144.664 111.29 144.28C111.402 143.891 111.458 143.453 111.458 142.968L112.29 143.152C112.29 144.037 112.135 144.781 111.826 145.384C111.517 145.987 111.09 146.443 110.546 146.752C110.002 147.061 109.378 147.216 108.674 147.216ZM111.578 147V144.872H111.458V138.36H112.634V147H111.578ZM117.342 147.24C116.691 147.24 116.145 147.123 115.702 146.888C115.265 146.653 114.937 146.341 114.718 145.952C114.499 145.563 114.39 145.139 114.39 144.68C114.39 144.211 114.483 143.811 114.67 143.48C114.862 143.144 115.121 142.869 115.446 142.656C115.777 142.443 116.158 142.28 116.59 142.168C117.027 142.061 117.51 141.968 118.038 141.888C118.571 141.803 119.091 141.731 119.598 141.672C120.11 141.608 120.558 141.547 120.942 141.488L120.526 141.744C120.542 140.891 120.377 140.259 120.03 139.848C119.683 139.437 119.081 139.232 118.222 139.232C117.63 139.232 117.129 139.365 116.718 139.632C116.313 139.899 116.027 140.32 115.862 140.896L114.718 140.56C114.915 139.787 115.313 139.187 115.91 138.76C116.507 138.333 117.283 138.12 118.238 138.12C119.027 138.12 119.697 138.269 120.246 138.568C120.801 138.861 121.193 139.288 121.422 139.848C121.529 140.099 121.598 140.379 121.63 140.688C121.662 140.997 121.678 141.312 121.678 141.632V147H120.63V144.832L120.934 144.96C120.641 145.701 120.185 146.267 119.566 146.656C118.947 147.045 118.206 147.24 117.342 147.24ZM117.478 146.224C118.027 146.224 118.507 146.125 118.918 145.928C119.329 145.731 119.659 145.461 119.91 145.12C120.161 144.773 120.323 144.384 120.398 143.952C120.462 143.675 120.497 143.371 120.502 143.04C120.507 142.704 120.51 142.453 120.51 142.288L120.958 142.52C120.558 142.573 120.123 142.627 119.654 142.68C119.19 142.733 118.731 142.795 118.278 142.864C117.83 142.933 117.425 143.016 117.062 143.112C116.817 143.181 116.579 143.28 116.35 143.408C116.121 143.531 115.931 143.696 115.782 143.904C115.638 144.112 115.566 144.371 115.566 144.68C115.566 144.931 115.627 145.173 115.75 145.408C115.878 145.643 116.081 145.837 116.358 145.992C116.641 146.147 117.014 146.224 117.478 146.224ZM134.065 147L134.073 141.328C134.073 140.661 133.886 140.139 133.513 139.76C133.145 139.376 132.675 139.184 132.105 139.184C131.779 139.184 131.462 139.259 131.153 139.408C130.843 139.557 130.587 139.797 130.385 140.128C130.187 140.459 130.089 140.891 130.089 141.424L129.393 141.224C129.377 140.605 129.497 140.064 129.753 139.6C130.014 139.136 130.371 138.776 130.825 138.52C131.283 138.259 131.801 138.128 132.377 138.128C133.246 138.128 133.942 138.397 134.465 138.936C134.987 139.469 135.249 140.192 135.249 141.104L135.241 147H134.065ZM123.753 147V138.36H124.809V140.488H124.937V147H123.753ZM128.921 147L128.929 141.408C128.929 140.72 128.745 140.179 128.377 139.784C128.014 139.384 127.534 139.184 126.937 139.184C126.339 139.184 125.857 139.389 125.489 139.8C125.121 140.205 124.937 140.747 124.937 141.424L124.233 141.04C124.233 140.485 124.363 139.989 124.625 139.552C124.886 139.109 125.243 138.763 125.697 138.512C126.15 138.256 126.665 138.128 127.241 138.128C127.79 138.128 128.278 138.245 128.705 138.48C129.137 138.715 129.475 139.056 129.721 139.504C129.966 139.952 130.089 140.496 130.089 141.136L130.081 147H128.921ZM143.878 147.24C143.073 147.24 142.385 147.04 141.814 146.64C141.244 146.235 140.806 145.688 140.502 145C140.198 144.312 140.046 143.536 140.046 142.672C140.046 141.813 140.196 141.04 140.494 140.352C140.798 139.664 141.233 139.12 141.798 138.72C142.364 138.32 143.041 138.12 143.83 138.12C144.641 138.12 145.324 138.317 145.878 138.712C146.433 139.107 146.852 139.648 147.134 140.336C147.422 141.019 147.566 141.797 147.566 142.672C147.566 143.531 147.425 144.307 147.142 145C146.86 145.688 146.444 146.235 145.894 146.64C145.345 147.04 144.673 147.24 143.878 147.24ZM143.998 146.144C144.612 146.144 145.118 145.995 145.518 145.696C145.918 145.397 146.217 144.987 146.414 144.464C146.612 143.936 146.71 143.339 146.71 142.672C146.71 141.995 146.612 141.397 146.414 140.88C146.217 140.357 145.918 139.949 145.518 139.656C145.124 139.363 144.625 139.216 144.022 139.216C143.404 139.216 142.892 139.368 142.486 139.672C142.081 139.976 141.78 140.389 141.582 140.912C141.39 141.435 141.294 142.021 141.294 142.672C141.294 143.328 141.393 143.92 141.59 144.448C141.793 144.971 142.094 145.384 142.494 145.688C142.894 145.992 143.396 146.144 143.998 146.144ZM146.71 147V140.496H146.582V135.48H147.766V147H146.71ZM150.171 136.72V135.4H151.347V136.72H150.171ZM150.171 147V138.36H151.347V147H150.171ZM156.217 147.24C155.566 147.24 155.02 147.123 154.577 146.888C154.14 146.653 153.812 146.341 153.593 145.952C153.374 145.563 153.265 145.139 153.265 144.68C153.265 144.211 153.358 143.811 153.545 143.48C153.737 143.144 153.996 142.869 154.321 142.656C154.652 142.443 155.033 142.28 155.465 142.168C155.902 142.061 156.385 141.968 156.913 141.888C157.446 141.803 157.966 141.731 158.473 141.672C158.985 141.608 159.433 141.547 159.817 141.488L159.401 141.744C159.417 140.891 159.252 140.259 158.905 139.848C158.558 139.437 157.956 139.232 157.097 139.232C156.505 139.232 156.004 139.365 155.593 139.632C155.188 139.899 154.902 140.32 154.737 140.896L153.593 140.56C153.79 139.787 154.188 139.187 154.785 138.76C155.382 138.333 156.158 138.12 157.113 138.12C157.902 138.12 158.572 138.269 159.121 138.568C159.676 138.861 160.068 139.288 160.297 139.848C160.404 140.099 160.473 140.379 160.505 140.688C160.537 140.997 160.553 141.312 160.553 141.632V147H159.505V144.832L159.809 144.96C159.516 145.701 159.06 146.267 158.441 146.656C157.822 147.045 157.081 147.24 156.217 147.24ZM156.353 146.224C156.902 146.224 157.382 146.125 157.793 145.928C158.204 145.731 158.534 145.461 158.785 145.12C159.036 144.773 159.198 144.384 159.273 143.952C159.337 143.675 159.372 143.371 159.377 143.04C159.382 142.704 159.385 142.453 159.385 142.288L159.833 142.52C159.433 142.573 158.998 142.627 158.529 142.68C158.065 142.733 157.606 142.795 157.153 142.864C156.705 142.933 156.3 143.016 155.937 143.112C155.692 143.181 155.454 143.28 155.225 143.408C154.996 143.531 154.806 143.696 154.657 143.904C154.513 144.112 154.441 144.371 154.441 144.68C154.441 144.931 154.502 145.173 154.625 145.408C154.753 145.643 154.956 145.837 155.233 145.992C155.516 146.147 155.889 146.224 156.353 146.224ZM172.94 147L172.948 141.328C172.948 140.661 172.761 140.139 172.388 139.76C172.02 139.376 171.55 139.184 170.98 139.184C170.654 139.184 170.337 139.259 170.028 139.408C169.718 139.557 169.462 139.797 169.26 140.128C169.062 140.459 168.964 140.891 168.964 141.424L168.268 141.224C168.252 140.605 168.372 140.064 168.628 139.6C168.889 139.136 169.246 138.776 169.7 138.52C170.158 138.259 170.676 138.128 171.252 138.128C172.121 138.128 172.817 138.397 173.34 138.936C173.862 139.469 174.124 140.192 174.124 141.104L174.116 147H172.94ZM162.628 147V138.36H163.684V140.488H163.812V147H162.628ZM167.796 147L167.804 141.408C167.804 140.72 167.62 140.179 167.252 139.784C166.889 139.384 166.409 139.184 165.812 139.184C165.214 139.184 164.732 139.389 164.364 139.8C163.996 140.205 163.812 140.747 163.812 141.424L163.108 141.04C163.108 140.485 163.238 139.989 163.5 139.552C163.761 139.109 164.118 138.763 164.572 138.512C165.025 138.256 165.54 138.128 166.116 138.128C166.665 138.128 167.153 138.245 167.58 138.48C168.012 138.715 168.35 139.056 168.596 139.504C168.841 139.952 168.964 140.496 168.964 141.136L168.956 147H167.796ZM182.625 147.232C181.612 147.232 180.777 147.013 180.121 146.576C179.471 146.139 179.071 145.531 178.921 144.752L180.121 144.552C180.249 145.043 180.54 145.435 180.993 145.728C181.452 146.016 182.017 146.16 182.689 146.16C183.345 146.16 183.863 146.024 184.241 145.752C184.62 145.475 184.809 145.099 184.809 144.624C184.809 144.357 184.748 144.141 184.625 143.976C184.508 143.805 184.265 143.648 183.897 143.504C183.529 143.36 182.98 143.189 182.249 142.992C181.465 142.779 180.852 142.565 180.409 142.352C179.967 142.139 179.652 141.893 179.465 141.616C179.279 141.333 179.185 140.989 179.185 140.584C179.185 140.093 179.324 139.664 179.601 139.296C179.879 138.923 180.263 138.635 180.753 138.432C181.244 138.224 181.815 138.12 182.465 138.12C183.116 138.12 183.697 138.227 184.209 138.44C184.727 138.648 185.143 138.941 185.457 139.32C185.772 139.699 185.959 140.139 186.017 140.64L184.817 140.856C184.737 140.349 184.484 139.949 184.057 139.656C183.636 139.357 183.1 139.203 182.449 139.192C181.836 139.176 181.337 139.293 180.953 139.544C180.569 139.789 180.377 140.117 180.377 140.528C180.377 140.757 180.447 140.955 180.585 141.12C180.724 141.28 180.975 141.432 181.337 141.576C181.705 141.72 182.228 141.877 182.905 142.048C183.7 142.251 184.324 142.464 184.777 142.688C185.231 142.912 185.553 143.176 185.745 143.48C185.937 143.784 186.033 144.16 186.033 144.608C186.033 145.424 185.729 146.067 185.121 146.536C184.519 147 183.687 147.232 182.625 147.232ZM191.391 147.24C190.522 147.24 189.786 147.045 189.184 146.656C188.581 146.267 188.122 145.731 187.808 145.048C187.498 144.36 187.338 143.571 187.328 142.68C187.338 141.773 187.504 140.979 187.824 140.296C188.144 139.608 188.605 139.075 189.208 138.696C189.81 138.312 190.541 138.12 191.4 138.12C192.274 138.12 193.034 138.333 193.68 138.76C194.33 139.187 194.776 139.771 195.016 140.512L193.864 140.88C193.661 140.363 193.338 139.963 192.896 139.68C192.458 139.392 191.957 139.248 191.391 139.248C190.757 139.248 190.232 139.395 189.816 139.688C189.4 139.976 189.09 140.379 188.888 140.896C188.685 141.413 188.581 142.008 188.576 142.68C188.586 143.715 188.826 144.547 189.296 145.176C189.765 145.8 190.464 146.112 191.391 146.112C191.978 146.112 192.477 145.979 192.888 145.712C193.304 145.44 193.618 145.045 193.832 144.528L195.016 144.88C194.696 145.648 194.226 146.235 193.608 146.64C192.989 147.04 192.25 147.24 191.391 147.24ZM200.089 147.24C199.246 147.24 198.515 147.053 197.897 146.68C197.283 146.307 196.806 145.781 196.465 145.104C196.123 144.427 195.953 143.632 195.953 142.72C195.953 141.776 196.121 140.96 196.457 140.272C196.793 139.584 197.265 139.053 197.873 138.68C198.486 138.307 199.209 138.12 200.041 138.12C200.894 138.12 201.622 138.317 202.225 138.712C202.827 139.101 203.283 139.661 203.593 140.392C203.902 141.123 204.043 141.995 204.017 143.008H202.817V142.592C202.795 141.472 202.553 140.627 202.089 140.056C201.63 139.485 200.958 139.2 200.073 139.2C199.145 139.2 198.433 139.501 197.937 140.104C197.446 140.707 197.201 141.565 197.201 142.68C197.201 143.768 197.446 144.613 197.937 145.216C198.433 145.813 199.134 146.112 200.041 146.112C200.659 146.112 201.198 145.971 201.657 145.688C202.121 145.4 202.486 144.987 202.753 144.448L203.849 144.872C203.507 145.624 203.003 146.208 202.337 146.624C201.675 147.035 200.926 147.24 200.089 147.24ZM196.785 143.008V142.024H203.385V143.008H196.785ZM205.952 147V135.24H207.128V147H205.952ZM213.182 147.24C212.34 147.24 211.609 147.053 210.99 146.68C210.377 146.307 209.9 145.781 209.558 145.104C209.217 144.427 209.046 143.632 209.046 142.72C209.046 141.776 209.214 140.96 209.55 140.272C209.886 139.584 210.358 139.053 210.966 138.68C211.58 138.307 212.302 138.12 213.134 138.12C213.988 138.12 214.716 138.317 215.318 138.712C215.921 139.101 216.377 139.661 216.686 140.392C216.996 141.123 217.137 141.995 217.11 143.008H215.91V142.592C215.889 141.472 215.646 140.627 215.182 140.056C214.724 139.485 214.052 139.2 213.166 139.2C212.238 139.2 211.526 139.501 211.03 140.104C210.54 140.707 210.294 141.565 210.294 142.68C210.294 143.768 210.54 144.613 211.03 145.216C211.526 145.813 212.228 146.112 213.134 146.112C213.753 146.112 214.292 145.971 214.75 145.688C215.214 145.4 215.58 144.987 215.846 144.448L216.942 144.872C216.601 145.624 216.097 146.208 215.43 146.624C214.769 147.035 214.02 147.24 213.182 147.24ZM209.878 143.008V142.024H216.478V143.008H209.878ZM218.886 147V138.36H219.942V140.44L219.734 140.168C219.83 139.912 219.955 139.677 220.11 139.464C220.264 139.245 220.432 139.067 220.614 138.928C220.838 138.731 221.099 138.581 221.398 138.48C221.696 138.373 221.998 138.312 222.302 138.296C222.606 138.275 222.883 138.296 223.134 138.36V139.464C222.819 139.384 222.475 139.365 222.102 139.408C221.728 139.451 221.384 139.6 221.07 139.856C220.782 140.08 220.566 140.349 220.422 140.664C220.278 140.973 220.182 141.304 220.134 141.656C220.086 142.003 220.062 142.347 220.062 142.688V147H218.886ZM224.811 136.72V135.4H225.987V136.72H224.811ZM224.811 147V138.36H225.987V147H224.811ZM231.61 147.232C230.596 147.232 229.762 147.013 229.106 146.576C228.455 146.139 228.055 145.531 227.906 144.752L229.106 144.552C229.234 145.043 229.524 145.435 229.978 145.728C230.436 146.016 231.002 146.16 231.674 146.16C232.33 146.16 232.847 146.024 233.226 145.752C233.604 145.475 233.794 145.099 233.794 144.624C233.794 144.357 233.732 144.141 233.61 143.976C233.492 143.805 233.25 143.648 232.882 143.504C232.514 143.36 231.964 143.189 231.234 142.992C230.45 142.779 229.836 142.565 229.394 142.352C228.951 142.139 228.636 141.893 228.45 141.616C228.263 141.333 228.17 140.989 228.17 140.584C228.17 140.093 228.308 139.664 228.586 139.296C228.863 138.923 229.247 138.635 229.738 138.432C230.228 138.224 230.799 138.12 231.45 138.12C232.1 138.12 232.682 138.227 233.194 138.44C233.711 138.648 234.127 138.941 234.442 139.32C234.756 139.699 234.943 140.139 235.002 140.64L233.802 140.856C233.722 140.349 233.468 139.949 233.042 139.656C232.62 139.357 232.084 139.203 231.434 139.192C230.82 139.176 230.322 139.293 229.938 139.544C229.554 139.789 229.362 140.117 229.362 140.528C229.362 140.757 229.431 140.955 229.57 141.12C229.708 141.28 229.959 141.432 230.322 141.576C230.69 141.72 231.212 141.877 231.89 142.048C232.684 142.251 233.308 142.464 233.762 142.688C234.215 142.912 234.538 143.176 234.73 143.48C234.922 143.784 235.018 144.16 235.018 144.608C235.018 145.424 234.714 146.067 234.106 146.536C233.503 147 232.671 147.232 231.61 147.232ZM240.144 147.24C239.339 147.24 238.651 147.04 238.08 146.64C237.509 146.235 237.072 145.688 236.768 145C236.464 144.312 236.312 143.536 236.312 142.672C236.312 141.813 236.461 141.04 236.76 140.352C237.064 139.664 237.499 139.12 238.064 138.72C238.629 138.32 239.307 138.12 240.096 138.12C240.907 138.12 241.589 138.317 242.144 138.712C242.699 139.107 243.117 139.648 243.4 140.336C243.688 141.019 243.832 141.797 243.832 142.672C243.832 143.531 243.691 144.307 243.408 145C243.125 145.688 242.709 146.235 242.16 146.64C241.611 147.04 240.939 147.24 240.144 147.24ZM240.264 146.144C240.877 146.144 241.384 145.995 241.784 145.696C242.184 145.397 242.483 144.987 242.68 144.464C242.877 143.936 242.976 143.339 242.976 142.672C242.976 141.995 242.877 141.397 242.68 140.88C242.483 140.357 242.184 139.949 241.784 139.656C241.389 139.363 240.891 139.216 240.288 139.216C239.669 139.216 239.157 139.368 238.752 139.672C238.347 139.976 238.045 140.389 237.848 140.912C237.656 141.435 237.56 142.021 237.56 142.672C237.56 143.328 237.659 143.92 237.856 144.448C238.059 144.971 238.36 145.384 238.76 145.688C239.16 145.992 239.661 146.144 240.264 146.144ZM242.848 150.84V144.864H242.976V138.36H244.032V150.84H242.848ZM249.58 147.216C249.063 147.216 248.61 147.136 248.22 146.976C247.836 146.816 247.508 146.6 247.236 146.328C246.97 146.056 246.754 145.747 246.588 145.4C246.423 145.048 246.303 144.677 246.228 144.288C246.154 143.893 246.116 143.501 246.116 143.112V138.36H247.3V142.768C247.3 143.243 247.346 143.683 247.436 144.088C247.527 144.493 247.671 144.848 247.868 145.152C248.071 145.451 248.33 145.683 248.644 145.848C248.964 146.013 249.351 146.096 249.804 146.096C250.22 146.096 250.586 146.024 250.9 145.88C251.22 145.736 251.487 145.531 251.7 145.264C251.919 144.992 252.084 144.664 252.196 144.28C252.308 143.891 252.364 143.453 252.364 142.968L253.196 143.152C253.196 144.037 253.042 144.781 252.732 145.384C252.423 145.987 251.996 146.443 251.452 146.752C250.908 147.061 250.284 147.216 249.58 147.216ZM252.484 147V144.872H252.364V138.36H253.54V147H252.484ZM259.432 147.24C258.59 147.24 257.859 147.053 257.24 146.68C256.627 146.307 256.15 145.781 255.808 145.104C255.467 144.427 255.296 143.632 255.296 142.72C255.296 141.776 255.464 140.96 255.8 140.272C256.136 139.584 256.608 139.053 257.216 138.68C257.83 138.307 258.552 138.12 259.384 138.12C260.238 138.12 260.966 138.317 261.568 138.712C262.171 139.101 262.627 139.661 262.936 140.392C263.246 141.123 263.387 141.995 263.36 143.008H262.16V142.592C262.139 141.472 261.896 140.627 261.432 140.056C260.974 139.485 260.302 139.2 259.416 139.2C258.488 139.2 257.776 139.501 257.28 140.104C256.79 140.707 256.544 141.565 256.544 142.68C256.544 143.768 256.79 144.613 257.28 145.216C257.776 145.813 258.478 146.112 259.384 146.112C260.003 146.112 260.542 145.971 261 145.688C261.464 145.4 261.83 144.987 262.096 144.448L263.192 144.872C262.851 145.624 262.347 146.208 261.68 146.624C261.019 147.035 260.27 147.24 259.432 147.24ZM256.128 143.008V142.024H262.728V143.008H256.128ZM25.976 172V162.72C25.976 162.496 25.9867 162.275 26.008 162.056C26.0347 161.837 26.0853 161.629 26.16 161.432C26.2347 161.229 26.352 161.043 26.512 160.872C26.688 160.68 26.88 160.541 27.088 160.456C27.296 160.365 27.512 160.307 27.736 160.28C27.9653 160.253 28.1893 160.24 28.408 160.24H29.512V161.232H28.488C28.04 161.232 27.704 161.341 27.48 161.56C27.2613 161.779 27.152 162.123 27.152 162.592V172H25.976ZM24.48 164.368V163.36H29.512V164.368H24.48ZM34.1354 172.24C33.2927 172.24 32.562 172.053 31.9434 171.68C31.33 171.307 30.8527 170.781 30.5114 170.104C30.17 169.427 29.9994 168.632 29.9994 167.72C29.9994 166.776 30.1674 165.96 30.5034 165.272C30.8394 164.584 31.3114 164.053 31.9194 163.68C32.5327 163.307 33.2554 163.12 34.0874 163.12C34.9407 163.12 35.6687 163.317 36.2714 163.712C36.874 164.101 37.33 164.661 37.6394 165.392C37.9487 166.123 38.09 166.995 38.0634 168.008H36.8634V167.592C36.842 166.472 36.5994 165.627 36.1354 165.056C35.6767 164.485 35.0047 164.2 34.1194 164.2C33.1914 164.2 32.4794 164.501 31.9834 165.104C31.4927 165.707 31.2474 166.565 31.2474 167.68C31.2474 168.768 31.4927 169.613 31.9834 170.216C32.4794 170.813 33.1807 171.112 34.0874 171.112C34.706 171.112 35.2447 170.971 35.7034 170.688C36.1674 170.4 36.5327 169.987 36.7994 169.448L37.8954 169.872C37.554 170.624 37.05 171.208 36.3834 171.624C35.722 172.035 34.9727 172.24 34.1354 172.24ZM30.8314 168.008V167.024H37.4314V168.008H30.8314ZM39.8388 172V163.36H40.8948V165.44L40.6868 165.168C40.7828 164.912 40.9081 164.677 41.0628 164.464C41.2174 164.245 41.3854 164.067 41.5668 163.928C41.7908 163.731 42.0521 163.581 42.3508 163.48C42.6494 163.373 42.9508 163.312 43.2548 163.296C43.5588 163.275 43.8361 163.296 44.0868 163.36V164.464C43.7721 164.384 43.4281 164.365 43.0548 164.408C42.6814 164.451 42.3374 164.6 42.0228 164.856C41.7348 165.08 41.5188 165.349 41.3748 165.664C41.2308 165.973 41.1348 166.304 41.0868 166.656C41.0388 167.003 41.0148 167.347 41.0148 167.688V172H39.8388ZM55.9084 172L55.9164 166.328C55.9164 165.661 55.7297 165.139 55.3564 164.76C54.9884 164.376 54.519 164.184 53.9484 164.184C53.623 164.184 53.3057 164.259 52.9964 164.408C52.687 164.557 52.431 164.797 52.2284 165.128C52.031 165.459 51.9324 165.891 51.9324 166.424L51.2364 166.224C51.2204 165.605 51.3404 165.064 51.5964 164.6C51.8577 164.136 52.215 163.776 52.6684 163.52C53.127 163.259 53.6444 163.128 54.2204 163.128C55.0897 163.128 55.7857 163.397 56.3084 163.936C56.831 164.469 57.0924 165.192 57.0924 166.104L57.0844 172H55.9084ZM45.5964 172V163.36H46.6524V165.488H46.7804V172H45.5964ZM50.7644 172L50.7724 166.408C50.7724 165.72 50.5884 165.179 50.2204 164.784C49.8577 164.384 49.3777 164.184 48.7804 164.184C48.183 164.184 47.7004 164.389 47.3324 164.8C46.9644 165.205 46.7804 165.747 46.7804 166.424L46.0764 166.04C46.0764 165.485 46.207 164.989 46.4684 164.552C46.7297 164.109 47.087 163.763 47.5404 163.512C47.9937 163.256 48.5084 163.128 49.0844 163.128C49.6337 163.128 50.1217 163.245 50.5484 163.48C50.9804 163.715 51.319 164.056 51.5644 164.504C51.8097 164.952 51.9324 165.496 51.9324 166.136L51.9244 172H50.7644ZM62.776 172.24C61.9333 172.24 61.2027 172.053 60.584 171.68C59.9707 171.307 59.4933 170.781 59.152 170.104C58.8107 169.427 58.64 168.632 58.64 167.72C58.64 166.776 58.808 165.96 59.144 165.272C59.48 164.584 59.952 164.053 60.56 163.68C61.1733 163.307 61.896 163.12 62.728 163.12C63.5813 163.12 64.3093 163.317 64.912 163.712C65.5147 164.101 65.9707 164.661 66.28 165.392C66.5893 166.123 66.7307 166.995 66.704 168.008H65.504V167.592C65.4827 166.472 65.24 165.627 64.776 165.056C64.3173 164.485 63.6453 164.2 62.76 164.2C61.832 164.2 61.12 164.501 60.624 165.104C60.1333 165.707 59.888 166.565 59.888 167.68C59.888 168.768 60.1333 169.613 60.624 170.216C61.12 170.813 61.8213 171.112 62.728 171.112C63.3467 171.112 63.8853 170.971 64.344 170.688C64.808 170.4 65.1733 169.987 65.44 169.448L66.536 169.872C66.1947 170.624 65.6907 171.208 65.024 171.624C64.3627 172.035 63.6133 172.24 62.776 172.24ZM59.472 168.008V167.024H66.072V168.008H59.472ZM74.485 172V167.592C74.485 167.112 74.4397 166.672 74.349 166.272C74.2583 165.867 74.1117 165.515 73.909 165.216C73.7117 164.912 73.453 164.677 73.133 164.512C72.8183 164.347 72.4343 164.264 71.981 164.264C71.565 164.264 71.197 164.336 70.877 164.48C70.5623 164.624 70.2957 164.832 70.077 165.104C69.8637 165.371 69.701 165.696 69.589 166.08C69.477 166.464 69.421 166.901 69.421 167.392L68.589 167.208C68.589 166.323 68.7437 165.579 69.053 164.976C69.3623 164.373 69.789 163.917 70.333 163.608C70.877 163.299 71.501 163.144 72.205 163.144C72.7223 163.144 73.173 163.224 73.557 163.384C73.9463 163.544 74.2743 163.76 74.541 164.032C74.813 164.304 75.0317 164.616 75.197 164.968C75.3623 165.315 75.4823 165.685 75.557 166.08C75.6317 166.469 75.669 166.859 75.669 167.248V172H74.485ZM68.237 172V163.36H69.301V165.488H69.421V172H68.237ZM82.449 172C81.9637 172.101 81.4837 172.141 81.009 172.12C80.5397 172.099 80.1183 171.997 79.745 171.816C79.377 171.635 79.097 171.352 78.905 170.968C78.7503 170.648 78.665 170.325 78.649 170C78.6383 169.669 78.633 169.293 78.633 168.872V160.96H79.801V168.824C79.801 169.187 79.8037 169.491 79.809 169.736C79.8197 169.976 79.8757 170.189 79.977 170.376C80.169 170.733 80.473 170.947 80.889 171.016C81.3103 171.085 81.8303 171.069 82.449 170.968V172ZM76.785 164.368V163.36H82.449V164.368H76.785ZM87.4553 172.216C86.9379 172.216 86.4846 172.136 86.0953 171.976C85.7113 171.816 85.3833 171.6 85.1113 171.328C84.8446 171.056 84.6286 170.747 84.4633 170.4C84.2979 170.048 84.1779 169.677 84.1033 169.288C84.0286 168.893 83.9913 168.501 83.9913 168.112V163.36H85.1753V167.768C85.1753 168.243 85.2206 168.683 85.3113 169.088C85.4019 169.493 85.5459 169.848 85.7433 170.152C85.9459 170.451 86.2046 170.683 86.5193 170.848C86.8393 171.013 87.2259 171.096 87.6793 171.096C88.0953 171.096 88.4606 171.024 88.7753 170.88C89.0953 170.736 89.3619 170.531 89.5753 170.264C89.7939 169.992 89.9593 169.664 90.0713 169.28C90.1833 168.891 90.2393 168.453 90.2393 167.968L91.0712 168.152C91.0712 169.037 90.9166 169.781 90.6073 170.384C90.2979 170.987 89.8713 171.443 89.3273 171.752C88.7833 172.061 88.1593 172.216 87.4553 172.216ZM90.3593 172V169.872H90.2393V163.36H91.4153V172H90.3593ZM103.955 172L103.963 166.328C103.963 165.661 103.777 165.139 103.403 164.76C103.035 164.376 102.566 164.184 101.995 164.184C101.67 164.184 101.353 164.259 101.043 164.408C100.734 164.557 100.478 164.797 100.275 165.128C100.078 165.459 99.9793 165.891 99.9793 166.424L99.2833 166.224C99.2673 165.605 99.3873 165.064 99.6433 164.6C99.9046 164.136 100.262 163.776 100.715 163.52C101.174 163.259 101.691 163.128 102.267 163.128C103.137 163.128 103.833 163.397 104.355 163.936C104.878 164.469 105.139 165.192 105.139 166.104L105.131 172H103.955ZM93.6433 172V163.36H94.6993V165.488H94.8273V172H93.6433ZM98.8113 172L98.8193 166.408C98.8193 165.72 98.6353 165.179 98.2673 164.784C97.9046 164.384 97.4246 164.184 96.8273 164.184C96.2299 164.184 95.7473 164.389 95.3793 164.8C95.0113 165.205 94.8273 165.747 94.8273 166.424L94.1233 166.04C94.1233 165.485 94.2539 164.989 94.5153 164.552C94.7766 164.109 95.1339 163.763 95.5873 163.512C96.0406 163.256 96.5553 163.128 97.1313 163.128C97.6806 163.128 98.1686 163.245 98.5953 163.48C99.0273 163.715 99.3659 164.056 99.6113 164.504C99.8566 164.952 99.9793 165.496 99.9793 166.136L99.9713 172H98.8113ZM113.721 172.216C113.204 172.216 112.75 172.136 112.361 171.976C111.977 171.816 111.649 171.6 111.377 171.328C111.11 171.056 110.894 170.747 110.729 170.4C110.564 170.048 110.444 169.677 110.369 169.288C110.294 168.893 110.257 168.501 110.257 168.112V163.36H111.441V167.768C111.441 168.243 111.486 168.683 111.577 169.088C111.668 169.493 111.812 169.848 112.009 170.152C112.212 170.451 112.47 170.683 112.785 170.848C113.105 171.013 113.492 171.096 113.945 171.096C114.361 171.096 114.726 171.024 115.041 170.88C115.361 170.736 115.628 170.531 115.841 170.264C116.06 169.992 116.225 169.664 116.337 169.28C116.449 168.891 116.505 168.453 116.505 167.968L117.337 168.152C117.337 169.037 117.182 169.781 116.873 170.384C116.564 170.987 116.137 171.443 115.593 171.752C115.049 172.061 114.425 172.216 113.721 172.216ZM116.625 172V169.872H116.505V163.36H117.681V172H116.625ZM119.917 172V163.36H120.973V165.44L120.765 165.168C120.861 164.912 120.986 164.677 121.141 164.464C121.296 164.245 121.464 164.067 121.645 163.928C121.869 163.731 122.13 163.581 122.429 163.48C122.728 163.373 123.029 163.312 123.333 163.296C123.637 163.275 123.914 163.296 124.165 163.36V164.464C123.85 164.384 123.506 164.365 123.133 164.408C122.76 164.451 122.416 164.6 122.101 164.856C121.813 165.08 121.597 165.349 121.453 165.664C121.309 165.973 121.213 166.304 121.165 166.656C121.117 167.003 121.093 167.347 121.093 167.688V172H119.917ZM131.923 172V167.592C131.923 167.112 131.877 166.672 131.787 166.272C131.696 165.867 131.549 165.515 131.347 165.216C131.149 164.912 130.891 164.677 130.571 164.512C130.256 164.347 129.872 164.264 129.419 164.264C129.003 164.264 128.635 164.336 128.315 164.48C128 164.624 127.733 164.832 127.515 165.104C127.301 165.371 127.139 165.696 127.027 166.08C126.915 166.464 126.859 166.901 126.859 167.392L126.027 167.208C126.027 166.323 126.181 165.579 126.491 164.976C126.8 164.373 127.227 163.917 127.771 163.608C128.315 163.299 128.939 163.144 129.643 163.144C130.16 163.144 130.611 163.224 130.995 163.384C131.384 163.544 131.712 163.76 131.979 164.032C132.251 164.304 132.469 164.616 132.635 164.968C132.8 165.315 132.92 165.685 132.995 166.08C133.069 166.469 133.107 166.859 133.107 167.248V172H131.923ZM125.675 172V163.36H126.739V165.488H126.859V172H125.675ZM137.655 172.24C137.004 172.24 136.457 172.123 136.015 171.888C135.577 171.653 135.249 171.341 135.031 170.952C134.812 170.563 134.703 170.139 134.703 169.68C134.703 169.211 134.796 168.811 134.983 168.48C135.175 168.144 135.433 167.869 135.759 167.656C136.089 167.443 136.471 167.28 136.903 167.168C137.34 167.061 137.823 166.968 138.351 166.888C138.884 166.803 139.404 166.731 139.911 166.672C140.423 166.608 140.871 166.547 141.255 166.488L140.839 166.744C140.855 165.891 140.689 165.259 140.343 164.848C139.996 164.437 139.393 164.232 138.535 164.232C137.943 164.232 137.441 164.365 137.031 164.632C136.625 164.899 136.34 165.32 136.174 165.896L135.031 165.56C135.228 164.787 135.625 164.187 136.223 163.76C136.82 163.333 137.596 163.12 138.551 163.12C139.34 163.12 140.009 163.269 140.559 163.568C141.113 163.861 141.505 164.288 141.735 164.848C141.841 165.099 141.911 165.379 141.943 165.688C141.975 165.997 141.991 166.312 141.991 166.632V172H140.943V169.832L141.247 169.96C140.953 170.701 140.497 171.267 139.879 171.656C139.26 172.045 138.519 172.24 137.655 172.24ZM137.791 171.224C138.34 171.224 138.82 171.125 139.231 170.928C139.641 170.731 139.972 170.461 140.223 170.12C140.473 169.773 140.636 169.384 140.711 168.952C140.775 168.675 140.809 168.371 140.815 168.04C140.82 167.704 140.823 167.453 140.823 167.288L141.271 167.52C140.871 167.573 140.436 167.627 139.967 167.68C139.503 167.733 139.044 167.795 138.591 167.864C138.143 167.933 137.737 168.016 137.375 168.112C137.129 168.181 136.892 168.28 136.663 168.408C136.433 168.531 136.244 168.696 136.095 168.904C135.951 169.112 135.879 169.371 135.879 169.68C135.879 169.931 135.94 170.173 136.062 170.408C136.191 170.643 136.393 170.837 136.671 170.992C136.953 171.147 137.327 171.224 137.791 171.224ZM144.297 172V170.632H145.665V172H144.297Z" fill="#565973"/>
<defs>
<linearGradient id="paint0_linear_20005153_3632" x1="24" y1="24" x2="24" y2="80" gradientUnits="userSpaceOnUse">
<stop stop-color="#0091E6"/>
<stop offset="1" stop-color="#0079BF"/>
</linearGradient>
</defs>
</svg>
