<svg width="328" height="228" viewBox="0 0 328 228" fill="none" xmlns="http://www.w3.org/2000/svg">
<g filter="url(#filter0_dd_20005153_3619)">
<rect x="11" y="7" width="306" height="205" rx="8" fill="white"/>
<path d="M87.4298 80.5362H38.5026C36.6054 80.5362 35.0078 78.9885 35.0078 77.0414V41.694C35.0078 39.7968 36.5555 38.1992 38.5026 38.1992H87.4298C89.3269 38.1992 90.9246 39.7469 90.9246 41.694V77.0414C90.9246 78.9885 89.3769 80.5362 87.4298 80.5362Z" fill="#E3E3E3"/>
<path opacity="0.1" d="M41.9964 80.5396L62.9153 63.7146L63.0651 62.8159L41.4972 47.2891L41.4473 79.7907L41.9964 80.5396Z" fill="#070A11"/>
<path d="M38.5026 80.5363C36.5555 80.5363 35.0078 78.9886 35.0078 77.0415V41.6442C35.0078 39.6971 36.5555 39.3477 38.5026 39.3477C40.4497 39.3477 41.9974 39.7471 41.9974 41.6442V80.5363H38.5026Z" fill="#D54B3D"/>
<path d="M38.5026 39.8469C40.9989 39.8469 41.4981 40.5958 41.4981 41.6442V80.0371H38.5026C36.8551 80.0371 35.5071 78.6891 35.5071 77.0415V41.6442C35.5071 40.5459 36.0063 39.8469 38.5026 39.8469ZM38.5026 39.3477C36.5555 39.3477 35.0078 39.7471 35.0078 41.6442V77.0415C35.0078 78.9886 36.5555 80.5363 38.5026 80.5363H41.9974V41.6442C41.9974 39.6971 40.4497 39.3477 38.5026 39.3477Z" fill="#D72B27"/>
<path d="M87.4284 80.5363H83.9336V41.5444C83.9336 39.5973 85.4813 39.3477 87.4284 39.3477C89.3755 39.3477 90.9232 39.5973 90.9232 41.5444V77.0915C90.9232 78.9886 89.3755 80.5363 87.4284 80.5363Z" fill="#D54B3D"/>
<path d="M87.4284 39.8469C89.6751 39.8469 90.4239 40.2962 90.4239 41.5444V77.0915C90.4239 78.739 89.0759 80.087 87.4284 80.087H84.4329V41.5444C84.4329 40.2463 85.1817 39.8469 87.4284 39.8469ZM87.4284 39.3477C85.4813 39.3477 83.9336 39.5973 83.9336 41.5444V80.5863H87.4284C89.3755 80.5863 90.9232 79.0386 90.9232 77.0915V41.5444C90.9232 39.5973 89.3755 39.3477 87.4284 39.3477Z" fill="#D72B27"/>
<path d="M72.4506 80.5357L35.2988 43.0954L37.253 43.8903L63.1145 62.5125L90.9231 42.1211L90.9231 77.0908C90.9231 78.988 89.3754 80.5357 87.4283 80.5357H72.4506Z" fill="url(#paint0_linear_20005153_3619)"/>
<path d="M62.9155 63.7106L36.5048 44.5392C34.9571 43.3909 34.5078 41.1942 35.6561 39.6465C36.8044 38.0988 39.051 37.7493 40.6487 38.8976L62.9654 55.1234L85.432 38.6979C86.9797 37.5496 89.1764 37.8991 90.3247 39.4967C91.473 41.0444 91.1235 43.2411 89.5259 44.3894L62.9155 63.7106Z" fill="#D54B3D"/>
<path d="M87.4293 38.4993C88.3778 38.4993 89.2765 38.9486 89.8756 39.7474C90.8242 41.0954 90.5247 42.9426 89.2266 43.9412L62.9158 63.1126L36.8046 44.1409C35.4566 43.1423 35.1072 41.2452 36.0558 39.9471C36.6049 39.1982 37.5535 38.699 38.552 38.699C39.2011 38.699 39.8501 38.8987 40.3494 39.2981L62.6162 55.474L62.9158 55.6737L63.2153 55.474L85.6319 39.0484C86.1811 38.699 86.7802 38.4993 87.4293 38.4993ZM87.4293 38C86.7303 38 85.9814 38.1997 85.3823 38.649L62.9158 55.0746L40.599 38.8487C39.9999 38.3994 39.251 38.1997 38.5021 38.1997C37.4037 38.1997 36.3054 38.699 35.6064 39.6475C34.5081 41.1952 34.9574 43.392 36.5051 44.5403L62.9158 63.7616L89.4762 44.3905C91.0239 43.2422 91.3734 41.0954 90.275 39.4978C89.5761 38.4993 88.5276 38 87.4293 38Z" fill="#D72B27"/>
<path d="M36.12 128V116.48H40.568C40.68 116.48 40.8053 116.485 40.944 116.496C41.088 116.501 41.232 116.517 41.376 116.544C41.9787 116.635 42.488 116.845 42.904 117.176C43.3253 117.501 43.6427 117.912 43.856 118.408C44.0747 118.904 44.184 119.453 44.184 120.056C44.184 120.925 43.9547 121.68 43.496 122.32C43.0373 122.96 42.3813 123.363 41.528 123.528L41.12 123.624H37.296V128H36.12ZM43.096 128L40.824 123.312L41.952 122.88L44.448 128H43.096ZM37.296 122.504H40.536C40.632 122.504 40.744 122.499 40.872 122.488C41 122.477 41.1253 122.459 41.248 122.432C41.6427 122.347 41.9653 122.184 42.216 121.944C42.472 121.704 42.6613 121.419 42.784 121.088C42.912 120.757 42.976 120.413 42.976 120.056C42.976 119.699 42.912 119.355 42.784 119.024C42.6613 118.688 42.472 118.4 42.216 118.16C41.9653 117.92 41.6427 117.757 41.248 117.672C41.1253 117.645 41 117.629 40.872 117.624C40.744 117.613 40.632 117.608 40.536 117.608H37.296V122.504ZM49.5178 128.216C49.0004 128.216 48.5471 128.136 48.1578 127.976C47.7738 127.816 47.4458 127.6 47.1738 127.328C46.9071 127.056 46.6911 126.747 46.5258 126.4C46.3604 126.048 46.2404 125.677 46.1658 125.288C46.0911 124.893 46.0538 124.501 46.0538 124.112V119.36H47.2378V123.768C47.2378 124.243 47.2831 124.683 47.3738 125.088C47.4644 125.493 47.6084 125.848 47.8058 126.152C48.0084 126.451 48.2671 126.683 48.5818 126.848C48.9018 127.013 49.2884 127.096 49.7418 127.096C50.1578 127.096 50.5231 127.024 50.8378 126.88C51.1578 126.736 51.4244 126.531 51.6378 126.264C51.8564 125.992 52.0218 125.664 52.1338 125.28C52.2458 124.891 52.3018 124.453 52.3018 123.968L53.1337 124.152C53.1337 125.037 52.9791 125.781 52.6698 126.384C52.3604 126.987 51.9338 127.443 51.3898 127.752C50.8458 128.061 50.2218 128.216 49.5178 128.216ZM52.4218 128V125.872H52.3018V119.36H53.4778V128H52.4218ZM60.4178 128C59.9324 128.101 59.4524 128.141 58.9778 128.12C58.5084 128.099 58.0871 127.997 57.7138 127.816C57.3458 127.635 57.0658 127.352 56.8738 126.968C56.7191 126.648 56.6338 126.325 56.6178 126C56.6071 125.669 56.6018 125.293 56.6018 124.872V116.96H57.7698V124.824C57.7698 125.187 57.7724 125.491 57.7778 125.736C57.7884 125.976 57.8444 126.189 57.9458 126.376C58.1378 126.733 58.4418 126.947 58.8578 127.016C59.2791 127.085 59.7991 127.069 60.4178 126.968V128ZM54.7538 120.368V119.36H60.4178V120.368H54.7538ZM62.12 128V119.36H63.176V121.44L62.968 121.168C63.064 120.912 63.1893 120.677 63.344 120.464C63.4987 120.245 63.6667 120.067 63.848 119.928C64.072 119.731 64.3333 119.581 64.632 119.48C64.9307 119.373 65.232 119.312 65.536 119.296C65.84 119.275 66.1173 119.296 66.368 119.36V120.464C66.0533 120.384 65.7093 120.365 65.336 120.408C64.9627 120.451 64.6187 120.6 64.304 120.856C64.016 121.08 63.8 121.349 63.656 121.664C63.512 121.973 63.416 122.304 63.368 122.656C63.32 123.003 63.296 123.347 63.296 123.688V128H62.12ZM71.1896 128.216C70.6723 128.216 70.219 128.136 69.8296 127.976C69.4456 127.816 69.1176 127.6 68.8456 127.328C68.579 127.056 68.363 126.747 68.1976 126.4C68.0323 126.048 67.9123 125.677 67.8376 125.288C67.763 124.893 67.7256 124.501 67.7256 124.112V119.36H68.9096V123.768C68.9096 124.243 68.955 124.683 69.0456 125.088C69.1363 125.493 69.2803 125.848 69.4776 126.152C69.6803 126.451 69.939 126.683 70.2536 126.848C70.5736 127.013 70.9603 127.096 71.4136 127.096C71.8296 127.096 72.195 127.024 72.5096 126.88C72.8296 126.736 73.0963 126.531 73.3096 126.264C73.5283 125.992 73.6936 125.664 73.8056 125.28C73.9176 124.891 73.9736 124.453 73.9736 123.968L74.8056 124.152C74.8056 125.037 74.651 125.781 74.3416 126.384C74.0323 126.987 73.6056 127.443 73.0616 127.752C72.5176 128.061 71.8936 128.216 71.1896 128.216ZM74.0936 128V125.872H73.9736V119.36H75.1496V128H74.0936ZM87.6896 128L87.6976 122.328C87.6976 121.661 87.511 121.139 87.1376 120.76C86.7696 120.376 86.3003 120.184 85.7296 120.184C85.4043 120.184 85.087 120.259 84.7776 120.408C84.4683 120.557 84.2123 120.797 84.0096 121.128C83.8123 121.459 83.7136 121.891 83.7136 122.424L83.0176 122.224C83.0016 121.605 83.1216 121.064 83.3776 120.6C83.639 120.136 83.9963 119.776 84.4496 119.52C84.9083 119.259 85.4256 119.128 86.0016 119.128C86.871 119.128 87.567 119.397 88.0896 119.936C88.6123 120.469 88.8736 121.192 88.8736 122.104L88.8656 128H87.6896ZM77.3776 128V119.36H78.4336V121.488H78.5616V128H77.3776ZM82.5456 128L82.5536 122.408C82.5536 121.72 82.3696 121.179 82.0016 120.784C81.639 120.384 81.159 120.184 80.5616 120.184C79.9643 120.184 79.4816 120.389 79.1136 120.8C78.7456 121.205 78.5616 121.747 78.5616 122.424L77.8576 122.04C77.8576 121.485 77.9883 120.989 78.2496 120.552C78.511 120.109 78.8683 119.763 79.3216 119.512C79.775 119.256 80.2896 119.128 80.8656 119.128C81.415 119.128 81.903 119.245 82.3296 119.48C82.7616 119.715 83.1003 120.056 83.3456 120.504C83.591 120.952 83.7136 121.496 83.7136 122.136L83.7056 128H82.5456ZM94.3113 117.72V116.4H95.4873V117.72H94.3113ZM94.3113 128V119.36H95.4873V128H94.3113ZM104.126 128V123.592C104.126 123.112 104.08 122.672 103.99 122.272C103.899 121.867 103.752 121.515 103.55 121.216C103.352 120.912 103.094 120.677 102.774 120.512C102.459 120.347 102.075 120.264 101.622 120.264C101.206 120.264 100.838 120.336 100.518 120.48C100.203 120.624 99.9363 120.832 99.7176 121.104C99.5043 121.371 99.3416 121.696 99.2296 122.08C99.1176 122.464 99.0616 122.901 99.0616 123.392L98.2296 123.208C98.2296 122.323 98.3843 121.579 98.6936 120.976C99.003 120.373 99.4296 119.917 99.9736 119.608C100.518 119.299 101.142 119.144 101.846 119.144C102.363 119.144 102.814 119.224 103.198 119.384C103.587 119.544 103.915 119.76 104.182 120.032C104.454 120.304 104.672 120.616 104.838 120.968C105.003 121.315 105.123 121.685 105.198 122.08C105.272 122.469 105.31 122.859 105.31 123.248V128H104.126ZM97.8776 128V119.36H98.9416V121.488H99.0616V128H97.8776ZM112.09 128C111.604 128.101 111.124 128.141 110.65 128.12C110.18 128.099 109.759 127.997 109.386 127.816C109.018 127.635 108.738 127.352 108.546 126.968C108.391 126.648 108.306 126.325 108.29 126C108.279 125.669 108.274 125.293 108.274 124.872V116.96H109.442V124.824C109.442 125.187 109.444 125.491 109.45 125.736C109.46 125.976 109.516 126.189 109.618 126.376C109.81 126.733 110.114 126.947 110.53 127.016C110.951 127.085 111.471 127.069 112.09 126.968V128ZM106.426 120.368V119.36H112.09V120.368H106.426ZM117.135 128.24C116.293 128.24 115.562 128.053 114.943 127.68C114.33 127.307 113.853 126.781 113.511 126.104C113.17 125.427 112.999 124.632 112.999 123.72C112.999 122.776 113.167 121.96 113.503 121.272C113.839 120.584 114.311 120.053 114.919 119.68C115.533 119.307 116.255 119.12 117.087 119.12C117.941 119.12 118.669 119.317 119.271 119.712C119.874 120.101 120.33 120.661 120.639 121.392C120.949 122.123 121.09 122.995 121.063 124.008H119.863V123.592C119.842 122.472 119.599 121.627 119.135 121.056C118.677 120.485 118.005 120.2 117.119 120.2C116.191 120.2 115.479 120.501 114.983 121.104C114.493 121.707 114.247 122.565 114.247 123.68C114.247 124.768 114.493 125.613 114.983 126.216C115.479 126.813 116.181 127.112 117.087 127.112C117.706 127.112 118.245 126.971 118.703 126.688C119.167 126.4 119.533 125.987 119.799 125.448L120.895 125.872C120.554 126.624 120.05 127.208 119.383 127.624C118.722 128.035 117.973 128.24 117.135 128.24ZM113.831 124.008V123.024H120.431V124.008H113.831ZM122.839 128V119.36H123.895V121.44L123.687 121.168C123.783 120.912 123.908 120.677 124.063 120.464C124.217 120.245 124.385 120.067 124.567 119.928C124.791 119.731 125.052 119.581 125.351 119.48C125.649 119.373 125.951 119.312 126.255 119.296C126.559 119.275 126.836 119.296 127.087 119.36V120.464C126.772 120.384 126.428 120.365 126.055 120.408C125.681 120.451 125.337 120.6 125.023 120.856C124.735 121.08 124.519 121.349 124.375 121.664C124.231 121.973 124.135 122.304 124.087 122.656C124.039 123.003 124.015 123.347 124.015 123.688V128H122.839ZM131.8 128.24C130.995 128.24 130.307 128.04 129.736 127.64C129.165 127.235 128.728 126.688 128.424 126C128.12 125.312 127.968 124.536 127.968 123.672C127.968 122.813 128.117 122.04 128.416 121.352C128.72 120.664 129.155 120.12 129.72 119.72C130.285 119.32 130.963 119.12 131.752 119.12C132.563 119.12 133.245 119.317 133.8 119.712C134.355 120.107 134.773 120.648 135.056 121.336C135.344 122.019 135.488 122.797 135.488 123.672C135.488 124.531 135.347 125.307 135.064 126C134.781 126.688 134.365 127.235 133.816 127.64C133.267 128.04 132.595 128.24 131.8 128.24ZM131.92 127.144C132.533 127.144 133.04 126.995 133.44 126.696C133.84 126.397 134.139 125.987 134.336 125.464C134.533 124.936 134.632 124.339 134.632 123.672C134.632 122.995 134.533 122.397 134.336 121.88C134.139 121.357 133.84 120.949 133.44 120.656C133.045 120.363 132.547 120.216 131.944 120.216C131.325 120.216 130.813 120.368 130.408 120.672C130.003 120.976 129.701 121.389 129.504 121.912C129.312 122.435 129.216 123.021 129.216 123.672C129.216 124.328 129.315 124.92 129.512 125.448C129.715 125.971 130.016 126.384 130.416 126.688C130.816 126.992 131.317 127.144 131.92 127.144ZM134.632 128V121.496H134.504V116.48H135.688V128H134.632ZM141.237 128.216C140.719 128.216 140.266 128.136 139.877 127.976C139.493 127.816 139.165 127.6 138.893 127.328C138.626 127.056 138.41 126.747 138.245 126.4C138.079 126.048 137.959 125.677 137.885 125.288C137.81 124.893 137.773 124.501 137.773 124.112V119.36H138.957V123.768C138.957 124.243 139.002 124.683 139.093 125.088C139.183 125.493 139.327 125.848 139.525 126.152C139.727 126.451 139.986 126.683 140.301 126.848C140.621 127.013 141.007 127.096 141.461 127.096C141.877 127.096 142.242 127.024 142.557 126.88C142.877 126.736 143.143 126.531 143.357 126.264C143.575 125.992 143.741 125.664 143.853 125.28C143.965 124.891 144.021 124.453 144.021 123.968L144.852 124.152C144.852 125.037 144.698 125.781 144.389 126.384C144.079 126.987 143.653 127.443 143.109 127.752C142.565 128.061 141.941 128.216 141.237 128.216ZM144.141 128V125.872H144.021V119.36H145.197V128H144.141ZM157.737 128L157.745 122.328C157.745 121.661 157.558 121.139 157.185 120.76C156.817 120.376 156.347 120.184 155.777 120.184C155.451 120.184 155.134 120.259 154.825 120.408C154.515 120.557 154.259 120.797 154.057 121.128C153.859 121.459 153.761 121.891 153.761 122.424L153.065 122.224C153.049 121.605 153.169 121.064 153.425 120.6C153.686 120.136 154.043 119.776 154.497 119.52C154.955 119.259 155.473 119.128 156.049 119.128C156.918 119.128 157.614 119.397 158.137 119.936C158.659 120.469 158.921 121.192 158.921 122.104L158.913 128H157.737ZM147.425 128V119.36H148.481V121.488H148.609V128H147.425ZM152.593 128L152.601 122.408C152.601 121.72 152.417 121.179 152.049 120.784C151.686 120.384 151.206 120.184 150.609 120.184C150.011 120.184 149.529 120.389 149.161 120.8C148.793 121.205 148.609 121.747 148.609 122.424L147.905 122.04C147.905 121.485 148.035 120.989 148.297 120.552C148.558 120.109 148.915 119.763 149.369 119.512C149.822 119.256 150.337 119.128 150.913 119.128C151.462 119.128 151.95 119.245 152.377 119.48C152.809 119.715 153.147 120.056 153.393 120.504C153.638 120.952 153.761 121.496 153.761 122.136L153.753 128H152.593ZM168.902 128C168.417 128.101 167.937 128.141 167.462 128.12C166.993 128.099 166.571 127.997 166.198 127.816C165.83 127.635 165.55 127.352 165.358 126.968C165.203 126.648 165.118 126.325 165.102 126C165.091 125.669 165.086 125.293 165.086 124.872V116.96H166.254V124.824C166.254 125.187 166.257 125.491 166.262 125.736C166.273 125.976 166.329 126.189 166.43 126.376C166.622 126.733 166.926 126.947 167.342 127.016C167.763 127.085 168.283 127.069 168.902 126.968V128ZM163.238 120.368V119.36H168.902V120.368H163.238ZM173.9 128.24C173.041 128.24 172.308 128.045 171.7 127.656C171.092 127.267 170.625 126.728 170.3 126.04C169.975 125.352 169.812 124.563 169.812 123.672C169.812 122.765 169.977 121.971 170.308 121.288C170.639 120.605 171.108 120.075 171.716 119.696C172.329 119.312 173.057 119.12 173.9 119.12C174.764 119.12 175.5 119.315 176.108 119.704C176.721 120.088 177.188 120.624 177.508 121.312C177.833 121.995 177.996 122.781 177.996 123.672C177.996 124.579 177.833 125.376 177.508 126.064C177.183 126.747 176.713 127.28 176.1 127.664C175.487 128.048 174.753 128.24 173.9 128.24ZM173.9 127.112C174.86 127.112 175.575 126.795 176.044 126.16C176.513 125.52 176.748 124.691 176.748 123.672C176.748 122.627 176.511 121.795 176.036 121.176C175.567 120.557 174.855 120.248 173.9 120.248C173.255 120.248 172.721 120.395 172.3 120.688C171.884 120.976 171.572 121.379 171.364 121.896C171.161 122.408 171.06 123 171.06 123.672C171.06 124.712 171.3 125.547 171.78 126.176C172.26 126.8 172.967 127.112 173.9 127.112ZM179.761 128V119.36H180.817V121.44L180.609 121.168C180.705 120.912 180.83 120.677 180.985 120.464C181.139 120.245 181.307 120.067 181.489 119.928C181.713 119.731 181.974 119.581 182.273 119.48C182.571 119.373 182.873 119.312 183.177 119.296C183.481 119.275 183.758 119.296 184.009 119.36V120.464C183.694 120.384 183.35 120.365 182.977 120.408C182.603 120.451 182.259 120.6 181.945 120.856C181.657 121.08 181.441 121.349 181.297 121.664C181.153 121.973 181.057 122.304 181.009 122.656C180.961 123.003 180.937 123.347 180.937 123.688V128H179.761ZM190.23 128C189.745 128.101 189.265 128.141 188.79 128.12C188.321 128.099 187.9 127.997 187.526 127.816C187.158 127.635 186.878 127.352 186.686 126.968C186.532 126.648 186.446 126.325 186.43 126C186.42 125.669 186.414 125.293 186.414 124.872V116.96H187.582V124.824C187.582 125.187 187.585 125.491 187.59 125.736C187.601 125.976 187.657 126.189 187.758 126.376C187.95 126.733 188.254 126.947 188.67 127.016C189.092 127.085 189.612 127.069 190.23 126.968V128ZM184.566 120.368V119.36H190.23V120.368H184.566ZM195.228 128.24C194.369 128.24 193.636 128.045 193.028 127.656C192.42 127.267 191.953 126.728 191.628 126.04C191.303 125.352 191.14 124.563 191.14 123.672C191.14 122.765 191.305 121.971 191.636 121.288C191.967 120.605 192.436 120.075 193.044 119.696C193.657 119.312 194.385 119.12 195.228 119.12C196.092 119.12 196.828 119.315 197.436 119.704C198.049 120.088 198.516 120.624 198.836 121.312C199.161 121.995 199.324 122.781 199.324 123.672C199.324 124.579 199.161 125.376 198.836 126.064C198.511 126.747 198.041 127.28 197.428 127.664C196.815 128.048 196.081 128.24 195.228 128.24ZM195.228 127.112C196.188 127.112 196.903 126.795 197.372 126.16C197.841 125.52 198.076 124.691 198.076 123.672C198.076 122.627 197.839 121.795 197.364 121.176C196.895 120.557 196.183 120.248 195.228 120.248C194.583 120.248 194.049 120.395 193.628 120.688C193.212 120.976 192.9 121.379 192.692 121.896C192.489 122.408 192.388 123 192.388 123.672C192.388 124.712 192.628 125.547 193.108 126.176C193.588 126.8 194.295 127.112 195.228 127.112ZM201.089 128V119.36H202.145V121.44L201.937 121.168C202.033 120.912 202.158 120.677 202.313 120.464C202.467 120.245 202.635 120.067 202.817 119.928C203.041 119.731 203.302 119.581 203.601 119.48C203.899 119.373 204.201 119.312 204.505 119.296C204.809 119.275 205.086 119.296 205.337 119.36V120.464C205.022 120.384 204.678 120.365 204.305 120.408C203.931 120.451 203.587 120.6 203.273 120.856C202.985 121.08 202.769 121.349 202.625 121.664C202.481 121.973 202.385 122.304 202.337 122.656C202.289 123.003 202.265 123.347 202.265 123.688V128H201.089ZM205.413 129.672L205.485 129.088C205.698 129.104 205.853 129.061 205.949 128.96C206.045 128.859 206.104 128.723 206.125 128.552C206.146 128.381 206.152 128.197 206.141 128H205.413V126.312H206.781V128.32C206.781 128.811 206.656 129.179 206.405 129.424C206.16 129.669 205.829 129.752 205.413 129.672ZM216.25 128.232C215.237 128.232 214.402 128.013 213.746 127.576C213.096 127.139 212.696 126.531 212.546 125.752L213.746 125.552C213.874 126.043 214.165 126.435 214.618 126.728C215.077 127.016 215.642 127.16 216.314 127.16C216.97 127.16 217.488 127.024 217.866 126.752C218.245 126.475 218.434 126.099 218.434 125.624C218.434 125.357 218.373 125.141 218.25 124.976C218.133 124.805 217.89 124.648 217.522 124.504C217.154 124.36 216.605 124.189 215.874 123.992C215.09 123.779 214.477 123.565 214.034 123.352C213.592 123.139 213.277 122.893 213.09 122.616C212.904 122.333 212.81 121.989 212.81 121.584C212.81 121.093 212.949 120.664 213.226 120.296C213.504 119.923 213.888 119.635 214.378 119.432C214.869 119.224 215.44 119.12 216.09 119.12C216.741 119.12 217.322 119.227 217.834 119.44C218.352 119.648 218.768 119.941 219.082 120.32C219.397 120.699 219.584 121.139 219.642 121.64L218.442 121.856C218.362 121.349 218.109 120.949 217.682 120.656C217.261 120.357 216.725 120.203 216.074 120.192C215.461 120.176 214.962 120.293 214.578 120.544C214.194 120.789 214.002 121.117 214.002 121.528C214.002 121.757 214.072 121.955 214.21 122.12C214.349 122.28 214.6 122.432 214.962 122.576C215.33 122.72 215.853 122.877 216.53 123.048C217.325 123.251 217.949 123.464 218.402 123.688C218.856 123.912 219.178 124.176 219.37 124.48C219.562 124.784 219.658 125.16 219.658 125.608C219.658 126.424 219.354 127.067 218.746 127.536C218.144 128 217.312 128.232 216.25 128.232ZM225.089 128.24C224.246 128.24 223.515 128.053 222.897 127.68C222.283 127.307 221.806 126.781 221.465 126.104C221.123 125.427 220.953 124.632 220.953 123.72C220.953 122.776 221.121 121.96 221.457 121.272C221.793 120.584 222.265 120.053 222.873 119.68C223.486 119.307 224.209 119.12 225.041 119.12C225.894 119.12 226.622 119.317 227.225 119.712C227.827 120.101 228.283 120.661 228.593 121.392C228.902 122.123 229.043 122.995 229.017 124.008H227.817V123.592C227.795 122.472 227.553 121.627 227.089 121.056C226.63 120.485 225.958 120.2 225.073 120.2C224.145 120.2 223.433 120.501 222.937 121.104C222.446 121.707 222.201 122.565 222.201 123.68C222.201 124.768 222.446 125.613 222.937 126.216C223.433 126.813 224.134 127.112 225.041 127.112C225.659 127.112 226.198 126.971 226.657 126.688C227.121 126.4 227.486 125.987 227.753 125.448L228.849 125.872C228.507 126.624 228.003 127.208 227.337 127.624C226.675 128.035 225.926 128.24 225.089 128.24ZM221.785 124.008V123.024H228.385V124.008H221.785ZM234.144 128.24C233.339 128.24 232.651 128.04 232.08 127.64C231.509 127.235 231.072 126.688 230.768 126C230.464 125.312 230.312 124.536 230.312 123.672C230.312 122.813 230.461 122.04 230.76 121.352C231.064 120.664 231.499 120.12 232.064 119.72C232.629 119.32 233.307 119.12 234.096 119.12C234.907 119.12 235.589 119.317 236.144 119.712C236.699 120.107 237.117 120.648 237.4 121.336C237.688 122.019 237.832 122.797 237.832 123.672C237.832 124.531 237.691 125.307 237.408 126C237.125 126.688 236.709 127.235 236.16 127.64C235.611 128.04 234.939 128.24 234.144 128.24ZM234.264 127.144C234.877 127.144 235.384 126.995 235.784 126.696C236.184 126.397 236.483 125.987 236.68 125.464C236.877 124.936 236.976 124.339 236.976 123.672C236.976 122.995 236.877 122.397 236.68 121.88C236.483 121.357 236.184 120.949 235.784 120.656C235.389 120.363 234.891 120.216 234.288 120.216C233.669 120.216 233.157 120.368 232.752 120.672C232.347 120.976 232.045 121.389 231.848 121.912C231.656 122.435 231.56 123.021 231.56 123.672C231.56 124.328 231.659 124.92 231.856 125.448C232.059 125.971 232.36 126.384 232.76 126.688C233.16 126.992 233.661 127.144 234.264 127.144ZM236.976 128V121.496H236.848V116.48H238.032V128H236.976ZM245.951 128.24C245.301 128.24 244.754 128.123 244.311 127.888C243.874 127.653 243.546 127.341 243.327 126.952C243.109 126.563 242.999 126.139 242.999 125.68C242.999 125.211 243.093 124.811 243.279 124.48C243.471 124.144 243.73 123.869 244.055 123.656C244.386 123.443 244.767 123.28 245.199 123.168C245.637 123.061 246.119 122.968 246.647 122.888C247.181 122.803 247.701 122.731 248.207 122.672C248.719 122.608 249.167 122.547 249.551 122.488L249.135 122.744C249.151 121.891 248.986 121.259 248.639 120.848C248.293 120.437 247.69 120.232 246.831 120.232C246.239 120.232 245.738 120.365 245.327 120.632C244.922 120.899 244.637 121.32 244.471 121.896L243.327 121.56C243.525 120.787 243.922 120.187 244.519 119.76C245.117 119.333 245.893 119.12 246.847 119.12C247.637 119.12 248.306 119.269 248.855 119.568C249.41 119.861 249.802 120.288 250.031 120.848C250.138 121.099 250.207 121.379 250.239 121.688C250.271 121.997 250.287 122.312 250.287 122.632V128H249.239V125.832L249.543 125.96C249.25 126.701 248.794 127.267 248.175 127.656C247.557 128.045 246.815 128.24 245.951 128.24ZM246.087 127.224C246.637 127.224 247.117 127.125 247.527 126.928C247.938 126.731 248.269 126.461 248.519 126.12C248.77 125.773 248.933 125.384 249.007 124.952C249.071 124.675 249.106 124.371 249.111 124.04C249.117 123.704 249.119 123.453 249.119 123.288L249.567 123.52C249.167 123.573 248.733 123.627 248.263 123.68C247.799 123.733 247.341 123.795 246.887 123.864C246.439 123.933 246.034 124.016 245.671 124.112C245.426 124.181 245.189 124.28 244.959 124.408C244.73 124.531 244.541 124.696 244.391 124.904C244.247 125.112 244.175 125.371 244.175 125.68C244.175 125.931 244.237 126.173 244.359 126.408C244.487 126.643 244.69 126.837 244.967 126.992C245.25 127.147 245.623 127.224 246.087 127.224ZM257.074 128C256.589 128.101 256.109 128.141 255.634 128.12C255.165 128.099 254.743 127.997 254.37 127.816C254.002 127.635 253.722 127.352 253.53 126.968C253.375 126.648 253.29 126.325 253.274 126C253.263 125.669 253.258 125.293 253.258 124.872V116.96H254.426V124.824C254.426 125.187 254.429 125.491 254.434 125.736C254.445 125.976 254.501 126.189 254.602 126.376C254.794 126.733 255.098 126.947 255.514 127.016C255.935 127.085 256.455 127.069 257.074 126.968V128ZM251.41 120.368V119.36H257.074V120.368H251.41ZM42.36 154V149.592C42.36 149.112 42.3147 148.672 42.224 148.272C42.1333 147.867 41.9867 147.515 41.784 147.216C41.5867 146.912 41.328 146.677 41.008 146.512C40.6933 146.347 40.3093 146.264 39.856 146.264C39.44 146.264 39.072 146.336 38.752 146.48C38.4373 146.624 38.1707 146.832 37.952 147.104C37.7387 147.371 37.576 147.696 37.464 148.08C37.352 148.464 37.296 148.901 37.296 149.392L36.464 149.208C36.464 148.323 36.6187 147.579 36.928 146.976C37.2373 146.373 37.664 145.917 38.208 145.608C38.752 145.299 39.376 145.144 40.08 145.144C40.5973 145.144 41.048 145.224 41.432 145.384C41.8213 145.544 42.1493 145.76 42.416 146.032C42.688 146.304 42.9067 146.616 43.072 146.968C43.2373 147.315 43.3573 147.685 43.432 148.08C43.5067 148.469 43.544 148.859 43.544 149.248V154H42.36ZM36.112 154V145.36H37.176V147.488H37.296V154H36.112ZM48.924 154.216C48.4067 154.216 47.9533 154.136 47.564 153.976C47.18 153.816 46.852 153.6 46.58 153.328C46.3133 153.056 46.0973 152.747 45.932 152.4C45.7667 152.048 45.6467 151.677 45.572 151.288C45.4973 150.893 45.46 150.501 45.46 150.112V145.36H46.644V149.768C46.644 150.243 46.6893 150.683 46.78 151.088C46.8707 151.493 47.0147 151.848 47.212 152.152C47.4147 152.451 47.6733 152.683 47.988 152.848C48.308 153.013 48.6947 153.096 49.148 153.096C49.564 153.096 49.9293 153.024 50.244 152.88C50.564 152.736 50.8307 152.531 51.044 152.264C51.2627 151.992 51.428 151.664 51.54 151.28C51.652 150.891 51.708 150.453 51.708 149.968L52.54 150.152C52.54 151.037 52.3853 151.781 52.076 152.384C51.7667 152.987 51.34 153.443 50.796 153.752C50.252 154.061 49.628 154.216 48.924 154.216ZM51.828 154V151.872H51.708V145.36H52.884V154H51.828ZM55.28 154V142.24H56.456V154H55.28ZM59.0144 154V142.24H60.1904V154H59.0144ZM65.0608 154.24C64.4101 154.24 63.8634 154.123 63.4208 153.888C62.9834 153.653 62.6554 153.341 62.4368 152.952C62.2181 152.563 62.1088 152.139 62.1088 151.68C62.1088 151.211 62.2021 150.811 62.3888 150.48C62.5808 150.144 62.8394 149.869 63.1648 149.656C63.4954 149.443 63.8768 149.28 64.3088 149.168C64.7461 149.061 65.2288 148.968 65.7568 148.888C66.2901 148.803 66.8101 148.731 67.3168 148.672C67.8288 148.608 68.2768 148.547 68.6608 148.488L68.2448 148.744C68.2608 147.891 68.0954 147.259 67.7488 146.848C67.4021 146.437 66.7994 146.232 65.9408 146.232C65.3488 146.232 64.8474 146.365 64.4368 146.632C64.0314 146.899 63.7461 147.32 63.5807 147.896L62.4368 147.56C62.6341 146.787 63.0314 146.187 63.6288 145.76C64.2261 145.333 65.0021 145.12 65.9568 145.12C66.7461 145.12 67.4154 145.269 67.9648 145.568C68.5194 145.861 68.9114 146.288 69.1408 146.848C69.2474 147.099 69.3168 147.379 69.3488 147.688C69.3808 147.997 69.3968 148.312 69.3968 148.632V154H68.3488V151.832L68.6528 151.96C68.3594 152.701 67.9034 153.267 67.2848 153.656C66.6661 154.045 65.9248 154.24 65.0608 154.24ZM65.1968 153.224C65.7461 153.224 66.2261 153.125 66.6368 152.928C67.0474 152.731 67.3781 152.461 67.6288 152.12C67.8794 151.773 68.0421 151.384 68.1168 150.952C68.1808 150.675 68.2154 150.371 68.2208 150.04C68.2261 149.704 68.2288 149.453 68.2288 149.288L68.6768 149.52C68.2768 149.573 67.8421 149.627 67.3728 149.68C66.9088 149.733 66.4501 149.795 65.9968 149.864C65.5488 149.933 65.1434 150.016 64.7808 150.112C64.5354 150.181 64.2981 150.28 64.0688 150.408C63.8394 150.531 63.6501 150.696 63.5008 150.904C63.3568 151.112 63.2848 151.371 63.2848 151.68C63.2848 151.931 63.3461 152.173 63.4688 152.408C63.5968 152.643 63.7994 152.837 64.0768 152.992C64.3594 153.147 64.7328 153.224 65.1968 153.224ZM71.7034 154V152.632H73.0714V154H71.7034ZM77.945 154L81.913 142.48H83.473L87.441 154H86.217L82.449 143.136H82.913L79.169 154H77.945ZM79.713 151.208V150.104H85.665V151.208H79.713ZM95.6727 154.24C94.8034 154.24 94.0674 154.045 93.4648 153.656C92.8621 153.267 92.4034 152.731 92.0888 152.048C91.7794 151.36 91.6194 150.571 91.6088 149.68C91.6194 148.773 91.7848 147.979 92.1048 147.296C92.4248 146.608 92.8861 146.075 93.4888 145.696C94.0914 145.312 94.8221 145.12 95.6808 145.12C96.5554 145.12 97.3154 145.333 97.9608 145.76C98.6114 146.187 99.0568 146.771 99.2968 147.512L98.1448 147.88C97.9421 147.363 97.6194 146.963 97.1768 146.68C96.7394 146.392 96.2381 146.248 95.6727 146.248C95.0381 146.248 94.5128 146.395 94.0968 146.688C93.6808 146.976 93.3714 147.379 93.1688 147.896C92.9661 148.413 92.8621 149.008 92.8568 149.68C92.8674 150.715 93.1074 151.547 93.5768 152.176C94.0461 152.8 94.7448 153.112 95.6727 153.112C96.2594 153.112 96.7581 152.979 97.1688 152.712C97.5848 152.44 97.8994 152.045 98.1128 151.528L99.2968 151.88C98.9768 152.648 98.5074 153.235 97.8888 153.64C97.2701 154.04 96.5314 154.24 95.6727 154.24ZM104.252 154.216C103.735 154.216 103.281 154.136 102.892 153.976C102.508 153.816 102.18 153.6 101.908 153.328C101.641 153.056 101.425 152.747 101.26 152.4C101.095 152.048 100.975 151.677 100.9 151.288C100.825 150.893 100.788 150.501 100.788 150.112V145.36H101.972V149.768C101.972 150.243 102.017 150.683 102.108 151.088C102.199 151.493 102.343 151.848 102.54 152.152C102.743 152.451 103.001 152.683 103.316 152.848C103.636 153.013 104.023 153.096 104.476 153.096C104.892 153.096 105.257 153.024 105.572 152.88C105.892 152.736 106.159 152.531 106.372 152.264C106.591 151.992 106.756 151.664 106.868 151.28C106.98 150.891 107.036 150.453 107.036 149.968L107.868 150.152C107.868 151.037 107.713 151.781 107.404 152.384C107.095 152.987 106.668 153.443 106.124 153.752C105.58 154.061 104.956 154.216 104.252 154.216ZM107.156 154V151.872H107.036V145.36H108.212V154H107.156ZM110.448 154V145.36H111.504V147.44L111.296 147.168C111.392 146.912 111.517 146.677 111.672 146.464C111.827 146.245 111.995 146.067 112.176 145.928C112.4 145.731 112.661 145.581 112.96 145.48C113.259 145.373 113.56 145.312 113.864 145.296C114.168 145.275 114.445 145.296 114.696 145.36V146.464C114.381 146.384 114.037 146.365 113.664 146.408C113.291 146.451 112.947 146.6 112.632 146.856C112.344 147.08 112.128 147.349 111.984 147.664C111.84 147.973 111.744 148.304 111.696 148.656C111.648 149.003 111.624 149.347 111.624 149.688V154H110.448ZM119.125 154.232C118.112 154.232 117.277 154.013 116.621 153.576C115.971 153.139 115.571 152.531 115.421 151.752L116.621 151.552C116.749 152.043 117.04 152.435 117.493 152.728C117.952 153.016 118.517 153.16 119.189 153.16C119.845 153.16 120.363 153.024 120.741 152.752C121.12 152.475 121.309 152.099 121.309 151.624C121.309 151.357 121.248 151.141 121.125 150.976C121.008 150.805 120.765 150.648 120.397 150.504C120.029 150.36 119.48 150.189 118.749 149.992C117.965 149.779 117.352 149.565 116.909 149.352C116.467 149.139 116.152 148.893 115.965 148.616C115.779 148.333 115.685 147.989 115.685 147.584C115.685 147.093 115.824 146.664 116.101 146.296C116.379 145.923 116.763 145.635 117.253 145.432C117.744 145.224 118.315 145.12 118.965 145.12C119.616 145.12 120.197 145.227 120.709 145.44C121.227 145.648 121.643 145.941 121.957 146.32C122.272 146.699 122.459 147.139 122.517 147.64L121.317 147.856C121.237 147.349 120.984 146.949 120.557 146.656C120.136 146.357 119.6 146.203 118.949 146.192C118.336 146.176 117.837 146.293 117.453 146.544C117.069 146.789 116.877 147.117 116.877 147.528C116.877 147.757 116.947 147.955 117.085 148.12C117.224 148.28 117.475 148.432 117.837 148.576C118.205 148.72 118.728 148.877 119.405 149.048C120.2 149.251 120.824 149.464 121.277 149.688C121.731 149.912 122.053 150.176 122.245 150.48C122.437 150.784 122.533 151.16 122.533 151.608C122.533 152.424 122.229 153.067 121.621 153.536C121.019 154 120.187 154.232 119.125 154.232ZM127.612 154.216C127.094 154.216 126.641 154.136 126.252 153.976C125.868 153.816 125.54 153.6 125.268 153.328C125.001 153.056 124.785 152.747 124.62 152.4C124.454 152.048 124.334 151.677 124.26 151.288C124.185 150.893 124.148 150.501 124.148 150.112V145.36H125.332V149.768C125.332 150.243 125.377 150.683 125.468 151.088C125.558 151.493 125.702 151.848 125.9 152.152C126.102 152.451 126.361 152.683 126.676 152.848C126.996 153.013 127.382 153.096 127.836 153.096C128.252 153.096 128.617 153.024 128.932 152.88C129.252 152.736 129.518 152.531 129.732 152.264C129.95 151.992 130.116 151.664 130.228 151.28C130.34 150.891 130.396 150.453 130.396 149.968L131.227 150.152C131.227 151.037 131.073 151.781 130.764 152.384C130.454 152.987 130.028 153.443 129.484 153.752C128.94 154.061 128.316 154.216 127.612 154.216ZM130.516 154V151.872H130.396V145.36H131.572V154H130.516ZM137.032 154.232C136.018 154.232 135.184 154.013 134.528 153.576C133.877 153.139 133.477 152.531 133.328 151.752L134.528 151.552C134.656 152.043 134.946 152.435 135.4 152.728C135.858 153.016 136.424 153.16 137.095 153.16C137.752 153.16 138.269 153.024 138.648 152.752C139.026 152.475 139.216 152.099 139.216 151.624C139.216 151.357 139.154 151.141 139.032 150.976C138.914 150.805 138.672 150.648 138.304 150.504C137.936 150.36 137.386 150.189 136.656 149.992C135.872 149.779 135.258 149.565 134.816 149.352C134.373 149.139 134.058 148.893 133.872 148.616C133.685 148.333 133.592 147.989 133.592 147.584C133.592 147.093 133.73 146.664 134.008 146.296C134.285 145.923 134.669 145.635 135.16 145.432C135.65 145.224 136.221 145.12 136.872 145.12C137.522 145.12 138.104 145.227 138.616 145.44C139.133 145.648 139.549 145.941 139.864 146.32C140.178 146.699 140.365 147.139 140.424 147.64L139.224 147.856C139.144 147.349 138.89 146.949 138.464 146.656C138.042 146.357 137.506 146.203 136.856 146.192C136.242 146.176 135.744 146.293 135.36 146.544C134.976 146.789 134.784 147.117 134.784 147.528C134.784 147.757 134.853 147.955 134.992 148.12C135.13 148.28 135.381 148.432 135.744 148.576C136.112 148.72 136.634 148.877 137.312 149.048C138.106 149.251 138.73 149.464 139.184 149.688C139.637 149.912 139.96 150.176 140.152 150.48C140.344 150.784 140.44 151.16 140.44 151.608C140.44 152.424 140.136 153.067 139.528 153.536C138.925 154 138.093 154.232 137.032 154.232ZM149.297 154.24C148.502 154.24 147.83 154.04 147.281 153.64C146.732 153.235 146.316 152.688 146.033 152C145.75 151.307 145.609 150.531 145.609 149.672C145.609 148.797 145.75 148.019 146.033 147.336C146.321 146.648 146.742 146.107 147.297 145.712C147.852 145.317 148.534 145.12 149.345 145.12C150.134 145.12 150.812 145.32 151.377 145.72C151.942 146.12 152.374 146.664 152.673 147.352C152.977 148.04 153.129 148.813 153.129 149.672C153.129 150.536 152.977 151.312 152.673 152C152.369 152.688 151.932 153.235 151.361 153.64C150.79 154.04 150.102 154.24 149.297 154.24ZM145.409 154V142.48H146.593V147.496H146.465V154H145.409ZM149.177 153.144C149.78 153.144 150.281 152.992 150.681 152.688C151.081 152.384 151.38 151.971 151.577 151.448C151.78 150.92 151.881 150.328 151.881 149.672C151.881 149.021 151.782 148.435 151.585 147.912C151.388 147.389 151.086 146.976 150.681 146.672C150.281 146.368 149.772 146.216 149.153 146.216C148.55 146.216 148.049 146.363 147.649 146.656C147.254 146.949 146.958 147.357 146.761 147.88C146.564 148.397 146.465 148.995 146.465 149.672C146.465 150.339 146.564 150.936 146.761 151.464C146.958 151.987 147.257 152.397 147.657 152.696C148.057 152.995 148.564 153.144 149.177 153.144ZM155.046 143.72V142.4H156.222V143.72H155.046ZM155.046 154V145.36H156.222V154H155.046ZM162.5 154.24C161.705 154.24 161.033 154.04 160.484 153.64C159.935 153.235 159.519 152.688 159.236 152C158.953 151.307 158.812 150.531 158.812 149.672C158.812 148.797 158.953 148.019 159.236 147.336C159.524 146.648 159.945 146.107 160.5 145.712C161.055 145.317 161.737 145.12 162.548 145.12C163.337 145.12 164.015 145.32 164.58 145.72C165.145 146.12 165.577 146.664 165.876 147.352C166.18 148.04 166.332 148.813 166.332 149.672C166.332 150.536 166.18 151.312 165.876 152C165.572 152.688 165.135 153.235 164.564 153.64C163.993 154.04 163.305 154.24 162.5 154.24ZM158.612 154V142.48H159.796V147.496H159.668V154H158.612ZM162.38 153.144C162.983 153.144 163.484 152.992 163.884 152.688C164.284 152.384 164.583 151.971 164.78 151.448C164.983 150.92 165.084 150.328 165.084 149.672C165.084 149.021 164.985 148.435 164.788 147.912C164.591 147.389 164.289 146.976 163.884 146.672C163.484 146.368 162.975 146.216 162.356 146.216C161.753 146.216 161.252 146.363 160.852 146.656C160.457 146.949 160.161 147.357 159.964 147.88C159.767 148.397 159.668 148.995 159.668 149.672C159.668 150.339 159.767 150.936 159.964 151.464C160.161 151.987 160.46 152.397 160.86 152.696C161.26 152.995 161.767 153.144 162.38 153.144ZM171.745 154.24C170.902 154.24 170.171 154.053 169.553 153.68C168.939 153.307 168.462 152.781 168.121 152.104C167.779 151.427 167.609 150.632 167.609 149.72C167.609 148.776 167.777 147.96 168.113 147.272C168.449 146.584 168.921 146.053 169.529 145.68C170.142 145.307 170.865 145.12 171.697 145.12C172.55 145.12 173.278 145.317 173.881 145.712C174.483 146.101 174.939 146.661 175.249 147.392C175.558 148.123 175.699 148.995 175.673 150.008H174.473V149.592C174.451 148.472 174.209 147.627 173.745 147.056C173.286 146.485 172.614 146.2 171.729 146.2C170.801 146.2 170.089 146.501 169.593 147.104C169.102 147.707 168.857 148.565 168.857 149.68C168.857 150.768 169.102 151.613 169.593 152.216C170.089 152.813 170.79 153.112 171.697 153.112C172.315 153.112 172.854 152.971 173.313 152.688C173.777 152.4 174.142 151.987 174.409 151.448L175.505 151.872C175.163 152.624 174.659 153.208 173.993 153.624C173.331 154.035 172.582 154.24 171.745 154.24ZM168.441 150.008V149.024H175.041V150.008H168.441ZM183.454 154V149.592C183.454 149.112 183.408 148.672 183.318 148.272C183.227 147.867 183.08 147.515 182.878 147.216C182.68 146.912 182.422 146.677 182.102 146.512C181.787 146.347 181.403 146.264 180.95 146.264C180.534 146.264 180.166 146.336 179.846 146.48C179.531 146.624 179.264 146.832 179.046 147.104C178.832 147.371 178.67 147.696 178.558 148.08C178.446 148.464 178.39 148.901 178.39 149.392L177.558 149.208C177.558 148.323 177.712 147.579 178.022 146.976C178.331 146.373 178.758 145.917 179.302 145.608C179.846 145.299 180.47 145.144 181.174 145.144C181.691 145.144 182.142 145.224 182.526 145.384C182.915 145.544 183.243 145.76 183.51 146.032C183.782 146.304 184 146.616 184.166 146.968C184.331 147.315 184.451 147.685 184.526 148.08C184.6 148.469 184.638 148.859 184.638 149.248V154H183.454ZM177.206 154V145.36H178.27V147.488H178.39V154H177.206ZM190.019 154.24C189.214 154.24 188.526 154.04 187.955 153.64C187.384 153.235 186.947 152.688 186.643 152C186.339 151.312 186.187 150.536 186.187 149.672C186.187 148.813 186.336 148.04 186.635 147.352C186.939 146.664 187.374 146.12 187.939 145.72C188.504 145.32 189.182 145.12 189.971 145.12C190.782 145.12 191.464 145.317 192.019 145.712C192.574 146.107 192.992 146.648 193.275 147.336C193.563 148.019 193.707 148.797 193.707 149.672C193.707 150.531 193.566 151.307 193.283 152C193 152.688 192.584 153.235 192.035 153.64C191.486 154.04 190.814 154.24 190.019 154.24ZM190.139 153.144C190.752 153.144 191.259 152.995 191.659 152.696C192.059 152.397 192.358 151.987 192.555 151.464C192.752 150.936 192.851 150.339 192.851 149.672C192.851 148.995 192.752 148.397 192.555 147.88C192.358 147.357 192.059 146.949 191.659 146.656C191.264 146.363 190.766 146.216 190.163 146.216C189.544 146.216 189.032 146.368 188.627 146.672C188.222 146.976 187.92 147.389 187.723 147.912C187.531 148.435 187.435 149.021 187.435 149.672C187.435 150.328 187.534 150.92 187.731 151.448C187.934 151.971 188.235 152.384 188.635 152.688C189.035 152.992 189.536 153.144 190.139 153.144ZM192.851 154V147.496H192.723V142.48H193.907V154H192.851ZM199.455 154.216C198.938 154.216 198.485 154.136 198.095 153.976C197.711 153.816 197.383 153.6 197.111 153.328C196.845 153.056 196.629 152.747 196.463 152.4C196.298 152.048 196.178 151.677 196.103 151.288C196.029 150.893 195.991 150.501 195.991 150.112V145.36H197.175V149.768C197.175 150.243 197.221 150.683 197.311 151.088C197.402 151.493 197.546 151.848 197.743 152.152C197.946 152.451 198.205 152.683 198.519 152.848C198.839 153.013 199.226 153.096 199.679 153.096C200.095 153.096 200.461 153.024 200.775 152.88C201.095 152.736 201.362 152.531 201.575 152.264C201.794 151.992 201.959 151.664 202.071 151.28C202.183 150.891 202.239 150.453 202.239 149.968L203.071 150.152C203.071 151.037 202.917 151.781 202.607 152.384C202.298 152.987 201.871 153.443 201.327 153.752C200.783 154.061 200.159 154.216 199.455 154.216ZM202.359 154V151.872H202.239V145.36H203.415V154H202.359ZM215.955 154L215.963 148.328C215.963 147.661 215.777 147.139 215.403 146.76C215.035 146.376 214.566 146.184 213.995 146.184C213.67 146.184 213.353 146.259 213.043 146.408C212.734 146.557 212.478 146.797 212.275 147.128C212.078 147.459 211.979 147.891 211.979 148.424L211.283 148.224C211.267 147.605 211.387 147.064 211.643 146.6C211.905 146.136 212.262 145.776 212.715 145.52C213.174 145.259 213.691 145.128 214.267 145.128C215.137 145.128 215.833 145.397 216.355 145.936C216.878 146.469 217.139 147.192 217.139 148.104L217.131 154H215.955ZM205.643 154V145.36H206.699V147.488H206.827V154H205.643ZM210.811 154L210.819 148.408C210.819 147.72 210.635 147.179 210.267 146.784C209.905 146.384 209.425 146.184 208.827 146.184C208.23 146.184 207.747 146.389 207.379 146.8C207.011 147.205 206.827 147.747 206.827 148.424L206.123 148.04C206.123 147.485 206.254 146.989 206.515 146.552C206.777 146.109 207.134 145.763 207.587 145.512C208.041 145.256 208.555 145.128 209.131 145.128C209.681 145.128 210.169 145.245 210.595 145.48C211.027 145.715 211.366 146.056 211.611 146.504C211.857 146.952 211.979 147.496 211.979 148.136L211.971 154H210.811ZM226.073 154.24C225.23 154.24 224.5 154.053 223.881 153.68C223.268 153.307 222.79 152.781 222.449 152.104C222.108 151.427 221.937 150.632 221.937 149.72C221.937 148.776 222.105 147.96 222.441 147.272C222.777 146.584 223.249 146.053 223.857 145.68C224.47 145.307 225.193 145.12 226.025 145.12C226.878 145.12 227.606 145.317 228.209 145.712C228.812 146.101 229.268 146.661 229.577 147.392C229.886 148.123 230.028 148.995 230.001 150.008H228.801V149.592C228.78 148.472 228.537 147.627 228.073 147.056C227.614 146.485 226.942 146.2 226.057 146.2C225.129 146.2 224.417 146.501 223.921 147.104C223.43 147.707 223.185 148.565 223.185 149.68C223.185 150.768 223.43 151.613 223.921 152.216C224.417 152.813 225.118 153.112 226.025 153.112C226.644 153.112 227.182 152.971 227.641 152.688C228.105 152.4 228.47 151.987 228.737 151.448L229.833 151.872C229.492 152.624 228.988 153.208 228.321 153.624C227.66 154.035 226.91 154.24 226.073 154.24ZM222.769 150.008V149.024H229.369V150.008H222.769ZM231.936 154V142.24H233.112V154H231.936ZM235.671 143.72V142.4H236.847V143.72H235.671ZM235.671 154V145.36H236.847V154H235.671ZM243.949 154C243.464 154.101 242.984 154.141 242.509 154.12C242.04 154.099 241.618 153.997 241.245 153.816C240.877 153.635 240.597 153.352 240.405 152.968C240.25 152.648 240.165 152.325 240.149 152C240.138 151.669 240.133 151.293 240.133 150.872V142.96H241.301V150.824C241.301 151.187 241.304 151.491 241.309 151.736C241.32 151.976 241.376 152.189 241.477 152.376C241.669 152.733 241.973 152.947 242.389 153.016C242.81 153.085 243.33 153.069 243.949 152.968V154ZM238.285 146.368V145.36H243.949V146.368H238.285ZM252.734 154.24C251.94 154.24 251.268 154.04 250.718 153.64C250.169 153.235 249.753 152.688 249.47 152C249.188 151.307 249.046 150.531 249.046 149.672C249.046 148.797 249.188 148.019 249.47 147.336C249.758 146.648 250.18 146.107 250.734 145.712C251.289 145.317 251.972 145.12 252.782 145.12C253.572 145.12 254.249 145.32 254.814 145.72C255.38 146.12 255.812 146.664 256.11 147.352C256.414 148.04 256.566 148.813 256.566 149.672C256.566 150.536 256.414 151.312 256.11 152C255.806 152.688 255.369 153.235 254.798 153.64C254.228 154.04 253.54 154.24 252.734 154.24ZM248.846 157.84V145.36H249.902V151.864H250.03V157.84H248.846ZM252.614 153.144C253.217 153.144 253.718 152.992 254.118 152.688C254.518 152.384 254.817 151.971 255.014 151.448C255.217 150.92 255.318 150.328 255.318 149.672C255.318 149.021 255.22 148.435 255.022 147.912C254.825 147.389 254.524 146.976 254.118 146.672C253.718 146.368 253.209 146.216 252.59 146.216C251.988 146.216 251.486 146.363 251.086 146.656C250.692 146.949 250.396 147.357 250.198 147.88C250.001 148.397 249.902 148.995 249.902 149.672C249.902 150.339 250.001 150.936 250.198 151.464C250.396 151.987 250.694 152.397 251.094 152.696C251.494 152.995 252.001 153.144 252.614 153.144ZM261.627 154.216C261.11 154.216 260.656 154.136 260.267 153.976C259.883 153.816 259.555 153.6 259.283 153.328C259.016 153.056 258.8 152.747 258.635 152.4C258.47 152.048 258.35 151.677 258.275 151.288C258.2 150.893 258.163 150.501 258.163 150.112V145.36H259.347V149.768C259.347 150.243 259.392 150.683 259.483 151.088C259.574 151.493 259.718 151.848 259.915 152.152C260.118 152.451 260.376 152.683 260.691 152.848C261.011 153.013 261.398 153.096 261.851 153.096C262.267 153.096 262.632 153.024 262.947 152.88C263.267 152.736 263.534 152.531 263.747 152.264C263.966 151.992 264.131 151.664 264.243 151.28C264.355 150.891 264.411 150.453 264.411 149.968L265.243 150.152C265.243 151.037 265.088 151.781 264.779 152.384C264.47 152.987 264.043 153.443 263.499 153.752C262.955 154.061 262.331 154.216 261.627 154.216ZM264.531 154V151.872H264.411V145.36H265.587V154H264.531ZM267.823 154V145.36H268.879V147.44L268.671 147.168C268.767 146.912 268.892 146.677 269.047 146.464C269.202 146.245 269.37 146.067 269.551 145.928C269.775 145.731 270.036 145.581 270.335 145.48C270.634 145.373 270.935 145.312 271.239 145.296C271.543 145.275 271.82 145.296 272.071 145.36V146.464C271.756 146.384 271.412 146.365 271.039 146.408C270.666 146.451 270.322 146.6 270.007 146.856C269.719 147.08 269.503 147.349 269.359 147.664C269.215 147.973 269.119 148.304 269.071 148.656C269.023 149.003 268.999 149.347 268.999 149.688V154H267.823ZM276.893 154.216C276.375 154.216 275.922 154.136 275.533 153.976C275.149 153.816 274.821 153.6 274.549 153.328C274.282 153.056 274.066 152.747 273.901 152.4C273.735 152.048 273.615 151.677 273.541 151.288C273.466 150.893 273.429 150.501 273.429 150.112V145.36H274.613V149.768C274.613 150.243 274.658 150.683 274.749 151.088C274.839 151.493 274.983 151.848 275.181 152.152C275.383 152.451 275.642 152.683 275.957 152.848C276.277 153.013 276.663 153.096 277.117 153.096C277.533 153.096 277.898 153.024 278.213 152.88C278.533 152.736 278.799 152.531 279.013 152.264C279.231 151.992 279.397 151.664 279.509 151.28C279.621 150.891 279.677 150.453 279.677 149.968L280.509 150.152C280.509 151.037 280.354 151.781 280.045 152.384C279.735 152.987 279.309 153.443 278.765 153.752C278.221 154.061 277.597 154.216 276.893 154.216ZM279.797 154V151.872H279.677V145.36H280.853V154H279.797ZM286.313 154.232C285.299 154.232 284.465 154.013 283.809 153.576C283.158 153.139 282.758 152.531 282.609 151.752L283.809 151.552C283.937 152.043 284.227 152.435 284.681 152.728C285.139 153.016 285.705 153.16 286.377 153.16C287.033 153.16 287.55 153.024 287.929 152.752C288.307 152.475 288.497 152.099 288.497 151.624C288.497 151.357 288.435 151.141 288.313 150.976C288.195 150.805 287.953 150.648 287.585 150.504C287.217 150.36 286.667 150.189 285.937 149.992C285.153 149.779 284.539 149.565 284.097 149.352C283.654 149.139 283.339 148.893 283.153 148.616C282.966 148.333 282.873 147.989 282.873 147.584C282.873 147.093 283.011 146.664 283.289 146.296C283.566 145.923 283.95 145.635 284.441 145.432C284.931 145.224 285.502 145.12 286.153 145.12C286.803 145.12 287.385 145.227 287.897 145.44C288.414 145.648 288.83 145.941 289.145 146.32C289.459 146.699 289.646 147.139 289.705 147.64L288.505 147.856C288.425 147.349 288.171 146.949 287.745 146.656C287.323 146.357 286.787 146.203 286.137 146.192C285.523 146.176 285.025 146.293 284.641 146.544C284.257 146.789 284.065 147.117 284.065 147.528C284.065 147.757 284.134 147.955 284.273 148.12C284.411 148.28 284.662 148.432 285.025 148.576C285.393 148.72 285.915 148.877 286.593 149.048C287.387 149.251 288.011 149.464 288.465 149.688C288.918 149.912 289.241 150.176 289.433 150.48C289.625 150.784 289.721 151.16 289.721 151.608C289.721 152.424 289.417 153.067 288.809 153.536C288.206 154 287.374 154.232 286.313 154.232ZM39.704 179.24C38.8347 179.24 38.0987 179.045 37.496 178.656C36.8933 178.267 36.4347 177.731 36.12 177.048C35.8107 176.36 35.6507 175.571 35.64 174.68C35.6507 173.773 35.816 172.979 36.136 172.296C36.456 171.608 36.9173 171.075 37.52 170.696C38.1227 170.312 38.8533 170.12 39.712 170.12C40.5867 170.12 41.3467 170.333 41.992 170.76C42.6427 171.187 43.088 171.771 43.328 172.512L42.176 172.88C41.9733 172.363 41.6507 171.963 41.208 171.68C40.7707 171.392 40.2693 171.248 39.704 171.248C39.0693 171.248 38.544 171.395 38.128 171.688C37.712 171.976 37.4027 172.379 37.2 172.896C36.9973 173.413 36.8933 174.008 36.888 174.68C36.8987 175.715 37.1387 176.547 37.608 177.176C38.0773 177.8 38.776 178.112 39.704 178.112C40.2907 178.112 40.7893 177.979 41.2 177.712C41.616 177.44 41.9307 177.045 42.144 176.528L43.328 176.88C43.008 177.648 42.5387 178.235 41.92 178.64C41.3013 179.04 40.5627 179.24 39.704 179.24ZM44.9794 179V170.36H46.0354V172.44L45.8274 172.168C45.9234 171.912 46.0487 171.677 46.2034 171.464C46.358 171.245 46.526 171.067 46.7074 170.928C46.9314 170.731 47.1927 170.581 47.4914 170.48C47.79 170.373 48.0914 170.312 48.3954 170.296C48.6994 170.275 48.9767 170.296 49.2274 170.36V171.464C48.9127 171.384 48.5687 171.365 48.1954 171.408C47.822 171.451 47.478 171.6 47.1634 171.856C46.8754 172.08 46.6594 172.349 46.5154 172.664C46.3714 172.973 46.2754 173.304 46.2274 173.656C46.1794 174.003 46.1554 174.347 46.1554 174.688V179H44.9794ZM52.8889 179.24C52.2382 179.24 51.6915 179.123 51.2489 178.888C50.8115 178.653 50.4835 178.341 50.2649 177.952C50.0462 177.563 49.9369 177.139 49.9369 176.68C49.9369 176.211 50.0302 175.811 50.2169 175.48C50.4089 175.144 50.6675 174.869 50.9929 174.656C51.3235 174.443 51.7049 174.28 52.1369 174.168C52.5742 174.061 53.0569 173.968 53.5849 173.888C54.1182 173.803 54.6382 173.731 55.1449 173.672C55.6569 173.608 56.1049 173.547 56.4889 173.488L56.0729 173.744C56.0889 172.891 55.9235 172.259 55.5769 171.848C55.2302 171.437 54.6275 171.232 53.7689 171.232C53.1769 171.232 52.6755 171.365 52.2649 171.632C51.8595 171.899 51.5742 172.32 51.4089 172.896L50.2649 172.56C50.4622 171.787 50.8595 171.187 51.4569 170.76C52.0542 170.333 52.8302 170.12 53.7849 170.12C54.5742 170.12 55.2435 170.269 55.7929 170.568C56.3475 170.861 56.7395 171.288 56.9689 171.848C57.0755 172.099 57.1449 172.379 57.1769 172.688C57.2089 172.997 57.2249 173.312 57.2249 173.632V179H56.1769V176.832L56.4809 176.96C56.1875 177.701 55.7315 178.267 55.1129 178.656C54.4942 179.045 53.7529 179.24 52.8889 179.24ZM53.0249 178.224C53.5742 178.224 54.0542 178.125 54.4649 177.928C54.8755 177.731 55.2062 177.461 55.4569 177.12C55.7075 176.773 55.8702 176.384 55.9449 175.952C56.0089 175.675 56.0435 175.371 56.0489 175.04C56.0542 174.704 56.0569 174.453 56.0569 174.288L56.5049 174.52C56.1049 174.573 55.6702 174.627 55.2009 174.68C54.7369 174.733 54.2782 174.795 53.8249 174.864C53.3769 174.933 52.9715 175.016 52.6089 175.112C52.3635 175.181 52.1262 175.28 51.8969 175.408C51.6675 175.531 51.4782 175.696 51.3289 175.904C51.1849 176.112 51.1129 176.371 51.1129 176.68C51.1129 176.931 51.1742 177.173 51.2969 177.408C51.4249 177.643 51.6275 177.837 51.9049 177.992C52.1875 178.147 52.5609 178.224 53.0249 178.224ZM62.5315 179.232C61.5182 179.232 60.6835 179.013 60.0275 178.576C59.3768 178.139 58.9768 177.531 58.8275 176.752L60.0275 176.552C60.1555 177.043 60.4462 177.435 60.8995 177.728C61.3582 178.016 61.9235 178.16 62.5955 178.16C63.2515 178.16 63.7688 178.024 64.1475 177.752C64.5262 177.475 64.7155 177.099 64.7155 176.624C64.7155 176.357 64.6542 176.141 64.5315 175.976C64.4142 175.805 64.1715 175.648 63.8035 175.504C63.4355 175.36 62.8862 175.189 62.1555 174.992C61.3715 174.779 60.7582 174.565 60.3155 174.352C59.8728 174.139 59.5582 173.893 59.3715 173.616C59.1848 173.333 59.0915 172.989 59.0915 172.584C59.0915 172.093 59.2302 171.664 59.5075 171.296C59.7848 170.923 60.1688 170.635 60.6595 170.432C61.1502 170.224 61.7208 170.12 62.3715 170.12C63.0222 170.12 63.6035 170.227 64.1155 170.44C64.6328 170.648 65.0488 170.941 65.3635 171.32C65.6782 171.699 65.8648 172.139 65.9235 172.64L64.7235 172.856C64.6435 172.349 64.3902 171.949 63.9635 171.656C63.5422 171.357 63.0062 171.203 62.3555 171.192C61.7422 171.176 61.2435 171.293 60.8595 171.544C60.4755 171.789 60.2835 172.117 60.2835 172.528C60.2835 172.757 60.3528 172.955 60.4915 173.12C60.6302 173.28 60.8808 173.432 61.2435 173.576C61.6115 173.72 62.1342 173.877 62.8115 174.048C63.6062 174.251 64.2302 174.464 64.6835 174.688C65.1368 174.912 65.4595 175.176 65.6515 175.48C65.8435 175.784 65.9395 176.16 65.9395 176.608C65.9395 177.424 65.6355 178.067 65.0275 178.536C64.4248 179 63.5928 179.232 62.5315 179.232ZM74.7969 179.24C74.0022 179.24 73.3302 179.04 72.7809 178.64C72.2315 178.235 71.8155 177.688 71.5329 177C71.2502 176.307 71.1089 175.531 71.1089 174.672C71.1089 173.797 71.2502 173.019 71.5329 172.336C71.8209 171.648 72.2422 171.107 72.7969 170.712C73.3515 170.317 74.0342 170.12 74.8449 170.12C75.6342 170.12 76.3115 170.32 76.8769 170.72C77.4422 171.12 77.8742 171.664 78.1729 172.352C78.4769 173.04 78.6289 173.813 78.6289 174.672C78.6289 175.536 78.4769 176.312 78.1729 177C77.8689 177.688 77.4315 178.235 76.8609 178.64C76.2902 179.04 75.6022 179.24 74.7969 179.24ZM70.9089 182.84V170.36H71.9649V176.864H72.0929V182.84H70.9089ZM74.6769 178.144C75.2795 178.144 75.7809 177.992 76.1809 177.688C76.5809 177.384 76.8795 176.971 77.0769 176.448C77.2795 175.92 77.3809 175.328 77.3809 174.672C77.3809 174.021 77.2822 173.435 77.0849 172.912C76.8875 172.389 76.5862 171.976 76.1809 171.672C75.7809 171.368 75.2715 171.216 74.6529 171.216C74.0502 171.216 73.5489 171.363 73.1489 171.656C72.7542 171.949 72.4582 172.357 72.2609 172.88C72.0635 173.397 71.9649 173.995 71.9649 174.672C71.9649 175.339 72.0635 175.936 72.2609 176.464C72.4582 176.987 72.7569 177.397 73.1569 177.696C73.5569 177.995 74.0635 178.144 74.6769 178.144ZM80.3856 179V170.36H81.4416V172.44L81.2336 172.168C81.3296 171.912 81.455 171.677 81.6096 171.464C81.7643 171.245 81.9323 171.067 82.1136 170.928C82.3376 170.731 82.599 170.581 82.8976 170.48C83.1963 170.373 83.4976 170.312 83.8016 170.296C84.1056 170.275 84.383 170.296 84.6336 170.36V171.464C84.319 171.384 83.975 171.365 83.6016 171.408C83.2283 171.451 82.8843 171.6 82.5696 171.856C82.2816 172.08 82.0656 172.349 81.9216 172.664C81.7776 172.973 81.6816 173.304 81.6336 173.656C81.5856 174.003 81.5616 174.347 81.5616 174.688V179H80.3856ZM88.2951 179.24C87.6445 179.24 87.0978 179.123 86.6551 178.888C86.2178 178.653 85.8898 178.341 85.6711 177.952C85.4525 177.563 85.3431 177.139 85.3431 176.68C85.3431 176.211 85.4365 175.811 85.6231 175.48C85.8151 175.144 86.0738 174.869 86.3991 174.656C86.7298 174.443 87.1111 174.28 87.5431 174.168C87.9805 174.061 88.4631 173.968 88.9911 173.888C89.5245 173.803 90.0445 173.731 90.5511 173.672C91.0631 173.608 91.5111 173.547 91.8951 173.488L91.4791 173.744C91.4951 172.891 91.3298 172.259 90.9831 171.848C90.6365 171.437 90.0338 171.232 89.1751 171.232C88.5831 171.232 88.0818 171.365 87.6711 171.632C87.2658 171.899 86.9805 172.32 86.8151 172.896L85.6711 172.56C85.8685 171.787 86.2658 171.187 86.8631 170.76C87.4605 170.333 88.2365 170.12 89.1911 170.12C89.9805 170.12 90.6498 170.269 91.1991 170.568C91.7538 170.861 92.1458 171.288 92.3751 171.848C92.4818 172.099 92.5511 172.379 92.5831 172.688C92.6151 172.997 92.6311 173.312 92.6311 173.632V179H91.5831V176.832L91.8871 176.96C91.5938 177.701 91.1378 178.267 90.5191 178.656C89.9005 179.045 89.1591 179.24 88.2951 179.24ZM88.4311 178.224C88.9805 178.224 89.4605 178.125 89.8711 177.928C90.2818 177.731 90.6125 177.461 90.8631 177.12C91.1138 176.773 91.2765 176.384 91.3511 175.952C91.4151 175.675 91.4498 175.371 91.4551 175.04C91.4605 174.704 91.4631 174.453 91.4631 174.288L91.9111 174.52C91.5111 174.573 91.0765 174.627 90.6071 174.68C90.1431 174.733 89.6845 174.795 89.2311 174.864C88.7831 174.933 88.3778 175.016 88.0151 175.112C87.7698 175.181 87.5325 175.28 87.3031 175.408C87.0738 175.531 86.8845 175.696 86.7351 175.904C86.5911 176.112 86.5191 176.371 86.5191 176.68C86.5191 176.931 86.5805 177.173 86.7031 177.408C86.8311 177.643 87.0338 177.837 87.3111 177.992C87.5938 178.147 87.9671 178.224 88.4311 178.224ZM98.3698 179.24C97.5271 179.24 96.7964 179.053 96.1778 178.68C95.5644 178.307 95.0871 177.781 94.7458 177.104C94.4044 176.427 94.2338 175.632 94.2338 174.72C94.2338 173.776 94.4018 172.96 94.7378 172.272C95.0738 171.584 95.5458 171.053 96.1538 170.68C96.7671 170.307 97.4898 170.12 98.3218 170.12C99.1751 170.12 99.9031 170.317 100.506 170.712C101.108 171.101 101.564 171.661 101.874 172.392C102.183 173.123 102.324 173.995 102.298 175.008H101.098V174.592C101.076 173.472 100.834 172.627 100.37 172.056C99.9111 171.485 99.2391 171.2 98.3538 171.2C97.4258 171.2 96.7138 171.501 96.2178 172.104C95.7271 172.707 95.4818 173.565 95.4818 174.68C95.4818 175.768 95.7271 176.613 96.2178 177.216C96.7138 177.813 97.4151 178.112 98.3218 178.112C98.9404 178.112 99.4791 177.971 99.9378 177.688C100.402 177.4 100.767 176.987 101.034 176.448L102.13 176.872C101.788 177.624 101.284 178.208 100.618 178.624C99.9564 179.035 99.2071 179.24 98.3698 179.24ZM95.0658 175.008V174.024H101.666V175.008H95.0658ZM107.297 179.232C106.284 179.232 105.449 179.013 104.793 178.576C104.142 178.139 103.742 177.531 103.593 176.752L104.793 176.552C104.921 177.043 105.212 177.435 105.665 177.728C106.124 178.016 106.689 178.16 107.361 178.16C108.017 178.16 108.534 178.024 108.913 177.752C109.292 177.475 109.481 177.099 109.481 176.624C109.481 176.357 109.42 176.141 109.297 175.976C109.18 175.805 108.937 175.648 108.569 175.504C108.201 175.36 107.652 175.189 106.921 174.992C106.137 174.779 105.524 174.565 105.081 174.352C104.638 174.139 104.324 173.893 104.137 173.616C103.95 173.333 103.857 172.989 103.857 172.584C103.857 172.093 103.996 171.664 104.273 171.296C104.55 170.923 104.934 170.635 105.425 170.432C105.916 170.224 106.486 170.12 107.137 170.12C107.788 170.12 108.369 170.227 108.881 170.44C109.398 170.648 109.814 170.941 110.129 171.32C110.444 171.699 110.63 172.139 110.689 172.64L109.489 172.856C109.409 172.349 109.156 171.949 108.729 171.656C108.308 171.357 107.772 171.203 107.121 171.192C106.508 171.176 106.009 171.293 105.625 171.544C105.241 171.789 105.049 172.117 105.049 172.528C105.049 172.757 105.118 172.955 105.257 173.12C105.396 173.28 105.646 173.432 106.009 173.576C106.377 173.72 106.9 173.877 107.577 174.048C108.372 174.251 108.996 174.464 109.449 174.688C109.902 174.912 110.225 175.176 110.417 175.48C110.609 175.784 110.705 176.16 110.705 176.608C110.705 177.424 110.401 178.067 109.793 178.536C109.19 179 108.358 179.232 107.297 179.232ZM116.135 179.24C115.293 179.24 114.562 179.053 113.943 178.68C113.33 178.307 112.853 177.781 112.511 177.104C112.17 176.427 111.999 175.632 111.999 174.72C111.999 173.776 112.167 172.96 112.503 172.272C112.839 171.584 113.311 171.053 113.919 170.68C114.533 170.307 115.255 170.12 116.087 170.12C116.941 170.12 117.669 170.317 118.271 170.712C118.874 171.101 119.33 171.661 119.639 172.392C119.949 173.123 120.09 173.995 120.063 175.008H118.863V174.592C118.842 173.472 118.599 172.627 118.135 172.056C117.677 171.485 117.005 171.2 116.119 171.2C115.191 171.2 114.479 171.501 113.983 172.104C113.493 172.707 113.247 173.565 113.247 174.68C113.247 175.768 113.493 176.613 113.983 177.216C114.479 177.813 115.181 178.112 116.087 178.112C116.706 178.112 117.245 177.971 117.703 177.688C118.167 177.4 118.533 176.987 118.799 176.448L119.895 176.872C119.554 177.624 119.05 178.208 118.383 178.624C117.722 179.035 116.973 179.24 116.135 179.24ZM112.831 175.008V174.024H119.431V175.008H112.831ZM127.844 179V174.592C127.844 174.112 127.799 173.672 127.708 173.272C127.618 172.867 127.471 172.515 127.268 172.216C127.071 171.912 126.812 171.677 126.492 171.512C126.178 171.347 125.794 171.264 125.34 171.264C124.924 171.264 124.556 171.336 124.236 171.48C123.922 171.624 123.655 171.832 123.436 172.104C123.223 172.371 123.06 172.696 122.948 173.08C122.836 173.464 122.78 173.901 122.78 174.392L121.948 174.208C121.948 173.323 122.103 172.579 122.412 171.976C122.722 171.373 123.148 170.917 123.692 170.608C124.236 170.299 124.86 170.144 125.564 170.144C126.082 170.144 126.532 170.224 126.916 170.384C127.306 170.544 127.634 170.76 127.9 171.032C128.172 171.304 128.391 171.616 128.556 171.968C128.722 172.315 128.842 172.685 128.916 173.08C128.991 173.469 129.028 173.859 129.028 174.248V179H127.844ZM121.596 179V170.36H122.66V172.488H122.78V179H121.596ZM135.808 179C135.323 179.101 134.843 179.141 134.368 179.12C133.899 179.099 133.478 178.997 133.104 178.816C132.736 178.635 132.456 178.352 132.264 177.968C132.11 177.648 132.024 177.325 132.008 177C131.998 176.669 131.992 176.293 131.992 175.872V167.96H133.16V175.824C133.16 176.187 133.163 176.491 133.168 176.736C133.179 176.976 133.235 177.189 133.336 177.376C133.528 177.733 133.832 177.947 134.248 178.016C134.67 178.085 135.19 178.069 135.808 177.968V179ZM130.144 171.368V170.36H135.808V171.368H130.144ZM137.735 179V177.632H139.103V179H137.735Z" fill="#565973"/>
</g>
<defs>
<filter id="filter0_dd_20005153_3619" x="0" y="0.4" width="328" height="227" filterUnits="userSpaceOnUse" color-interpolation-filters="sRGB">
<feFlood flood-opacity="0" result="BackgroundImageFix"/>
<feColorMatrix in="SourceAlpha" type="matrix" values="0 0 0 0 0 0 0 0 0 0 0 0 0 0 0 0 0 0 127 0" result="hardAlpha"/>
<feMorphology radius="1" operator="erode" in="SourceAlpha" result="effect1_dropShadow_20005153_3619"/>
<feOffset dy="2"/>
<feGaussianBlur stdDeviation="3.2"/>
<feColorMatrix type="matrix" values="0 0 0 0 0.0745098 0 0 0 0 0.0627451 0 0 0 0 0.133333 0 0 0 0.03 0"/>
<feBlend mode="normal" in2="BackgroundImageFix" result="effect1_dropShadow_20005153_3619"/>
<feColorMatrix in="SourceAlpha" type="matrix" values="0 0 0 0 0 0 0 0 0 0 0 0 0 0 0 0 0 0 127 0" result="hardAlpha"/>
<feMorphology radius="1" operator="erode" in="SourceAlpha" result="effect2_dropShadow_20005153_3619"/>
<feOffset dy="4.4"/>
<feGaussianBlur stdDeviation="6"/>
<feColorMatrix type="matrix" values="0 0 0 0 0.0745098 0 0 0 0 0.0627451 0 0 0 0 0.133333 0 0 0 0.06 0"/>
<feBlend mode="normal" in2="effect1_dropShadow_20005153_3619" result="effect2_dropShadow_20005153_3619"/>
<feBlend mode="normal" in="SourceGraphic" in2="effect2_dropShadow_20005153_3619" result="shape"/>
</filter>
<linearGradient id="paint0_linear_20005153_3619" x1="35.301" y1="61.3275" x2="90.941" y2="61.3275" gradientUnits="userSpaceOnUse">
<stop stop-opacity="0.1"/>
<stop offset="1" stop-opacity="0.2"/>
</linearGradient>
</defs>
</svg>
