<svg width="306" height="205" viewBox="0 0 306 205" fill="none" xmlns="http://www.w3.org/2000/svg">
<rect width="306" height="205" rx="12" fill="white"/>
<path d="M24 52C24 36.536 36.536 24 52 24C67.464 24 80 36.536 80 52C80 67.464 67.464 80 52 80C36.536 80 24 67.464 24 52Z" fill="#4A5FEF"/>
<path fill-rule="evenodd" clip-rule="evenodd" d="M69.7335 42.6862L62.7094 48.2432L52.4668 41.9947L59.5751 36.1333L69.7335 42.6862ZM45.3586 36.1333L52.4666 41.9948L42.2245 48.2431L42.2243 48.243L42.2241 48.2431L35.2002 42.6862L45.3586 36.1333ZM42.2241 48.2431L35.2002 53.8006L45.3586 60.3535L52.4669 54.4917L42.2245 48.2431L42.2243 48.2432L42.2241 48.2431ZM62.7096 48.2435L52.4667 54.4919L59.575 60.3537L69.7334 53.8008L62.7096 48.2435ZM59.6164 61.5989L52.4874 55.7544L45.3584 61.5989L42.3076 59.6312V61.8371L52.4874 67.8682L62.6672 61.8371V59.6312L59.6164 61.5989Z" fill="white"/>
<path d="M29.616 121.24C28.736 121.24 27.9573 121.059 27.28 120.696C26.608 120.333 26.08 119.821 25.696 119.16C25.312 118.499 25.12 117.725 25.12 116.84V109.488L26.304 109.48V116.688C26.304 117.285 26.4053 117.803 26.608 118.24C26.8107 118.672 27.0747 119.029 27.4 119.312C27.7307 119.589 28.0907 119.795 28.48 119.928C28.8693 120.061 29.248 120.128 29.616 120.128C29.9893 120.128 30.3707 120.061 30.76 119.928C31.1493 119.795 31.5067 119.589 31.832 119.312C32.1573 119.029 32.4213 118.672 32.624 118.24C32.8267 117.803 32.928 117.285 32.928 116.688V109.48H34.112V116.84C34.112 117.725 33.92 118.499 33.536 119.16C33.152 119.816 32.6213 120.328 31.944 120.696C31.272 121.059 30.496 121.24 29.616 121.24ZM41.0584 121C40.573 121.101 40.093 121.141 39.6184 121.12C39.149 121.099 38.7277 120.997 38.3544 120.816C37.9864 120.635 37.7064 120.352 37.5144 119.968C37.3597 119.648 37.2744 119.325 37.2584 119C37.2477 118.669 37.2424 118.293 37.2424 117.872V109.96H38.4104V117.824C38.4104 118.187 38.413 118.491 38.4184 118.736C38.429 118.976 38.485 119.189 38.5864 119.376C38.7784 119.733 39.0824 119.947 39.4984 120.016C39.9197 120.085 40.4397 120.069 41.0584 119.968V121ZM35.3944 113.368V112.36H41.0584V113.368H35.3944ZM46.1238 110.72V109.4H47.2998V110.72H46.1238ZM46.1238 121V112.36H47.2998V121H46.1238ZM55.9381 121V116.592C55.9381 116.112 55.8928 115.672 55.8021 115.272C55.7115 114.867 55.5648 114.515 55.3621 114.216C55.1648 113.912 54.9061 113.677 54.5861 113.512C54.2715 113.347 53.8875 113.264 53.4341 113.264C53.0181 113.264 52.6501 113.336 52.3301 113.48C52.0155 113.624 51.7488 113.832 51.5301 114.104C51.3168 114.371 51.1541 114.696 51.0421 115.08C50.9301 115.464 50.8741 115.901 50.8741 116.392L50.0421 116.208C50.0421 115.323 50.1968 114.579 50.5061 113.976C50.8155 113.373 51.2421 112.917 51.7861 112.608C52.3301 112.299 52.9541 112.144 53.6581 112.144C54.1755 112.144 54.6261 112.224 55.0101 112.384C55.3995 112.544 55.7275 112.76 55.9941 113.032C56.2661 113.304 56.4848 113.616 56.6501 113.968C56.8155 114.315 56.9355 114.685 57.0101 115.08C57.0848 115.469 57.1221 115.859 57.1221 116.248V121H55.9381ZM49.6901 121V112.36H50.7541V114.488H50.8741V121H49.6901ZM67.1053 121C66.6199 121.101 66.1399 121.141 65.6653 121.12C65.1959 121.099 64.7746 120.997 64.4013 120.816C64.0333 120.635 63.7533 120.352 63.5613 119.968C63.4066 119.648 63.3213 119.325 63.3053 119C63.2946 118.669 63.2893 118.293 63.2893 117.872V109.96H64.4573V117.824C64.4573 118.187 64.4599 118.491 64.4653 118.736C64.4759 118.976 64.5319 119.189 64.6333 119.376C64.8253 119.733 65.1293 119.947 65.5453 120.016C65.9666 120.085 66.4866 120.069 67.1053 119.968V121ZM61.4413 113.368V112.36H67.1053V113.368H61.4413ZM72.1115 121.216C71.5942 121.216 71.1408 121.136 70.7515 120.976C70.3675 120.816 70.0395 120.6 69.7675 120.328C69.5008 120.056 69.2848 119.747 69.1195 119.4C68.9542 119.048 68.8342 118.677 68.7595 118.288C68.6848 117.893 68.6475 117.501 68.6475 117.112V112.36H69.8315V116.768C69.8315 117.243 69.8768 117.683 69.9675 118.088C70.0582 118.493 70.2022 118.848 70.3995 119.152C70.6022 119.451 70.8608 119.683 71.1755 119.848C71.4955 120.013 71.8822 120.096 72.3355 120.096C72.7515 120.096 73.1168 120.024 73.4315 119.88C73.7515 119.736 74.0182 119.531 74.2315 119.264C74.4502 118.992 74.6155 118.664 74.7275 118.28C74.8395 117.891 74.8955 117.453 74.8955 116.968L75.7275 117.152C75.7275 118.037 75.5728 118.781 75.2635 119.384C74.9542 119.987 74.5275 120.443 73.9835 120.752C73.4395 121.061 72.8155 121.216 72.1115 121.216ZM75.0155 121V118.872H74.8955V112.36H76.0715V121H75.0155ZM78.3075 121V112.36H79.3635V114.44L79.1555 114.168C79.2515 113.912 79.3768 113.677 79.5315 113.464C79.6862 113.245 79.8542 113.067 80.0355 112.928C80.2595 112.731 80.5208 112.581 80.8195 112.48C81.1182 112.373 81.4195 112.312 81.7235 112.296C82.0275 112.275 82.3048 112.296 82.5555 112.36V113.464C82.2408 113.384 81.8968 113.365 81.5235 113.408C81.1502 113.451 80.8062 113.6 80.4915 113.856C80.2035 114.08 79.9875 114.349 79.8435 114.664C79.6995 114.973 79.6035 115.304 79.5555 115.656C79.5075 116.003 79.4835 116.347 79.4835 116.688V121H78.3075ZM87.9531 121.24C87.1585 121.24 86.4865 121.04 85.9371 120.64C85.3878 120.235 84.9718 119.688 84.6891 119C84.4065 118.307 84.2651 117.531 84.2651 116.672C84.2651 115.797 84.4065 115.019 84.6891 114.336C84.9771 113.648 85.3985 113.107 85.9531 112.712C86.5078 112.317 87.1905 112.12 88.0011 112.12C88.7905 112.12 89.4678 112.32 90.0331 112.72C90.5985 113.12 91.0305 113.664 91.3291 114.352C91.6331 115.04 91.7851 115.813 91.7851 116.672C91.7851 117.536 91.6331 118.312 91.3291 119C91.0251 119.688 90.5878 120.235 90.0171 120.64C89.4465 121.04 88.7585 121.24 87.9531 121.24ZM84.0651 124.84V112.36H85.1211V118.864H85.2491V124.84H84.0651ZM87.8331 120.144C88.4358 120.144 88.9371 119.992 89.3371 119.688C89.7371 119.384 90.0358 118.971 90.2331 118.448C90.4358 117.92 90.5371 117.328 90.5371 116.672C90.5371 116.021 90.4385 115.435 90.2411 114.912C90.0438 114.389 89.7425 113.976 89.3371 113.672C88.9371 113.368 88.4278 113.216 87.8091 113.216C87.2065 113.216 86.7051 113.363 86.3051 113.656C85.9105 113.949 85.6145 114.357 85.4171 114.88C85.2198 115.397 85.1211 115.995 85.1211 116.672C85.1211 117.339 85.2198 117.936 85.4171 118.464C85.6145 118.987 85.9131 119.397 86.3131 119.696C86.7131 119.995 87.2198 120.144 87.8331 120.144ZM93.7019 110.72V109.4H94.8779V110.72H93.7019ZM93.7019 121V112.36H94.8779V121H93.7019ZM100.5 121.232C99.4869 121.232 98.6523 121.013 97.9963 120.576C97.3456 120.139 96.9456 119.531 96.7963 118.752L97.9963 118.552C98.1243 119.043 98.4149 119.435 98.8683 119.728C99.3269 120.016 99.8923 120.16 100.564 120.16C101.22 120.16 101.738 120.024 102.116 119.752C102.495 119.475 102.684 119.099 102.684 118.624C102.684 118.357 102.623 118.141 102.5 117.976C102.383 117.805 102.14 117.648 101.772 117.504C101.404 117.36 100.855 117.189 100.124 116.992C99.3403 116.779 98.7269 116.565 98.2843 116.352C97.8416 116.139 97.5269 115.893 97.3403 115.616C97.1536 115.333 97.0603 114.989 97.0603 114.584C97.0603 114.093 97.1989 113.664 97.4763 113.296C97.7536 112.923 98.1376 112.635 98.6283 112.432C99.1189 112.224 99.6896 112.12 100.34 112.12C100.991 112.12 101.572 112.227 102.084 112.44C102.602 112.648 103.018 112.941 103.332 113.32C103.647 113.699 103.834 114.139 103.892 114.64L102.692 114.856C102.612 114.349 102.359 113.949 101.932 113.656C101.511 113.357 100.975 113.203 100.324 113.192C99.7109 113.176 99.2123 113.293 98.8283 113.544C98.4443 113.789 98.2523 114.117 98.2523 114.528C98.2523 114.757 98.3216 114.955 98.4603 115.12C98.5989 115.28 98.8496 115.432 99.2123 115.576C99.5803 115.72 100.103 115.877 100.78 116.048C101.575 116.251 102.199 116.464 102.652 116.688C103.106 116.912 103.428 117.176 103.62 117.48C103.812 117.784 103.908 118.16 103.908 118.608C103.908 119.424 103.604 120.067 102.996 120.536C102.394 121 101.562 121.232 100.5 121.232ZM112.47 121.24C111.6 121.24 110.864 121.045 110.262 120.656C109.659 120.267 109.2 119.731 108.886 119.048C108.576 118.36 108.416 117.571 108.406 116.68C108.416 115.773 108.582 114.979 108.902 114.296C109.222 113.608 109.683 113.075 110.286 112.696C110.888 112.312 111.619 112.12 112.478 112.12C113.352 112.12 114.112 112.333 114.758 112.76C115.408 113.187 115.854 113.771 116.094 114.512L114.942 114.88C114.739 114.363 114.416 113.963 113.974 113.68C113.536 113.392 113.035 113.248 112.47 113.248C111.835 113.248 111.31 113.395 110.894 113.688C110.478 113.976 110.168 114.379 109.966 114.896C109.763 115.413 109.659 116.008 109.654 116.68C109.664 117.715 109.904 118.547 110.374 119.176C110.843 119.8 111.542 120.112 112.47 120.112C113.056 120.112 113.555 119.979 113.966 119.712C114.382 119.44 114.696 119.045 114.91 118.528L116.094 118.88C115.774 119.648 115.304 120.235 114.686 120.64C114.067 121.04 113.328 121.24 112.47 121.24ZM121.119 121.24C120.26 121.24 119.527 121.045 118.919 120.656C118.311 120.267 117.844 119.728 117.519 119.04C117.193 118.352 117.031 117.563 117.031 116.672C117.031 115.765 117.196 114.971 117.527 114.288C117.857 113.605 118.327 113.075 118.935 112.696C119.548 112.312 120.276 112.12 121.119 112.12C121.983 112.12 122.719 112.315 123.327 112.704C123.94 113.088 124.407 113.624 124.727 114.312C125.052 114.995 125.215 115.781 125.215 116.672C125.215 117.579 125.052 118.376 124.727 119.064C124.401 119.747 123.932 120.28 123.319 120.664C122.705 121.048 121.972 121.24 121.119 121.24ZM121.119 120.112C122.079 120.112 122.793 119.795 123.263 119.16C123.732 118.52 123.967 117.691 123.967 116.672C123.967 115.627 123.729 114.795 123.255 114.176C122.785 113.557 122.073 113.248 121.119 113.248C120.473 113.248 119.94 113.395 119.519 113.688C119.103 113.976 118.791 114.379 118.583 114.896C118.38 115.408 118.279 116 118.279 116.672C118.279 117.712 118.519 118.547 118.999 119.176C119.479 119.8 120.185 120.112 121.119 120.112ZM133.219 121V116.592C133.219 116.112 133.174 115.672 133.083 115.272C132.993 114.867 132.846 114.515 132.643 114.216C132.446 113.912 132.187 113.677 131.867 113.512C131.553 113.347 131.169 113.264 130.715 113.264C130.299 113.264 129.931 113.336 129.611 113.48C129.297 113.624 129.03 113.832 128.811 114.104C128.598 114.371 128.435 114.696 128.323 115.08C128.211 115.464 128.155 115.901 128.155 116.392L127.323 116.208C127.323 115.323 127.478 114.579 127.787 113.976C128.097 113.373 128.523 112.917 129.067 112.608C129.611 112.299 130.235 112.144 130.939 112.144C131.457 112.144 131.907 112.224 132.291 112.384C132.681 112.544 133.009 112.76 133.275 113.032C133.547 113.304 133.766 113.616 133.931 113.968C134.097 114.315 134.217 114.685 134.291 115.08C134.366 115.469 134.403 115.859 134.403 116.248V121H133.219ZM126.971 121V112.36H128.035V114.488H128.155V121H126.971ZM139.703 121.232C138.69 121.232 137.855 121.013 137.199 120.576C136.549 120.139 136.149 119.531 135.999 118.752L137.199 118.552C137.327 119.043 137.618 119.435 138.071 119.728C138.53 120.016 139.095 120.16 139.767 120.16C140.423 120.16 140.941 120.024 141.319 119.752C141.698 119.475 141.887 119.099 141.887 118.624C141.887 118.357 141.826 118.141 141.703 117.976C141.586 117.805 141.343 117.648 140.975 117.504C140.607 117.36 140.058 117.189 139.327 116.992C138.543 116.779 137.93 116.565 137.487 116.352C137.045 116.139 136.73 115.893 136.543 115.616C136.357 115.333 136.263 114.989 136.263 114.584C136.263 114.093 136.402 113.664 136.679 113.296C136.957 112.923 137.341 112.635 137.831 112.432C138.322 112.224 138.893 112.12 139.543 112.12C140.194 112.12 140.775 112.227 141.287 112.44C141.805 112.648 142.221 112.941 142.535 113.32C142.85 113.699 143.037 114.139 143.095 114.64L141.895 114.856C141.815 114.349 141.562 113.949 141.135 113.656C140.714 113.357 140.178 113.203 139.527 113.192C138.914 113.176 138.415 113.293 138.031 113.544C137.647 113.789 137.455 114.117 137.455 114.528C137.455 114.757 137.525 114.955 137.663 115.12C137.802 115.28 138.053 115.432 138.415 115.576C138.783 115.72 139.306 115.877 139.983 116.048C140.778 116.251 141.402 116.464 141.855 116.688C142.309 116.912 142.631 117.176 142.823 117.48C143.015 117.784 143.111 118.16 143.111 118.608C143.111 119.424 142.807 120.067 142.199 120.536C141.597 121 140.765 121.232 139.703 121.232ZM148.542 121.24C147.699 121.24 146.968 121.053 146.35 120.68C145.736 120.307 145.259 119.781 144.918 119.104C144.576 118.427 144.406 117.632 144.406 116.72C144.406 115.776 144.574 114.96 144.91 114.272C145.246 113.584 145.718 113.053 146.326 112.68C146.939 112.307 147.662 112.12 148.494 112.12C149.347 112.12 150.075 112.317 150.678 112.712C151.28 113.101 151.736 113.661 152.046 114.392C152.355 115.123 152.496 115.995 152.47 117.008H151.27V116.592C151.248 115.472 151.006 114.627 150.542 114.056C150.083 113.485 149.411 113.2 148.526 113.2C147.598 113.2 146.886 113.501 146.39 114.104C145.899 114.707 145.654 115.565 145.654 116.68C145.654 117.768 145.899 118.613 146.39 119.216C146.886 119.813 147.587 120.112 148.494 120.112C149.112 120.112 149.651 119.971 150.11 119.688C150.574 119.4 150.939 118.987 151.206 118.448L152.302 118.872C151.96 119.624 151.456 120.208 150.79 120.624C150.128 121.035 149.379 121.24 148.542 121.24ZM145.238 117.008V116.024H151.838V117.008H145.238ZM157.597 121.24C156.792 121.24 156.104 121.04 155.533 120.64C154.962 120.235 154.525 119.688 154.221 119C153.917 118.312 153.765 117.536 153.765 116.672C153.765 115.813 153.914 115.04 154.213 114.352C154.517 113.664 154.952 113.12 155.517 112.72C156.082 112.32 156.76 112.12 157.549 112.12C158.36 112.12 159.042 112.317 159.597 112.712C160.152 113.107 160.57 113.648 160.853 114.336C161.141 115.019 161.285 115.797 161.285 116.672C161.285 117.531 161.144 118.307 160.861 119C160.578 119.688 160.162 120.235 159.613 120.64C159.064 121.04 158.392 121.24 157.597 121.24ZM157.717 120.144C158.33 120.144 158.837 119.995 159.237 119.696C159.637 119.397 159.936 118.987 160.133 118.464C160.33 117.936 160.429 117.339 160.429 116.672C160.429 115.995 160.33 115.397 160.133 114.88C159.936 114.357 159.637 113.949 159.237 113.656C158.842 113.363 158.344 113.216 157.741 113.216C157.122 113.216 156.61 113.368 156.205 113.672C155.8 113.976 155.498 114.389 155.301 114.912C155.109 115.435 155.013 116.021 155.013 116.672C155.013 117.328 155.112 117.92 155.309 118.448C155.512 118.971 155.813 119.384 156.213 119.688C156.613 119.992 157.114 120.144 157.717 120.144ZM160.301 124.84V118.864H160.429V112.36H161.485V124.84H160.301ZM167.033 121.216C166.516 121.216 166.063 121.136 165.673 120.976C165.289 120.816 164.961 120.6 164.689 120.328C164.423 120.056 164.207 119.747 164.041 119.4C163.876 119.048 163.756 118.677 163.681 118.288C163.607 117.893 163.569 117.501 163.569 117.112V112.36H164.753V116.768C164.753 117.243 164.799 117.683 164.889 118.088C164.98 118.493 165.124 118.848 165.321 119.152C165.524 119.451 165.783 119.683 166.097 119.848C166.417 120.013 166.804 120.096 167.257 120.096C167.673 120.096 168.039 120.024 168.353 119.88C168.673 119.736 168.94 119.531 169.153 119.264C169.372 118.992 169.537 118.664 169.649 118.28C169.761 117.891 169.817 117.453 169.817 116.968L170.649 117.152C170.649 118.037 170.495 118.781 170.185 119.384C169.876 119.987 169.449 120.443 168.905 120.752C168.361 121.061 167.737 121.216 167.033 121.216ZM169.937 121V118.872H169.817V112.36H170.993V121H169.937ZM175.701 121.24C175.051 121.24 174.504 121.123 174.061 120.888C173.624 120.653 173.296 120.341 173.077 119.952C172.859 119.563 172.749 119.139 172.749 118.68C172.749 118.211 172.843 117.811 173.029 117.48C173.221 117.144 173.48 116.869 173.805 116.656C174.136 116.443 174.517 116.28 174.949 116.168C175.387 116.061 175.869 115.968 176.397 115.888C176.931 115.803 177.451 115.731 177.957 115.672C178.469 115.608 178.917 115.547 179.301 115.488L178.885 115.744C178.901 114.891 178.736 114.259 178.389 113.848C178.043 113.437 177.44 113.232 176.581 113.232C175.989 113.232 175.488 113.365 175.077 113.632C174.672 113.899 174.387 114.32 174.221 114.896L173.077 114.56C173.275 113.787 173.672 113.187 174.269 112.76C174.867 112.333 175.643 112.12 176.597 112.12C177.387 112.12 178.056 112.269 178.605 112.568C179.16 112.861 179.552 113.288 179.781 113.848C179.888 114.099 179.957 114.379 179.989 114.688C180.021 114.997 180.037 115.312 180.037 115.632V121H178.989V118.832L179.293 118.96C179 119.701 178.544 120.267 177.925 120.656C177.307 121.045 176.565 121.24 175.701 121.24ZM175.837 120.224C176.387 120.224 176.867 120.125 177.277 119.928C177.688 119.731 178.019 119.461 178.269 119.12C178.52 118.773 178.683 118.384 178.757 117.952C178.821 117.675 178.856 117.371 178.861 117.04C178.867 116.704 178.869 116.453 178.869 116.288L179.317 116.52C178.917 116.573 178.483 116.627 178.013 116.68C177.549 116.733 177.091 116.795 176.637 116.864C176.189 116.933 175.784 117.016 175.421 117.112C175.176 117.181 174.939 117.28 174.709 117.408C174.48 117.531 174.291 117.696 174.141 117.904C173.997 118.112 173.925 118.371 173.925 118.68C173.925 118.931 173.987 119.173 174.109 119.408C174.237 119.643 174.44 119.837 174.717 119.992C175 120.147 175.373 120.224 175.837 120.224ZM186.824 121C186.339 121.101 185.859 121.141 185.384 121.12C184.915 121.099 184.493 120.997 184.12 120.816C183.752 120.635 183.472 120.352 183.28 119.968C183.125 119.648 183.04 119.325 183.024 119C183.013 118.669 183.008 118.293 183.008 117.872V109.96H184.176V117.824C184.176 118.187 184.179 118.491 184.184 118.736C184.195 118.976 184.251 119.189 184.352 119.376C184.544 119.733 184.848 119.947 185.264 120.016C185.685 120.085 186.205 120.069 186.824 119.968V121ZM181.16 113.368V112.36H186.824V113.368H181.16ZM195.337 121.24C194.479 121.24 193.745 121.045 193.137 120.656C192.529 120.267 192.063 119.728 191.737 119.04C191.412 118.352 191.249 117.563 191.249 116.672C191.249 115.765 191.415 114.971 191.745 114.288C192.076 113.605 192.545 113.075 193.153 112.696C193.767 112.312 194.495 112.12 195.337 112.12C196.201 112.12 196.937 112.315 197.545 112.704C198.159 113.088 198.625 113.624 198.945 114.312C199.271 114.995 199.433 115.781 199.433 116.672C199.433 117.579 199.271 118.376 198.945 119.064C198.62 119.747 198.151 120.28 197.537 120.664C196.924 121.048 196.191 121.24 195.337 121.24ZM195.337 120.112C196.297 120.112 197.012 119.795 197.481 119.16C197.951 118.52 198.185 117.691 198.185 116.672C198.185 115.627 197.948 114.795 197.473 114.176C197.004 113.557 196.292 113.248 195.337 113.248C194.692 113.248 194.159 113.395 193.737 113.688C193.321 113.976 193.009 114.379 192.801 114.896C192.599 115.408 192.497 116 192.497 116.672C192.497 117.712 192.737 118.547 193.217 119.176C193.697 119.8 194.404 120.112 195.337 120.112ZM204.55 121.24C203.745 121.24 203.057 121.04 202.486 120.64C201.915 120.235 201.478 119.688 201.174 119C200.87 118.312 200.718 117.536 200.718 116.672C200.718 115.813 200.867 115.04 201.166 114.352C201.47 113.664 201.905 113.12 202.47 112.72C203.035 112.32 203.713 112.12 204.502 112.12C205.313 112.12 205.995 112.317 206.55 112.712C207.105 113.107 207.523 113.648 207.806 114.336C208.094 115.019 208.238 115.797 208.238 116.672C208.238 117.531 208.097 118.307 207.814 119C207.531 119.688 207.115 120.235 206.566 120.64C206.017 121.04 205.345 121.24 204.55 121.24ZM204.67 120.144C205.283 120.144 205.79 119.995 206.19 119.696C206.59 119.397 206.889 118.987 207.086 118.464C207.283 117.936 207.382 117.339 207.382 116.672C207.382 115.995 207.283 115.397 207.086 114.88C206.889 114.357 206.59 113.949 206.19 113.656C205.795 113.363 205.297 113.216 204.694 113.216C204.075 113.216 203.563 113.368 203.158 113.672C202.753 113.976 202.451 114.389 202.254 114.912C202.062 115.435 201.966 116.021 201.966 116.672C201.966 117.328 202.065 117.92 202.262 118.448C202.465 118.971 202.766 119.384 203.166 119.688C203.566 119.992 204.067 120.144 204.67 120.144ZM207.382 121V114.496H207.254V109.48H208.438V121H207.382ZM210.843 110.72V109.4H212.019V110.72H210.843ZM210.843 121V112.36H212.019V121H210.843ZM218.025 121.24C217.166 121.24 216.433 121.045 215.825 120.656C215.217 120.267 214.75 119.728 214.425 119.04C214.1 118.352 213.937 117.563 213.937 116.672C213.937 115.765 214.102 114.971 214.433 114.288C214.764 113.605 215.233 113.075 215.841 112.696C216.454 112.312 217.182 112.12 218.025 112.12C218.889 112.12 219.625 112.315 220.233 112.704C220.846 113.088 221.313 113.624 221.633 114.312C221.958 114.995 222.121 115.781 222.121 116.672C222.121 117.579 221.958 118.376 221.633 119.064C221.308 119.747 220.838 120.28 220.225 120.664C219.612 121.048 218.878 121.24 218.025 121.24ZM218.025 120.112C218.985 120.112 219.7 119.795 220.169 119.16C220.638 118.52 220.873 117.691 220.873 116.672C220.873 115.627 220.636 114.795 220.161 114.176C219.692 113.557 218.98 113.248 218.025 113.248C217.38 113.248 216.846 113.395 216.425 113.688C216.009 113.976 215.697 114.379 215.489 114.896C215.286 115.408 215.185 116 215.185 116.672C215.185 117.712 215.425 118.547 215.905 119.176C216.385 119.8 217.092 120.112 218.025 120.112ZM230.441 121.24C229.635 121.24 228.947 121.04 228.377 120.64C227.806 120.235 227.369 119.688 227.065 119C226.761 118.312 226.609 117.536 226.609 116.672C226.609 115.813 226.758 115.04 227.057 114.352C227.361 113.664 227.795 113.12 228.361 112.72C228.926 112.32 229.603 112.12 230.393 112.12C231.203 112.12 231.886 112.317 232.441 112.712C232.995 113.107 233.414 113.648 233.697 114.336C233.985 115.019 234.129 115.797 234.129 116.672C234.129 117.531 233.987 118.307 233.705 119C233.422 119.688 233.006 120.235 232.457 120.64C231.907 121.04 231.235 121.24 230.441 121.24ZM230.561 120.144C231.174 120.144 231.681 119.995 232.081 119.696C232.481 119.397 232.779 118.987 232.977 118.464C233.174 117.936 233.273 117.339 233.273 116.672C233.273 115.995 233.174 115.397 232.977 114.88C232.779 114.357 232.481 113.949 232.081 113.656C231.686 113.363 231.187 113.216 230.585 113.216C229.966 113.216 229.454 113.368 229.049 113.672C228.643 113.976 228.342 114.389 228.145 114.912C227.953 115.435 227.857 116.021 227.857 116.672C227.857 117.328 227.955 117.92 228.153 118.448C228.355 118.971 228.657 119.384 229.057 119.688C229.457 119.992 229.958 120.144 230.561 120.144ZM233.273 121V114.496H233.145V109.48H234.329V121H233.273ZM236.733 110.72V109.4H237.909V110.72H236.733ZM236.733 121V112.36H237.909V121H236.733ZM242.78 121.24C242.129 121.24 241.582 121.123 241.14 120.888C240.702 120.653 240.374 120.341 240.156 119.952C239.937 119.563 239.828 119.139 239.828 118.68C239.828 118.211 239.921 117.811 240.108 117.48C240.3 117.144 240.558 116.869 240.884 116.656C241.214 116.443 241.596 116.28 242.028 116.168C242.465 116.061 242.948 115.968 243.476 115.888C244.009 115.803 244.529 115.731 245.036 115.672C245.548 115.608 245.996 115.547 246.38 115.488L245.964 115.744C245.98 114.891 245.814 114.259 245.468 113.848C245.121 113.437 244.518 113.232 243.66 113.232C243.068 113.232 242.566 113.365 242.156 113.632C241.75 113.899 241.465 114.32 241.299 114.896L240.156 114.56C240.353 113.787 240.75 113.187 241.348 112.76C241.945 112.333 242.721 112.12 243.676 112.12C244.465 112.12 245.134 112.269 245.684 112.568C246.238 112.861 246.63 113.288 246.86 113.848C246.966 114.099 247.036 114.379 247.068 114.688C247.1 114.997 247.116 115.312 247.116 115.632V121H246.068V118.832L246.372 118.96C246.078 119.701 245.622 120.267 245.004 120.656C244.385 121.045 243.644 121.24 242.78 121.24ZM242.916 120.224C243.465 120.224 243.945 120.125 244.356 119.928C244.766 119.731 245.097 119.461 245.348 119.12C245.598 118.773 245.761 118.384 245.836 117.952C245.9 117.675 245.934 117.371 245.94 117.04C245.945 116.704 245.948 116.453 245.948 116.288L246.396 116.52C245.996 116.573 245.561 116.627 245.092 116.68C244.628 116.733 244.169 116.795 243.716 116.864C243.268 116.933 242.862 117.016 242.5 117.112C242.254 117.181 242.017 117.28 241.788 117.408C241.558 117.531 241.369 117.696 241.22 117.904C241.076 118.112 241.004 118.371 241.004 118.68C241.004 118.931 241.065 119.173 241.188 119.408C241.316 119.643 241.518 119.837 241.796 119.992C242.078 120.147 242.452 120.224 242.916 120.224ZM259.502 121L259.51 115.328C259.51 114.661 259.323 114.139 258.95 113.76C258.582 113.376 258.113 113.184 257.542 113.184C257.217 113.184 256.899 113.259 256.59 113.408C256.281 113.557 256.025 113.797 255.822 114.128C255.625 114.459 255.526 114.891 255.526 115.424L254.83 115.224C254.814 114.605 254.934 114.064 255.19 113.6C255.451 113.136 255.809 112.776 256.262 112.52C256.721 112.259 257.238 112.128 257.814 112.128C258.683 112.128 259.379 112.397 259.902 112.936C260.425 113.469 260.686 114.192 260.686 115.104L260.678 121H259.502ZM249.19 121V112.36H250.246V114.488H250.374V121H249.19ZM254.358 121L254.366 115.408C254.366 114.72 254.182 114.179 253.814 113.784C253.451 113.384 252.971 113.184 252.374 113.184C251.777 113.184 251.294 113.389 250.926 113.8C250.558 114.205 250.374 114.747 250.374 115.424L249.67 115.04C249.67 114.485 249.801 113.989 250.062 113.552C250.323 113.109 250.681 112.763 251.134 112.512C251.587 112.256 252.102 112.128 252.678 112.128C253.227 112.128 253.715 112.245 254.142 112.48C254.574 112.715 254.913 113.056 255.158 113.504C255.403 113.952 255.526 114.496 255.526 115.136L255.518 121H254.358ZM25.28 147V135.24H26.456V147H25.28ZM32.5104 147.24C31.6677 147.24 30.937 147.053 30.3184 146.68C29.705 146.307 29.2277 145.781 28.8864 145.104C28.545 144.427 28.3744 143.632 28.3744 142.72C28.3744 141.776 28.5424 140.96 28.8784 140.272C29.2144 139.584 29.6864 139.053 30.2944 138.68C30.9077 138.307 31.6304 138.12 32.4624 138.12C33.3157 138.12 34.0437 138.317 34.6464 138.712C35.249 139.101 35.705 139.661 36.0144 140.392C36.3237 141.123 36.465 141.995 36.4384 143.008H35.2384V142.592C35.217 141.472 34.9744 140.627 34.5104 140.056C34.0517 139.485 33.3797 139.2 32.4944 139.2C31.5664 139.2 30.8544 139.501 30.3584 140.104C29.8677 140.707 29.6224 141.565 29.6224 142.68C29.6224 143.768 29.8677 144.613 30.3584 145.216C30.8544 145.813 31.5557 146.112 32.4624 146.112C33.081 146.112 33.6197 145.971 34.0784 145.688C34.5424 145.4 34.9077 144.987 35.1744 144.448L36.2704 144.872C35.929 145.624 35.425 146.208 34.7584 146.624C34.097 147.035 33.3477 147.24 32.5104 147.24ZM29.2064 143.008V142.024H35.8064V143.008H29.2064ZM41.7977 147.24C40.9284 147.24 40.1924 147.045 39.5898 146.656C38.9871 146.267 38.5284 145.731 38.2138 145.048C37.9044 144.36 37.7444 143.571 37.7338 142.68C37.7444 141.773 37.9098 140.979 38.2298 140.296C38.5498 139.608 39.0111 139.075 39.6138 138.696C40.2164 138.312 40.9471 138.12 41.8058 138.12C42.6804 138.12 43.4404 138.333 44.0858 138.76C44.7364 139.187 45.1818 139.771 45.4218 140.512L44.2698 140.88C44.0671 140.363 43.7444 139.963 43.3018 139.68C42.8644 139.392 42.3631 139.248 41.7977 139.248C41.1631 139.248 40.6378 139.395 40.2218 139.688C39.8058 139.976 39.4964 140.379 39.2938 140.896C39.0911 141.413 38.9871 142.008 38.9818 142.68C38.9924 143.715 39.2324 144.547 39.7018 145.176C40.1711 145.8 40.8698 146.112 41.7977 146.112C42.3844 146.112 42.8831 145.979 43.2938 145.712C43.7098 145.44 44.0244 145.045 44.2378 144.528L45.4218 144.88C45.1018 145.648 44.6324 146.235 44.0138 146.64C43.3951 147.04 42.6564 147.24 41.7977 147.24ZM51.7771 147C51.2918 147.101 50.8118 147.141 50.3371 147.12C49.8678 147.099 49.4465 146.997 49.0731 146.816C48.7051 146.635 48.4251 146.352 48.2331 145.968C48.0785 145.648 47.9931 145.325 47.9771 145C47.9665 144.669 47.9611 144.293 47.9611 143.872V135.96H49.1291V143.824C49.1291 144.187 49.1318 144.491 49.1371 144.736C49.1478 144.976 49.2038 145.189 49.3051 145.376C49.4971 145.733 49.8011 145.947 50.2171 146.016C50.6385 146.085 51.1585 146.069 51.7771 145.968V147ZM46.1131 139.368V138.36H51.7771V139.368H46.1131ZM56.7834 147.216C56.266 147.216 55.8127 147.136 55.4234 146.976C55.0394 146.816 54.7114 146.6 54.4394 146.328C54.1727 146.056 53.9567 145.747 53.7914 145.4C53.626 145.048 53.506 144.677 53.4314 144.288C53.3567 143.893 53.3194 143.501 53.3194 143.112V138.36H54.5034V142.768C54.5034 143.243 54.5487 143.683 54.6394 144.088C54.73 144.493 54.874 144.848 55.0714 145.152C55.274 145.451 55.5327 145.683 55.8474 145.848C56.1674 146.013 56.554 146.096 57.0074 146.096C57.4234 146.096 57.7887 146.024 58.1034 145.88C58.4234 145.736 58.69 145.531 58.9034 145.264C59.122 144.992 59.2874 144.664 59.3994 144.28C59.5114 143.891 59.5674 143.453 59.5674 142.968L60.3994 143.152C60.3994 144.037 60.2447 144.781 59.9354 145.384C59.626 145.987 59.1994 146.443 58.6554 146.752C58.1114 147.061 57.4874 147.216 56.7834 147.216ZM59.6874 147V144.872H59.5674V138.36H60.7434V147H59.6874ZM66.2034 147.232C65.19 147.232 64.3554 147.013 63.6994 146.576C63.0487 146.139 62.6487 145.531 62.4994 144.752L63.6994 144.552C63.8274 145.043 64.118 145.435 64.5714 145.728C65.03 146.016 65.5954 146.16 66.2674 146.16C66.9234 146.16 67.4407 146.024 67.8194 145.752C68.198 145.475 68.3874 145.099 68.3874 144.624C68.3874 144.357 68.326 144.141 68.2034 143.976C68.086 143.805 67.8434 143.648 67.4754 143.504C67.1074 143.36 66.558 143.189 65.8274 142.992C65.0434 142.779 64.43 142.565 63.9874 142.352C63.5447 142.139 63.23 141.893 63.0434 141.616C62.8567 141.333 62.7634 140.989 62.7634 140.584C62.7634 140.093 62.902 139.664 63.1794 139.296C63.4567 138.923 63.8407 138.635 64.3314 138.432C64.822 138.224 65.3927 138.12 66.0434 138.12C66.694 138.12 67.2754 138.227 67.7874 138.44C68.3047 138.648 68.7207 138.941 69.0354 139.32C69.35 139.699 69.5367 140.139 69.5954 140.64L68.3954 140.856C68.3154 140.349 68.062 139.949 67.6354 139.656C67.214 139.357 66.678 139.203 66.0274 139.192C65.414 139.176 64.9154 139.293 64.5314 139.544C64.1474 139.789 63.9554 140.117 63.9554 140.528C63.9554 140.757 64.0247 140.955 64.1634 141.12C64.302 141.28 64.5527 141.432 64.9154 141.576C65.2834 141.72 65.806 141.877 66.4834 142.048C67.278 142.251 67.902 142.464 68.3554 142.688C68.8087 142.912 69.1314 143.176 69.3234 143.48C69.5154 143.784 69.6114 144.16 69.6114 144.608C69.6114 145.424 69.3074 146.067 68.6994 146.536C68.0967 147 67.2647 147.232 66.2034 147.232ZM78.2448 147.24C77.4021 147.24 76.6714 147.053 76.0528 146.68C75.4394 146.307 74.9621 145.781 74.6208 145.104C74.2794 144.427 74.1088 143.632 74.1088 142.72C74.1088 141.776 74.2768 140.96 74.6128 140.272C74.9488 139.584 75.4208 139.053 76.0288 138.68C76.6421 138.307 77.3648 138.12 78.1968 138.12C79.0501 138.12 79.7781 138.317 80.3808 138.712C80.9834 139.101 81.4394 139.661 81.7488 140.392C82.0581 141.123 82.1994 141.995 82.1728 143.008H80.9728V142.592C80.9514 141.472 80.7088 140.627 80.2448 140.056C79.7861 139.485 79.1141 139.2 78.2288 139.2C77.3008 139.2 76.5888 139.501 76.0928 140.104C75.6021 140.707 75.3568 141.565 75.3568 142.68C75.3568 143.768 75.6021 144.613 76.0928 145.216C76.5888 145.813 77.2901 146.112 78.1968 146.112C78.8154 146.112 79.3541 145.971 79.8128 145.688C80.2768 145.4 80.6421 144.987 80.9088 144.448L82.0048 144.872C81.6634 145.624 81.1594 146.208 80.4928 146.624C79.8314 147.035 79.0821 147.24 78.2448 147.24ZM74.9408 143.008V142.024H81.5408V143.008H74.9408ZM84.1081 147V135.24H85.2841V147H84.1081ZM91.3385 147.24C90.4958 147.24 89.7652 147.053 89.1465 146.68C88.5332 146.307 88.0558 145.781 87.7145 145.104C87.3732 144.427 87.2025 143.632 87.2025 142.72C87.2025 141.776 87.3705 140.96 87.7065 140.272C88.0425 139.584 88.5145 139.053 89.1225 138.68C89.7358 138.307 90.4585 138.12 91.2905 138.12C92.1438 138.12 92.8718 138.317 93.4745 138.712C94.0772 139.101 94.5332 139.661 94.8425 140.392C95.1518 141.123 95.2932 141.995 95.2665 143.008H94.0665V142.592C94.0452 141.472 93.8025 140.627 93.3385 140.056C92.8798 139.485 92.2078 139.2 91.3225 139.2C90.3945 139.2 89.6825 139.501 89.1865 140.104C88.6958 140.707 88.4505 141.565 88.4505 142.68C88.4505 143.768 88.6958 144.613 89.1865 145.216C89.6825 145.813 90.3838 146.112 91.2905 146.112C91.9092 146.112 92.4478 145.971 92.9065 145.688C93.3705 145.4 93.7358 144.987 94.0025 144.448L95.0985 144.872C94.7572 145.624 94.2532 146.208 93.5865 146.624C92.9252 147.035 92.1758 147.24 91.3385 147.24ZM88.0345 143.008V142.024H94.6345V143.008H88.0345ZM107.112 147L107.12 141.328C107.12 140.661 106.933 140.139 106.56 139.76C106.192 139.376 105.722 139.184 105.152 139.184C104.826 139.184 104.509 139.259 104.2 139.408C103.89 139.557 103.634 139.797 103.432 140.128C103.234 140.459 103.136 140.891 103.136 141.424L102.44 141.224C102.424 140.605 102.544 140.064 102.8 139.6C103.061 139.136 103.418 138.776 103.872 138.52C104.33 138.259 104.848 138.128 105.424 138.128C106.293 138.128 106.989 138.397 107.512 138.936C108.034 139.469 108.296 140.192 108.296 141.104L108.288 147H107.112ZM96.7995 147V138.36H97.8555V140.488H97.9835V147H96.7995ZM101.968 147L101.976 141.408C101.976 140.72 101.792 140.179 101.424 139.784C101.061 139.384 100.581 139.184 99.9835 139.184C99.3862 139.184 98.9035 139.389 98.5355 139.8C98.1675 140.205 97.9835 140.747 97.9835 141.424L97.2795 141.04C97.2795 140.485 97.4102 139.989 97.6715 139.552C97.9328 139.109 98.2902 138.763 98.7435 138.512C99.1968 138.256 99.7115 138.128 100.288 138.128C100.837 138.128 101.325 138.245 101.752 138.48C102.184 138.715 102.522 139.056 102.768 139.504C103.013 139.952 103.136 140.496 103.136 141.136L103.128 147H101.968ZM113.979 147.24C113.136 147.24 112.406 147.053 111.787 146.68C111.174 146.307 110.696 145.781 110.355 145.104C110.014 144.427 109.843 143.632 109.843 142.72C109.843 141.776 110.011 140.96 110.347 140.272C110.683 139.584 111.155 139.053 111.763 138.68C112.376 138.307 113.099 138.12 113.931 138.12C114.784 138.12 115.512 138.317 116.115 138.712C116.718 139.101 117.174 139.661 117.483 140.392C117.792 141.123 117.934 141.995 117.907 143.008H116.707V142.592C116.686 141.472 116.443 140.627 115.979 140.056C115.52 139.485 114.848 139.2 113.963 139.2C113.035 139.2 112.323 139.501 111.827 140.104C111.336 140.707 111.091 141.565 111.091 142.68C111.091 143.768 111.336 144.613 111.827 145.216C112.323 145.813 113.024 146.112 113.931 146.112C114.55 146.112 115.088 145.971 115.547 145.688C116.011 145.4 116.376 144.987 116.643 144.448L117.739 144.872C117.398 145.624 116.894 146.208 116.227 146.624C115.566 147.035 114.816 147.24 113.979 147.24ZM110.675 143.008V142.024H117.275V143.008H110.675ZM125.688 147V142.592C125.688 142.112 125.643 141.672 125.552 141.272C125.461 140.867 125.315 140.515 125.112 140.216C124.915 139.912 124.656 139.677 124.336 139.512C124.021 139.347 123.637 139.264 123.184 139.264C122.768 139.264 122.4 139.336 122.08 139.48C121.765 139.624 121.499 139.832 121.28 140.104C121.067 140.371 120.904 140.696 120.792 141.08C120.68 141.464 120.624 141.901 120.624 142.392L119.792 142.208C119.792 141.323 119.947 140.579 120.256 139.976C120.565 139.373 120.992 138.917 121.536 138.608C122.08 138.299 122.704 138.144 123.408 138.144C123.925 138.144 124.376 138.224 124.76 138.384C125.149 138.544 125.477 138.76 125.744 139.032C126.016 139.304 126.235 139.616 126.4 139.968C126.565 140.315 126.685 140.685 126.76 141.08C126.835 141.469 126.872 141.859 126.872 142.248V147H125.688ZM119.44 147V138.36H120.504V140.488H120.624V147H119.44ZM133.652 147C133.167 147.101 132.687 147.141 132.212 147.12C131.743 147.099 131.321 146.997 130.948 146.816C130.58 146.635 130.3 146.352 130.108 145.968C129.953 145.648 129.868 145.325 129.852 145C129.841 144.669 129.836 144.293 129.836 143.872V135.96H131.004V143.824C131.004 144.187 131.007 144.491 131.012 144.736C131.023 144.976 131.079 145.189 131.18 145.376C131.372 145.733 131.676 145.947 132.092 146.016C132.513 146.085 133.033 146.069 133.652 145.968V147ZM127.988 139.368V138.36H133.652V139.368H127.988ZM138.658 147.216C138.141 147.216 137.688 147.136 137.298 146.976C136.914 146.816 136.586 146.6 136.314 146.328C136.048 146.056 135.832 145.747 135.666 145.4C135.501 145.048 135.381 144.677 135.306 144.288C135.232 143.893 135.194 143.501 135.194 143.112V138.36H136.378V142.768C136.378 143.243 136.424 143.683 136.514 144.088C136.605 144.493 136.749 144.848 136.946 145.152C137.149 145.451 137.408 145.683 137.722 145.848C138.042 146.013 138.429 146.096 138.882 146.096C139.298 146.096 139.664 146.024 139.978 145.88C140.298 145.736 140.565 145.531 140.778 145.264C140.997 144.992 141.162 144.664 141.274 144.28C141.386 143.891 141.442 143.453 141.442 142.968L142.274 143.152C142.274 144.037 142.12 144.781 141.81 145.384C141.501 145.987 141.074 146.443 140.53 146.752C139.986 147.061 139.362 147.216 138.658 147.216ZM141.562 147V144.872H141.442V138.36H142.618V147H141.562ZM155.158 147L155.166 141.328C155.166 140.661 154.98 140.139 154.606 139.76C154.238 139.376 153.769 139.184 153.198 139.184C152.873 139.184 152.556 139.259 152.246 139.408C151.937 139.557 151.681 139.797 151.478 140.128C151.281 140.459 151.182 140.891 151.182 141.424L150.486 141.224C150.47 140.605 150.59 140.064 150.846 139.6C151.108 139.136 151.465 138.776 151.918 138.52C152.377 138.259 152.894 138.128 153.47 138.128C154.34 138.128 155.036 138.397 155.558 138.936C156.081 139.469 156.342 140.192 156.342 141.104L156.334 147H155.158ZM144.846 147V138.36H145.902V140.488H146.03V147H144.846ZM150.014 147L150.022 141.408C150.022 140.72 149.838 140.179 149.47 139.784C149.108 139.384 148.628 139.184 148.03 139.184C147.433 139.184 146.95 139.389 146.582 139.8C146.214 140.205 146.03 140.747 146.03 141.424L145.326 141.04C145.326 140.485 145.457 139.989 145.718 139.552C145.98 139.109 146.337 138.763 146.79 138.512C147.244 138.256 147.758 138.128 148.334 138.128C148.884 138.128 149.372 138.245 149.798 138.48C150.23 138.715 150.569 139.056 150.814 139.504C151.06 139.952 151.182 140.496 151.182 141.136L151.174 147H150.014ZM158.641 147V145.632H160.009V147H158.641ZM165.683 147V135.48H172.883V136.608H166.859V140.592H171.923V141.72H166.859V145.872H172.883V147H165.683ZM178.032 147.232C177.018 147.232 176.184 147.013 175.528 146.576C174.877 146.139 174.477 145.531 174.328 144.752L175.528 144.552C175.656 145.043 175.946 145.435 176.4 145.728C176.858 146.016 177.424 146.16 178.095 146.16C178.752 146.16 179.269 146.024 179.648 145.752C180.026 145.475 180.216 145.099 180.216 144.624C180.216 144.357 180.154 144.141 180.032 143.976C179.914 143.805 179.672 143.648 179.304 143.504C178.936 143.36 178.386 143.189 177.656 142.992C176.872 142.779 176.258 142.565 175.816 142.352C175.373 142.139 175.058 141.893 174.872 141.616C174.685 141.333 174.592 140.989 174.592 140.584C174.592 140.093 174.73 139.664 175.008 139.296C175.285 138.923 175.669 138.635 176.16 138.432C176.65 138.224 177.221 138.12 177.872 138.12C178.522 138.12 179.104 138.227 179.616 138.44C180.133 138.648 180.549 138.941 180.864 139.32C181.178 139.699 181.365 140.139 181.424 140.64L180.224 140.856C180.144 140.349 179.89 139.949 179.464 139.656C179.042 139.357 178.506 139.203 177.856 139.192C177.242 139.176 176.744 139.293 176.36 139.544C175.976 139.789 175.784 140.117 175.784 140.528C175.784 140.757 175.853 140.955 175.992 141.12C176.13 141.28 176.381 141.432 176.744 141.576C177.112 141.72 177.634 141.877 178.312 142.048C179.106 142.251 179.73 142.464 180.184 142.688C180.637 142.912 180.96 143.176 181.152 143.48C181.344 143.784 181.44 144.16 181.44 144.608C181.44 145.424 181.136 146.067 180.528 146.536C179.925 147 179.093 147.232 178.032 147.232ZM187.918 147C187.432 147.101 186.952 147.141 186.478 147.12C186.008 147.099 185.587 146.997 185.214 146.816C184.846 146.635 184.566 146.352 184.374 145.968C184.219 145.648 184.134 145.325 184.118 145C184.107 144.669 184.102 144.293 184.102 143.872V135.96H185.27V143.824C185.27 144.187 185.272 144.491 185.278 144.736C185.288 144.976 185.344 145.189 185.446 145.376C185.638 145.733 185.942 145.947 186.358 146.016C186.779 146.085 187.299 146.069 187.918 145.968V147ZM182.254 139.368V138.36H187.918V139.368H182.254ZM193.679 147V137.72C193.679 137.496 193.69 137.275 193.711 137.056C193.738 136.837 193.788 136.629 193.863 136.432C193.938 136.229 194.055 136.043 194.215 135.872C194.391 135.68 194.583 135.541 194.791 135.456C194.999 135.365 195.215 135.307 195.439 135.28C195.668 135.253 195.892 135.24 196.111 135.24H197.215V136.232H196.191C195.743 136.232 195.407 136.341 195.183 136.56C194.964 136.779 194.855 137.123 194.855 137.592V147H193.679ZM192.183 139.368V138.36H197.215V139.368H192.183ZM200.733 147.24C200.082 147.24 199.535 147.123 199.093 146.888C198.655 146.653 198.327 146.341 198.109 145.952C197.89 145.563 197.781 145.139 197.781 144.68C197.781 144.211 197.874 143.811 198.061 143.48C198.253 143.144 198.511 142.869 198.837 142.656C199.167 142.443 199.549 142.28 199.981 142.168C200.418 142.061 200.901 141.968 201.429 141.888C201.962 141.803 202.482 141.731 202.989 141.672C203.501 141.608 203.949 141.547 204.333 141.488L203.917 141.744C203.933 140.891 203.767 140.259 203.421 139.848C203.074 139.437 202.471 139.232 201.613 139.232C201.021 139.232 200.519 139.365 200.109 139.632C199.703 139.899 199.418 140.32 199.253 140.896L198.109 140.56C198.306 139.787 198.703 139.187 199.301 138.76C199.898 138.333 200.674 138.12 201.629 138.12C202.418 138.12 203.087 138.269 203.637 138.568C204.191 138.861 204.583 139.288 204.813 139.848C204.919 140.099 204.989 140.379 205.021 140.688C205.053 140.997 205.069 141.312 205.069 141.632V147H204.021V144.832L204.325 144.96C204.031 145.701 203.575 146.267 202.957 146.656C202.338 147.045 201.597 147.24 200.733 147.24ZM200.869 146.224C201.418 146.224 201.898 146.125 202.309 145.928C202.719 145.731 203.05 145.461 203.301 145.12C203.551 144.773 203.714 144.384 203.789 143.952C203.853 143.675 203.887 143.371 203.893 143.04C203.898 142.704 203.901 142.453 203.901 142.288L204.349 142.52C203.949 142.573 203.514 142.627 203.045 142.68C202.581 142.733 202.122 142.795 201.669 142.864C201.221 142.933 200.815 143.016 200.453 143.112C200.207 143.181 199.97 143.28 199.741 143.408C199.511 143.531 199.322 143.696 199.173 143.904C199.029 144.112 198.957 144.371 198.957 144.68C198.957 144.931 199.018 145.173 199.141 145.408C199.269 145.643 199.471 145.837 199.749 145.992C200.031 146.147 200.405 146.224 200.869 146.224ZM210.455 147.216C209.938 147.216 209.485 147.136 209.095 146.976C208.711 146.816 208.383 146.6 208.111 146.328C207.845 146.056 207.629 145.747 207.463 145.4C207.298 145.048 207.178 144.677 207.103 144.288C207.029 143.893 206.991 143.501 206.991 143.112V138.36H208.175V142.768C208.175 143.243 208.221 143.683 208.311 144.088C208.402 144.493 208.546 144.848 208.743 145.152C208.946 145.451 209.205 145.683 209.519 145.848C209.839 146.013 210.226 146.096 210.679 146.096C211.095 146.096 211.461 146.024 211.775 145.88C212.095 145.736 212.362 145.531 212.575 145.264C212.794 144.992 212.959 144.664 213.071 144.28C213.183 143.891 213.239 143.453 213.239 142.968L214.071 143.152C214.071 144.037 213.917 144.781 213.607 145.384C213.298 145.987 212.871 146.443 212.327 146.752C211.783 147.061 211.159 147.216 210.455 147.216ZM213.359 147V144.872H213.239V138.36H214.415V147H213.359ZM220.235 147.24C219.366 147.24 218.63 147.045 218.027 146.656C217.425 146.267 216.966 145.731 216.651 145.048C216.342 144.36 216.182 143.571 216.171 142.68C216.182 141.773 216.347 140.979 216.667 140.296C216.987 139.608 217.449 139.075 218.051 138.696C218.654 138.312 219.385 138.12 220.243 138.12C221.118 138.12 221.878 138.333 222.523 138.76C223.174 139.187 223.619 139.771 223.859 140.512L222.707 140.88C222.505 140.363 222.182 139.963 221.739 139.68C221.302 139.392 220.801 139.248 220.235 139.248C219.601 139.248 219.075 139.395 218.659 139.688C218.243 139.976 217.934 140.379 217.731 140.896C217.529 141.413 217.425 142.008 217.419 142.68C217.43 143.715 217.67 144.547 218.139 145.176C218.609 145.8 219.307 146.112 220.235 146.112C220.822 146.112 221.321 145.979 221.731 145.712C222.147 145.44 222.462 145.045 222.675 144.528L223.859 144.88C223.539 145.648 223.07 146.235 222.451 146.64C221.833 147.04 221.094 147.24 220.235 147.24ZM225.436 136.72V135.4H226.612V136.72H225.436ZM225.436 147V138.36H226.612V147H225.436ZM232.891 147.24C232.096 147.24 231.424 147.04 230.875 146.64C230.325 146.235 229.909 145.688 229.627 145C229.344 144.307 229.203 143.531 229.203 142.672C229.203 141.797 229.344 141.019 229.627 140.336C229.915 139.648 230.336 139.107 230.891 138.712C231.445 138.317 232.128 138.12 232.939 138.12C233.728 138.12 234.405 138.32 234.971 138.72C235.536 139.12 235.968 139.664 236.267 140.352C236.571 141.04 236.723 141.813 236.723 142.672C236.723 143.536 236.571 144.312 236.267 145C235.963 145.688 235.525 146.235 234.955 146.64C234.384 147.04 233.696 147.24 232.891 147.24ZM229.003 147V135.48H230.187V140.496H230.059V147H229.003ZM232.771 146.144C233.373 146.144 233.875 145.992 234.275 145.688C234.675 145.384 234.973 144.971 235.171 144.448C235.373 143.92 235.475 143.328 235.475 142.672C235.475 142.021 235.376 141.435 235.179 140.912C234.981 140.389 234.68 139.976 234.275 139.672C233.875 139.368 233.365 139.216 232.747 139.216C232.144 139.216 231.643 139.363 231.243 139.656C230.848 139.949 230.552 140.357 230.355 140.88C230.157 141.397 230.059 141.995 230.059 142.672C230.059 143.339 230.157 143.936 230.355 144.464C230.552 144.987 230.851 145.397 231.251 145.696C231.651 145.995 232.157 146.144 232.771 146.144ZM241.783 147.216C241.266 147.216 240.813 147.136 240.423 146.976C240.039 146.816 239.711 146.6 239.439 146.328C239.173 146.056 238.957 145.747 238.791 145.4C238.626 145.048 238.506 144.677 238.431 144.288C238.357 143.893 238.319 143.501 238.319 143.112V138.36H239.503V142.768C239.503 143.243 239.549 143.683 239.639 144.088C239.73 144.493 239.874 144.848 240.071 145.152C240.274 145.451 240.533 145.683 240.847 145.848C241.167 146.013 241.554 146.096 242.007 146.096C242.423 146.096 242.789 146.024 243.103 145.88C243.423 145.736 243.69 145.531 243.903 145.264C244.122 144.992 244.287 144.664 244.399 144.28C244.511 143.891 244.567 143.453 244.567 142.968L245.399 143.152C245.399 144.037 245.245 144.781 244.935 145.384C244.626 145.987 244.199 146.443 243.655 146.752C243.111 147.061 242.487 147.216 241.783 147.216ZM244.687 147V144.872H244.567V138.36H245.743V147H244.687ZM251.203 147.232C250.19 147.232 249.355 147.013 248.699 146.576C248.049 146.139 247.649 145.531 247.499 144.752L248.699 144.552C248.827 145.043 249.118 145.435 249.571 145.728C250.03 146.016 250.595 146.16 251.267 146.16C251.923 146.16 252.441 146.024 252.819 145.752C253.198 145.475 253.387 145.099 253.387 144.624C253.387 144.357 253.326 144.141 253.203 143.976C253.086 143.805 252.843 143.648 252.475 143.504C252.107 143.36 251.558 143.189 250.827 142.992C250.043 142.779 249.43 142.565 248.987 142.352C248.545 142.139 248.23 141.893 248.043 141.616C247.857 141.333 247.763 140.989 247.763 140.584C247.763 140.093 247.902 139.664 248.179 139.296C248.457 138.923 248.841 138.635 249.331 138.432C249.822 138.224 250.393 138.12 251.043 138.12C251.694 138.12 252.275 138.227 252.787 138.44C253.305 138.648 253.721 138.941 254.035 139.32C254.35 139.699 254.537 140.139 254.595 140.64L253.395 140.856C253.315 140.349 253.062 139.949 252.635 139.656C252.214 139.357 251.678 139.203 251.027 139.192C250.414 139.176 249.915 139.293 249.531 139.544C249.147 139.789 248.955 140.117 248.955 140.528C248.955 140.757 249.025 140.955 249.163 141.12C249.302 141.28 249.553 141.432 249.915 141.576C250.283 141.72 250.806 141.877 251.483 142.048C252.278 142.251 252.902 142.464 253.355 142.688C253.809 142.912 254.131 143.176 254.323 143.48C254.515 143.784 254.611 144.16 254.611 144.608C254.611 145.424 254.307 146.067 253.699 146.536C253.097 147 252.265 147.232 251.203 147.232ZM29 172.24C28.2053 172.24 27.5333 172.04 26.984 171.64C26.4347 171.235 26.0187 170.688 25.736 170C25.4533 169.307 25.312 168.531 25.312 167.672C25.312 166.797 25.4533 166.019 25.736 165.336C26.024 164.648 26.4453 164.107 27 163.712C27.5547 163.317 28.2373 163.12 29.048 163.12C29.8373 163.12 30.5147 163.32 31.08 163.72C31.6453 164.12 32.0773 164.664 32.376 165.352C32.68 166.04 32.832 166.813 32.832 167.672C32.832 168.536 32.68 169.312 32.376 170C32.072 170.688 31.6347 171.235 31.064 171.64C30.4933 172.04 29.8053 172.24 29 172.24ZM25.112 172V160.48H26.296V165.496H26.168V172H25.112ZM28.88 171.144C29.4827 171.144 29.984 170.992 30.384 170.688C30.784 170.384 31.0827 169.971 31.28 169.448C31.4827 168.92 31.584 168.328 31.584 167.672C31.584 167.021 31.4853 166.435 31.288 165.912C31.0907 165.389 30.7893 164.976 30.384 164.672C29.984 164.368 29.4747 164.216 28.856 164.216C28.2533 164.216 27.752 164.363 27.352 164.656C26.9573 164.949 26.6613 165.357 26.464 165.88C26.2667 166.397 26.168 166.995 26.168 167.672C26.168 168.339 26.2667 168.936 26.464 169.464C26.6613 169.987 26.96 170.397 27.36 170.696C27.76 170.995 28.2667 171.144 28.88 171.144ZM34.7488 172V160.24H35.9248V172H34.7488ZM40.7951 172.24C40.1445 172.24 39.5978 172.123 39.1551 171.888C38.7178 171.653 38.3898 171.341 38.1711 170.952C37.9525 170.563 37.8431 170.139 37.8431 169.68C37.8431 169.211 37.9365 168.811 38.1231 168.48C38.3151 168.144 38.5738 167.869 38.8991 167.656C39.2298 167.443 39.6111 167.28 40.0431 167.168C40.4805 167.061 40.9631 166.968 41.4911 166.888C42.0245 166.803 42.5445 166.731 43.0511 166.672C43.5631 166.608 44.0111 166.547 44.3951 166.488L43.9791 166.744C43.9951 165.891 43.8298 165.259 43.4831 164.848C43.1365 164.437 42.5338 164.232 41.6751 164.232C41.0831 164.232 40.5818 164.365 40.1711 164.632C39.7658 164.899 39.4805 165.32 39.3151 165.896L38.1711 165.56C38.3685 164.787 38.7658 164.187 39.3631 163.76C39.9605 163.333 40.7365 163.12 41.6911 163.12C42.4805 163.12 43.1498 163.269 43.6991 163.568C44.2538 163.861 44.6458 164.288 44.8751 164.848C44.9818 165.099 45.0511 165.379 45.0831 165.688C45.1151 165.997 45.1311 166.312 45.1311 166.632V172H44.0831V169.832L44.3871 169.96C44.0938 170.701 43.6378 171.267 43.0191 171.656C42.4005 172.045 41.6591 172.24 40.7951 172.24ZM40.9311 171.224C41.4805 171.224 41.9605 171.125 42.3711 170.928C42.7818 170.731 43.1125 170.461 43.3631 170.12C43.6138 169.773 43.7765 169.384 43.8511 168.952C43.9151 168.675 43.9498 168.371 43.9551 168.04C43.9605 167.704 43.9631 167.453 43.9631 167.288L44.4111 167.52C44.0111 167.573 43.5765 167.627 43.1071 167.68C42.6431 167.733 42.1845 167.795 41.7311 167.864C41.2831 167.933 40.8778 168.016 40.5151 168.112C40.2698 168.181 40.0325 168.28 39.8031 168.408C39.5738 168.531 39.3845 168.696 39.2351 168.904C39.0911 169.112 39.0191 169.371 39.0191 169.68C39.0191 169.931 39.0805 170.173 39.2031 170.408C39.3311 170.643 39.5338 170.837 39.8111 170.992C40.0938 171.147 40.4671 171.224 40.9311 171.224ZM53.4538 172V167.592C53.4538 167.112 53.4084 166.672 53.3178 166.272C53.2271 165.867 53.0804 165.515 52.8778 165.216C52.6804 164.912 52.4218 164.677 52.1018 164.512C51.7871 164.347 51.4031 164.264 50.9498 164.264C50.5338 164.264 50.1658 164.336 49.8458 164.48C49.5311 164.624 49.2644 164.832 49.0458 165.104C48.8324 165.371 48.6698 165.696 48.5578 166.08C48.4458 166.464 48.3898 166.901 48.3898 167.392L47.5578 167.208C47.5578 166.323 47.7124 165.579 48.0218 164.976C48.3311 164.373 48.7578 163.917 49.3018 163.608C49.8458 163.299 50.4698 163.144 51.1738 163.144C51.6911 163.144 52.1418 163.224 52.5258 163.384C52.9151 163.544 53.2431 163.76 53.5098 164.032C53.7818 164.304 54.0004 164.616 54.1658 164.968C54.3311 165.315 54.4511 165.685 54.5258 166.08C54.6004 166.469 54.6378 166.859 54.6378 167.248V172H53.4538ZM47.2058 172V163.36H48.2698V165.488H48.3898V172H47.2058ZM60.0189 172.24C59.2135 172.24 58.5255 172.04 57.9549 171.64C57.3842 171.235 56.9469 170.688 56.6429 170C56.3389 169.312 56.1869 168.536 56.1869 167.672C56.1869 166.813 56.3362 166.04 56.6349 165.352C56.9389 164.664 57.3735 164.12 57.9389 163.72C58.5042 163.32 59.1815 163.12 59.9709 163.12C60.7815 163.12 61.4642 163.317 62.0189 163.712C62.5735 164.107 62.9922 164.648 63.2749 165.336C63.5629 166.019 63.7069 166.797 63.7069 167.672C63.7069 168.531 63.5655 169.307 63.2829 170C63.0002 170.688 62.5842 171.235 62.0349 171.64C61.4855 172.04 60.8135 172.24 60.0189 172.24ZM60.1389 171.144C60.7522 171.144 61.2589 170.995 61.6589 170.696C62.0589 170.397 62.3575 169.987 62.5549 169.464C62.7522 168.936 62.8509 168.339 62.8509 167.672C62.8509 166.995 62.7522 166.397 62.5549 165.88C62.3575 165.357 62.0589 164.949 61.6589 164.656C61.2642 164.363 60.7655 164.216 60.1629 164.216C59.5442 164.216 59.0322 164.368 58.6269 164.672C58.2215 164.976 57.9202 165.389 57.7229 165.912C57.5309 166.435 57.4349 167.021 57.4349 167.672C57.4349 168.328 57.5335 168.92 57.7309 169.448C57.9335 169.971 58.2349 170.384 58.6349 170.688C59.0349 170.992 59.5362 171.144 60.1389 171.144ZM62.8509 172V165.496H62.7229V160.48H63.9069V172H62.8509ZM66.3113 161.72V160.4H67.4873V161.72H66.3113ZM66.3113 172V163.36H67.4873V172H66.3113ZM74.5896 172C74.1043 172.101 73.6243 172.141 73.1496 172.12C72.6803 172.099 72.259 171.997 71.8856 171.816C71.5176 171.635 71.2376 171.352 71.0456 170.968C70.891 170.648 70.8056 170.325 70.7896 170C70.779 169.669 70.7736 169.293 70.7736 168.872V160.96H71.9416V168.824C71.9416 169.187 71.9443 169.491 71.9496 169.736C71.9603 169.976 72.0163 170.189 72.1176 170.376C72.3096 170.733 72.6136 170.947 73.0296 171.016C73.451 171.085 73.971 171.069 74.5896 170.968V172ZM68.9256 164.368V163.36H74.5896V164.368H68.9256ZM83.375 172.24C82.5803 172.24 81.9083 172.04 81.359 171.64C80.8097 171.235 80.3937 170.688 80.111 170C79.8283 169.307 79.687 168.531 79.687 167.672C79.687 166.797 79.8283 166.019 80.111 165.336C80.399 164.648 80.8203 164.107 81.375 163.712C81.9297 163.317 82.6123 163.12 83.423 163.12C84.2123 163.12 84.8897 163.32 85.455 163.72C86.0203 164.12 86.4523 164.664 86.751 165.352C87.055 166.04 87.207 166.813 87.207 167.672C87.207 168.536 87.055 169.312 86.751 170C86.447 170.688 86.0097 171.235 85.439 171.64C84.8683 172.04 84.1803 172.24 83.375 172.24ZM79.487 175.84V163.36H80.543V169.864H80.671V175.84H79.487ZM83.255 171.144C83.8577 171.144 84.359 170.992 84.759 170.688C85.159 170.384 85.4577 169.971 85.655 169.448C85.8577 168.92 85.959 168.328 85.959 167.672C85.959 167.021 85.8603 166.435 85.663 165.912C85.4657 165.389 85.1643 164.976 84.759 164.672C84.359 164.368 83.8497 164.216 83.231 164.216C82.6283 164.216 82.127 164.363 81.727 164.656C81.3323 164.949 81.0363 165.357 80.839 165.88C80.6417 166.397 80.543 166.995 80.543 167.672C80.543 168.339 80.6417 168.936 80.839 169.464C81.0363 169.987 81.335 170.397 81.735 170.696C82.135 170.995 82.6417 171.144 83.255 171.144ZM89.1238 172V160.24H90.2998V172H89.1238ZM95.1701 172.24C94.5195 172.24 93.9728 172.123 93.5301 171.888C93.0928 171.653 92.7648 171.341 92.5461 170.952C92.3275 170.563 92.2181 170.139 92.2181 169.68C92.2181 169.211 92.3115 168.811 92.4981 168.48C92.6901 168.144 92.9488 167.869 93.2741 167.656C93.6048 167.443 93.9861 167.28 94.4181 167.168C94.8555 167.061 95.3381 166.968 95.8661 166.888C96.3995 166.803 96.9195 166.731 97.4261 166.672C97.9381 166.608 98.3861 166.547 98.7701 166.488L98.3541 166.744C98.3701 165.891 98.2048 165.259 97.8581 164.848C97.5115 164.437 96.9088 164.232 96.0501 164.232C95.4581 164.232 94.9568 164.365 94.5461 164.632C94.1408 164.899 93.8555 165.32 93.6901 165.896L92.5461 165.56C92.7435 164.787 93.1408 164.187 93.7381 163.76C94.3355 163.333 95.1115 163.12 96.0661 163.12C96.8555 163.12 97.5248 163.269 98.0741 163.568C98.6288 163.861 99.0208 164.288 99.2501 164.848C99.3568 165.099 99.4261 165.379 99.4581 165.688C99.4901 165.997 99.5061 166.312 99.5061 166.632V172H98.4581V169.832L98.7621 169.96C98.4688 170.701 98.0128 171.267 97.3941 171.656C96.7755 172.045 96.0341 172.24 95.1701 172.24ZM95.3061 171.224C95.8555 171.224 96.3355 171.125 96.7461 170.928C97.1568 170.731 97.4875 170.461 97.7381 170.12C97.9888 169.773 98.1515 169.384 98.2261 168.952C98.2901 168.675 98.3248 168.371 98.3301 168.04C98.3355 167.704 98.3381 167.453 98.3381 167.288L98.7861 167.52C98.3861 167.573 97.9515 167.627 97.4821 167.68C97.0181 167.733 96.5595 167.795 96.1061 167.864C95.6581 167.933 95.2528 168.016 94.8901 168.112C94.6448 168.181 94.4075 168.28 94.1781 168.408C93.9488 168.531 93.7595 168.696 93.6101 168.904C93.4661 169.112 93.3941 169.371 93.3941 169.68C93.3941 169.931 93.4555 170.173 93.5781 170.408C93.7061 170.643 93.9088 170.837 94.1861 170.992C94.4688 171.147 94.8421 171.224 95.3061 171.224ZM106.293 172C105.807 172.101 105.327 172.141 104.853 172.12C104.383 172.099 103.962 171.997 103.589 171.816C103.221 171.635 102.941 171.352 102.749 170.968C102.594 170.648 102.509 170.325 102.493 170C102.482 169.669 102.477 169.293 102.477 168.872V160.96H103.645V168.824C103.645 169.187 103.647 169.491 103.653 169.736C103.663 169.976 103.719 170.189 103.821 170.376C104.013 170.733 104.317 170.947 104.733 171.016C105.154 171.085 105.674 171.069 106.293 170.968V172ZM100.629 164.368V163.36H106.293V164.368H100.629ZM111.339 172.24C110.496 172.24 109.765 172.053 109.147 171.68C108.533 171.307 108.056 170.781 107.715 170.104C107.373 169.427 107.203 168.632 107.203 167.72C107.203 166.776 107.371 165.96 107.707 165.272C108.043 164.584 108.515 164.053 109.123 163.68C109.736 163.307 110.459 163.12 111.291 163.12C112.144 163.12 112.872 163.317 113.475 163.712C114.077 164.101 114.533 164.661 114.843 165.392C115.152 166.123 115.293 166.995 115.267 168.008H114.067V167.592C114.045 166.472 113.803 165.627 113.339 165.056C112.88 164.485 112.208 164.2 111.323 164.2C110.395 164.2 109.683 164.501 109.187 165.104C108.696 165.707 108.451 166.565 108.451 167.68C108.451 168.768 108.696 169.613 109.187 170.216C109.683 170.813 110.384 171.112 111.291 171.112C111.909 171.112 112.448 170.971 112.907 170.688C113.371 170.4 113.736 169.987 114.003 169.448L115.099 169.872C114.757 170.624 114.253 171.208 113.587 171.624C112.925 172.035 112.176 172.24 111.339 172.24ZM108.035 168.008V167.024H114.635V168.008H108.035ZM119.358 172.24C118.707 172.24 118.16 172.123 117.718 171.888C117.28 171.653 116.952 171.341 116.734 170.952C116.515 170.563 116.406 170.139 116.406 169.68C116.406 169.211 116.499 168.811 116.686 168.48C116.878 168.144 117.136 167.869 117.462 167.656C117.792 167.443 118.174 167.28 118.606 167.168C119.043 167.061 119.526 166.968 120.054 166.888C120.587 166.803 121.107 166.731 121.614 166.672C122.126 166.608 122.574 166.547 122.958 166.488L122.542 166.744C122.558 165.891 122.392 165.259 122.046 164.848C121.699 164.437 121.096 164.232 120.238 164.232C119.646 164.232 119.144 164.365 118.734 164.632C118.328 164.899 118.043 165.32 117.878 165.896L116.734 165.56C116.931 164.787 117.328 164.187 117.926 163.76C118.523 163.333 119.299 163.12 120.254 163.12C121.043 163.12 121.712 163.269 122.262 163.568C122.816 163.861 123.208 164.288 123.438 164.848C123.544 165.099 123.614 165.379 123.646 165.688C123.678 165.997 123.694 166.312 123.694 166.632V172H122.646V169.832L122.95 169.96C122.656 170.701 122.2 171.267 121.582 171.656C120.963 172.045 120.222 172.24 119.358 172.24ZM119.494 171.224C120.043 171.224 120.523 171.125 120.934 170.928C121.344 170.731 121.675 170.461 121.926 170.12C122.176 169.773 122.339 169.384 122.414 168.952C122.478 168.675 122.512 168.371 122.518 168.04C122.523 167.704 122.526 167.453 122.526 167.288L122.974 167.52C122.574 167.573 122.139 167.627 121.67 167.68C121.206 167.733 120.747 167.795 120.294 167.864C119.846 167.933 119.44 168.016 119.078 168.112C118.832 168.181 118.595 168.28 118.366 168.408C118.136 168.531 117.947 168.696 117.798 168.904C117.654 169.112 117.582 169.371 117.582 169.68C117.582 169.931 117.643 170.173 117.766 170.408C117.894 170.643 118.096 170.837 118.374 170.992C118.656 171.147 119.03 171.224 119.494 171.224ZM126 172V170.632H127.368V172H126Z" fill="#565973"/>
</svg>
