<svg width="306" height="205" viewBox="0 0 306 205" fill="none" xmlns="http://www.w3.org/2000/svg">
<rect width="306" height="205" rx="8" fill="white"/>
<path d="M35.7655 59.3875C35.7655 62.6253 33.1205 65.2702 29.8827 65.2702C26.645 65.2702 24 62.6253 24 59.3875C24 56.1497 26.645 53.5048 29.8827 53.5048H35.7655V59.3875Z" fill="#E01E5A"/>
<path d="M38.7285 59.3875C38.7285 56.1497 41.3735 53.5048 44.6113 53.5048C47.849 53.5048 50.494 56.1497 50.494 59.3875V74.1171C50.494 77.3549 47.849 79.9999 44.6113 79.9999C41.3735 79.9999 38.7285 77.3549 38.7285 74.1171V59.3875Z" fill="#E01E5A"/>
<path d="M44.6122 35.7663C41.3744 35.7663 38.7295 33.1214 38.7295 29.8836C38.7295 26.6458 41.3744 24.0009 44.6122 24.0009C47.85 24.0009 50.495 26.6458 50.495 29.8836V35.7663H44.6122Z" fill="#36C5F0"/>
<path d="M44.6124 38.7313C47.8502 38.7313 50.4951 41.3763 50.4951 44.6141C50.4951 47.8518 47.8502 50.4968 44.6124 50.4968H29.8827C26.645 50.4968 24 47.8518 24 44.6141C24 41.3763 26.645 38.7313 29.8827 38.7313H44.6124Z" fill="#36C5F0"/>
<path d="M68.2344 44.6141C68.2344 41.3763 70.8793 38.7313 74.1171 38.7313C77.3549 38.7313 79.9998 41.3763 79.9998 44.6141C79.9998 47.8518 77.3549 50.4968 74.1171 50.4968H68.2344V44.6141Z" fill="#2EB67D"/>
<path d="M65.2704 44.6132C65.2704 47.851 62.6254 50.496 59.3876 50.496C56.1498 50.496 53.5049 47.851 53.5049 44.6132V29.8836C53.5049 26.6458 56.1498 24.0009 59.3876 24.0009C62.6254 24.0009 65.2704 26.6458 65.2704 29.8836V44.6132Z" fill="#2EB67D"/>
<path d="M59.3886 68.2352C62.6264 68.2352 65.2713 70.8802 65.2713 74.118C65.2713 77.3558 62.6264 80.0007 59.3886 80.0007C56.1508 80.0007 53.5059 77.3558 53.5059 74.118V68.2352H59.3886Z" fill="#ECB22E"/>
<path d="M59.3886 65.2702C56.1508 65.2702 53.5059 62.6253 53.5059 59.3875C53.5059 56.1497 56.1508 53.5048 59.3886 53.5048H74.1182C77.356 53.5048 80.001 56.1497 80.001 59.3875C80.001 62.6253 77.356 65.2702 74.1182 65.2702H59.3886Z" fill="#ECB22E"/>
<path d="M25.28 121V109.48H26.456V121H25.28ZM32.2064 121.24C31.401 121.24 30.713 121.04 30.1424 120.64C29.5717 120.235 29.1344 119.688 28.8304 119C28.5264 118.312 28.3744 117.536 28.3744 116.672C28.3744 115.813 28.5237 115.04 28.8224 114.352C29.1264 113.664 29.561 113.12 30.1264 112.72C30.6917 112.32 31.369 112.12 32.1584 112.12C32.969 112.12 33.6517 112.317 34.2064 112.712C34.761 113.107 35.1797 113.648 35.4624 114.336C35.7504 115.019 35.8944 115.797 35.8944 116.672C35.8944 117.531 35.753 118.307 35.4704 119C35.1877 119.688 34.7717 120.235 34.2224 120.64C33.673 121.04 33.001 121.24 32.2064 121.24ZM32.3264 120.144C32.9397 120.144 33.4464 119.995 33.8464 119.696C34.2464 119.397 34.545 118.987 34.7424 118.464C34.9397 117.936 35.0384 117.339 35.0384 116.672C35.0384 115.995 34.9397 115.397 34.7424 114.88C34.545 114.357 34.2464 113.949 33.8464 113.656C33.4517 113.363 32.953 113.216 32.3504 113.216C31.7317 113.216 31.2197 113.368 30.8144 113.672C30.409 113.976 30.1077 114.389 29.9104 114.912C29.7184 115.435 29.6224 116.021 29.6224 116.672C29.6224 117.328 29.721 117.92 29.9184 118.448C30.121 118.971 30.4224 119.384 30.8224 119.688C31.2224 119.992 31.7237 120.144 32.3264 120.144ZM35.0384 121V114.496H34.9104V109.48H36.0944V121H35.0384ZM51.8459 121L51.8539 115.328C51.8539 114.661 51.6672 114.139 51.2939 113.76C50.9259 113.376 50.4565 113.184 49.8859 113.184C49.5605 113.184 49.2432 113.259 48.9339 113.408C48.6245 113.557 48.3685 113.797 48.1659 114.128C47.9685 114.459 47.8699 114.891 47.8699 115.424L47.1739 115.224C47.1579 114.605 47.2779 114.064 47.5339 113.6C47.7952 113.136 48.1525 112.776 48.6059 112.52C49.0645 112.259 49.5819 112.128 50.1579 112.128C51.0272 112.128 51.7232 112.397 52.2459 112.936C52.7685 113.469 53.0299 114.192 53.0299 115.104L53.0219 121H51.8459ZM41.5339 121V112.36H42.5899V114.488H42.7179V121H41.5339ZM46.7019 121L46.7099 115.408C46.7099 114.72 46.5259 114.179 46.1579 113.784C45.7952 113.384 45.3152 113.184 44.7179 113.184C44.1205 113.184 43.6379 113.389 43.2699 113.8C42.9019 114.205 42.7179 114.747 42.7179 115.424L42.0139 115.04C42.0139 114.485 42.1445 113.989 42.4059 113.552C42.6672 113.109 43.0245 112.763 43.4779 112.512C43.9312 112.256 44.4459 112.128 45.0219 112.128C45.5712 112.128 46.0592 112.245 46.4859 112.48C46.9179 112.715 47.2565 113.056 47.5019 113.504C47.7472 113.952 47.8699 114.496 47.8699 115.136L47.8619 121H46.7019ZM58.6655 121.24C57.8068 121.24 57.0735 121.045 56.4655 120.656C55.8575 120.267 55.3908 119.728 55.0655 119.04C54.7402 118.352 54.5775 117.563 54.5775 116.672C54.5775 115.765 54.7428 114.971 55.0735 114.288C55.4042 113.605 55.8735 113.075 56.4815 112.696C57.0948 112.312 57.8228 112.12 58.6655 112.12C59.5295 112.12 60.2655 112.315 60.8735 112.704C61.4868 113.088 61.9535 113.624 62.2735 114.312C62.5988 114.995 62.7615 115.781 62.7615 116.672C62.7615 117.579 62.5988 118.376 62.2735 119.064C61.9482 119.747 61.4788 120.28 60.8655 120.664C60.2522 121.048 59.5188 121.24 58.6655 121.24ZM58.6655 120.112C59.6255 120.112 60.3402 119.795 60.8095 119.16C61.2788 118.52 61.5135 117.691 61.5135 116.672C61.5135 115.627 61.2762 114.795 60.8015 114.176C60.3322 113.557 59.6202 113.248 58.6655 113.248C58.0202 113.248 57.4868 113.395 57.0655 113.688C56.6495 113.976 56.3375 114.379 56.1295 114.896C55.9268 115.408 55.8255 116 55.8255 116.672C55.8255 117.712 56.0655 118.547 56.5455 119.176C57.0255 119.8 57.7322 120.112 58.6655 120.112ZM64.6863 121V109.24H65.8623V121H64.6863ZM68.4206 121V109.24H69.5966V121H68.4206ZM72.155 110.72V109.4H73.331V110.72H72.155ZM72.155 121V112.36H73.331V121H72.155ZM78.9534 121.232C77.94 121.232 77.1054 121.013 76.4494 120.576C75.7987 120.139 75.3987 119.531 75.2494 118.752L76.4494 118.552C76.5774 119.043 76.868 119.435 77.3214 119.728C77.78 120.016 78.3454 120.16 79.0174 120.16C79.6734 120.16 80.1907 120.024 80.5694 119.752C80.948 119.475 81.1374 119.099 81.1374 118.624C81.1374 118.357 81.076 118.141 80.9534 117.976C80.836 117.805 80.5934 117.648 80.2254 117.504C79.8574 117.36 79.308 117.189 78.5774 116.992C77.7934 116.779 77.18 116.565 76.7374 116.352C76.2947 116.139 75.98 115.893 75.7934 115.616C75.6067 115.333 75.5134 114.989 75.5134 114.584C75.5134 114.093 75.652 113.664 75.9294 113.296C76.2067 112.923 76.5907 112.635 77.0814 112.432C77.572 112.224 78.1427 112.12 78.7934 112.12C79.444 112.12 80.0254 112.227 80.5374 112.44C81.0547 112.648 81.4707 112.941 81.7854 113.32C82.1 113.699 82.2867 114.139 82.3454 114.64L81.1454 114.856C81.0654 114.349 80.812 113.949 80.3854 113.656C79.964 113.357 79.428 113.203 78.7774 113.192C78.164 113.176 77.6654 113.293 77.2814 113.544C76.8974 113.789 76.7054 114.117 76.7054 114.528C76.7054 114.757 76.7747 114.955 76.9134 115.12C77.052 115.28 77.3027 115.432 77.6654 115.576C78.0334 115.72 78.556 115.877 79.2334 116.048C80.028 116.251 80.652 116.464 81.1054 116.688C81.5587 116.912 81.8814 117.176 82.0734 117.48C82.2654 117.784 82.3614 118.16 82.3614 118.608C82.3614 119.424 82.0574 120.067 81.4494 120.536C80.8467 121 80.0147 121.232 78.9534 121.232ZM90.9227 121.24C90.0534 121.24 89.3174 121.045 88.7148 120.656C88.1121 120.267 87.6534 119.731 87.3388 119.048C87.0294 118.36 86.8694 117.571 86.8588 116.68C86.8694 115.773 87.0348 114.979 87.3548 114.296C87.6748 113.608 88.1361 113.075 88.7388 112.696C89.3414 112.312 90.0721 112.12 90.9308 112.12C91.8054 112.12 92.5654 112.333 93.2108 112.76C93.8614 113.187 94.3068 113.771 94.5468 114.512L93.3948 114.88C93.1921 114.363 92.8694 113.963 92.4268 113.68C91.9894 113.392 91.4881 113.248 90.9227 113.248C90.2881 113.248 89.7628 113.395 89.3468 113.688C88.9308 113.976 88.6214 114.379 88.4188 114.896C88.2161 115.413 88.1121 116.008 88.1068 116.68C88.1174 117.715 88.3574 118.547 88.8268 119.176C89.2961 119.8 89.9948 120.112 90.9227 120.112C91.5094 120.112 92.0081 119.979 92.4188 119.712C92.8348 119.44 93.1494 119.045 93.3628 118.528L94.5468 118.88C94.2268 119.648 93.7574 120.235 93.1388 120.64C92.5201 121.04 91.7814 121.24 90.9227 121.24ZM99.5718 121.24C98.7131 121.24 97.9798 121.045 97.3718 120.656C96.7638 120.267 96.2971 119.728 95.9718 119.04C95.6464 118.352 95.4838 117.563 95.4838 116.672C95.4838 115.765 95.6491 114.971 95.9798 114.288C96.3104 113.605 96.7798 113.075 97.3878 112.696C98.0011 112.312 98.7291 112.12 99.5718 112.12C100.436 112.12 101.172 112.315 101.78 112.704C102.393 113.088 102.86 113.624 103.18 114.312C103.505 114.995 103.668 115.781 103.668 116.672C103.668 117.579 103.505 118.376 103.18 119.064C102.854 119.747 102.385 120.28 101.772 120.664C101.158 121.048 100.425 121.24 99.5718 121.24ZM99.5718 120.112C100.532 120.112 101.246 119.795 101.716 119.16C102.185 118.52 102.42 117.691 102.42 116.672C102.42 115.627 102.182 114.795 101.708 114.176C101.238 113.557 100.526 113.248 99.5718 113.248C98.9264 113.248 98.3931 113.395 97.9718 113.688C97.5558 113.976 97.2438 114.379 97.0358 114.896C96.8331 115.408 96.7318 116 96.7318 116.672C96.7318 117.712 96.9718 118.547 97.4518 119.176C97.9318 119.8 98.6384 120.112 99.5718 120.112ZM111.673 121V116.592C111.673 116.112 111.627 115.672 111.537 115.272C111.446 114.867 111.299 114.515 111.097 114.216C110.899 113.912 110.641 113.677 110.321 113.512C110.006 113.347 109.622 113.264 109.169 113.264C108.753 113.264 108.385 113.336 108.065 113.48C107.75 113.624 107.483 113.832 107.265 114.104C107.051 114.371 106.889 114.696 106.777 115.08C106.665 115.464 106.609 115.901 106.609 116.392L105.777 116.208C105.777 115.323 105.931 114.579 106.241 113.976C106.55 113.373 106.977 112.917 107.521 112.608C108.065 112.299 108.689 112.144 109.393 112.144C109.91 112.144 110.361 112.224 110.745 112.384C111.134 112.544 111.462 112.76 111.729 113.032C112.001 113.304 112.219 113.616 112.385 113.968C112.55 114.315 112.67 114.685 112.745 115.08C112.819 115.469 112.857 115.859 112.857 116.248V121H111.673ZM105.425 121V112.36H106.489V114.488H106.609V121H105.425ZM118.157 121.232C117.143 121.232 116.309 121.013 115.653 120.576C115.002 120.139 114.602 119.531 114.453 118.752L115.653 118.552C115.781 119.043 116.071 119.435 116.525 119.728C116.983 120.016 117.549 120.16 118.22 120.16C118.877 120.16 119.394 120.024 119.773 119.752C120.151 119.475 120.341 119.099 120.341 118.624C120.341 118.357 120.279 118.141 120.157 117.976C120.039 117.805 119.797 117.648 119.429 117.504C119.061 117.36 118.511 117.189 117.781 116.992C116.997 116.779 116.383 116.565 115.941 116.352C115.498 116.139 115.183 115.893 114.997 115.616C114.81 115.333 114.717 114.989 114.717 114.584C114.717 114.093 114.855 113.664 115.133 113.296C115.41 112.923 115.794 112.635 116.285 112.432C116.775 112.224 117.346 112.12 117.997 112.12C118.647 112.12 119.229 112.227 119.741 112.44C120.258 112.648 120.674 112.941 120.989 113.32C121.303 113.699 121.49 114.139 121.549 114.64L120.349 114.856C120.269 114.349 120.015 113.949 119.589 113.656C119.167 113.357 118.631 113.203 117.981 113.192C117.367 113.176 116.869 113.293 116.485 113.544C116.101 113.789 115.909 114.117 115.909 114.528C115.909 114.757 115.978 114.955 116.117 115.12C116.255 115.28 116.506 115.432 116.869 115.576C117.237 115.72 117.759 115.877 118.437 116.048C119.231 116.251 119.855 116.464 120.309 116.688C120.762 116.912 121.085 117.176 121.277 117.48C121.469 117.784 121.565 118.16 121.565 118.608C121.565 119.424 121.261 120.067 120.653 120.536C120.05 121 119.218 121.232 118.157 121.232ZM126.995 121.24C126.152 121.24 125.421 121.053 124.803 120.68C124.189 120.307 123.712 119.781 123.371 119.104C123.029 118.427 122.859 117.632 122.859 116.72C122.859 115.776 123.027 114.96 123.363 114.272C123.699 113.584 124.171 113.053 124.779 112.68C125.392 112.307 126.115 112.12 126.947 112.12C127.8 112.12 128.528 112.317 129.131 112.712C129.733 113.101 130.189 113.661 130.499 114.392C130.808 115.123 130.949 115.995 130.923 117.008H129.723V116.592C129.701 115.472 129.459 114.627 128.995 114.056C128.536 113.485 127.864 113.2 126.979 113.2C126.051 113.2 125.339 113.501 124.843 114.104C124.352 114.707 124.107 115.565 124.107 116.68C124.107 117.768 124.352 118.613 124.843 119.216C125.339 119.813 126.04 120.112 126.947 120.112C127.565 120.112 128.104 119.971 128.563 119.688C129.027 119.4 129.392 118.987 129.659 118.448L130.755 118.872C130.413 119.624 129.909 120.208 129.243 120.624C128.581 121.035 127.832 121.24 126.995 121.24ZM123.691 117.008V116.024H130.291V117.008H123.691ZM136.282 121.24C135.413 121.24 134.677 121.045 134.074 120.656C133.471 120.267 133.013 119.731 132.698 119.048C132.389 118.36 132.229 117.571 132.218 116.68C132.229 115.773 132.394 114.979 132.714 114.296C133.034 113.608 133.495 113.075 134.098 112.696C134.701 112.312 135.431 112.12 136.29 112.12C137.165 112.12 137.925 112.333 138.57 112.76C139.221 113.187 139.666 113.771 139.906 114.512L138.754 114.88C138.551 114.363 138.229 113.963 137.786 113.68C137.349 113.392 136.847 113.248 136.282 113.248C135.647 113.248 135.122 113.395 134.706 113.688C134.29 113.976 133.981 114.379 133.778 114.896C133.575 115.413 133.471 116.008 133.466 116.68C133.477 117.715 133.717 118.547 134.186 119.176C134.655 119.8 135.354 120.112 136.282 120.112C136.869 120.112 137.367 119.979 137.778 119.712C138.194 119.44 138.509 119.045 138.722 118.528L139.906 118.88C139.586 119.648 139.117 120.235 138.498 120.64C137.879 121.04 137.141 121.24 136.282 121.24ZM146.262 121C145.776 121.101 145.296 121.141 144.822 121.12C144.352 121.099 143.931 120.997 143.558 120.816C143.19 120.635 142.91 120.352 142.718 119.968C142.563 119.648 142.478 119.325 142.462 119C142.451 118.669 142.446 118.293 142.446 117.872V109.96H143.614V117.824C143.614 118.187 143.616 118.491 143.622 118.736C143.632 118.976 143.688 119.189 143.79 119.376C143.982 119.733 144.286 119.947 144.702 120.016C145.123 120.085 145.643 120.069 146.262 119.968V121ZM140.598 113.368V112.36H146.262V113.368H140.598ZM151.307 121.24C150.465 121.24 149.734 121.053 149.115 120.68C148.502 120.307 148.025 119.781 147.683 119.104C147.342 118.427 147.171 117.632 147.171 116.72C147.171 115.776 147.339 114.96 147.675 114.272C148.011 113.584 148.483 113.053 149.091 112.68C149.705 112.307 150.427 112.12 151.259 112.12C152.113 112.12 152.841 112.317 153.443 112.712C154.046 113.101 154.502 113.661 154.811 114.392C155.121 115.123 155.262 115.995 155.235 117.008H154.035V116.592C154.014 115.472 153.771 114.627 153.307 114.056C152.849 113.485 152.177 113.2 151.291 113.2C150.363 113.2 149.651 113.501 149.155 114.104C148.665 114.707 148.419 115.565 148.419 116.68C148.419 117.768 148.665 118.613 149.155 119.216C149.651 119.813 150.353 120.112 151.259 120.112C151.878 120.112 152.417 119.971 152.875 119.688C153.339 119.4 153.705 118.987 153.971 118.448L155.067 118.872C154.726 119.624 154.222 120.208 153.555 120.624C152.894 121.035 152.145 121.24 151.307 121.24ZM148.003 117.008V116.024H154.603V117.008H148.003ZM161.715 121C161.229 121.101 160.749 121.141 160.275 121.12C159.805 121.099 159.384 120.997 159.011 120.816C158.643 120.635 158.363 120.352 158.171 119.968C158.016 119.648 157.931 119.325 157.915 119C157.904 118.669 157.899 118.293 157.899 117.872V109.96H159.067V117.824C159.067 118.187 159.069 118.491 159.075 118.736C159.085 118.976 159.141 119.189 159.243 119.376C159.435 119.733 159.739 119.947 160.155 120.016C160.576 120.085 161.096 120.069 161.715 119.968V121ZM156.051 113.368V112.36H161.715V113.368H156.051ZM166.721 121.216C166.204 121.216 165.75 121.136 165.361 120.976C164.977 120.816 164.649 120.6 164.377 120.328C164.11 120.056 163.894 119.747 163.729 119.4C163.564 119.048 163.444 118.677 163.369 118.288C163.294 117.893 163.257 117.501 163.257 117.112V112.36H164.441V116.768C164.441 117.243 164.486 117.683 164.577 118.088C164.668 118.493 164.812 118.848 165.009 119.152C165.212 119.451 165.47 119.683 165.785 119.848C166.105 120.013 166.492 120.096 166.945 120.096C167.361 120.096 167.726 120.024 168.041 119.88C168.361 119.736 168.628 119.531 168.841 119.264C169.06 118.992 169.225 118.664 169.337 118.28C169.449 117.891 169.505 117.453 169.505 116.968L170.337 117.152C170.337 118.037 170.182 118.781 169.873 119.384C169.564 119.987 169.137 120.443 168.593 120.752C168.049 121.061 167.425 121.216 166.721 121.216ZM169.625 121V118.872H169.505V112.36H170.681V121H169.625ZM172.917 121V112.36H173.973V114.44L173.765 114.168C173.861 113.912 173.986 113.677 174.141 113.464C174.296 113.245 174.464 113.067 174.645 112.928C174.869 112.731 175.13 112.581 175.429 112.48C175.728 112.373 176.029 112.312 176.333 112.296C176.637 112.275 176.914 112.296 177.165 112.36V113.464C176.85 113.384 176.506 113.365 176.133 113.408C175.76 113.451 175.416 113.6 175.101 113.856C174.813 114.08 174.597 114.349 174.453 114.664C174.309 114.973 174.213 115.304 174.165 115.656C174.117 116.003 174.093 116.347 174.093 116.688V121H172.917ZM185.47 121.24C184.6 121.24 183.864 121.045 183.262 120.656C182.659 120.267 182.2 119.731 181.886 119.048C181.576 118.36 181.416 117.571 181.406 116.68C181.416 115.773 181.582 114.979 181.902 114.296C182.222 113.608 182.683 113.075 183.286 112.696C183.888 112.312 184.619 112.12 185.478 112.12C186.352 112.12 187.112 112.333 187.758 112.76C188.408 113.187 188.854 113.771 189.094 114.512L187.942 114.88C187.739 114.363 187.416 113.963 186.974 113.68C186.536 113.392 186.035 113.248 185.47 113.248C184.835 113.248 184.31 113.395 183.894 113.688C183.478 113.976 183.168 114.379 182.966 114.896C182.763 115.413 182.659 116.008 182.654 116.68C182.664 117.715 182.904 118.547 183.374 119.176C183.843 119.8 184.542 120.112 185.47 120.112C186.056 120.112 186.555 119.979 186.966 119.712C187.382 119.44 187.696 119.045 187.91 118.528L189.094 118.88C188.774 119.648 188.304 120.235 187.686 120.64C187.067 121.04 186.328 121.24 185.47 121.24ZM194.119 121.24C193.26 121.24 192.527 121.045 191.919 120.656C191.311 120.267 190.844 119.728 190.519 119.04C190.193 118.352 190.031 117.563 190.031 116.672C190.031 115.765 190.196 114.971 190.527 114.288C190.857 113.605 191.327 113.075 191.935 112.696C192.548 112.312 193.276 112.12 194.119 112.12C194.983 112.12 195.719 112.315 196.327 112.704C196.94 113.088 197.407 113.624 197.727 114.312C198.052 114.995 198.215 115.781 198.215 116.672C198.215 117.579 198.052 118.376 197.727 119.064C197.401 119.747 196.932 120.28 196.319 120.664C195.705 121.048 194.972 121.24 194.119 121.24ZM194.119 120.112C195.079 120.112 195.793 119.795 196.263 119.16C196.732 118.52 196.967 117.691 196.967 116.672C196.967 115.627 196.729 114.795 196.255 114.176C195.785 113.557 195.073 113.248 194.119 113.248C193.473 113.248 192.94 113.395 192.519 113.688C192.103 113.976 191.791 114.379 191.583 114.896C191.38 115.408 191.279 116 191.279 116.672C191.279 117.712 191.519 118.547 191.999 119.176C192.479 119.8 193.185 120.112 194.119 120.112ZM206.219 121V116.592C206.219 116.112 206.174 115.672 206.083 115.272C205.993 114.867 205.846 114.515 205.643 114.216C205.446 113.912 205.187 113.677 204.867 113.512C204.553 113.347 204.169 113.264 203.715 113.264C203.299 113.264 202.931 113.336 202.611 113.48C202.297 113.624 202.03 113.832 201.811 114.104C201.598 114.371 201.435 114.696 201.323 115.08C201.211 115.464 201.155 115.901 201.155 116.392L200.323 116.208C200.323 115.323 200.478 114.579 200.787 113.976C201.097 113.373 201.523 112.917 202.067 112.608C202.611 112.299 203.235 112.144 203.939 112.144C204.457 112.144 204.907 112.224 205.291 112.384C205.681 112.544 206.009 112.76 206.275 113.032C206.547 113.304 206.766 113.616 206.931 113.968C207.097 114.315 207.217 114.685 207.291 115.08C207.366 115.469 207.403 115.859 207.403 116.248V121H206.219ZM199.971 121V112.36H201.035V114.488H201.155V121H199.971ZM212.911 125.08C212.469 125.08 212.031 125.013 211.599 124.88C211.173 124.752 210.778 124.547 210.415 124.264C210.053 123.987 209.749 123.624 209.503 123.176L210.567 122.584C210.807 123.064 211.143 123.408 211.575 123.616C212.013 123.829 212.458 123.936 212.911 123.936C213.535 123.936 214.039 123.819 214.423 123.584C214.813 123.355 215.095 123.013 215.271 122.56C215.447 122.107 215.533 121.541 215.527 120.864V118.56H215.663V112.36H216.711V120.88C216.711 121.125 216.703 121.36 216.687 121.584C216.677 121.813 216.653 122.037 216.615 122.256C216.514 122.901 216.303 123.432 215.983 123.848C215.669 124.264 215.253 124.573 214.735 124.776C214.223 124.979 213.615 125.08 212.911 125.08ZM212.831 121.24C212.026 121.24 211.338 121.04 210.767 120.64C210.197 120.235 209.759 119.688 209.455 119C209.151 118.312 208.999 117.536 208.999 116.672C208.999 115.813 209.149 115.04 209.447 114.352C209.751 113.664 210.186 113.12 210.751 112.72C211.317 112.32 211.994 112.12 212.783 112.12C213.594 112.12 214.277 112.317 214.831 112.712C215.386 113.107 215.805 113.648 216.087 114.336C216.375 115.019 216.519 115.797 216.519 116.672C216.519 117.531 216.378 118.307 216.095 119C215.813 119.688 215.397 120.235 214.847 120.64C214.298 121.04 213.626 121.24 212.831 121.24ZM212.951 120.144C213.565 120.144 214.071 119.995 214.471 119.696C214.871 119.397 215.17 118.987 215.367 118.464C215.565 117.936 215.663 117.339 215.663 116.672C215.663 115.995 215.565 115.397 215.367 114.88C215.17 114.357 214.871 113.949 214.471 113.656C214.077 113.363 213.578 113.216 212.975 113.216C212.357 113.216 211.845 113.368 211.439 113.672C211.034 113.976 210.733 114.389 210.535 114.912C210.343 115.435 210.247 116.021 210.247 116.672C210.247 117.328 210.346 117.92 210.543 118.448C210.746 118.971 211.047 119.384 211.447 119.688C211.847 119.992 212.349 120.144 212.951 120.144ZM222.252 121.216C221.735 121.216 221.281 121.136 220.892 120.976C220.508 120.816 220.18 120.6 219.908 120.328C219.641 120.056 219.425 119.747 219.26 119.4C219.095 119.048 218.975 118.677 218.9 118.288C218.825 117.893 218.788 117.501 218.788 117.112V112.36H219.972V116.768C219.972 117.243 220.017 117.683 220.108 118.088C220.199 118.493 220.343 118.848 220.54 119.152C220.743 119.451 221.001 119.683 221.316 119.848C221.636 120.013 222.023 120.096 222.476 120.096C222.892 120.096 223.257 120.024 223.572 119.88C223.892 119.736 224.159 119.531 224.372 119.264C224.591 118.992 224.756 118.664 224.868 118.28C224.98 117.891 225.036 117.453 225.036 116.968L225.868 117.152C225.868 118.037 225.713 118.781 225.404 119.384C225.095 119.987 224.668 120.443 224.124 120.752C223.58 121.061 222.956 121.216 222.252 121.216ZM225.156 121V118.872H225.036V112.36H226.212V121H225.156ZM232.104 121.24C231.261 121.24 230.531 121.053 229.912 120.68C229.299 120.307 228.821 119.781 228.48 119.104C228.139 118.427 227.968 117.632 227.968 116.72C227.968 115.776 228.136 114.96 228.472 114.272C228.808 113.584 229.28 113.053 229.888 112.68C230.501 112.307 231.224 112.12 232.056 112.12C232.909 112.12 233.637 112.317 234.24 112.712C234.843 113.101 235.299 113.661 235.608 114.392C235.917 115.123 236.059 115.995 236.032 117.008H234.832V116.592C234.811 115.472 234.568 114.627 234.104 114.056C233.645 113.485 232.973 113.2 232.088 113.2C231.16 113.2 230.448 113.501 229.952 114.104C229.461 114.707 229.216 115.565 229.216 116.68C229.216 117.768 229.461 118.613 229.952 119.216C230.448 119.813 231.149 120.112 232.056 120.112C232.675 120.112 233.213 119.971 233.672 119.688C234.136 119.4 234.501 118.987 234.768 118.448L235.864 118.872C235.523 119.624 235.019 120.208 234.352 120.624C233.691 121.035 232.941 121.24 232.104 121.24ZM228.8 117.008V116.024H235.4V117.008H228.8ZM28.776 147.24C27.9333 147.24 27.2027 147.053 26.584 146.68C25.9707 146.307 25.4933 145.781 25.152 145.104C24.8107 144.427 24.64 143.632 24.64 142.72C24.64 141.776 24.808 140.96 25.144 140.272C25.48 139.584 25.952 139.053 26.56 138.68C27.1733 138.307 27.896 138.12 28.728 138.12C29.5813 138.12 30.3093 138.317 30.912 138.712C31.5147 139.101 31.9707 139.661 32.28 140.392C32.5893 141.123 32.7307 141.995 32.704 143.008H31.504V142.592C31.4827 141.472 31.24 140.627 30.776 140.056C30.3173 139.485 29.6453 139.2 28.76 139.2C27.832 139.2 27.12 139.501 26.624 140.104C26.1333 140.707 25.888 141.565 25.888 142.68C25.888 143.768 26.1333 144.613 26.624 145.216C27.12 145.813 27.8213 146.112 28.728 146.112C29.3467 146.112 29.8853 145.971 30.344 145.688C30.808 145.4 31.1733 144.987 31.44 144.448L32.536 144.872C32.1947 145.624 31.6907 146.208 31.024 146.624C30.3627 147.035 29.6133 147.24 28.776 147.24ZM25.472 143.008V142.024H32.072V143.008H25.472ZM37.9114 151.08C37.4687 151.08 37.0314 151.013 36.5994 150.88C36.1727 150.752 35.778 150.547 35.4154 150.264C35.0527 149.987 34.7487 149.624 34.5034 149.176L35.5674 148.584C35.8074 149.064 36.1434 149.408 36.5754 149.616C37.0127 149.829 37.458 149.936 37.9114 149.936C38.5354 149.936 39.0394 149.819 39.4234 149.584C39.8127 149.355 40.0954 149.013 40.2714 148.56C40.4474 148.107 40.5327 147.541 40.5274 146.864V144.56H40.6634V138.36H41.7114V146.88C41.7114 147.125 41.7034 147.36 41.6874 147.584C41.6767 147.813 41.6527 148.037 41.6154 148.256C41.514 148.901 41.3034 149.432 40.9834 149.848C40.6687 150.264 40.2527 150.573 39.7354 150.776C39.2234 150.979 38.6154 151.08 37.9114 151.08ZM37.8314 147.24C37.026 147.24 36.338 147.04 35.7674 146.64C35.1967 146.235 34.7594 145.688 34.4554 145C34.1514 144.312 33.9994 143.536 33.9994 142.672C33.9994 141.813 34.1487 141.04 34.4474 140.352C34.7514 139.664 35.186 139.12 35.7514 138.72C36.3167 138.32 36.994 138.12 37.7834 138.12C38.594 138.12 39.2767 138.317 39.8314 138.712C40.386 139.107 40.8047 139.648 41.0874 140.336C41.3754 141.019 41.5194 141.797 41.5194 142.672C41.5194 143.531 41.378 144.307 41.0954 145C40.8127 145.688 40.3967 146.235 39.8474 146.64C39.298 147.04 38.626 147.24 37.8314 147.24ZM37.9514 146.144C38.5647 146.144 39.0714 145.995 39.4714 145.696C39.8714 145.397 40.17 144.987 40.3674 144.464C40.5647 143.936 40.6634 143.339 40.6634 142.672C40.6634 141.995 40.5647 141.397 40.3674 140.88C40.17 140.357 39.8714 139.949 39.4714 139.656C39.0767 139.363 38.578 139.216 37.9754 139.216C37.3567 139.216 36.8447 139.368 36.4394 139.672C36.034 139.976 35.7327 140.389 35.5354 140.912C35.3434 141.435 35.2474 142.021 35.2474 142.672C35.2474 143.328 35.346 143.92 35.5434 144.448C35.746 144.971 36.0474 145.384 36.4474 145.688C36.8474 145.992 37.3487 146.144 37.9514 146.144ZM47.6041 147.24C46.7615 147.24 46.0308 147.053 45.4121 146.68C44.7988 146.307 44.3215 145.781 43.9801 145.104C43.6388 144.427 43.4681 143.632 43.4681 142.72C43.4681 141.776 43.6361 140.96 43.9721 140.272C44.3081 139.584 44.7801 139.053 45.3881 138.68C46.0015 138.307 46.7241 138.12 47.5561 138.12C48.4095 138.12 49.1375 138.317 49.7401 138.712C50.3428 139.101 50.7988 139.661 51.1081 140.392C51.4175 141.123 51.5588 141.995 51.5321 143.008H50.3321V142.592C50.3108 141.472 50.0681 140.627 49.6041 140.056C49.1455 139.485 48.4735 139.2 47.5881 139.2C46.6601 139.2 45.9481 139.501 45.4521 140.104C44.9615 140.707 44.7161 141.565 44.7161 142.68C44.7161 143.768 44.9615 144.613 45.4521 145.216C45.9481 145.813 46.6495 146.112 47.5561 146.112C48.1748 146.112 48.7135 145.971 49.1721 145.688C49.6361 145.4 50.0015 144.987 50.2681 144.448L51.3641 144.872C51.0228 145.624 50.5188 146.208 49.8521 146.624C49.1908 147.035 48.4415 147.24 47.6041 147.24ZM44.3001 143.008V142.024H50.9001V143.008H44.3001ZM56.5315 147.232C55.5182 147.232 54.6835 147.013 54.0275 146.576C53.3768 146.139 52.9768 145.531 52.8275 144.752L54.0275 144.552C54.1555 145.043 54.4462 145.435 54.8995 145.728C55.3582 146.016 55.9235 146.16 56.5955 146.16C57.2515 146.16 57.7688 146.024 58.1475 145.752C58.5262 145.475 58.7155 145.099 58.7155 144.624C58.7155 144.357 58.6542 144.141 58.5315 143.976C58.4142 143.805 58.1715 143.648 57.8035 143.504C57.4355 143.36 56.8862 143.189 56.1555 142.992C55.3715 142.779 54.7582 142.565 54.3155 142.352C53.8728 142.139 53.5582 141.893 53.3715 141.616C53.1848 141.333 53.0915 140.989 53.0915 140.584C53.0915 140.093 53.2302 139.664 53.5075 139.296C53.7848 138.923 54.1688 138.635 54.6595 138.432C55.1502 138.224 55.7208 138.12 56.3715 138.12C57.0222 138.12 57.6035 138.227 58.1155 138.44C58.6328 138.648 59.0488 138.941 59.3635 139.32C59.6782 139.699 59.8648 140.139 59.9235 140.64L58.7235 140.856C58.6435 140.349 58.3902 139.949 57.9635 139.656C57.5422 139.357 57.0062 139.203 56.3555 139.192C55.7422 139.176 55.2435 139.293 54.8595 139.544C54.4755 139.789 54.2835 140.117 54.2835 140.528C54.2835 140.757 54.3528 140.955 54.4915 141.12C54.6302 141.28 54.8808 141.432 55.2435 141.576C55.6115 141.72 56.1342 141.877 56.8115 142.048C57.6062 142.251 58.2302 142.464 58.6835 142.688C59.1368 142.912 59.4595 143.176 59.6515 143.48C59.8435 143.784 59.9395 144.16 59.9395 144.608C59.9395 145.424 59.6355 146.067 59.0275 146.536C58.4248 147 57.5928 147.232 56.5315 147.232ZM66.4178 147C65.9324 147.101 65.4524 147.141 64.9778 147.12C64.5084 147.099 64.0871 146.997 63.7138 146.816C63.3458 146.635 63.0658 146.352 62.8738 145.968C62.7191 145.648 62.6338 145.325 62.6178 145C62.6071 144.669 62.6018 144.293 62.6018 143.872V135.96H63.7698V143.824C63.7698 144.187 63.7724 144.491 63.7778 144.736C63.7884 144.976 63.8444 145.189 63.9458 145.376C64.1378 145.733 64.4418 145.947 64.8578 146.016C65.2791 146.085 65.7991 146.069 66.4178 145.968V147ZM60.7538 139.368V138.36H66.4178V139.368H60.7538ZM70.592 147.24C69.9413 147.24 69.3947 147.123 68.952 146.888C68.5147 146.653 68.1867 146.341 67.968 145.952C67.7493 145.563 67.64 145.139 67.64 144.68C67.64 144.211 67.7333 143.811 67.92 143.48C68.112 143.144 68.3707 142.869 68.696 142.656C69.0267 142.443 69.408 142.28 69.84 142.168C70.2773 142.061 70.76 141.968 71.288 141.888C71.8213 141.803 72.3413 141.731 72.848 141.672C73.36 141.608 73.808 141.547 74.192 141.488L73.776 141.744C73.792 140.891 73.6267 140.259 73.28 139.848C72.9333 139.437 72.3307 139.232 71.472 139.232C70.88 139.232 70.3787 139.365 69.968 139.632C69.5627 139.899 69.2773 140.32 69.112 140.896L67.968 140.56C68.1653 139.787 68.5627 139.187 69.16 138.76C69.7573 138.333 70.5333 138.12 71.488 138.12C72.2773 138.12 72.9467 138.269 73.496 138.568C74.0507 138.861 74.4427 139.288 74.672 139.848C74.7787 140.099 74.848 140.379 74.88 140.688C74.912 140.997 74.928 141.312 74.928 141.632V147H73.88V144.832L74.184 144.96C73.8907 145.701 73.4347 146.267 72.816 146.656C72.1973 147.045 71.456 147.24 70.592 147.24ZM70.728 146.224C71.2773 146.224 71.7573 146.125 72.168 145.928C72.5787 145.731 72.9093 145.461 73.16 145.12C73.4107 144.773 73.5733 144.384 73.648 143.952C73.712 143.675 73.7467 143.371 73.752 143.04C73.7573 142.704 73.76 142.453 73.76 142.288L74.208 142.52C73.808 142.573 73.3733 142.627 72.904 142.68C72.44 142.733 71.9813 142.795 71.528 142.864C71.08 142.933 70.6747 143.016 70.312 143.112C70.0667 143.181 69.8293 143.28 69.6 143.408C69.3707 143.531 69.1813 143.696 69.032 143.904C68.888 144.112 68.816 144.371 68.816 144.68C68.816 144.931 68.8773 145.173 69 145.408C69.128 145.643 69.3307 145.837 69.608 145.992C69.8907 146.147 70.264 146.224 70.728 146.224ZM80.2346 147.232C79.2213 147.232 78.3866 147.013 77.7306 146.576C77.08 146.139 76.68 145.531 76.5306 144.752L77.7306 144.552C77.8586 145.043 78.1493 145.435 78.6026 145.728C79.0613 146.016 79.6266 146.16 80.2986 146.16C80.9546 146.16 81.472 146.024 81.8506 145.752C82.2293 145.475 82.4186 145.099 82.4186 144.624C82.4186 144.357 82.3573 144.141 82.2346 143.976C82.1173 143.805 81.8746 143.648 81.5066 143.504C81.1386 143.36 80.5893 143.189 79.8586 142.992C79.0746 142.779 78.4613 142.565 78.0186 142.352C77.576 142.139 77.2613 141.893 77.0746 141.616C76.888 141.333 76.7946 140.989 76.7946 140.584C76.7946 140.093 76.9333 139.664 77.2106 139.296C77.488 138.923 77.872 138.635 78.3626 138.432C78.8533 138.224 79.424 138.12 80.0746 138.12C80.7253 138.12 81.3066 138.227 81.8186 138.44C82.336 138.648 82.752 138.941 83.0666 139.32C83.3813 139.699 83.568 140.139 83.6266 140.64L82.4266 140.856C82.3466 140.349 82.0933 139.949 81.6666 139.656C81.2453 139.357 80.7093 139.203 80.0586 139.192C79.4453 139.176 78.9466 139.293 78.5626 139.544C78.1786 139.789 77.9866 140.117 77.9866 140.528C77.9866 140.757 78.056 140.955 78.1946 141.12C78.3333 141.28 78.584 141.432 78.9466 141.576C79.3146 141.72 79.8373 141.877 80.5146 142.048C81.3093 142.251 81.9333 142.464 82.3866 142.688C82.84 142.912 83.1626 143.176 83.3546 143.48C83.5466 143.784 83.6426 144.16 83.6426 144.608C83.6426 145.424 83.3386 146.067 82.7306 146.536C82.128 147 81.296 147.232 80.2346 147.232ZM92.276 147.24C91.4333 147.24 90.7027 147.053 90.084 146.68C89.4707 146.307 88.9933 145.781 88.652 145.104C88.3107 144.427 88.14 143.632 88.14 142.72C88.14 141.776 88.308 140.96 88.644 140.272C88.98 139.584 89.452 139.053 90.06 138.68C90.6733 138.307 91.396 138.12 92.228 138.12C93.0813 138.12 93.8093 138.317 94.412 138.712C95.0147 139.101 95.4707 139.661 95.78 140.392C96.0893 141.123 96.2307 141.995 96.204 143.008H95.004V142.592C94.9827 141.472 94.74 140.627 94.276 140.056C93.8173 139.485 93.1453 139.2 92.26 139.2C91.332 139.2 90.62 139.501 90.124 140.104C89.6333 140.707 89.388 141.565 89.388 142.68C89.388 143.768 89.6333 144.613 90.124 145.216C90.62 145.813 91.3213 146.112 92.228 146.112C92.8467 146.112 93.3853 145.971 93.844 145.688C94.308 145.4 94.6733 144.987 94.94 144.448L96.036 144.872C95.6947 145.624 95.1907 146.208 94.524 146.624C93.8627 147.035 93.1133 147.24 92.276 147.24ZM88.972 143.008V142.024H95.572V143.008H88.972ZM101.411 151.08C100.969 151.08 100.531 151.013 100.099 150.88C99.6727 150.752 99.278 150.547 98.9154 150.264C98.5527 149.987 98.2487 149.624 98.0034 149.176L99.0674 148.584C99.3074 149.064 99.6434 149.408 100.075 149.616C100.513 149.829 100.958 149.936 101.411 149.936C102.035 149.936 102.539 149.819 102.923 149.584C103.313 149.355 103.595 149.013 103.771 148.56C103.947 148.107 104.033 147.541 104.027 146.864V144.56H104.163V138.36H105.211V146.88C105.211 147.125 105.203 147.36 105.187 147.584C105.177 147.813 105.153 148.037 105.115 148.256C105.014 148.901 104.803 149.432 104.483 149.848C104.169 150.264 103.753 150.573 103.235 150.776C102.723 150.979 102.115 151.08 101.411 151.08ZM101.331 147.24C100.526 147.24 99.838 147.04 99.2674 146.64C98.6967 146.235 98.2594 145.688 97.9554 145C97.6514 144.312 97.4994 143.536 97.4994 142.672C97.4994 141.813 97.6487 141.04 97.9474 140.352C98.2514 139.664 98.686 139.12 99.2514 138.72C99.8167 138.32 100.494 138.12 101.283 138.12C102.094 138.12 102.777 138.317 103.331 138.712C103.886 139.107 104.305 139.648 104.587 140.336C104.875 141.019 105.019 141.797 105.019 142.672C105.019 143.531 104.878 144.307 104.595 145C104.313 145.688 103.897 146.235 103.347 146.64C102.798 147.04 102.126 147.24 101.331 147.24ZM101.451 146.144C102.065 146.144 102.571 145.995 102.971 145.696C103.371 145.397 103.67 144.987 103.867 144.464C104.065 143.936 104.163 143.339 104.163 142.672C104.163 141.995 104.065 141.397 103.867 140.88C103.67 140.357 103.371 139.949 102.971 139.656C102.577 139.363 102.078 139.216 101.475 139.216C100.857 139.216 100.345 139.368 99.9394 139.672C99.534 139.976 99.2327 140.389 99.0354 140.912C98.8434 141.435 98.7474 142.021 98.7474 142.672C98.7474 143.328 98.846 143.92 99.0434 144.448C99.246 144.971 99.5474 145.384 99.9474 145.688C100.347 145.992 100.849 146.144 101.451 146.144ZM111.104 147.24C110.261 147.24 109.531 147.053 108.912 146.68C108.299 146.307 107.821 145.781 107.48 145.104C107.139 144.427 106.968 143.632 106.968 142.72C106.968 141.776 107.136 140.96 107.472 140.272C107.808 139.584 108.28 139.053 108.888 138.68C109.501 138.307 110.224 138.12 111.056 138.12C111.909 138.12 112.637 138.317 113.24 138.712C113.843 139.101 114.299 139.661 114.608 140.392C114.917 141.123 115.059 141.995 115.032 143.008H113.832V142.592C113.811 141.472 113.568 140.627 113.104 140.056C112.645 139.485 111.973 139.2 111.088 139.2C110.16 139.2 109.448 139.501 108.952 140.104C108.461 140.707 108.216 141.565 108.216 142.68C108.216 143.768 108.461 144.613 108.952 145.216C109.448 145.813 110.149 146.112 111.056 146.112C111.675 146.112 112.213 145.971 112.672 145.688C113.136 145.4 113.501 144.987 113.768 144.448L114.864 144.872C114.523 145.624 114.019 146.208 113.352 146.624C112.691 147.035 111.941 147.24 111.104 147.24ZM107.8 143.008V142.024H114.4V143.008H107.8ZM120.032 147.232C119.018 147.232 118.184 147.013 117.528 146.576C116.877 146.139 116.477 145.531 116.328 144.752L117.528 144.552C117.656 145.043 117.946 145.435 118.4 145.728C118.858 146.016 119.424 146.16 120.095 146.16C120.752 146.16 121.269 146.024 121.648 145.752C122.026 145.475 122.216 145.099 122.216 144.624C122.216 144.357 122.154 144.141 122.032 143.976C121.914 143.805 121.672 143.648 121.304 143.504C120.936 143.36 120.386 143.189 119.656 142.992C118.872 142.779 118.258 142.565 117.816 142.352C117.373 142.139 117.058 141.893 116.872 141.616C116.685 141.333 116.592 140.989 116.592 140.584C116.592 140.093 116.73 139.664 117.008 139.296C117.285 138.923 117.669 138.635 118.16 138.432C118.65 138.224 119.221 138.12 119.872 138.12C120.522 138.12 121.104 138.227 121.616 138.44C122.133 138.648 122.549 138.941 122.864 139.32C123.178 139.699 123.365 140.139 123.424 140.64L122.224 140.856C122.144 140.349 121.89 139.949 121.464 139.656C121.042 139.357 120.506 139.203 119.856 139.192C119.242 139.176 118.744 139.293 118.36 139.544C117.976 139.789 117.784 140.117 117.784 140.528C117.784 140.757 117.853 140.955 117.992 141.12C118.13 141.28 118.381 141.432 118.744 141.576C119.112 141.72 119.634 141.877 120.312 142.048C121.106 142.251 121.73 142.464 122.184 142.688C122.637 142.912 122.96 143.176 123.152 143.48C123.344 143.784 123.44 144.16 123.44 144.608C123.44 145.424 123.136 146.067 122.528 146.536C121.925 147 121.093 147.232 120.032 147.232ZM129.918 147C129.432 147.101 128.952 147.141 128.478 147.12C128.008 147.099 127.587 146.997 127.214 146.816C126.846 146.635 126.566 146.352 126.374 145.968C126.219 145.648 126.134 145.325 126.118 145C126.107 144.669 126.102 144.293 126.102 143.872V135.96H127.27V143.824C127.27 144.187 127.272 144.491 127.278 144.736C127.288 144.976 127.344 145.189 127.446 145.376C127.638 145.733 127.942 145.947 128.358 146.016C128.779 146.085 129.299 146.069 129.918 145.968V147ZM124.254 139.368V138.36H129.918V139.368H124.254ZM134.092 147.24C133.441 147.24 132.895 147.123 132.452 146.888C132.015 146.653 131.687 146.341 131.468 145.952C131.249 145.563 131.14 145.139 131.14 144.68C131.14 144.211 131.233 143.811 131.42 143.48C131.612 143.144 131.871 142.869 132.196 142.656C132.527 142.443 132.908 142.28 133.34 142.168C133.777 142.061 134.26 141.968 134.788 141.888C135.321 141.803 135.841 141.731 136.348 141.672C136.86 141.608 137.308 141.547 137.692 141.488L137.276 141.744C137.292 140.891 137.127 140.259 136.78 139.848C136.433 139.437 135.831 139.232 134.972 139.232C134.38 139.232 133.879 139.365 133.468 139.632C133.063 139.899 132.777 140.32 132.612 140.896L131.468 140.56C131.665 139.787 132.063 139.187 132.66 138.76C133.257 138.333 134.033 138.12 134.988 138.12C135.777 138.12 136.447 138.269 136.996 138.568C137.551 138.861 137.943 139.288 138.172 139.848C138.279 140.099 138.348 140.379 138.38 140.688C138.412 140.997 138.428 141.312 138.428 141.632V147H137.38V144.832L137.684 144.96C137.391 145.701 136.935 146.267 136.316 146.656C135.697 147.045 134.956 147.24 134.092 147.24ZM134.228 146.224C134.777 146.224 135.257 146.125 135.668 145.928C136.079 145.731 136.409 145.461 136.66 145.12C136.911 144.773 137.073 144.384 137.148 143.952C137.212 143.675 137.247 143.371 137.252 143.04C137.257 142.704 137.26 142.453 137.26 142.288L137.708 142.52C137.308 142.573 136.873 142.627 136.404 142.68C135.94 142.733 135.481 142.795 135.028 142.864C134.58 142.933 134.175 143.016 133.812 143.112C133.567 143.181 133.329 143.28 133.1 143.408C132.871 143.531 132.681 143.696 132.532 143.904C132.388 144.112 132.316 144.371 132.316 144.68C132.316 144.931 132.377 145.173 132.5 145.408C132.628 145.643 132.831 145.837 133.108 145.992C133.391 146.147 133.764 146.224 134.228 146.224ZM143.735 147.232C142.721 147.232 141.887 147.013 141.231 146.576C140.58 146.139 140.18 145.531 140.031 144.752L141.231 144.552C141.359 145.043 141.649 145.435 142.103 145.728C142.561 146.016 143.127 146.16 143.799 146.16C144.455 146.16 144.972 146.024 145.351 145.752C145.729 145.475 145.919 145.099 145.919 144.624C145.919 144.357 145.857 144.141 145.735 143.976C145.617 143.805 145.375 143.648 145.007 143.504C144.639 143.36 144.089 143.189 143.359 142.992C142.575 142.779 141.961 142.565 141.519 142.352C141.076 142.139 140.761 141.893 140.575 141.616C140.388 141.333 140.295 140.989 140.295 140.584C140.295 140.093 140.433 139.664 140.711 139.296C140.988 138.923 141.372 138.635 141.863 138.432C142.353 138.224 142.924 138.12 143.575 138.12C144.225 138.12 144.807 138.227 145.319 138.44C145.836 138.648 146.252 138.941 146.567 139.32C146.881 139.699 147.068 140.139 147.127 140.64L145.927 140.856C145.847 140.349 145.593 139.949 145.167 139.656C144.745 139.357 144.209 139.203 143.559 139.192C142.945 139.176 142.447 139.293 142.063 139.544C141.679 139.789 141.487 140.117 141.487 140.528C141.487 140.757 141.556 140.955 141.695 141.12C141.833 141.28 142.084 141.432 142.447 141.576C142.815 141.72 143.337 141.877 144.015 142.048C144.809 142.251 145.433 142.464 145.887 142.688C146.34 142.912 146.663 143.176 146.855 143.48C147.047 143.784 147.143 144.16 147.143 144.608C147.143 145.424 146.839 146.067 146.231 146.536C145.628 147 144.796 147.232 143.735 147.232ZM155.344 147.232C154.331 147.232 153.496 147.013 152.84 146.576C152.189 146.139 151.789 145.531 151.64 144.752L152.84 144.552C152.968 145.043 153.259 145.435 153.712 145.728C154.171 146.016 154.736 146.16 155.408 146.16C156.064 146.16 156.581 146.024 156.96 145.752C157.339 145.475 157.528 145.099 157.528 144.624C157.528 144.357 157.467 144.141 157.344 143.976C157.227 143.805 156.984 143.648 156.616 143.504C156.248 143.36 155.699 143.189 154.968 142.992C154.184 142.779 153.571 142.565 153.128 142.352C152.685 142.139 152.371 141.893 152.184 141.616C151.997 141.333 151.904 140.989 151.904 140.584C151.904 140.093 152.043 139.664 152.32 139.296C152.597 138.923 152.981 138.635 153.472 138.432C153.963 138.224 154.533 138.12 155.184 138.12C155.835 138.12 156.416 138.227 156.928 138.44C157.445 138.648 157.861 138.941 158.176 139.32C158.491 139.699 158.677 140.139 158.736 140.64L157.536 140.856C157.456 140.349 157.203 139.949 156.776 139.656C156.355 139.357 155.819 139.203 155.168 139.192C154.555 139.176 154.056 139.293 153.672 139.544C153.288 139.789 153.096 140.117 153.096 140.528C153.096 140.757 153.165 140.955 153.304 141.12C153.443 141.28 153.693 141.432 154.056 141.576C154.424 141.72 154.947 141.877 155.624 142.048C156.419 142.251 157.043 142.464 157.496 142.688C157.949 142.912 158.272 143.176 158.464 143.48C158.656 143.784 158.752 144.16 158.752 144.608C158.752 145.424 158.448 146.067 157.84 146.536C157.237 147 156.405 147.232 155.344 147.232ZM163.83 147.216C163.313 147.216 162.86 147.136 162.47 146.976C162.086 146.816 161.758 146.6 161.486 146.328C161.22 146.056 161.004 145.747 160.838 145.4C160.673 145.048 160.553 144.677 160.478 144.288C160.404 143.893 160.366 143.501 160.366 143.112V138.36H161.55V142.768C161.55 143.243 161.596 143.683 161.686 144.088C161.777 144.493 161.921 144.848 162.118 145.152C162.321 145.451 162.58 145.683 162.894 145.848C163.214 146.013 163.601 146.096 164.054 146.096C164.47 146.096 164.836 146.024 165.15 145.88C165.47 145.736 165.737 145.531 165.95 145.264C166.169 144.992 166.334 144.664 166.446 144.28C166.558 143.891 166.614 143.453 166.614 142.968L167.446 143.152C167.446 144.037 167.292 144.781 166.982 145.384C166.673 145.987 166.246 146.443 165.702 146.752C165.158 147.061 164.534 147.216 163.83 147.216ZM166.734 147V144.872H166.614V138.36H167.79V147H166.734ZM173.25 147.232C172.237 147.232 171.402 147.013 170.746 146.576C170.096 146.139 169.696 145.531 169.546 144.752L170.746 144.552C170.874 145.043 171.165 145.435 171.618 145.728C172.077 146.016 172.642 146.16 173.314 146.16C173.97 146.16 174.488 146.024 174.866 145.752C175.245 145.475 175.434 145.099 175.434 144.624C175.434 144.357 175.373 144.141 175.25 143.976C175.133 143.805 174.89 143.648 174.522 143.504C174.154 143.36 173.605 143.189 172.874 142.992C172.09 142.779 171.477 142.565 171.034 142.352C170.592 142.139 170.277 141.893 170.09 141.616C169.904 141.333 169.81 140.989 169.81 140.584C169.81 140.093 169.949 139.664 170.226 139.296C170.504 138.923 170.888 138.635 171.378 138.432C171.869 138.224 172.44 138.12 173.09 138.12C173.741 138.12 174.322 138.227 174.834 138.44C175.352 138.648 175.768 138.941 176.082 139.32C176.397 139.699 176.584 140.139 176.642 140.64L175.442 140.856C175.362 140.349 175.109 139.949 174.682 139.656C174.261 139.357 173.725 139.203 173.074 139.192C172.461 139.176 171.962 139.293 171.578 139.544C171.194 139.789 171.002 140.117 171.002 140.528C171.002 140.757 171.072 140.955 171.21 141.12C171.349 141.28 171.6 141.432 171.962 141.576C172.33 141.72 172.853 141.877 173.53 142.048C174.325 142.251 174.949 142.464 175.402 142.688C175.856 142.912 176.178 143.176 176.37 143.48C176.562 143.784 176.658 144.16 176.658 144.608C176.658 145.424 176.354 146.067 175.746 146.536C175.144 147 174.312 147.232 173.25 147.232ZM182.312 147.24C181.518 147.24 180.846 147.04 180.297 146.64C179.747 146.235 179.331 145.688 179.049 145C178.766 144.307 178.625 143.531 178.625 142.672C178.625 141.797 178.766 141.019 179.049 140.336C179.337 139.648 179.758 139.107 180.313 138.712C180.867 138.317 181.55 138.12 182.361 138.12C183.15 138.12 183.827 138.32 184.393 138.72C184.958 139.12 185.39 139.664 185.689 140.352C185.993 141.04 186.145 141.813 186.145 142.672C186.145 143.536 185.993 144.312 185.689 145C185.385 145.688 184.947 146.235 184.377 146.64C183.806 147.04 183.118 147.24 182.312 147.24ZM178.425 150.84V138.36H179.481V144.864H179.609V150.84H178.425ZM182.193 146.144C182.795 146.144 183.297 145.992 183.697 145.688C184.097 145.384 184.395 144.971 184.593 144.448C184.795 143.92 184.897 143.328 184.897 142.672C184.897 142.021 184.798 141.435 184.601 140.912C184.403 140.389 184.102 139.976 183.697 139.672C183.297 139.368 182.787 139.216 182.169 139.216C181.566 139.216 181.065 139.363 180.665 139.656C180.27 139.949 179.974 140.357 179.777 140.88C179.579 141.397 179.481 141.995 179.481 142.672C179.481 143.339 179.579 143.936 179.777 144.464C179.974 144.987 180.273 145.397 180.673 145.696C181.073 145.995 181.579 146.144 182.193 146.144ZM191.557 147.24C190.715 147.24 189.984 147.053 189.365 146.68C188.752 146.307 188.275 145.781 187.933 145.104C187.592 144.427 187.421 143.632 187.421 142.72C187.421 141.776 187.589 140.96 187.925 140.272C188.261 139.584 188.733 139.053 189.341 138.68C189.955 138.307 190.677 138.12 191.509 138.12C192.363 138.12 193.091 138.317 193.693 138.712C194.296 139.101 194.752 139.661 195.061 140.392C195.371 141.123 195.512 141.995 195.485 143.008H194.285V142.592C194.264 141.472 194.021 140.627 193.557 140.056C193.099 139.485 192.427 139.2 191.541 139.2C190.613 139.2 189.901 139.501 189.405 140.104C188.915 140.707 188.669 141.565 188.669 142.68C188.669 143.768 188.915 144.613 189.405 145.216C189.901 145.813 190.603 146.112 191.509 146.112C192.128 146.112 192.667 145.971 193.125 145.688C193.589 145.4 193.955 144.987 194.221 144.448L195.317 144.872C194.976 145.624 194.472 146.208 193.805 146.624C193.144 147.035 192.395 147.24 191.557 147.24ZM188.253 143.008V142.024H194.853V143.008H188.253ZM203.266 147V142.592C203.266 142.112 203.221 141.672 203.13 141.272C203.04 140.867 202.893 140.515 202.69 140.216C202.493 139.912 202.234 139.677 201.914 139.512C201.6 139.347 201.216 139.264 200.762 139.264C200.346 139.264 199.978 139.336 199.658 139.48C199.344 139.624 199.077 139.832 198.858 140.104C198.645 140.371 198.482 140.696 198.37 141.08C198.258 141.464 198.202 141.901 198.202 142.392L197.37 142.208C197.37 141.323 197.525 140.579 197.834 139.976C198.144 139.373 198.57 138.917 199.114 138.608C199.658 138.299 200.282 138.144 200.986 138.144C201.504 138.144 201.954 138.224 202.338 138.384C202.728 138.544 203.056 138.76 203.322 139.032C203.594 139.304 203.813 139.616 203.978 139.968C204.144 140.315 204.264 140.685 204.338 141.08C204.413 141.469 204.45 141.859 204.45 142.248V147H203.266ZM197.018 147V138.36H198.082V140.488H198.202V147H197.018ZM209.831 147.24C209.026 147.24 208.338 147.04 207.767 146.64C207.197 146.235 206.759 145.688 206.455 145C206.151 144.312 205.999 143.536 205.999 142.672C205.999 141.813 206.149 141.04 206.447 140.352C206.751 139.664 207.186 139.12 207.751 138.72C208.317 138.32 208.994 138.12 209.783 138.12C210.594 138.12 211.277 138.317 211.831 138.712C212.386 139.107 212.805 139.648 213.087 140.336C213.375 141.019 213.519 141.797 213.519 142.672C213.519 143.531 213.378 144.307 213.095 145C212.813 145.688 212.397 146.235 211.847 146.64C211.298 147.04 210.626 147.24 209.831 147.24ZM209.951 146.144C210.565 146.144 211.071 145.995 211.471 145.696C211.871 145.397 212.17 144.987 212.367 144.464C212.565 143.936 212.663 143.339 212.663 142.672C212.663 141.995 212.565 141.397 212.367 140.88C212.17 140.357 211.871 139.949 211.471 139.656C211.077 139.363 210.578 139.216 209.975 139.216C209.357 139.216 208.845 139.368 208.439 139.672C208.034 139.976 207.733 140.389 207.535 140.912C207.343 141.435 207.247 142.021 207.247 142.672C207.247 143.328 207.346 143.92 207.543 144.448C207.746 144.971 208.047 145.384 208.447 145.688C208.847 145.992 209.349 146.144 209.951 146.144ZM212.663 147V140.496H212.535V135.48H213.719V147H212.663ZM216.124 136.72V135.4H217.3V136.72H216.124ZM216.124 147V138.36H217.3V147H216.124ZM222.922 147.232C221.909 147.232 221.074 147.013 220.418 146.576C219.767 146.139 219.367 145.531 219.218 144.752L220.418 144.552C220.546 145.043 220.837 145.435 221.29 145.728C221.749 146.016 222.314 146.16 222.986 146.16C223.642 146.16 224.159 146.024 224.538 145.752C224.917 145.475 225.106 145.099 225.106 144.624C225.106 144.357 225.045 144.141 224.922 143.976C224.805 143.805 224.562 143.648 224.194 143.504C223.826 143.36 223.277 143.189 222.546 142.992C221.762 142.779 221.149 142.565 220.706 142.352C220.263 142.139 219.949 141.893 219.762 141.616C219.575 141.333 219.482 140.989 219.482 140.584C219.482 140.093 219.621 139.664 219.898 139.296C220.175 138.923 220.559 138.635 221.05 138.432C221.541 138.224 222.111 138.12 222.762 138.12C223.413 138.12 223.994 138.227 224.506 138.44C225.023 138.648 225.439 138.941 225.754 139.32C226.069 139.699 226.255 140.139 226.314 140.64L225.114 140.856C225.034 140.349 224.781 139.949 224.354 139.656C223.933 139.357 223.397 139.203 222.746 139.192C222.133 139.176 221.634 139.293 221.25 139.544C220.866 139.789 220.674 140.117 220.674 140.528C220.674 140.757 220.743 140.955 220.882 141.12C221.021 141.28 221.271 141.432 221.634 141.576C222.002 141.72 222.525 141.877 223.202 142.048C223.997 142.251 224.621 142.464 225.074 142.688C225.527 142.912 225.85 143.176 226.042 143.48C226.234 143.784 226.33 144.16 226.33 144.608C226.33 145.424 226.026 146.067 225.418 146.536C224.815 147 223.983 147.232 222.922 147.232ZM231.328 147.232C230.315 147.232 229.48 147.013 228.824 146.576C228.174 146.139 227.774 145.531 227.624 144.752L228.824 144.552C228.952 145.043 229.243 145.435 229.696 145.728C230.155 146.016 230.72 146.16 231.392 146.16C232.048 146.16 232.566 146.024 232.944 145.752C233.323 145.475 233.512 145.099 233.512 144.624C233.512 144.357 233.451 144.141 233.328 143.976C233.211 143.805 232.968 143.648 232.6 143.504C232.232 143.36 231.683 143.189 230.952 142.992C230.168 142.779 229.555 142.565 229.112 142.352C228.67 142.139 228.355 141.893 228.168 141.616C227.982 141.333 227.888 140.989 227.888 140.584C227.888 140.093 228.027 139.664 228.304 139.296C228.582 138.923 228.966 138.635 229.456 138.432C229.947 138.224 230.518 138.12 231.168 138.12C231.819 138.12 232.4 138.227 232.912 138.44C233.43 138.648 233.846 138.941 234.16 139.32C234.475 139.699 234.662 140.139 234.72 140.64L233.52 140.856C233.44 140.349 233.187 139.949 232.76 139.656C232.339 139.357 231.803 139.203 231.152 139.192C230.539 139.176 230.04 139.293 229.656 139.544C229.272 139.789 229.08 140.117 229.08 140.528C229.08 140.757 229.15 140.955 229.288 141.12C229.427 141.28 229.678 141.432 230.04 141.576C230.408 141.72 230.931 141.877 231.608 142.048C232.403 142.251 233.027 142.464 233.48 142.688C233.934 142.912 234.256 143.176 234.448 143.48C234.64 143.784 234.736 144.16 234.736 144.608C234.736 145.424 234.432 146.067 233.824 146.536C233.222 147 232.39 147.232 231.328 147.232ZM240.167 147.24C239.324 147.24 238.593 147.053 237.975 146.68C237.361 146.307 236.884 145.781 236.543 145.104C236.201 144.427 236.031 143.632 236.031 142.72C236.031 141.776 236.199 140.96 236.535 140.272C236.871 139.584 237.343 139.053 237.951 138.68C238.564 138.307 239.287 138.12 240.119 138.12C240.972 138.12 241.7 138.317 242.303 138.712C242.905 139.101 243.361 139.661 243.671 140.392C243.98 141.123 244.121 141.995 244.095 143.008H242.895V142.592C242.873 141.472 242.631 140.627 242.167 140.056C241.708 139.485 241.036 139.2 240.151 139.2C239.223 139.2 238.511 139.501 238.015 140.104C237.524 140.707 237.279 141.565 237.279 142.68C237.279 143.768 237.524 144.613 238.015 145.216C238.511 145.813 239.212 146.112 240.119 146.112C240.737 146.112 241.276 145.971 241.735 145.688C242.199 145.4 242.564 144.987 242.831 144.448L243.927 144.872C243.585 145.624 243.081 146.208 242.415 146.624C241.753 147.035 241.004 147.24 240.167 147.24ZM236.863 143.008V142.024H243.463V143.008H236.863ZM29 172.24C28.2053 172.24 27.5333 172.04 26.984 171.64C26.4347 171.235 26.0187 170.688 25.736 170C25.4533 169.307 25.312 168.531 25.312 167.672C25.312 166.797 25.4533 166.019 25.736 165.336C26.024 164.648 26.4453 164.107 27 163.712C27.5547 163.317 28.2373 163.12 29.048 163.12C29.8373 163.12 30.5147 163.32 31.08 163.72C31.6453 164.12 32.0773 164.664 32.376 165.352C32.68 166.04 32.832 166.813 32.832 167.672C32.832 168.536 32.68 169.312 32.376 170C32.072 170.688 31.6347 171.235 31.064 171.64C30.4933 172.04 29.8053 172.24 29 172.24ZM25.112 172V160.48H26.296V165.496H26.168V172H25.112ZM28.88 171.144C29.4827 171.144 29.984 170.992 30.384 170.688C30.784 170.384 31.0827 169.971 31.28 169.448C31.4827 168.92 31.584 168.328 31.584 167.672C31.584 167.021 31.4853 166.435 31.288 165.912C31.0907 165.389 30.7893 164.976 30.384 164.672C29.984 164.368 29.4747 164.216 28.856 164.216C28.2533 164.216 27.752 164.363 27.352 164.656C26.9573 164.949 26.6613 165.357 26.464 165.88C26.2667 166.397 26.168 166.995 26.168 167.672C26.168 168.339 26.2667 168.936 26.464 169.464C26.6613 169.987 26.96 170.397 27.36 170.696C27.76 170.995 28.2667 171.144 28.88 171.144ZM34.7488 172V160.24H35.9248V172H34.7488ZM40.7951 172.24C40.1445 172.24 39.5978 172.123 39.1551 171.888C38.7178 171.653 38.3898 171.341 38.1711 170.952C37.9525 170.563 37.8431 170.139 37.8431 169.68C37.8431 169.211 37.9365 168.811 38.1231 168.48C38.3151 168.144 38.5738 167.869 38.8991 167.656C39.2298 167.443 39.6111 167.28 40.0431 167.168C40.4805 167.061 40.9631 166.968 41.4911 166.888C42.0245 166.803 42.5445 166.731 43.0511 166.672C43.5631 166.608 44.0111 166.547 44.3951 166.488L43.9791 166.744C43.9951 165.891 43.8298 165.259 43.4831 164.848C43.1365 164.437 42.5338 164.232 41.6751 164.232C41.0831 164.232 40.5818 164.365 40.1711 164.632C39.7658 164.899 39.4805 165.32 39.3151 165.896L38.1711 165.56C38.3685 164.787 38.7658 164.187 39.3631 163.76C39.9605 163.333 40.7365 163.12 41.6911 163.12C42.4805 163.12 43.1498 163.269 43.6991 163.568C44.2538 163.861 44.6458 164.288 44.8751 164.848C44.9818 165.099 45.0511 165.379 45.0831 165.688C45.1151 165.997 45.1311 166.312 45.1311 166.632V172H44.0831V169.832L44.3871 169.96C44.0938 170.701 43.6378 171.267 43.0191 171.656C42.4005 172.045 41.6591 172.24 40.7951 172.24ZM40.9311 171.224C41.4805 171.224 41.9605 171.125 42.3711 170.928C42.7818 170.731 43.1125 170.461 43.3631 170.12C43.6138 169.773 43.7765 169.384 43.8511 168.952C43.9151 168.675 43.9498 168.371 43.9551 168.04C43.9605 167.704 43.9631 167.453 43.9631 167.288L44.4111 167.52C44.0111 167.573 43.5765 167.627 43.1071 167.68C42.6431 167.733 42.1845 167.795 41.7311 167.864C41.2831 167.933 40.8778 168.016 40.5151 168.112C40.2698 168.181 40.0325 168.28 39.8031 168.408C39.5738 168.531 39.3845 168.696 39.2351 168.904C39.0911 169.112 39.0191 169.371 39.0191 169.68C39.0191 169.931 39.0805 170.173 39.2031 170.408C39.3311 170.643 39.5338 170.837 39.8111 170.992C40.0938 171.147 40.4671 171.224 40.9311 171.224ZM53.4538 172V167.592C53.4538 167.112 53.4084 166.672 53.3178 166.272C53.2271 165.867 53.0804 165.515 52.8778 165.216C52.6804 164.912 52.4218 164.677 52.1018 164.512C51.7871 164.347 51.4031 164.264 50.9498 164.264C50.5338 164.264 50.1658 164.336 49.8458 164.48C49.5311 164.624 49.2644 164.832 49.0458 165.104C48.8324 165.371 48.6698 165.696 48.5578 166.08C48.4458 166.464 48.3898 166.901 48.3898 167.392L47.5578 167.208C47.5578 166.323 47.7124 165.579 48.0218 164.976C48.3311 164.373 48.7578 163.917 49.3018 163.608C49.8458 163.299 50.4698 163.144 51.1738 163.144C51.6911 163.144 52.1418 163.224 52.5258 163.384C52.9151 163.544 53.2431 163.76 53.5098 164.032C53.7818 164.304 54.0004 164.616 54.1658 164.968C54.3311 165.315 54.4511 165.685 54.5258 166.08C54.6004 166.469 54.6378 166.859 54.6378 167.248V172H53.4538ZM47.2058 172V163.36H48.2698V165.488H48.3898V172H47.2058ZM60.0189 172.24C59.2135 172.24 58.5255 172.04 57.9549 171.64C57.3842 171.235 56.9469 170.688 56.6429 170C56.3389 169.312 56.1869 168.536 56.1869 167.672C56.1869 166.813 56.3362 166.04 56.6349 165.352C56.9389 164.664 57.3735 164.12 57.9389 163.72C58.5042 163.32 59.1815 163.12 59.9709 163.12C60.7815 163.12 61.4642 163.317 62.0189 163.712C62.5735 164.107 62.9922 164.648 63.2749 165.336C63.5629 166.019 63.7069 166.797 63.7069 167.672C63.7069 168.531 63.5655 169.307 63.2829 170C63.0002 170.688 62.5842 171.235 62.0349 171.64C61.4855 172.04 60.8135 172.24 60.0189 172.24ZM60.1389 171.144C60.7522 171.144 61.2589 170.995 61.6589 170.696C62.0589 170.397 62.3575 169.987 62.5549 169.464C62.7522 168.936 62.8509 168.339 62.8509 167.672C62.8509 166.995 62.7522 166.397 62.5549 165.88C62.3575 165.357 62.0589 164.949 61.6589 164.656C61.2642 164.363 60.7655 164.216 60.1629 164.216C59.5442 164.216 59.0322 164.368 58.6269 164.672C58.2215 164.976 57.9202 165.389 57.7229 165.912C57.5309 166.435 57.4349 167.021 57.4349 167.672C57.4349 168.328 57.5335 168.92 57.7309 169.448C57.9335 169.971 58.2349 170.384 58.6349 170.688C59.0349 170.992 59.5362 171.144 60.1389 171.144ZM62.8509 172V165.496H62.7229V160.48H63.9069V172H62.8509ZM66.3113 161.72V160.4H67.4873V161.72H66.3113ZM66.3113 172V163.36H67.4873V172H66.3113ZM74.5896 172C74.1043 172.101 73.6243 172.141 73.1496 172.12C72.6803 172.099 72.259 171.997 71.8856 171.816C71.5176 171.635 71.2376 171.352 71.0456 170.968C70.891 170.648 70.8056 170.325 70.7896 170C70.779 169.669 70.7736 169.293 70.7736 168.872V160.96H71.9416V168.824C71.9416 169.187 71.9443 169.491 71.9496 169.736C71.9603 169.976 72.0163 170.189 72.1176 170.376C72.3096 170.733 72.6136 170.947 73.0296 171.016C73.451 171.085 73.971 171.069 74.5896 170.968V172ZM68.9256 164.368V163.36H74.5896V164.368H68.9256ZM78.215 175.84V174.704H78.703C79.0923 174.704 79.4017 174.603 79.631 174.4C79.8657 174.203 79.983 173.869 79.983 173.4V163.36H81.151V173.696C81.151 174.416 80.9777 174.952 80.631 175.304C80.2897 175.661 79.7643 175.84 79.055 175.84H78.215ZM79.983 161.72V160.4H81.151V161.72H79.983ZM86.8146 172.216C86.2973 172.216 85.844 172.136 85.4546 171.976C85.0706 171.816 84.7426 171.6 84.4706 171.328C84.204 171.056 83.988 170.747 83.8226 170.4C83.6573 170.048 83.5373 169.677 83.4626 169.288C83.388 168.893 83.3506 168.501 83.3506 168.112V163.36H84.5346V167.768C84.5346 168.243 84.58 168.683 84.6706 169.088C84.7613 169.493 84.9053 169.848 85.1026 170.152C85.3053 170.451 85.564 170.683 85.8786 170.848C86.1986 171.013 86.5853 171.096 87.0386 171.096C87.4546 171.096 87.82 171.024 88.1346 170.88C88.4546 170.736 88.7213 170.531 88.9346 170.264C89.1533 169.992 89.3186 169.664 89.4306 169.28C89.5426 168.891 89.5986 168.453 89.5986 167.968L90.4306 168.152C90.4306 169.037 90.276 169.781 89.9666 170.384C89.6573 170.987 89.2306 171.443 88.6866 171.752C88.1426 172.061 87.5186 172.216 86.8146 172.216ZM89.7186 172V169.872H89.5986V163.36H90.7746V172H89.7186ZM96.2346 172.232C95.2213 172.232 94.3866 172.013 93.7306 171.576C93.08 171.139 92.68 170.531 92.5306 169.752L93.7306 169.552C93.8586 170.043 94.1493 170.435 94.6026 170.728C95.0613 171.016 95.6266 171.16 96.2986 171.16C96.9546 171.16 97.472 171.024 97.8506 170.752C98.2293 170.475 98.4186 170.099 98.4186 169.624C98.4186 169.357 98.3573 169.141 98.2346 168.976C98.1173 168.805 97.8746 168.648 97.5066 168.504C97.1386 168.36 96.5893 168.189 95.8586 167.992C95.0746 167.779 94.4613 167.565 94.0186 167.352C93.576 167.139 93.2613 166.893 93.0746 166.616C92.888 166.333 92.7946 165.989 92.7946 165.584C92.7946 165.093 92.9333 164.664 93.2106 164.296C93.488 163.923 93.872 163.635 94.3626 163.432C94.8533 163.224 95.424 163.12 96.0746 163.12C96.7253 163.12 97.3066 163.227 97.8186 163.44C98.336 163.648 98.752 163.941 99.0666 164.32C99.3813 164.699 99.568 165.139 99.6266 165.64L98.4266 165.856C98.3466 165.349 98.0933 164.949 97.6666 164.656C97.2453 164.357 96.7093 164.203 96.0586 164.192C95.4453 164.176 94.9466 164.293 94.5626 164.544C94.1786 164.789 93.9866 165.117 93.9866 165.528C93.9866 165.757 94.056 165.955 94.1946 166.12C94.3333 166.28 94.584 166.432 94.9466 166.576C95.3146 166.72 95.8373 166.877 96.5146 167.048C97.3093 167.251 97.9333 167.464 98.3866 167.688C98.84 167.912 99.1626 168.176 99.3546 168.48C99.5466 168.784 99.6426 169.16 99.6426 169.608C99.6426 170.424 99.3386 171.067 98.7306 171.536C98.128 172 97.296 172.232 96.2346 172.232ZM106.121 172C105.636 172.101 105.156 172.141 104.681 172.12C104.212 172.099 103.79 171.997 103.417 171.816C103.049 171.635 102.769 171.352 102.577 170.968C102.422 170.648 102.337 170.325 102.321 170C102.31 169.669 102.305 169.293 102.305 168.872V160.96H103.473V168.824C103.473 169.187 103.476 169.491 103.481 169.736C103.492 169.976 103.548 170.189 103.649 170.376C103.841 170.733 104.145 170.947 104.561 171.016C104.982 171.085 105.502 171.069 106.121 170.968V172ZM100.457 164.368V163.36H106.121V164.368H100.457ZM111.119 172.24C110.26 172.24 109.527 172.045 108.919 171.656C108.311 171.267 107.844 170.728 107.519 170.04C107.193 169.352 107.031 168.563 107.031 167.672C107.031 166.765 107.196 165.971 107.527 165.288C107.857 164.605 108.327 164.075 108.935 163.696C109.548 163.312 110.276 163.12 111.119 163.12C111.983 163.12 112.719 163.315 113.327 163.704C113.94 164.088 114.407 164.624 114.727 165.312C115.052 165.995 115.215 166.781 115.215 167.672C115.215 168.579 115.052 169.376 114.727 170.064C114.401 170.747 113.932 171.28 113.319 171.664C112.705 172.048 111.972 172.24 111.119 172.24ZM111.119 171.112C112.079 171.112 112.793 170.795 113.263 170.16C113.732 169.52 113.967 168.691 113.967 167.672C113.967 166.627 113.729 165.795 113.255 165.176C112.785 164.557 112.073 164.248 111.119 164.248C110.473 164.248 109.94 164.395 109.519 164.688C109.103 164.976 108.791 165.379 108.583 165.896C108.38 166.408 108.279 167 108.279 167.672C108.279 168.712 108.519 169.547 108.999 170.176C109.479 170.8 110.185 171.112 111.119 171.112ZM116.891 172V170.632H118.259V172H116.891Z" fill="#565973"/>
</svg>
