<svg width="306" height="205" viewBox="0 0 306 205" fill="none" xmlns="http://www.w3.org/2000/svg">
<rect width="306" height="205" rx="12" fill="white"/>
<path fill-rule="evenodd" clip-rule="evenodd" d="M77.231 64.0175L77.2259 64.0358C77.0563 64.6564 72.8606 80.0051 57.1038 80.0005C43.2647 79.9962 36.7052 67.8263 36.7052 67.8263C35.6966 67.8832 34.7234 67.7211 33.8258 67.3875C29.7655 65.8784 27.8174 61.1789 29.2184 57.2361L26.9868 55.5108C18.3426 48.8487 42.8301 18.3626 51.4894 25.2609C51.5332 25.2958 53.5564 26.9434 53.5564 26.9434C56.6656 25.0332 59.7447 24.0006 62.2477 24.0005C64.0252 24.0003 65.5118 24.5209 66.5129 25.6176C68.7604 28.0796 67.9527 32.7811 64.8837 37.541C65.5438 38.175 66.0908 39.0367 66.4813 39.8921C67.457 40.6537 68.0894 41.8116 68.4036 43.4108C68.598 44.3985 68.7067 45.6189 68.8027 46.6954C68.8794 47.557 68.948 48.3263 69.0456 48.8102C69.2527 48.9048 69.3859 48.9647 69.483 49.0084C69.5743 49.0495 69.6338 49.0763 69.6928 49.104C69.8029 49.1557 69.9115 49.2106 70.2228 49.368C70.2765 49.3952 70.3362 49.4254 70.4031 49.4592C71.3232 49.9244 72.4435 50.4909 73.6817 51.6963C75.8826 52.2541 76.723 54.6214 75.4352 56.2371C75.4006 56.2804 75.2451 56.4669 75.0841 56.6523C75.09 56.668 75.1048 56.6974 75.1268 56.7411L75.1269 56.7413C75.249 56.9834 75.5913 57.6624 75.8493 58.8554C76.7613 59.0733 77.4878 59.6414 77.869 60.4653C78.5284 62.0776 77.231 64.0175 77.231 64.0175ZM70.8853 75.9832V76.6464H71.1363V75.9832H71.3931V75.7739H70.6318V75.9832H70.8853ZM71.4697 76.6464V75.7739H71.8275L71.9845 76.276L72.1391 75.7739H72.4971V76.6464H72.2681V76.0148L72.081 76.6464H71.8858L71.6987 76.0165V76.6464H71.4697Z" fill="#5B453E"/>
<path fill-rule="evenodd" clip-rule="evenodd" d="M75.8237 63.0807C75.625 63.8244 74.6512 67.4696 70.7534 70.5437C65.3395 74.8142 58.2262 74.382 55.5396 71.9888C54.1045 70.6414 53.4832 68.7143 53.4832 68.7143C53.4832 68.7143 53.3207 69.8002 53.293 70.2268C52.2103 68.3786 52.3019 66.1212 52.3019 66.1212C52.3019 66.1212 51.7243 67.2022 51.46 67.8077C50.6632 65.7721 51.0749 63.6702 51.0749 63.6702L50.4445 64.6133C50.4445 64.6133 50.1489 62.3095 50.8746 60.3904C51.6502 58.3398 53.1541 56.8501 53.4513 56.6644C52.3103 56.3004 50.9958 55.2568 50.9936 55.2549C50.9936 55.2549 51.5163 55.2896 51.8797 55.2059C51.8797 55.2059 49.5727 53.547 49.1683 51.0089C49.5025 51.4234 50.2037 51.8917 50.2037 51.8917C49.9767 51.2275 49.8394 49.7498 50.0515 48.2954L50.0522 48.2938C50.4886 45.5155 52.7699 43.7063 55.3537 43.729C55.8474 43.7334 56.3119 43.7556 56.7551 43.7769C58.7813 43.874 60.3618 43.9498 62.254 42.1984C62.2806 42.1737 62.307 42.1492 62.3331 42.125C62.7854 41.7048 63.169 41.3485 63.8166 41.2044C63.8294 41.2015 63.8456 41.1968 63.8655 41.191C63.9582 41.164 64.1331 41.113 64.4357 41.113C64.8077 41.113 65.166 41.197 65.4939 41.3929C66.7447 42.1402 67.0143 44.0892 67.1488 45.5183C67.4526 48.7581 67.4956 49.6652 67.971 50.1303C68.2735 50.4262 68.751 50.5432 69.582 50.9682C69.6803 51.0184 69.7799 51.0683 69.8806 51.1188C70.8241 51.5921 71.8731 52.1184 73.0509 53.3842C73.0575 53.3913 73.0668 53.3955 73.0765 53.3957C74.1759 53.4221 74.7426 54.291 74.2353 54.9237C70.5461 59.3461 65.3934 61.4638 59.6509 61.641C59.4667 61.6457 59.1043 61.6542 58.9499 61.6578C58.9053 61.6589 58.878 61.6595 58.8774 61.6595C56.5581 61.73 55.8029 64.7418 57.2581 66.5531C58.1779 67.6979 59.947 68.0741 61.4031 68.0798L61.4237 68.0724C67.7023 68.2001 74.0101 63.7405 75.0995 61.2812C75.1074 61.2635 75.174 61.1069 75.174 61.1069C75.174 61.1069 75.116 61.1751 75.046 61.2327C75.0426 61.235 75.026 61.2502 74.9967 61.2771C74.4016 61.8228 68.5627 67.1768 61.3741 66.9745C61.3741 66.9745 60.5616 66.9576 59.7966 66.7788C58.7877 66.5432 58.0212 66.0983 57.7279 65.0889C57.6407 64.904 57.5906 64.2644 57.7065 63.8339C58.022 62.7739 58.5504 62.7646 59.368 62.7503C59.4904 62.7482 59.6192 62.7459 59.7547 62.74H59.7549C63.474 62.6157 66.4751 61.677 68.7242 60.6052C71.1226 59.4622 72.9505 57.9896 73.609 57.2462C74.4632 58.6898 74.4581 60.5436 74.4581 60.5436C74.4581 60.5436 74.7931 60.4261 75.2366 60.4261C76.6306 60.4262 76.9175 61.6777 75.8623 62.948C75.8558 62.9608 75.8436 63.0062 75.8237 63.0807ZM41.1708 56.276C41.1708 56.276 40.9972 56.9971 40.6528 57.8757C40.3222 55.0636 39.1464 54.4686 39.1464 54.4687C38.4652 54.1519 37.7121 53.976 36.9203 53.976C33.8652 53.976 31.3887 56.593 31.3887 59.8215C31.3887 63.0498 33.8652 65.6668 36.9203 65.6668C40.3612 65.6668 42.9731 62.3782 42.3652 58.7856C42.3652 58.7856 42.0143 59.6077 41.6875 60.0442C41.7667 58.7581 41.565 57.4857 41.1708 56.276Z" fill="#F2D8B4"/>
<path d="M29.6403 55.1108C29.6183 55.1051 27.539 53.6252 27.2432 53.1379C25.4938 50.2746 28.5374 44.3934 30.7034 41.0505C36.0559 32.7886 44.9652 26.2684 49.0117 27.1996L53.1671 29.2799C51.5536 30.2004 49.9931 31.331 49.0583 32.083L48.1741 32.8021C48.1741 32.8021 45.5919 34.4882 44.3077 35.5512C39.1595 39.8117 34.0906 46.4073 32.2108 52.7739C32.2108 52.7737 30.6662 53.5174 29.6403 55.1108Z" fill="#207EAC"/>
<path d="M50.0553 27.2071C45.9306 26.1969 36.8494 33.2706 31.3934 42.2342C31.3918 42.2367 31.3903 42.2394 31.3887 42.242L31.4107 42.2444L35.7581 45.7775C40.5315 37.9558 46.5309 33.9227 46.7001 33.8042L46.0108 29.0169L47.3021 28.3787L49.8936 29.245L49.6953 28.3513L50.0553 27.2071Z" fill="#4FB1D3"/>
<path d="M56.2777 28.3727L51.557 31.5351L51.2267 31.7813L47.0405 28.5238L46.9443 27.9078L48.3998 27.2441C48.4746 27.2671 51.2057 28.1095 51.3209 28.145L51.3696 26.4178L51.5033 26.0257L52.782 25.5591C52.7838 25.5603 56.2728 28.3687 56.2777 28.3727Z" fill="#FACD55"/>
<path d="M61.4691 25.5591C58.8023 25.5591 55.8083 27.038 53.5115 28.492C53.1893 28.6919 52.8697 28.9011 52.5565 29.1143L51.3548 28.0521L51.7912 29.6515C51.6262 29.771 51.4652 29.8902 51.3075 30.0087L48.8243 29.2092L50.4674 30.6594C50.0922 30.9591 49.7571 31.2397 49.4791 31.4828L45.539 28.0525L45.7476 29.5898L48.6113 32.2502C48.6113 32.2502 46.077 34.0491 44.8166 35.1832C39.7641 39.7289 34.7892 46.7663 32.9443 53.5591L33.0492 53.4969C33.0634 53.4886 33.0778 53.4817 33.092 53.4734C33.1434 53.4443 33.1945 53.4165 33.2458 53.3892C33.2788 53.3718 33.3115 53.3541 33.3445 53.3375C33.3972 53.3108 33.4501 53.2859 33.503 53.2614C33.5341 53.2468 33.5654 53.2316 33.5966 53.2179C33.6538 53.1926 33.7109 53.1696 33.7681 53.1468C33.7946 53.1363 33.821 53.1247 33.8474 53.1148C33.9307 53.0833 34.0137 53.0543 34.0965 53.0282C35.3508 52.6337 37.0572 52.3801 39.0548 53.2744C40.0579 50.6066 41.2564 47.8924 43.1451 45.2844C44.6766 43.1697 46.1486 41.2818 47.9155 40.2435C51.2609 36.9299 60.2777 33.4163 63.1664 36.4619C63.8494 35.2838 64.4422 34.1686 64.9306 32.7705C66.1359 29.4084 66.1579 25.5591 61.4691 25.5591Z" fill="#070A11"/>
<path d="M51.6112 28.6664L50.6317 27.1108L50.0557 27.8858L50.4004 28.495L51.6112 28.6664Z" fill="#070A11"/>
<path fill-rule="evenodd" clip-rule="evenodd" d="M60.6705 25.5591C59.2062 25.7126 57.6795 26.2454 56.2551 26.9197C51.4467 29.2353 48.0906 32.6511 47.6881 33.0608C47.6708 33.0784 47.659 33.0905 47.6527 33.0967C47.2533 33.4901 46.8552 33.8975 46.4603 34.3169C45.2853 35.5643 44.1375 36.9151 43.0618 38.3042C41.1599 40.7603 40.3685 41.9064 39.167 44.2409C39.1668 44.2412 39.175 44.2311 39.1911 44.2113C39.6256 43.6772 45.7941 36.0937 47.3726 34.486C50.3765 31.4263 55.2934 28.0188 55.3445 27.9885C57.4441 26.6693 59.2162 25.895 60.6705 25.5591ZM72.5614 56.3556C73.389 57.7865 73.384 59.6237 73.384 59.6237C73.3982 60.151 73.3813 60.4418 73.3526 60.8496C71.6742 62.3047 66.67 66.1691 60.7075 65.9973C60.7075 65.9973 59.9202 65.9807 59.179 65.8035C58.2069 65.5713 57.467 65.1337 57.1793 64.1447L57.1747 64.1287L57.1742 64.1275C57.1697 64.1173 57.1327 64.0282 57.1089 63.8363L57.1079 63.8288L57.1072 63.8216C57.1018 63.7737 57.0973 63.7228 57.0941 63.6698L57.0931 63.6512L57.0928 63.6451C57.0886 63.5602 57.0875 63.463 57.091 63.3526C57.0925 63.3139 57.0948 63.2753 57.0979 63.2367L57.0984 63.2368L57.0988 63.2246C57.1089 63.1053 57.1266 62.9888 57.1541 62.8847C57.4598 61.8341 57.9718 61.825 58.7639 61.8108C58.8824 61.8086 59.0072 61.8064 59.1386 61.8005H59.1387C62.742 61.6773 65.6497 60.7469 67.8287 59.6847C70.1524 58.5519 71.9233 57.0924 72.5614 56.3556Z" fill="#FFFFFE"/>
<path fill-rule="evenodd" clip-rule="evenodd" d="M66.4017 47.1163C66.6631 49.9029 66.7252 50.5647 67.2776 50.9573C67.2928 50.9722 67.3083 50.9849 67.3239 50.9952C66.9531 51.1034 66.6212 51.2051 66.3269 51.2982C65.7847 50.5631 65.0317 49.8757 63.4839 49.9874C61.4326 50.1635 59.8025 51.9974 60.0976 53.8184C59.1229 54.3101 58.215 54.82 57.3706 55.3392C55.9775 55.4885 54.2804 55.9696 52.7836 57.2227C51.6554 56.8674 50.3555 55.8489 50.3532 55.8471C50.3532 55.8471 50.8702 55.8809 51.2294 55.7992C51.2294 55.7992 51.2045 55.7814 51.1596 55.747C51.1576 55.7446 51.1554 55.7421 51.1527 55.74C51.122 55.7161 51.0908 55.6922 51.0591 55.6681C50.5225 55.2367 48.8818 53.7679 48.5483 51.7028C48.8788 52.1074 49.5723 52.5644 49.5723 52.5644C49.5639 52.5406 49.5559 52.5157 49.5478 52.4897C49.5487 52.487 49.5493 52.4841 49.5495 52.4812L49.5497 52.4778C49.5497 52.4778 49.4534 52.2033 49.3859 51.6743C49.3673 51.5256 49.3521 51.3673 49.3406 51.2015C49.3333 51.0897 49.3277 50.9711 49.3244 50.8453C49.4093 49.8014 49.6755 48.9243 50.3387 48.0945C51.3057 46.8848 52.6326 46.3932 54.1635 46.4168C54.585 46.4222 55.0108 46.4657 55.4546 46.511C55.8808 46.5545 56.3236 46.5998 56.7951 46.6145C58.1099 46.6556 59.3765 46.4389 60.7091 45.8413C62.026 45.2195 62.7704 44.5019 63.5497 43.3877C63.8242 43.0872 64.3085 42.6474 64.7369 42.6661C65.021 42.6661 65.2181 42.8056 65.3584 42.927C66.0365 43.8342 66.2242 45.2464 66.3289 46.3443C66.3549 46.6183 66.379 46.8753 66.4017 47.1163ZM62.3975 52.4923C62.7139 51.4817 64.1494 50.9957 65.016 51.6064C64.6288 51.8295 64.5095 52.4766 64.7457 52.8519C64.2559 52.8429 63.7524 53.0346 63.3983 53.3742C63.4312 52.8932 62.899 52.5173 62.3975 52.4923ZM67.6325 72.2225C68.4073 71.8187 69.1663 71.3371 69.8941 70.7704C73.748 67.7705 74.7113 64.2133 74.908 63.4867C74.9277 63.4138 74.9398 63.3694 74.9462 63.3569C73.1621 65.6424 70.8282 67.4587 68.3308 68.716C66.2774 69.7505 64.7412 70.1104 64.7412 70.1104C64.7412 70.1104 65.8408 71.5478 67.6325 72.2225ZM55.9237 63.9373C56.1968 62.9306 56.9678 62.1331 58.1495 62.0976L58.2221 62.0959C58.3754 62.0924 58.7327 62.0841 58.9144 62.0795C64.593 61.9066 69.6883 59.8397 73.3365 55.5234C73.8381 54.906 73.2778 54.0579 72.1905 54.0321L72.1823 54.0321L72.175 54.0321C72.081 54.1306 72.0264 54.2707 71.9549 54.4544C71.8866 54.6299 71.8027 54.8453 71.654 55.1022C70.5444 57.0122 69.0096 57.8857 66.9629 58.899C63.6359 60.54 61.1582 60.9061 59.3698 61.1703C57.7852 61.4045 56.7417 61.5586 56.1283 62.4489C55.7488 63.0065 55.7416 63.6294 55.9237 63.9373ZM68.0185 63.2241C68.0029 63.2244 67.9867 63.2279 67.9608 63.2336C67.8799 63.2522 67.7004 63.3102 67.4404 63.3943C65.7137 63.9527 60.4385 65.6586 56.935 64.5684C56.9169 64.7869 56.9227 65.2461 57.0131 65.4456L57.0135 65.4468C57.6233 65.5679 58.395 65.6453 59.2907 65.6453C64.5951 65.6453 68.4178 63.256 68.0185 63.2241ZM38.3469 62.7318L38.3423 62.7349C35.8497 62.917 33.5449 59.7611 34.9057 58.021C35.092 57.8819 35.2515 57.802 35.3145 57.7704C35.3256 57.7649 35.3336 57.7608 35.3384 57.7582C35.3748 57.7391 35.412 57.7235 35.4508 57.7073C35.4776 57.6962 35.5051 57.6847 35.5335 57.6715C35.5607 57.6602 35.5921 57.6508 35.6266 57.6411C35.7371 57.6102 35.7609 57.6015 35.7852 57.5946C35.8094 57.5877 35.8341 57.5826 35.9458 57.5592H35.9456C37.1561 57.3051 38.0101 57.8359 38.3819 58.3577C38.5532 58.5979 38.59 58.7784 38.6167 58.9094C38.6254 58.952 38.633 58.9893 38.6438 59.0217L38.644 59.0233C38.3541 58.6227 37.9798 58.5349 37.9798 58.5349C37.6643 58.4104 37.0578 58.6007 37.0183 59.2771C37 59.5373 37.0783 59.8289 37.303 60.0852L37.3046 60.0871C37.3126 60.0962 37.3208 60.1053 37.3292 60.1143C37.337 60.1227 37.3449 60.131 37.3528 60.1391C37.537 60.3282 37.7559 60.4658 37.9649 60.5972C38.3236 60.8226 38.6533 61.0298 38.7286 61.4476C38.8053 61.9073 38.6698 62.3879 38.3469 62.7318Z" fill="#E2B986"/>
<path fill-rule="evenodd" clip-rule="evenodd" d="M63.0061 36.1531C61.0002 34.5847 55.1451 35.0289 49.2835 38.8922C46.5997 40.661 44.6317 42.5957 43.1147 44.6058C43.1147 44.6058 45.4564 40.0793 50.6018 37.0852C50.2431 37.0266 49.3996 37.1292 49.1577 37.1586C49.1411 37.1607 49.1274 37.1623 49.1168 37.1636C50.0515 36.3461 51.7881 35.8003 52.988 35.5521C52.6368 35.3249 51.8004 35.2675 51.3852 35.2563C51.272 35.2533 51.2644 35.2536 51.15 35.2585C51.1404 35.2589 51.13 35.2594 51.1188 35.2598C52.2474 34.6181 54.3401 34.2415 56.2424 34.5817C56.0034 34.259 55.4611 34.0235 55.0811 33.909C55.0479 33.8989 54.8987 33.8612 54.8987 33.8612C54.8987 33.8612 55.0258 33.8307 55.0419 33.8275C56.1879 33.6031 57.5266 33.8454 58.5856 34.2778C58.4654 33.994 58.1714 33.6634 57.9505 33.4542C57.928 33.4328 57.796 33.3364 57.796 33.3364C58.904 33.5699 59.9657 34.0613 60.7646 34.6193C60.656 34.4059 60.3873 34.0468 60.2016 33.8507C61.2603 34.1587 62.4487 34.9263 62.958 36.0268C62.9706 36.0517 63.0028 36.1422 63.0064 36.1524L63.0061 36.1531ZM58.3077 50.8409C58.422 51.0109 58.4526 51.1392 58.4065 51.1926C58.3236 51.2911 58.0487 51.1812 57.6402 51.0179L57.6402 51.0179C57.5949 50.9998 57.5479 50.981 57.4994 50.9618C56.2558 50.49 55.3396 50.4182 53.7177 51.0424L53.5881 51.0929C53.2461 51.2265 53.0016 51.3221 52.8773 51.3033C52.6498 51.2689 52.87 50.8455 53.3671 50.4348C54.3673 49.6234 55.741 49.3715 56.9149 49.8158C57.4287 50.0081 58.0058 50.3919 58.3077 50.8409ZM58.061 52.1349C57.7201 51.8701 57.0922 51.6925 56.4404 51.8051C56.3385 51.8209 56.2425 51.8488 56.1488 51.876C56.1166 51.8854 56.0847 51.8947 56.0529 51.9034C56.0073 51.9148 55.9637 51.9312 55.9213 51.9493C55.6517 52.0648 55.4184 52.1892 55.192 52.4098C54.9323 52.6651 54.8585 52.9021 54.9336 52.9604C54.9979 53.0126 55.1426 52.952 55.3625 52.86L55.3975 52.8454L55.465 52.8174C56.3958 52.4239 57.0545 52.4134 57.682 52.4579L57.7267 52.461C58.0046 52.4802 58.1896 52.493 58.2342 52.4133C58.2674 52.3564 58.2072 52.2483 58.061 52.1349ZM38.0173 56.9903L38.0171 56.9901C37.5084 56.573 36.7875 56.3755 35.9498 56.556H35.95L35.9347 56.5593C35.8365 56.5805 35.8131 56.5856 35.7902 56.5923C35.783 56.5944 35.7758 56.5966 35.7664 56.5996L35.7664 56.5996L35.7663 56.5996C35.7441 56.6067 35.7095 56.6177 35.6323 56.6398C35.5978 56.6496 35.5666 56.6593 35.5396 56.6708C35.5115 56.6841 35.4842 56.6958 35.4577 56.7072C35.419 56.7238 35.3817 56.7397 35.3454 56.7594C35.3407 56.7621 35.3327 56.7662 35.3219 56.7717C35.2146 56.8268 34.8243 57.0271 34.5012 57.4292C34.3285 57.647 34.1958 57.8893 34.099 58.1384C33.924 58.5987 33.8586 59.1032 33.8773 59.5879C33.903 60.2496 34.0762 60.6467 34.1409 60.7953C34.1487 60.813 34.1549 60.8272 34.1591 60.8379C34.3245 61.1993 33.937 61.2736 33.5835 60.8852L33.5827 60.8843C33.2999 60.5799 33.1187 60.1163 33.0301 59.7046V59.7043C32.9778 59.4596 32.9443 59.185 32.9443 58.8895C32.9443 58.5468 32.9895 58.1758 33.1029 57.7916L33.103 57.791L33.1031 57.7907C33.4097 56.7813 34.0987 56.019 35.1457 55.6039C35.2122 55.5773 35.2861 55.5577 35.3554 55.5392C35.3868 55.5309 35.4172 55.5228 35.4455 55.5144L35.4446 55.5147C35.6209 55.4612 36.2524 55.3312 36.8944 55.4327C37.266 55.4913 37.6039 55.6163 37.8951 55.7812C38.1858 55.9459 38.4302 56.1502 38.6159 56.3696L38.6166 56.3706C38.9201 56.7213 39.149 57.2163 39.1083 57.6569L39.1082 57.658C39.093 57.8411 39.0132 58.1037 38.8509 58.1718C38.7905 58.1968 38.73 58.1835 38.6876 58.1412C38.6401 58.094 38.6267 58.0265 38.6087 57.9357C38.5821 57.8018 38.5455 57.6173 38.3749 57.3718C38.2876 57.2459 38.1704 57.114 38.0176 56.9905L38.0173 56.9903ZM37.8384 58.6347C37.7227 58.5415 37.669 58.462 37.637 58.3396C37.5898 58.1165 37.6144 57.9869 37.8019 57.853C37.8426 57.8247 37.881 57.8005 37.9152 57.779C38.0025 57.724 38.0626 57.6862 38.0629 57.6408C38.0694 57.5213 37.5864 57.3982 37.2487 57.7362C36.9684 58.0399 36.8799 58.6731 37.3272 59.1666C37.5155 59.3731 37.7433 59.5201 37.9603 59.66C38.3173 59.8902 38.6451 60.1016 38.7201 60.5288C38.736 60.6262 38.7478 60.7345 38.7395 60.8415C38.741 60.9514 38.7089 61.1043 38.7006 61.1434L38.6988 61.1523C38.5491 61.8159 37.9297 62.449 36.9086 62.2877L36.8642 62.2811C36.7013 62.2565 36.5956 62.2406 36.5622 62.2891C36.4834 62.4006 36.9211 62.9098 37.7223 62.8913C38.5062 62.8744 39.2838 62.2776 39.5331 61.3806L39.5348 61.3742C39.5464 61.3315 39.6099 61.0978 39.6155 60.8868C39.6296 60.718 39.6176 60.5444 39.5867 60.3628C39.4341 59.5025 38.7677 59.1528 38.2658 58.8894C38.0956 58.8001 37.9444 58.7207 37.8384 58.6347ZM64.4765 51.1057C64.5429 50.6737 64.8476 50.3634 65.1574 50.4125C65.4671 50.4617 65.6646 50.8517 65.5983 51.2837C65.532 51.7156 65.2271 52.0259 64.9174 51.9768C64.6076 51.9276 64.4102 51.5376 64.4765 51.1057ZM61.7538 51.6729C61.5835 51.9888 61.7908 52.4375 62.2169 52.6748C62.6429 52.9123 63.1264 52.8487 63.2967 52.5327C63.4669 52.2167 63.2596 51.7681 62.8334 51.5307C62.4073 51.2934 61.924 51.357 61.7538 51.6729Z" fill="#916D53"/>
<path d="M62.5015 48.6207C62.4952 48.193 62.5452 47.4861 62.8429 47.3546C62.8432 47.3545 62.843 47.3545 62.8435 47.3544C63.3521 47.1156 64.0256 48.8785 64.0565 50.4436C63.6546 50.1713 63.1823 50.0557 62.6966 50.1127C62.5744 49.6088 62.5159 49.1341 62.5015 48.6207Z" fill="#5B453E"/>
<path d="M24.32 121L28.288 109.48H29.848L33.816 121H32.592L28.824 110.136H29.288L25.544 121H24.32ZM26.088 118.208V117.104H32.04V118.208H26.088ZM42.1198 121.24C41.2771 121.24 40.5464 121.053 39.9278 120.68C39.3144 120.307 38.8371 119.781 38.4958 119.104C38.1544 118.427 37.9838 117.632 37.9838 116.72C37.9838 115.776 38.1518 114.96 38.4878 114.272C38.8238 113.584 39.2958 113.053 39.9038 112.68C40.5171 112.307 41.2398 112.12 42.0718 112.12C42.9251 112.12 43.6531 112.317 44.2558 112.712C44.8584 113.101 45.3144 113.661 45.6238 114.392C45.9331 115.123 46.0744 115.995 46.0478 117.008H44.8478V116.592C44.8264 115.472 44.5838 114.627 44.1198 114.056C43.6611 113.485 42.9891 113.2 42.1038 113.2C41.1758 113.2 40.4638 113.501 39.9678 114.104C39.4771 114.707 39.2318 115.565 39.2318 116.68C39.2318 117.768 39.4771 118.613 39.9678 119.216C40.4638 119.813 41.1651 120.112 42.0718 120.112C42.6904 120.112 43.2291 119.971 43.6878 119.688C44.1518 119.4 44.5171 118.987 44.7838 118.448L45.8798 118.872C45.5384 119.624 45.0344 120.208 44.3678 120.624C43.7064 121.035 42.9571 121.24 42.1198 121.24ZM38.8158 117.008V116.024H45.4158V117.008H38.8158ZM47.9831 121V109.24H49.1591V121H47.9831ZM55.2135 121.24C54.3708 121.24 53.6402 121.053 53.0215 120.68C52.4082 120.307 51.9308 119.781 51.5895 119.104C51.2482 118.427 51.0775 117.632 51.0775 116.72C51.0775 115.776 51.2455 114.96 51.5815 114.272C51.9175 113.584 52.3895 113.053 52.9975 112.68C53.6108 112.307 54.3335 112.12 55.1655 112.12C56.0188 112.12 56.7468 112.317 57.3495 112.712C57.9522 113.101 58.4082 113.661 58.7175 114.392C59.0268 115.123 59.1682 115.995 59.1415 117.008H57.9415V116.592C57.9202 115.472 57.6775 114.627 57.2135 114.056C56.7548 113.485 56.0828 113.2 55.1975 113.2C54.2695 113.2 53.5575 113.501 53.0615 114.104C52.5708 114.707 52.3255 115.565 52.3255 116.68C52.3255 117.768 52.5708 118.613 53.0615 119.216C53.5575 119.813 54.2588 120.112 55.1655 120.112C55.7842 120.112 56.3228 119.971 56.7815 119.688C57.2455 119.4 57.6108 118.987 57.8775 118.448L58.9735 118.872C58.6322 119.624 58.1282 120.208 57.4615 120.624C56.8002 121.035 56.0508 121.24 55.2135 121.24ZM51.9095 117.008V116.024H58.5095V117.008H51.9095ZM70.9865 121L70.9945 115.328C70.9945 114.661 70.8078 114.139 70.4345 113.76C70.0665 113.376 69.5972 113.184 69.0265 113.184C68.7012 113.184 68.3838 113.259 68.0745 113.408C67.7652 113.557 67.5092 113.797 67.3065 114.128C67.1092 114.459 67.0105 114.891 67.0105 115.424L66.3145 115.224C66.2985 114.605 66.4185 114.064 66.6745 113.6C66.9358 113.136 67.2932 112.776 67.7465 112.52C68.2052 112.259 68.7225 112.128 69.2985 112.128C70.1678 112.128 70.8638 112.397 71.3865 112.936C71.9092 113.469 72.1705 114.192 72.1705 115.104L72.1625 121H70.9865ZM60.6745 121V112.36H61.7305V114.488H61.8585V121H60.6745ZM65.8425 121L65.8505 115.408C65.8505 114.72 65.6665 114.179 65.2985 113.784C64.9358 113.384 64.4558 113.184 63.8585 113.184C63.2612 113.184 62.7785 113.389 62.4105 113.8C62.0425 114.205 61.8585 114.747 61.8585 115.424L61.1545 115.04C61.1545 114.485 61.2852 113.989 61.5465 113.552C61.8078 113.109 62.1652 112.763 62.6185 112.512C63.0718 112.256 63.5865 112.128 64.1625 112.128C64.7118 112.128 65.1998 112.245 65.6265 112.48C66.0585 112.715 66.3972 113.056 66.6425 113.504C66.8878 113.952 67.0105 114.496 67.0105 115.136L67.0025 121H65.8425ZM77.8541 121.24C77.0115 121.24 76.2808 121.053 75.6621 120.68C75.0488 120.307 74.5715 119.781 74.2301 119.104C73.8888 118.427 73.7181 117.632 73.7181 116.72C73.7181 115.776 73.8861 114.96 74.2221 114.272C74.5581 113.584 75.0301 113.053 75.6381 112.68C76.2515 112.307 76.9741 112.12 77.8061 112.12C78.6595 112.12 79.3875 112.317 79.9901 112.712C80.5928 113.101 81.0488 113.661 81.3581 114.392C81.6675 115.123 81.8088 115.995 81.7821 117.008H80.5821V116.592C80.5608 115.472 80.3181 114.627 79.8541 114.056C79.3955 113.485 78.7235 113.2 77.8381 113.2C76.9101 113.2 76.1981 113.501 75.7021 114.104C75.2115 114.707 74.9661 115.565 74.9661 116.68C74.9661 117.768 75.2115 118.613 75.7021 119.216C76.1981 119.813 76.8995 120.112 77.8061 120.112C78.4248 120.112 78.9635 119.971 79.4221 119.688C79.8861 119.4 80.2515 118.987 80.5181 118.448L81.6141 118.872C81.2728 119.624 80.7688 120.208 80.1021 120.624C79.4408 121.035 78.6915 121.24 77.8541 121.24ZM74.5501 117.008V116.024H81.1501V117.008H74.5501ZM89.5631 121V116.592C89.5631 116.112 89.5178 115.672 89.4271 115.272C89.3365 114.867 89.1898 114.515 88.9871 114.216C88.7898 113.912 88.5311 113.677 88.2111 113.512C87.8965 113.347 87.5125 113.264 87.0591 113.264C86.6431 113.264 86.2751 113.336 85.9551 113.48C85.6405 113.624 85.3738 113.832 85.1551 114.104C84.9418 114.371 84.7791 114.696 84.6671 115.08C84.5551 115.464 84.4991 115.901 84.4991 116.392L83.6671 116.208C83.6671 115.323 83.8218 114.579 84.1311 113.976C84.4405 113.373 84.8671 112.917 85.4111 112.608C85.9551 112.299 86.5791 112.144 87.2831 112.144C87.8005 112.144 88.2511 112.224 88.6351 112.384C89.0245 112.544 89.3525 112.76 89.6191 113.032C89.8911 113.304 90.1098 113.616 90.2751 113.968C90.4405 114.315 90.5605 114.685 90.6351 115.08C90.7098 115.469 90.7471 115.859 90.7471 116.248V121H89.5631ZM83.3151 121V112.36H84.3791V114.488H84.4991V121H83.3151ZM97.5271 121C97.0418 121.101 96.5618 121.141 96.0871 121.12C95.6178 121.099 95.1965 120.997 94.8231 120.816C94.4551 120.635 94.1751 120.352 93.9831 119.968C93.8285 119.648 93.7431 119.325 93.7271 119C93.7165 118.669 93.7111 118.293 93.7111 117.872V109.96H94.8791V117.824C94.8791 118.187 94.8818 118.491 94.8871 118.736C94.8978 118.976 94.9538 119.189 95.0551 119.376C95.2471 119.733 95.5511 119.947 95.9671 120.016C96.3885 120.085 96.9085 120.069 97.5271 119.968V121ZM91.8631 113.368V112.36H97.5271V113.368H91.8631ZM102.533 121.216C102.016 121.216 101.563 121.136 101.173 120.976C100.789 120.816 100.461 120.6 100.189 120.328C99.9227 120.056 99.7067 119.747 99.5414 119.4C99.376 119.048 99.256 118.677 99.1814 118.288C99.1067 117.893 99.0694 117.501 99.0694 117.112V112.36H100.253V116.768C100.253 117.243 100.299 117.683 100.389 118.088C100.48 118.493 100.624 118.848 100.821 119.152C101.024 119.451 101.283 119.683 101.597 119.848C101.917 120.013 102.304 120.096 102.757 120.096C103.173 120.096 103.539 120.024 103.853 119.88C104.173 119.736 104.44 119.531 104.653 119.264C104.872 118.992 105.037 118.664 105.149 118.28C105.261 117.891 105.317 117.453 105.317 116.968L106.149 117.152C106.149 118.037 105.995 118.781 105.685 119.384C105.376 119.987 104.949 120.443 104.405 120.752C103.861 121.061 103.237 121.216 102.533 121.216ZM105.437 121V118.872H105.317V112.36H106.493V121H105.437ZM119.033 121L119.041 115.328C119.041 114.661 118.855 114.139 118.481 113.76C118.113 113.376 117.644 113.184 117.073 113.184C116.748 113.184 116.431 113.259 116.121 113.408C115.812 113.557 115.556 113.797 115.353 114.128C115.156 114.459 115.057 114.891 115.057 115.424L114.361 115.224C114.345 114.605 114.465 114.064 114.721 113.6C114.983 113.136 115.34 112.776 115.793 112.52C116.252 112.259 116.769 112.128 117.345 112.128C118.215 112.128 118.911 112.397 119.433 112.936C119.956 113.469 120.217 114.192 120.217 115.104L120.209 121H119.033ZM108.721 121V112.36H109.777V114.488H109.905V121H108.721ZM113.889 121L113.897 115.408C113.897 114.72 113.713 114.179 113.345 113.784C112.983 113.384 112.503 113.184 111.905 113.184C111.308 113.184 110.825 113.389 110.457 113.8C110.089 114.205 109.905 114.747 109.905 115.424L109.201 115.04C109.201 114.485 109.332 113.989 109.593 113.552C109.855 113.109 110.212 112.763 110.665 112.512C111.119 112.256 111.633 112.128 112.209 112.128C112.759 112.128 113.247 112.245 113.673 112.48C114.105 112.715 114.444 113.056 114.689 113.504C114.935 113.952 115.057 114.496 115.057 115.136L115.049 121H113.889ZM122.132 122.672L122.204 122.088C122.417 122.104 122.572 122.061 122.668 121.96C122.764 121.859 122.823 121.723 122.844 121.552C122.865 121.381 122.871 121.197 122.86 121H122.132V119.312H123.5V121.32C123.5 121.811 123.375 122.179 123.124 122.424C122.879 122.669 122.548 122.752 122.132 122.672ZM129.905 110.72V109.4H131.081V110.72H129.905ZM129.905 121V112.36H131.081V121H129.905ZM143.783 121L143.791 115.328C143.791 114.661 143.605 114.139 143.231 113.76C142.863 113.376 142.394 113.184 141.823 113.184C141.498 113.184 141.181 113.259 140.871 113.408C140.562 113.557 140.306 113.797 140.103 114.128C139.906 114.459 139.807 114.891 139.807 115.424L139.111 115.224C139.095 114.605 139.215 114.064 139.471 113.6C139.733 113.136 140.09 112.776 140.543 112.52C141.002 112.259 141.519 112.128 142.095 112.128C142.965 112.128 143.661 112.397 144.183 112.936C144.706 113.469 144.967 114.192 144.967 115.104L144.959 121H143.783ZM133.471 121V112.36H134.527V114.488H134.655V121H133.471ZM138.639 121L138.647 115.408C138.647 114.72 138.463 114.179 138.095 113.784C137.733 113.384 137.253 113.184 136.655 113.184C136.058 113.184 135.575 113.389 135.207 113.8C134.839 114.205 134.655 114.747 134.655 115.424L133.951 115.04C133.951 114.485 134.082 113.989 134.343 113.552C134.605 113.109 134.962 112.763 135.415 112.512C135.869 112.256 136.383 112.128 136.959 112.128C137.509 112.128 137.997 112.245 138.423 112.48C138.855 112.715 139.194 113.056 139.439 113.504C139.685 113.952 139.807 114.496 139.807 115.136L139.799 121H138.639ZM150.922 121.24C150.127 121.24 149.455 121.04 148.906 120.64C148.357 120.235 147.941 119.688 147.658 119C147.375 118.307 147.234 117.531 147.234 116.672C147.234 115.797 147.375 115.019 147.658 114.336C147.946 113.648 148.367 113.107 148.922 112.712C149.477 112.317 150.159 112.12 150.97 112.12C151.759 112.12 152.437 112.32 153.002 112.72C153.567 113.12 153.999 113.664 154.298 114.352C154.602 115.04 154.754 115.813 154.754 116.672C154.754 117.536 154.602 118.312 154.298 119C153.994 119.688 153.557 120.235 152.986 120.64C152.415 121.04 151.727 121.24 150.922 121.24ZM147.034 124.84V112.36H148.09V118.864H148.218V124.84H147.034ZM150.802 120.144C151.405 120.144 151.906 119.992 152.306 119.688C152.706 119.384 153.005 118.971 153.202 118.448C153.405 117.92 153.506 117.328 153.506 116.672C153.506 116.021 153.407 115.435 153.21 114.912C153.013 114.389 152.711 113.976 152.306 113.672C151.906 113.368 151.397 113.216 150.778 113.216C150.175 113.216 149.674 113.363 149.274 113.656C148.879 113.949 148.583 114.357 148.386 114.88C148.189 115.397 148.09 115.995 148.09 116.672C148.09 117.339 148.189 117.936 148.386 118.464C148.583 118.987 148.882 119.397 149.282 119.696C149.682 119.995 150.189 120.144 150.802 120.144ZM160.167 121.24C159.324 121.24 158.593 121.053 157.975 120.68C157.361 120.307 156.884 119.781 156.543 119.104C156.201 118.427 156.031 117.632 156.031 116.72C156.031 115.776 156.199 114.96 156.535 114.272C156.871 113.584 157.343 113.053 157.951 112.68C158.564 112.307 159.287 112.12 160.119 112.12C160.972 112.12 161.7 112.317 162.303 112.712C162.905 113.101 163.361 113.661 163.671 114.392C163.98 115.123 164.121 115.995 164.095 117.008H162.895V116.592C162.873 115.472 162.631 114.627 162.167 114.056C161.708 113.485 161.036 113.2 160.151 113.2C159.223 113.2 158.511 113.501 158.015 114.104C157.524 114.707 157.279 115.565 157.279 116.68C157.279 117.768 157.524 118.613 158.015 119.216C158.511 119.813 159.212 120.112 160.119 120.112C160.737 120.112 161.276 119.971 161.735 119.688C162.199 119.4 162.564 118.987 162.831 118.448L163.927 118.872C163.585 119.624 163.081 120.208 162.415 120.624C161.753 121.035 161.004 121.24 160.167 121.24ZM156.863 117.008V116.024H163.463V117.008H156.863ZM165.87 121V112.36H166.926V114.44L166.718 114.168C166.814 113.912 166.939 113.677 167.094 113.464C167.249 113.245 167.417 113.067 167.598 112.928C167.822 112.731 168.083 112.581 168.382 112.48C168.681 112.373 168.982 112.312 169.286 112.296C169.59 112.275 169.867 112.296 170.118 112.36V113.464C169.803 113.384 169.459 113.365 169.086 113.408C168.713 113.451 168.369 113.6 168.054 113.856C167.766 114.08 167.55 114.349 167.406 114.664C167.262 114.973 167.166 115.304 167.118 115.656C167.07 116.003 167.046 116.347 167.046 116.688V121H165.87ZM174.831 121.24C174.026 121.24 173.338 121.04 172.767 120.64C172.197 120.235 171.759 119.688 171.455 119C171.151 118.312 170.999 117.536 170.999 116.672C170.999 115.813 171.149 115.04 171.447 114.352C171.751 113.664 172.186 113.12 172.751 112.72C173.317 112.32 173.994 112.12 174.783 112.12C175.594 112.12 176.277 112.317 176.831 112.712C177.386 113.107 177.805 113.648 178.087 114.336C178.375 115.019 178.519 115.797 178.519 116.672C178.519 117.531 178.378 118.307 178.095 119C177.813 119.688 177.397 120.235 176.847 120.64C176.298 121.04 175.626 121.24 174.831 121.24ZM174.951 120.144C175.565 120.144 176.071 119.995 176.471 119.696C176.871 119.397 177.17 118.987 177.367 118.464C177.565 117.936 177.663 117.339 177.663 116.672C177.663 115.995 177.565 115.397 177.367 114.88C177.17 114.357 176.871 113.949 176.471 113.656C176.077 113.363 175.578 113.216 174.975 113.216C174.357 113.216 173.845 113.368 173.439 113.672C173.034 113.976 172.733 114.389 172.535 114.912C172.343 115.435 172.247 116.021 172.247 116.672C172.247 117.328 172.346 117.92 172.543 118.448C172.746 118.971 173.047 119.384 173.447 119.688C173.847 119.992 174.349 120.144 174.951 120.144ZM177.663 121V114.496H177.535V109.48H178.719V121H177.663ZM181.124 110.72V109.4H182.3V110.72H181.124ZM181.124 121V112.36H182.3V121H181.124ZM188.354 121.24C187.511 121.24 186.781 121.053 186.162 120.68C185.549 120.307 185.071 119.781 184.73 119.104C184.389 118.427 184.218 117.632 184.218 116.72C184.218 115.776 184.386 114.96 184.722 114.272C185.058 113.584 185.53 113.053 186.138 112.68C186.751 112.307 187.474 112.12 188.306 112.12C189.159 112.12 189.887 112.317 190.49 112.712C191.093 113.101 191.549 113.661 191.858 114.392C192.167 115.123 192.309 115.995 192.282 117.008H191.082V116.592C191.061 115.472 190.818 114.627 190.354 114.056C189.895 113.485 189.223 113.2 188.338 113.2C187.41 113.2 186.698 113.501 186.202 114.104C185.711 114.707 185.466 115.565 185.466 116.68C185.466 117.768 185.711 118.613 186.202 119.216C186.698 119.813 187.399 120.112 188.306 120.112C188.925 120.112 189.463 119.971 189.922 119.688C190.386 119.4 190.751 118.987 191.018 118.448L192.114 118.872C191.773 119.624 191.269 120.208 190.602 120.624C189.941 121.035 189.191 121.24 188.354 121.24ZM185.05 117.008V116.024H191.65V117.008H185.05ZM198.762 121C198.276 121.101 197.796 121.141 197.322 121.12C196.852 121.099 196.431 120.997 196.058 120.816C195.69 120.635 195.41 120.352 195.218 119.968C195.063 119.648 194.978 119.325 194.962 119C194.951 118.669 194.946 118.293 194.946 117.872V109.96H196.114V117.824C196.114 118.187 196.116 118.491 196.122 118.736C196.132 118.976 196.188 119.189 196.29 119.376C196.482 119.733 196.786 119.947 197.202 120.016C197.623 120.085 198.143 120.069 198.762 119.968V121ZM193.098 113.368V112.36H198.762V113.368H193.098ZM207.323 121.24C206.48 121.24 205.75 121.053 205.131 120.68C204.518 120.307 204.04 119.781 203.699 119.104C203.358 118.427 203.187 117.632 203.187 116.72C203.187 115.776 203.355 114.96 203.691 114.272C204.027 113.584 204.499 113.053 205.107 112.68C205.72 112.307 206.443 112.12 207.275 112.12C208.128 112.12 208.856 112.317 209.459 112.712C210.062 113.101 210.518 113.661 210.827 114.392C211.136 115.123 211.278 115.995 211.251 117.008H210.051V116.592C210.03 115.472 209.787 114.627 209.323 114.056C208.864 113.485 208.192 113.2 207.307 113.2C206.379 113.2 205.667 113.501 205.171 114.104C204.68 114.707 204.435 115.565 204.435 116.68C204.435 117.768 204.68 118.613 205.171 119.216C205.667 119.813 206.368 120.112 207.275 120.112C207.894 120.112 208.432 119.971 208.891 119.688C209.355 119.4 209.72 118.987 209.987 118.448L211.083 118.872C210.742 119.624 210.238 120.208 209.571 120.624C208.91 121.035 208.16 121.24 207.323 121.24ZM204.019 117.008V116.024H210.619V117.008H204.019ZM219.032 121V116.592C219.032 116.112 218.987 115.672 218.896 115.272C218.805 114.867 218.659 114.515 218.456 114.216C218.259 113.912 218 113.677 217.68 113.512C217.365 113.347 216.981 113.264 216.528 113.264C216.112 113.264 215.744 113.336 215.424 113.48C215.109 113.624 214.843 113.832 214.624 114.104C214.411 114.371 214.248 114.696 214.136 115.08C214.024 115.464 213.968 115.901 213.968 116.392L213.136 116.208C213.136 115.323 213.291 114.579 213.6 113.976C213.909 113.373 214.336 112.917 214.88 112.608C215.424 112.299 216.048 112.144 216.752 112.144C217.269 112.144 217.72 112.224 218.104 112.384C218.493 112.544 218.821 112.76 219.088 113.032C219.36 113.304 219.579 113.616 219.744 113.968C219.909 114.315 220.029 114.685 220.104 115.08C220.179 115.469 220.216 115.859 220.216 116.248V121H219.032ZM212.784 121V112.36H213.848V114.488H213.968V121H212.784ZM222.452 110.72V109.4H223.628V110.72H222.452ZM222.452 121V112.36H223.628V121H222.452ZM236.33 121L236.338 115.328C236.338 114.661 236.152 114.139 235.778 113.76C235.41 113.376 234.941 113.184 234.37 113.184C234.045 113.184 233.728 113.259 233.418 113.408C233.109 113.557 232.853 113.797 232.65 114.128C232.453 114.459 232.354 114.891 232.354 115.424L231.658 115.224C231.642 114.605 231.762 114.064 232.018 113.6C232.28 113.136 232.637 112.776 233.09 112.52C233.549 112.259 234.066 112.128 234.642 112.128C235.512 112.128 236.208 112.397 236.73 112.936C237.253 113.469 237.514 114.192 237.514 115.104L237.506 121H236.33ZM226.018 121V112.36H227.074V114.488H227.202V121H226.018ZM231.186 121L231.194 115.408C231.194 114.72 231.01 114.179 230.642 113.784C230.28 113.384 229.8 113.184 229.202 113.184C228.605 113.184 228.122 113.389 227.754 113.8C227.386 114.205 227.202 114.747 227.202 115.424L226.498 115.04C226.498 114.485 226.629 113.989 226.89 113.552C227.152 113.109 227.509 112.763 227.962 112.512C228.416 112.256 228.93 112.128 229.506 112.128C230.056 112.128 230.544 112.245 230.97 112.48C231.402 112.715 231.741 113.056 231.986 113.504C232.232 113.952 232.354 114.496 232.354 115.136L232.346 121H231.186ZM239.429 122.672L239.501 122.088C239.714 122.104 239.869 122.061 239.965 121.96C240.061 121.859 240.119 121.723 240.141 121.552C240.162 121.381 240.167 121.197 240.157 121H239.429V119.312H240.797V121.32C240.797 121.811 240.671 122.179 240.421 122.424C240.175 122.669 239.845 122.752 239.429 122.672ZM29 147.24C28.2053 147.24 27.5333 147.04 26.984 146.64C26.4347 146.235 26.0187 145.688 25.736 145C25.4533 144.307 25.312 143.531 25.312 142.672C25.312 141.797 25.4533 141.019 25.736 140.336C26.024 139.648 26.4453 139.107 27 138.712C27.5547 138.317 28.2373 138.12 29.048 138.12C29.8373 138.12 30.5147 138.32 31.08 138.72C31.6453 139.12 32.0773 139.664 32.376 140.352C32.68 141.04 32.832 141.813 32.832 142.672C32.832 143.536 32.68 144.312 32.376 145C32.072 145.688 31.6347 146.235 31.064 146.64C30.4933 147.04 29.8053 147.24 29 147.24ZM25.112 150.84V138.36H26.168V144.864H26.296V150.84H25.112ZM28.88 146.144C29.4827 146.144 29.984 145.992 30.384 145.688C30.784 145.384 31.0827 144.971 31.28 144.448C31.4827 143.92 31.584 143.328 31.584 142.672C31.584 142.021 31.4853 141.435 31.288 140.912C31.0907 140.389 30.7893 139.976 30.384 139.672C29.984 139.368 29.4747 139.216 28.856 139.216C28.2533 139.216 27.752 139.363 27.352 139.656C26.9573 139.949 26.6613 140.357 26.464 140.88C26.2667 141.397 26.168 141.995 26.168 142.672C26.168 143.339 26.2667 143.936 26.464 144.464C26.6613 144.987 26.96 145.397 27.36 145.696C27.76 145.995 28.2667 146.144 28.88 146.144ZM34.5888 147V138.36H35.6448V140.44L35.4368 140.168C35.5328 139.912 35.6581 139.677 35.8128 139.464C35.9674 139.245 36.1354 139.067 36.3168 138.928C36.5408 138.731 36.8021 138.581 37.1008 138.48C37.3994 138.373 37.7008 138.312 38.0048 138.296C38.3088 138.275 38.5861 138.296 38.8368 138.36V139.464C38.5221 139.384 38.1781 139.365 37.8048 139.408C37.4314 139.451 37.0874 139.6 36.7728 139.856C36.4848 140.08 36.2688 140.349 36.1248 140.664C35.9808 140.973 35.8848 141.304 35.8368 141.656C35.7888 142.003 35.7648 142.347 35.7648 142.688V147H34.5888ZM43.8541 147.24C43.0115 147.24 42.2808 147.053 41.6621 146.68C41.0488 146.307 40.5715 145.781 40.2301 145.104C39.8888 144.427 39.7181 143.632 39.7181 142.72C39.7181 141.776 39.8861 140.96 40.2221 140.272C40.5581 139.584 41.0301 139.053 41.6381 138.68C42.2515 138.307 42.9741 138.12 43.8061 138.12C44.6595 138.12 45.3875 138.317 45.9901 138.712C46.5928 139.101 47.0488 139.661 47.3581 140.392C47.6675 141.123 47.8088 141.995 47.7821 143.008H46.5821V142.592C46.5608 141.472 46.3181 140.627 45.8541 140.056C45.3955 139.485 44.7235 139.2 43.8381 139.2C42.9101 139.2 42.1981 139.501 41.7021 140.104C41.2115 140.707 40.9661 141.565 40.9661 142.68C40.9661 143.768 41.2115 144.613 41.7021 145.216C42.1981 145.813 42.8995 146.112 43.8061 146.112C44.4248 146.112 44.9635 145.971 45.4221 145.688C45.8861 145.4 46.2515 144.987 46.5181 144.448L47.6141 144.872C47.2728 145.624 46.7688 146.208 46.1021 146.624C45.4408 147.035 44.6915 147.24 43.8541 147.24ZM40.5501 143.008V142.024H47.1501V143.008H40.5501ZM54.2615 147C53.7762 147.101 53.2962 147.141 52.8215 147.12C52.3522 147.099 51.9308 146.997 51.5575 146.816C51.1895 146.635 50.9095 146.352 50.7175 145.968C50.5628 145.648 50.4775 145.325 50.4615 145C50.4508 144.669 50.4455 144.293 50.4455 143.872V135.96H51.6135V143.824C51.6135 144.187 51.6162 144.491 51.6215 144.736C51.6322 144.976 51.6882 145.189 51.7895 145.376C51.9815 145.733 52.2855 145.947 52.7015 146.016C53.1228 146.085 53.6428 146.069 54.2615 145.968V147ZM48.5975 139.368V138.36H54.2615V139.368H48.5975ZM56.1238 136.72V135.4H57.2998V136.72H56.1238ZM56.1238 147V138.36H57.2998V147H56.1238ZM63.0021 147.216C62.4848 147.216 62.0315 147.136 61.6421 146.976C61.2581 146.816 60.9301 146.6 60.6581 146.328C60.3915 146.056 60.1755 145.747 60.0101 145.4C59.8448 145.048 59.7248 144.677 59.6501 144.288C59.5755 143.893 59.5381 143.501 59.5381 143.112V138.36H60.7221V142.768C60.7221 143.243 60.7675 143.683 60.8581 144.088C60.9488 144.493 61.0928 144.848 61.2901 145.152C61.4928 145.451 61.7515 145.683 62.0661 145.848C62.3861 146.013 62.7728 146.096 63.2261 146.096C63.6421 146.096 64.0075 146.024 64.3221 145.88C64.6421 145.736 64.9088 145.531 65.1221 145.264C65.3408 144.992 65.5061 144.664 65.6181 144.28C65.7301 143.891 65.7861 143.453 65.7861 142.968L66.6181 143.152C66.6181 144.037 66.4635 144.781 66.1541 145.384C65.8448 145.987 65.4181 146.443 64.8741 146.752C64.3301 147.061 63.7061 147.216 63.0021 147.216ZM65.9061 147V144.872H65.7861V138.36H66.9621V147H65.9061ZM79.5021 147L79.5101 141.328C79.5101 140.661 79.3235 140.139 78.9501 139.76C78.5821 139.376 78.1128 139.184 77.5421 139.184C77.2168 139.184 76.8995 139.259 76.5901 139.408C76.2808 139.557 76.0248 139.797 75.8221 140.128C75.6248 140.459 75.5261 140.891 75.5261 141.424L74.8301 141.224C74.8141 140.605 74.9341 140.064 75.1901 139.6C75.4515 139.136 75.8088 138.776 76.2621 138.52C76.7208 138.259 77.2381 138.128 77.8141 138.128C78.6835 138.128 79.3795 138.397 79.9021 138.936C80.4248 139.469 80.6861 140.192 80.6861 141.104L80.6781 147H79.5021ZM69.1901 147V138.36H70.2461V140.488H70.3741V147H69.1901ZM74.3581 147L74.3661 141.408C74.3661 140.72 74.1821 140.179 73.8141 139.784C73.4515 139.384 72.9715 139.184 72.3741 139.184C71.7768 139.184 71.2941 139.389 70.9261 139.8C70.5581 140.205 70.3741 140.747 70.3741 141.424L69.6701 141.04C69.6701 140.485 69.8008 139.989 70.0621 139.552C70.3235 139.109 70.6808 138.763 71.1341 138.512C71.5875 138.256 72.1021 138.128 72.6781 138.128C73.2275 138.128 73.7155 138.245 74.1421 138.48C74.5741 138.715 74.9128 139.056 75.1581 139.504C75.4035 139.952 75.5261 140.496 75.5261 141.136L75.5181 147H74.3581ZM89.6198 147.24C88.7771 147.24 88.0464 147.053 87.4278 146.68C86.8144 146.307 86.3371 145.781 85.9958 145.104C85.6544 144.427 85.4838 143.632 85.4838 142.72C85.4838 141.776 85.6518 140.96 85.9878 140.272C86.3238 139.584 86.7958 139.053 87.4038 138.68C88.0171 138.307 88.7398 138.12 89.5718 138.12C90.4251 138.12 91.1531 138.317 91.7558 138.712C92.3584 139.101 92.8144 139.661 93.1238 140.392C93.4331 141.123 93.5744 141.995 93.5478 143.008H92.3478V142.592C92.3264 141.472 92.0838 140.627 91.6198 140.056C91.1611 139.485 90.4891 139.2 89.6038 139.2C88.6758 139.2 87.9638 139.501 87.4678 140.104C86.9771 140.707 86.7318 141.565 86.7318 142.68C86.7318 143.768 86.9771 144.613 87.4678 145.216C87.9638 145.813 88.6651 146.112 89.5718 146.112C90.1904 146.112 90.7291 145.971 91.1878 145.688C91.6518 145.4 92.0171 144.987 92.2838 144.448L93.3798 144.872C93.0384 145.624 92.5344 146.208 91.8678 146.624C91.2064 147.035 90.4571 147.24 89.6198 147.24ZM86.3158 143.008V142.024H92.9158V143.008H86.3158ZM100.027 147C99.5418 147.101 99.0618 147.141 98.5871 147.12C98.1178 147.099 97.6965 146.997 97.3231 146.816C96.9551 146.635 96.6751 146.352 96.4831 145.968C96.3285 145.648 96.2431 145.325 96.2271 145C96.2165 144.669 96.2111 144.293 96.2111 143.872V135.96H97.3791V143.824C97.3791 144.187 97.3818 144.491 97.3871 144.736C97.3978 144.976 97.4538 145.189 97.5551 145.376C97.7471 145.733 98.0511 145.947 98.4671 146.016C98.8885 146.085 99.4085 146.069 100.027 145.968V147ZM94.3631 139.368V138.36H100.027V139.368H94.3631ZM101.889 136.72V135.4H103.065V136.72H101.889ZM101.889 147V138.36H103.065V147H101.889ZM107.936 147.24C107.285 147.24 106.738 147.123 106.296 146.888C105.858 146.653 105.53 146.341 105.312 145.952C105.093 145.563 104.984 145.139 104.984 144.68C104.984 144.211 105.077 143.811 105.264 143.48C105.456 143.144 105.714 142.869 106.04 142.656C106.37 142.443 106.752 142.28 107.184 142.168C107.621 142.061 108.104 141.968 108.632 141.888C109.165 141.803 109.685 141.731 110.192 141.672C110.704 141.608 111.152 141.547 111.536 141.488L111.12 141.744C111.136 140.891 110.97 140.259 110.624 139.848C110.277 139.437 109.674 139.232 108.816 139.232C108.224 139.232 107.722 139.365 107.312 139.632C106.906 139.899 106.621 140.32 106.456 140.896L105.312 140.56C105.509 139.787 105.906 139.187 106.504 138.76C107.101 138.333 107.877 138.12 108.832 138.12C109.621 138.12 110.29 138.269 110.84 138.568C111.394 138.861 111.786 139.288 112.016 139.848C112.122 140.099 112.192 140.379 112.224 140.688C112.256 140.997 112.272 141.312 112.272 141.632V147H111.224V144.832L111.528 144.96C111.234 145.701 110.778 146.267 110.16 146.656C109.541 147.045 108.8 147.24 107.936 147.24ZM108.072 146.224C108.621 146.224 109.101 146.125 109.512 145.928C109.922 145.731 110.253 145.461 110.504 145.12C110.754 144.773 110.917 144.384 110.992 143.952C111.056 143.675 111.09 143.371 111.096 143.04C111.101 142.704 111.104 142.453 111.104 142.288L111.552 142.52C111.152 142.573 110.717 142.627 110.248 142.68C109.784 142.733 109.325 142.795 108.872 142.864C108.424 142.933 108.018 143.016 107.656 143.112C107.41 143.181 107.173 143.28 106.944 143.408C106.714 143.531 106.525 143.696 106.376 143.904C106.232 144.112 106.16 144.371 106.16 144.68C106.16 144.931 106.221 145.173 106.344 145.408C106.472 145.643 106.674 145.837 106.952 145.992C107.234 146.147 107.608 146.224 108.072 146.224ZM124.658 147L124.666 141.328C124.666 140.661 124.48 140.139 124.106 139.76C123.738 139.376 123.269 139.184 122.698 139.184C122.373 139.184 122.056 139.259 121.746 139.408C121.437 139.557 121.181 139.797 120.978 140.128C120.781 140.459 120.682 140.891 120.682 141.424L119.986 141.224C119.97 140.605 120.09 140.064 120.346 139.6C120.608 139.136 120.965 138.776 121.418 138.52C121.877 138.259 122.394 138.128 122.97 138.128C123.84 138.128 124.536 138.397 125.058 138.936C125.581 139.469 125.842 140.192 125.842 141.104L125.834 147H124.658ZM114.346 147V138.36H115.402V140.488H115.53V147H114.346ZM119.514 147L119.522 141.408C119.522 140.72 119.338 140.179 118.97 139.784C118.608 139.384 118.128 139.184 117.53 139.184C116.933 139.184 116.45 139.389 116.082 139.8C115.714 140.205 115.53 140.747 115.53 141.424L114.826 141.04C114.826 140.485 114.957 139.989 115.218 139.552C115.48 139.109 115.837 138.763 116.29 138.512C116.744 138.256 117.258 138.128 117.834 138.128C118.384 138.128 118.872 138.245 119.298 138.48C119.73 138.715 120.069 139.056 120.314 139.504C120.56 139.952 120.682 140.496 120.682 141.136L120.674 147H119.514ZM131.976 147V137.72C131.976 137.496 131.987 137.275 132.008 137.056C132.035 136.837 132.085 136.629 132.16 136.432C132.235 136.229 132.352 136.043 132.512 135.872C132.688 135.68 132.88 135.541 133.088 135.456C133.296 135.365 133.512 135.307 133.736 135.28C133.965 135.253 134.189 135.24 134.408 135.24H135.512V136.232H134.488C134.04 136.232 133.704 136.341 133.48 136.56C133.261 136.779 133.152 137.123 133.152 137.592V147H131.976ZM130.48 139.368V138.36H135.512V139.368H130.48ZM139.03 147.24C138.379 147.24 137.832 147.123 137.39 146.888C136.952 146.653 136.624 146.341 136.406 145.952C136.187 145.563 136.078 145.139 136.078 144.68C136.078 144.211 136.171 143.811 136.358 143.48C136.55 143.144 136.808 142.869 137.134 142.656C137.464 142.443 137.846 142.28 138.278 142.168C138.715 142.061 139.198 141.968 139.726 141.888C140.259 141.803 140.779 141.731 141.286 141.672C141.798 141.608 142.246 141.547 142.63 141.488L142.214 141.744C142.23 140.891 142.064 140.259 141.718 139.848C141.371 139.437 140.768 139.232 139.91 139.232C139.318 139.232 138.816 139.365 138.406 139.632C138 139.899 137.715 140.32 137.549 140.896L136.406 140.56C136.603 139.787 137 139.187 137.598 138.76C138.195 138.333 138.971 138.12 139.926 138.12C140.715 138.12 141.384 138.269 141.934 138.568C142.488 138.861 142.88 139.288 143.11 139.848C143.216 140.099 143.286 140.379 143.318 140.688C143.35 140.997 143.366 141.312 143.366 141.632V147H142.318V144.832L142.622 144.96C142.328 145.701 141.872 146.267 141.254 146.656C140.635 147.045 139.894 147.24 139.03 147.24ZM139.166 146.224C139.715 146.224 140.195 146.125 140.606 145.928C141.016 145.731 141.347 145.461 141.598 145.12C141.848 144.773 142.011 144.384 142.086 143.952C142.15 143.675 142.184 143.371 142.19 143.04C142.195 142.704 142.198 142.453 142.198 142.288L142.646 142.52C142.246 142.573 141.811 142.627 141.342 142.68C140.878 142.733 140.419 142.795 139.966 142.864C139.518 142.933 139.112 143.016 138.75 143.112C138.504 143.181 138.267 143.28 138.038 143.408C137.808 143.531 137.619 143.696 137.47 143.904C137.326 144.112 137.254 144.371 137.254 144.68C137.254 144.931 137.315 145.173 137.438 145.408C137.566 145.643 137.768 145.837 138.046 145.992C138.328 146.147 138.702 146.224 139.166 146.224ZM149.032 147.24C148.163 147.24 147.427 147.045 146.824 146.656C146.221 146.267 145.763 145.731 145.448 145.048C145.139 144.36 144.979 143.571 144.968 142.68C144.979 141.773 145.144 140.979 145.464 140.296C145.784 139.608 146.245 139.075 146.848 138.696C147.451 138.312 148.181 138.12 149.04 138.12C149.915 138.12 150.675 138.333 151.32 138.76C151.971 139.187 152.416 139.771 152.656 140.512L151.504 140.88C151.301 140.363 150.979 139.963 150.536 139.68C150.099 139.392 149.597 139.248 149.032 139.248C148.397 139.248 147.872 139.395 147.456 139.688C147.04 139.976 146.731 140.379 146.528 140.896C146.325 141.413 146.221 142.008 146.216 142.68C146.227 143.715 146.467 144.547 146.936 145.176C147.405 145.8 148.104 146.112 149.032 146.112C149.619 146.112 150.117 145.979 150.528 145.712C150.944 145.44 151.259 145.045 151.472 144.528L152.656 144.88C152.336 145.648 151.867 146.235 151.248 146.64C150.629 147.04 149.891 147.24 149.032 147.24ZM154.233 136.72V135.4H155.409V136.72H154.233ZM154.233 147V138.36H155.409V147H154.233ZM157.968 147V135.24H159.144V147H157.968ZM161.702 136.72V135.4H162.878V136.72H161.702ZM161.702 147V138.36H162.878V147H161.702ZM168.5 147.232C167.487 147.232 166.652 147.013 165.996 146.576C165.346 146.139 164.946 145.531 164.796 144.752L165.996 144.552C166.124 145.043 166.415 145.435 166.868 145.728C167.327 146.016 167.892 146.16 168.564 146.16C169.22 146.16 169.738 146.024 170.116 145.752C170.495 145.475 170.684 145.099 170.684 144.624C170.684 144.357 170.623 144.141 170.5 143.976C170.383 143.805 170.14 143.648 169.772 143.504C169.404 143.36 168.855 143.189 168.124 142.992C167.34 142.779 166.727 142.565 166.284 142.352C165.842 142.139 165.527 141.893 165.34 141.616C165.154 141.333 165.06 140.989 165.06 140.584C165.06 140.093 165.199 139.664 165.476 139.296C165.754 138.923 166.138 138.635 166.628 138.432C167.119 138.224 167.69 138.12 168.34 138.12C168.991 138.12 169.572 138.227 170.084 138.44C170.602 138.648 171.018 138.941 171.332 139.32C171.647 139.699 171.834 140.139 171.892 140.64L170.692 140.856C170.612 140.349 170.359 139.949 169.932 139.656C169.511 139.357 168.975 139.203 168.324 139.192C167.711 139.176 167.212 139.293 166.828 139.544C166.444 139.789 166.252 140.117 166.252 140.528C166.252 140.757 166.322 140.955 166.46 141.12C166.599 141.28 166.85 141.432 167.212 141.576C167.58 141.72 168.103 141.877 168.78 142.048C169.575 142.251 170.199 142.464 170.652 142.688C171.106 142.912 171.428 143.176 171.62 143.48C171.812 143.784 171.908 144.16 171.908 144.608C171.908 145.424 171.604 146.067 170.996 146.536C170.394 147 169.562 147.232 168.5 147.232ZM173.843 136.72V135.4H175.019V136.72H173.843ZM173.843 147V138.36H175.019V147H173.843ZM180.78 136.72V135.4H181.956V136.72H180.78ZM180.78 147V138.36H181.956V147H180.78ZM190.594 147V142.592C190.594 142.112 190.549 141.672 190.458 141.272C190.368 140.867 190.221 140.515 190.018 140.216C189.821 139.912 189.562 139.677 189.242 139.512C188.928 139.347 188.544 139.264 188.09 139.264C187.674 139.264 187.306 139.336 186.986 139.48C186.672 139.624 186.405 139.832 186.186 140.104C185.973 140.371 185.81 140.696 185.698 141.08C185.586 141.464 185.53 141.901 185.53 142.392L184.698 142.208C184.698 141.323 184.853 140.579 185.162 139.976C185.472 139.373 185.898 138.917 186.442 138.608C186.986 138.299 187.61 138.144 188.314 138.144C188.832 138.144 189.282 138.224 189.666 138.384C190.056 138.544 190.384 138.76 190.65 139.032C190.922 139.304 191.141 139.616 191.306 139.968C191.472 140.315 191.592 140.685 191.666 141.08C191.741 141.469 191.778 141.859 191.778 142.248V147H190.594ZM184.346 147V138.36H185.41V140.488H185.53V147H184.346ZM199.53 147.24C198.879 147.24 198.332 147.123 197.89 146.888C197.452 146.653 197.124 146.341 196.906 145.952C196.687 145.563 196.578 145.139 196.578 144.68C196.578 144.211 196.671 143.811 196.858 143.48C197.05 143.144 197.308 142.869 197.634 142.656C197.964 142.443 198.346 142.28 198.778 142.168C199.215 142.061 199.698 141.968 200.226 141.888C200.759 141.803 201.279 141.731 201.786 141.672C202.298 141.608 202.746 141.547 203.13 141.488L202.714 141.744C202.73 140.891 202.564 140.259 202.218 139.848C201.871 139.437 201.268 139.232 200.41 139.232C199.818 139.232 199.316 139.365 198.906 139.632C198.5 139.899 198.215 140.32 198.049 140.896L196.906 140.56C197.103 139.787 197.5 139.187 198.098 138.76C198.695 138.333 199.471 138.12 200.426 138.12C201.215 138.12 201.884 138.269 202.434 138.568C202.988 138.861 203.38 139.288 203.61 139.848C203.716 140.099 203.786 140.379 203.818 140.688C203.85 140.997 203.866 141.312 203.866 141.632V147H202.818V144.832L203.122 144.96C202.828 145.701 202.372 146.267 201.754 146.656C201.135 147.045 200.394 147.24 199.53 147.24ZM199.666 146.224C200.215 146.224 200.695 146.125 201.106 145.928C201.516 145.731 201.847 145.461 202.098 145.12C202.348 144.773 202.511 144.384 202.586 143.952C202.65 143.675 202.684 143.371 202.69 143.04C202.695 142.704 202.698 142.453 202.698 142.288L203.146 142.52C202.746 142.573 202.311 142.627 201.842 142.68C201.378 142.733 200.919 142.795 200.466 142.864C200.018 142.933 199.612 143.016 199.25 143.112C199.004 143.181 198.767 143.28 198.538 143.408C198.308 143.531 198.119 143.696 197.97 143.904C197.826 144.112 197.754 144.371 197.754 144.68C197.754 144.931 197.815 145.173 197.938 145.408C198.066 145.643 198.268 145.837 198.546 145.992C198.828 146.147 199.202 146.224 199.666 146.224ZM209.604 147.24C208.761 147.24 208.031 147.053 207.412 146.68C206.799 146.307 206.321 145.781 205.98 145.104C205.639 144.427 205.468 143.632 205.468 142.72C205.468 141.776 205.636 140.96 205.972 140.272C206.308 139.584 206.78 139.053 207.388 138.68C208.001 138.307 208.724 138.12 209.556 138.12C210.409 138.12 211.137 138.317 211.74 138.712C212.343 139.101 212.799 139.661 213.108 140.392C213.417 141.123 213.559 141.995 213.532 143.008H212.332V142.592C212.311 141.472 212.068 140.627 211.604 140.056C211.145 139.485 210.473 139.2 209.588 139.2C208.66 139.2 207.948 139.501 207.452 140.104C206.961 140.707 206.716 141.565 206.716 142.68C206.716 143.768 206.961 144.613 207.452 145.216C207.948 145.813 208.649 146.112 209.556 146.112C210.175 146.112 210.713 145.971 211.172 145.688C211.636 145.4 212.001 144.987 212.268 144.448L213.364 144.872C213.023 145.624 212.519 146.208 211.852 146.624C211.191 147.035 210.441 147.24 209.604 147.24ZM206.3 143.008V142.024H212.9V143.008H206.3ZM221.313 147V142.592C221.313 142.112 221.268 141.672 221.177 141.272C221.086 140.867 220.94 140.515 220.737 140.216C220.54 139.912 220.281 139.677 219.961 139.512C219.646 139.347 219.262 139.264 218.809 139.264C218.393 139.264 218.025 139.336 217.705 139.48C217.39 139.624 217.124 139.832 216.905 140.104C216.692 140.371 216.529 140.696 216.417 141.08C216.305 141.464 216.249 141.901 216.249 142.392L215.417 142.208C215.417 141.323 215.572 140.579 215.881 139.976C216.19 139.373 216.617 138.917 217.161 138.608C217.705 138.299 218.329 138.144 219.033 138.144C219.55 138.144 220.001 138.224 220.385 138.384C220.774 138.544 221.102 138.76 221.369 139.032C221.641 139.304 221.86 139.616 222.025 139.968C222.19 140.315 222.31 140.685 222.385 141.08C222.46 141.469 222.497 141.859 222.497 142.248V147H221.313ZM215.065 147V138.36H216.129V140.488H216.249V147H215.065ZM228.182 147.24C227.34 147.24 226.609 147.053 225.99 146.68C225.377 146.307 224.9 145.781 224.558 145.104C224.217 144.427 224.046 143.632 224.046 142.72C224.046 141.776 224.214 140.96 224.55 140.272C224.886 139.584 225.358 139.053 225.966 138.68C226.58 138.307 227.302 138.12 228.134 138.12C228.988 138.12 229.716 138.317 230.318 138.712C230.921 139.101 231.377 139.661 231.686 140.392C231.996 141.123 232.137 141.995 232.11 143.008H230.91V142.592C230.889 141.472 230.646 140.627 230.182 140.056C229.724 139.485 229.052 139.2 228.166 139.2C227.238 139.2 226.526 139.501 226.03 140.104C225.54 140.707 225.294 141.565 225.294 142.68C225.294 143.768 225.54 144.613 226.03 145.216C226.526 145.813 227.228 146.112 228.134 146.112C228.753 146.112 229.292 145.971 229.75 145.688C230.214 145.4 230.58 144.987 230.846 144.448L231.942 144.872C231.601 145.624 231.097 146.208 230.43 146.624C229.769 147.035 229.02 147.24 228.182 147.24ZM224.878 143.008V142.024H231.478V143.008H224.878ZM236.201 147.24C235.551 147.24 235.004 147.123 234.561 146.888C234.124 146.653 233.796 146.341 233.577 145.952C233.359 145.563 233.249 145.139 233.249 144.68C233.249 144.211 233.343 143.811 233.529 143.48C233.721 143.144 233.98 142.869 234.305 142.656C234.636 142.443 235.017 142.28 235.449 142.168C235.887 142.061 236.369 141.968 236.897 141.888C237.431 141.803 237.951 141.731 238.457 141.672C238.969 141.608 239.417 141.547 239.801 141.488L239.385 141.744C239.401 140.891 239.236 140.259 238.889 139.848C238.543 139.437 237.94 139.232 237.081 139.232C236.489 139.232 235.988 139.365 235.577 139.632C235.172 139.899 234.887 140.32 234.721 140.896L233.577 140.56C233.775 139.787 234.172 139.187 234.769 138.76C235.367 138.333 236.143 138.12 237.097 138.12C237.887 138.12 238.556 138.269 239.105 138.568C239.66 138.861 240.052 139.288 240.281 139.848C240.388 140.099 240.457 140.379 240.489 140.688C240.521 140.997 240.537 141.312 240.537 141.632V147H239.489V144.832L239.793 144.96C239.5 145.701 239.044 146.267 238.425 146.656C237.807 147.045 237.065 147.24 236.201 147.24ZM236.337 146.224C236.887 146.224 237.367 146.125 237.777 145.928C238.188 145.731 238.519 145.461 238.769 145.12C239.02 144.773 239.183 144.384 239.257 143.952C239.321 143.675 239.356 143.371 239.361 143.04C239.367 142.704 239.369 142.453 239.369 142.288L239.817 142.52C239.417 142.573 238.983 142.627 238.513 142.68C238.049 142.733 237.591 142.795 237.137 142.864C236.689 142.933 236.284 143.016 235.921 143.112C235.676 143.181 235.439 143.28 235.209 143.408C234.98 143.531 234.791 143.696 234.641 143.904C234.497 144.112 234.425 144.371 234.425 144.68C234.425 144.931 234.487 145.173 234.609 145.408C234.737 145.643 234.94 145.837 235.217 145.992C235.5 146.147 235.873 146.224 236.337 146.224ZM248.86 147V142.592C248.86 142.112 248.815 141.672 248.724 141.272C248.633 140.867 248.487 140.515 248.284 140.216C248.087 139.912 247.828 139.677 247.508 139.512C247.193 139.347 246.809 139.264 246.356 139.264C245.94 139.264 245.572 139.336 245.252 139.48C244.937 139.624 244.671 139.832 244.452 140.104C244.239 140.371 244.076 140.696 243.964 141.08C243.852 141.464 243.796 141.901 243.796 142.392L242.964 142.208C242.964 141.323 243.119 140.579 243.428 139.976C243.737 139.373 244.164 138.917 244.708 138.608C245.252 138.299 245.876 138.144 246.58 138.144C247.097 138.144 247.548 138.224 247.932 138.384C248.321 138.544 248.649 138.76 248.916 139.032C249.188 139.304 249.407 139.616 249.572 139.968C249.737 140.315 249.857 140.685 249.932 141.08C250.007 141.469 250.044 141.859 250.044 142.248V147H248.86ZM242.612 147V138.36H243.676V140.488H243.796V147H242.612ZM28.472 172.24C27.6667 172.24 26.9787 172.04 26.408 171.64C25.8373 171.235 25.4 170.688 25.096 170C24.792 169.312 24.64 168.536 24.64 167.672C24.64 166.813 24.7893 166.04 25.088 165.352C25.392 164.664 25.8267 164.12 26.392 163.72C26.9573 163.32 27.6347 163.12 28.424 163.12C29.2347 163.12 29.9173 163.317 30.472 163.712C31.0267 164.107 31.4453 164.648 31.728 165.336C32.016 166.019 32.16 166.797 32.16 167.672C32.16 168.531 32.0187 169.307 31.736 170C31.4533 170.688 31.0373 171.235 30.488 171.64C29.9387 172.04 29.2667 172.24 28.472 172.24ZM28.592 171.144C29.2053 171.144 29.712 170.995 30.112 170.696C30.512 170.397 30.8107 169.987 31.008 169.464C31.2053 168.936 31.304 168.339 31.304 167.672C31.304 166.995 31.2053 166.397 31.008 165.88C30.8107 165.357 30.512 164.949 30.112 164.656C29.7173 164.363 29.2187 164.216 28.616 164.216C27.9973 164.216 27.4853 164.368 27.08 164.672C26.6747 164.976 26.3733 165.389 26.176 165.912C25.984 166.435 25.888 167.021 25.888 167.672C25.888 168.328 25.9867 168.92 26.184 169.448C26.3867 169.971 26.688 170.384 27.088 170.688C27.488 170.992 27.9893 171.144 28.592 171.144ZM31.176 175.84V169.864H31.304V163.36H32.36V175.84H31.176ZM37.9084 172.216C37.391 172.216 36.9377 172.136 36.5484 171.976C36.1644 171.816 35.8364 171.6 35.5644 171.328C35.2977 171.056 35.0817 170.747 34.9164 170.4C34.751 170.048 34.631 169.677 34.5564 169.288C34.4817 168.893 34.4444 168.501 34.4444 168.112V163.36H35.6284V167.768C35.6284 168.243 35.6737 168.683 35.7644 169.088C35.855 169.493 35.999 169.848 36.1964 170.152C36.399 170.451 36.6577 170.683 36.9724 170.848C37.2924 171.013 37.679 171.096 38.1324 171.096C38.5484 171.096 38.9137 171.024 39.2284 170.88C39.5484 170.736 39.815 170.531 40.0284 170.264C40.247 169.992 40.4124 169.664 40.5244 169.28C40.6364 168.891 40.6924 168.453 40.6924 167.968L41.5244 168.152C41.5244 169.037 41.3697 169.781 41.0604 170.384C40.751 170.987 40.3244 171.443 39.7804 171.752C39.2364 172.061 38.6124 172.216 37.9084 172.216ZM40.8124 172V169.872H40.6924V163.36H41.8684V172H40.8124ZM46.5764 172.24C45.9257 172.24 45.379 172.123 44.9364 171.888C44.499 171.653 44.171 171.341 43.9524 170.952C43.7337 170.563 43.6244 170.139 43.6244 169.68C43.6244 169.211 43.7177 168.811 43.9044 168.48C44.0964 168.144 44.355 167.869 44.6804 167.656C45.011 167.443 45.3924 167.28 45.8244 167.168C46.2617 167.061 46.7444 166.968 47.2724 166.888C47.8057 166.803 48.3257 166.731 48.8324 166.672C49.3444 166.608 49.7924 166.547 50.1764 166.488L49.7604 166.744C49.7764 165.891 49.611 165.259 49.2644 164.848C48.9177 164.437 48.315 164.232 47.4564 164.232C46.8644 164.232 46.363 164.365 45.9524 164.632C45.547 164.899 45.2617 165.32 45.0964 165.896L43.9524 165.56C44.1497 164.787 44.547 164.187 45.1444 163.76C45.7417 163.333 46.5177 163.12 47.4724 163.12C48.2617 163.12 48.931 163.269 49.4804 163.568C50.035 163.861 50.427 164.288 50.6564 164.848C50.763 165.099 50.8324 165.379 50.8644 165.688C50.8964 165.997 50.9124 166.312 50.9124 166.632V172H49.8644V169.832L50.1684 169.96C49.875 170.701 49.419 171.267 48.8004 171.656C48.1817 172.045 47.4404 172.24 46.5764 172.24ZM46.7124 171.224C47.2617 171.224 47.7417 171.125 48.1524 170.928C48.563 170.731 48.8937 170.461 49.1444 170.12C49.395 169.773 49.5577 169.384 49.6324 168.952C49.6964 168.675 49.731 168.371 49.7364 168.04C49.7417 167.704 49.7444 167.453 49.7444 167.288L50.1924 167.52C49.7924 167.573 49.3577 167.627 48.8884 167.68C48.4244 167.733 47.9657 167.795 47.5124 167.864C47.0644 167.933 46.659 168.016 46.2964 168.112C46.051 168.181 45.8137 168.28 45.5844 168.408C45.355 168.531 45.1657 168.696 45.0164 168.904C44.8724 169.112 44.8004 169.371 44.8004 169.68C44.8004 169.931 44.8617 170.173 44.9844 170.408C45.1124 170.643 45.315 170.837 45.5924 170.992C45.875 171.147 46.2484 171.224 46.7124 171.224ZM63.299 172L63.307 166.328C63.307 165.661 63.1203 165.139 62.747 164.76C62.379 164.376 61.9097 164.184 61.339 164.184C61.0137 164.184 60.6963 164.259 60.387 164.408C60.0777 164.557 59.8217 164.797 59.619 165.128C59.4217 165.459 59.323 165.891 59.323 166.424L58.627 166.224C58.611 165.605 58.731 165.064 58.987 164.6C59.2483 164.136 59.6057 163.776 60.059 163.52C60.5177 163.259 61.035 163.128 61.611 163.128C62.4803 163.128 63.1763 163.397 63.699 163.936C64.2217 164.469 64.483 165.192 64.483 166.104L64.475 172H63.299ZM52.987 172V163.36H54.043V165.488H54.171V172H52.987ZM58.155 172L58.163 166.408C58.163 165.72 57.979 165.179 57.611 164.784C57.2483 164.384 56.7683 164.184 56.171 164.184C55.5737 164.184 55.091 164.389 54.723 164.8C54.355 165.205 54.171 165.747 54.171 166.424L53.467 166.04C53.467 165.485 53.5977 164.989 53.859 164.552C54.1203 164.109 54.4777 163.763 54.931 163.512C55.3843 163.256 55.899 163.128 56.475 163.128C57.0243 163.128 57.5123 163.245 57.939 163.48C58.371 163.715 58.7097 164.056 58.955 164.504C59.2003 164.952 59.323 165.496 59.323 166.136L59.315 172H58.155ZM80.0646 172L80.0726 166.328C80.0726 165.661 79.886 165.139 79.5126 164.76C79.1446 164.376 78.6753 164.184 78.1046 164.184C77.7793 164.184 77.462 164.259 77.1526 164.408C76.8433 164.557 76.5873 164.797 76.3846 165.128C76.1873 165.459 76.0886 165.891 76.0886 166.424L75.3926 166.224C75.3766 165.605 75.4966 165.064 75.7526 164.6C76.014 164.136 76.3713 163.776 76.8246 163.52C77.2833 163.259 77.8006 163.128 78.3766 163.128C79.246 163.128 79.942 163.397 80.4646 163.936C80.9873 164.469 81.2486 165.192 81.2486 166.104L81.2406 172H80.0646ZM69.7526 172V163.36H70.8086V165.488H70.9366V172H69.7526ZM74.9206 172L74.9286 166.408C74.9286 165.72 74.7446 165.179 74.3766 164.784C74.014 164.384 73.534 164.184 72.9366 164.184C72.3393 164.184 71.8566 164.389 71.4886 164.8C71.1206 165.205 70.9366 165.747 70.9366 166.424L70.2326 166.04C70.2326 165.485 70.3633 164.989 70.6246 164.552C70.886 164.109 71.2433 163.763 71.6966 163.512C72.15 163.256 72.6646 163.128 73.2406 163.128C73.79 163.128 74.278 163.245 74.7046 163.48C75.1366 163.715 75.4753 164.056 75.7206 164.504C75.966 164.952 76.0886 165.496 76.0886 166.136L76.0806 172H74.9206ZM85.7951 172.24C85.1445 172.24 84.5978 172.123 84.1551 171.888C83.7178 171.653 83.3898 171.341 83.1711 170.952C82.9525 170.563 82.8431 170.139 82.8431 169.68C82.8431 169.211 82.9365 168.811 83.1231 168.48C83.3151 168.144 83.5738 167.869 83.8991 167.656C84.2298 167.443 84.6111 167.28 85.0431 167.168C85.4805 167.061 85.9631 166.968 86.4911 166.888C87.0245 166.803 87.5445 166.731 88.0511 166.672C88.5631 166.608 89.0111 166.547 89.3951 166.488L88.9791 166.744C88.9951 165.891 88.8298 165.259 88.4831 164.848C88.1365 164.437 87.5338 164.232 86.6751 164.232C86.0831 164.232 85.5818 164.365 85.1711 164.632C84.7658 164.899 84.4805 165.32 84.3151 165.896L83.1711 165.56C83.3685 164.787 83.7658 164.187 84.3631 163.76C84.9605 163.333 85.7365 163.12 86.6911 163.12C87.4805 163.12 88.1498 163.269 88.6991 163.568C89.2538 163.861 89.6458 164.288 89.8751 164.848C89.9818 165.099 90.0511 165.379 90.0831 165.688C90.1151 165.997 90.1311 166.312 90.1311 166.632V172H89.0831V169.832L89.3871 169.96C89.0938 170.701 88.6378 171.267 88.0191 171.656C87.4005 172.045 86.6591 172.24 85.7951 172.24ZM85.9311 171.224C86.4805 171.224 86.9605 171.125 87.3711 170.928C87.7818 170.731 88.1125 170.461 88.3631 170.12C88.6138 169.773 88.7765 169.384 88.8511 168.952C88.9151 168.675 88.9498 168.371 88.9551 168.04C88.9605 167.704 88.9631 167.453 88.9631 167.288L89.4111 167.52C89.0111 167.573 88.5765 167.627 88.1071 167.68C87.6431 167.733 87.1845 167.795 86.7311 167.864C86.2831 167.933 85.8778 168.016 85.5151 168.112C85.2698 168.181 85.0325 168.28 84.8031 168.408C84.5738 168.531 84.3845 168.696 84.2351 168.904C84.0911 169.112 84.0191 169.371 84.0191 169.68C84.0191 169.931 84.0805 170.173 84.2031 170.408C84.3311 170.643 84.5338 170.837 84.8111 170.992C85.0938 171.147 85.4671 171.224 85.9311 171.224ZM95.5178 172.216C95.0004 172.216 94.5471 172.136 94.1578 171.976C93.7738 171.816 93.4458 171.6 93.1738 171.328C92.9071 171.056 92.6911 170.747 92.5258 170.4C92.3604 170.048 92.2404 169.677 92.1658 169.288C92.0911 168.893 92.0538 168.501 92.0538 168.112V163.36H93.2378V167.768C93.2378 168.243 93.2831 168.683 93.3738 169.088C93.4644 169.493 93.6084 169.848 93.8058 170.152C94.0084 170.451 94.2671 170.683 94.5818 170.848C94.9018 171.013 95.2884 171.096 95.7418 171.096C96.1578 171.096 96.5231 171.024 96.8378 170.88C97.1578 170.736 97.4244 170.531 97.6378 170.264C97.8564 169.992 98.0218 169.664 98.1338 169.28C98.2458 168.891 98.3018 168.453 98.3018 167.968L99.1337 168.152C99.1337 169.037 98.9791 169.781 98.6698 170.384C98.3604 170.987 97.9338 171.443 97.3898 171.752C96.8458 172.061 96.2218 172.216 95.5178 172.216ZM98.4218 172V169.872H98.3018V163.36H99.4778V172H98.4218ZM101.714 172V163.36H102.77V165.44L102.562 165.168C102.658 164.912 102.783 164.677 102.938 164.464C103.092 164.245 103.26 164.067 103.442 163.928C103.666 163.731 103.927 163.581 104.226 163.48C104.524 163.373 104.826 163.312 105.13 163.296C105.434 163.275 105.711 163.296 105.962 163.36V164.464C105.647 164.384 105.303 164.365 104.93 164.408C104.556 164.451 104.212 164.6 103.898 164.856C103.61 165.08 103.394 165.349 103.25 165.664C103.106 165.973 103.01 166.304 102.962 166.656C102.914 167.003 102.89 167.347 102.89 167.688V172H101.714ZM107.639 161.72V160.4H108.815V161.72H107.639ZM107.639 172V163.36H108.815V172H107.639ZM114.438 172.232C113.424 172.232 112.59 172.013 111.934 171.576C111.283 171.139 110.883 170.531 110.734 169.752L111.934 169.552C112.062 170.043 112.352 170.435 112.806 170.728C113.264 171.016 113.83 171.16 114.502 171.16C115.158 171.16 115.675 171.024 116.054 170.752C116.432 170.475 116.622 170.099 116.622 169.624C116.622 169.357 116.56 169.141 116.438 168.976C116.32 168.805 116.078 168.648 115.71 168.504C115.342 168.36 114.792 168.189 114.062 167.992C113.278 167.779 112.664 167.565 112.222 167.352C111.779 167.139 111.464 166.893 111.278 166.616C111.091 166.333 110.998 165.989 110.998 165.584C110.998 165.093 111.136 164.664 111.414 164.296C111.691 163.923 112.075 163.635 112.566 163.432C113.056 163.224 113.627 163.12 114.278 163.12C114.928 163.12 115.51 163.227 116.022 163.44C116.539 163.648 116.955 163.941 117.27 164.32C117.584 164.699 117.771 165.139 117.83 165.64L116.63 165.856C116.55 165.349 116.296 164.949 115.87 164.656C115.448 164.357 114.912 164.203 114.262 164.192C113.648 164.176 113.15 164.293 112.766 164.544C112.382 164.789 112.19 165.117 112.19 165.528C112.19 165.757 112.259 165.955 112.398 166.12C112.536 166.28 112.787 166.432 113.15 166.576C113.518 166.72 114.04 166.877 114.718 167.048C115.512 167.251 116.136 167.464 116.59 167.688C117.043 167.912 117.366 168.176 117.558 168.48C117.75 168.784 117.846 169.16 117.846 169.608C117.846 170.424 117.542 171.067 116.934 171.536C116.331 172 115.499 172.232 114.438 172.232ZM119.844 172V170.632H121.212V172H119.844Z" fill="#565973"/>
</svg>
