<svg width="20" height="20" viewBox="0 0 20 20" fill="none" xmlns="http://www.w3.org/2000/svg">
<path d="M16.667 3.33325H3.33366C2.41449 3.33325 1.66699 4.08075 1.66699 4.99992V14.9999C1.66699 15.9191 2.41449 16.6666 3.33366 16.6666H16.667C17.5862 16.6666 18.3337 15.9191 18.3337 14.9999V4.99992C18.3337 4.08075 17.5862 3.33325 16.667 3.33325ZM16.667 4.99992V5.42575L10.0003 10.6116L3.33366 5.42659V4.99992H16.667ZM3.33366 14.9999V7.53658L9.48866 12.3241C9.63866 12.4416 9.81949 12.4999 10.0003 12.4999C10.1812 12.4999 10.362 12.4416 10.512 12.3241L16.667 7.53658L16.6687 14.9999H3.33366Z" fill="#B4B7C9"/>
</svg>
