<svg width="14" height="14" viewBox="0 0 14 14" fill="none" xmlns="http://www.w3.org/2000/svg">
<path d="M12.8024 5.35438C12.7272 5.13388 12.5283 4.97813 12.2961 4.96004L8.97053 4.69579L7.53145 1.51021C7.43753 1.30079 7.22928 1.16663 7.00003 1.16663C6.77078 1.16663 6.56253 1.30079 6.46861 1.50963L5.02953 4.69579L1.70395 4.96004C1.47586 4.97813 1.27928 5.12804 1.2017 5.34329C1.12411 5.55854 1.17895 5.79946 1.34286 5.95929L3.80045 8.35504L2.93128 12.1187C2.87761 12.3515 2.97153 12.5935 3.16811 12.7295C3.26845 12.7983 3.38395 12.8333 3.50003 12.8333C3.61261 12.8333 3.72578 12.8006 3.82378 12.7353L7.00003 10.6178L10.1763 12.7353C10.3793 12.8706 10.6459 12.8654 10.8442 12.7213C11.0414 12.5772 11.1283 12.3246 11.0612 12.0901L9.99428 8.35679L12.6403 5.97563C12.8135 5.81929 12.8771 5.57546 12.8024 5.35438Z" fill="#FFBA08"/>
</svg>
